<svg width="90" height="91" viewBox="0 0 90 91" fill="none" xmlns="http://www.w3.org/2000/svg">
<path d="M66.8747 32.5423C66.8747 20.4658 57.0847 10.6758 45.0081 10.6758C32.9316 10.6758 23.1416 20.4658 23.1416 32.5423V58.8092C23.1416 70.8858 32.9316 80.6758 45.0081 80.6758C57.0847 80.6758 66.8747 70.8858 66.8747 58.8092V32.5423Z" stroke="#C99D4A" stroke-miterlimit="10"/>
<path d="M45.0077 79.3233C39.5526 79.3233 34.4089 77.1827 30.5216 73.2968C26.6357 69.4109 24.4951 64.2659 24.4951 58.8107V32.5438C24.4951 27.0887 26.6357 21.945 30.5216 18.0577C34.4075 14.1719 39.5526 12.0312 45.0077 12.0312C50.4628 12.0312 55.6065 14.1719 59.4938 18.0577C63.3796 21.9436 65.5203 27.0887 65.5203 32.5438V58.8107C65.5203 64.2659 63.3796 69.4096 59.4938 73.2968C55.6079 77.1827 50.4628 79.3233 45.0077 79.3233Z" stroke="#C99D4A" stroke-miterlimit="10"/>
<path d="M45.0077 79.3233C39.5526 79.3233 34.4089 77.1827 30.5216 73.2968C26.6357 69.4109 24.4951 64.2659 24.4951 58.8107V32.5438C24.4951 27.0887 26.6357 21.945 30.5216 18.0577C34.4075 14.1719 39.5526 12.0312 45.0077 12.0312C50.4628 12.0312 55.6065 14.1719 59.4938 18.0577C63.3796 21.9436 65.5203 27.0887 65.5203 32.5438V58.8107C65.5203 64.2659 63.3796 69.4096 59.4938 73.2968C55.6079 77.1827 50.4628 79.3233 45.0077 79.3233Z" stroke="#C99D4A" stroke-miterlimit="10"/>
<path d="M45.0072 77.9669C39.9136 77.9669 35.1098 75.9672 31.4784 72.3372C27.8471 68.7072 25.8486 63.902 25.8486 58.8083V32.5414C25.8486 27.4478 27.8484 22.6439 31.4784 19.0126C35.1084 15.3813 39.9136 13.3828 45.0072 13.3828C50.1009 13.3828 54.9047 15.3826 58.5361 19.0126C62.1674 22.6426 64.1658 27.4478 64.1658 32.5414V58.8083C64.1658 63.902 62.166 68.7058 58.5361 72.3372C54.9061 75.9685 50.1009 77.9669 45.0072 77.9669Z" stroke="#C99D4A" stroke-miterlimit="10"/>
</svg>
