<svg width="90" height="91" viewBox="0 0 90 91" fill="none" xmlns="http://www.w3.org/2000/svg">
<path d="M45.0081 10.6758C32.9822 10.6758 23.1416 20.515 23.1416 32.5423V58.8092C23.1416 70.8365 32.9809 80.6758 45.0081 80.6758C57.0341 80.6758 66.8747 70.8365 66.8747 58.8092V32.5423C66.8747 20.5164 57.0354 10.6758 45.0081 10.6758ZM61.4588 58.8092C61.4588 63.1798 59.7406 67.304 56.6225 70.4236C53.5029 73.5431 49.3787 75.2599 45.0081 75.2599C40.6375 75.2599 36.5134 73.5417 33.3938 70.4236C30.2743 67.304 28.5575 63.1798 28.5575 58.8092V32.5423C28.5575 28.1717 30.2756 24.0476 33.3938 20.928C36.5134 17.8085 40.6375 16.0916 45.0081 16.0916C49.3787 16.0916 53.5029 17.8099 56.6225 20.928C59.742 24.0476 61.4588 28.1717 61.4588 32.5423V58.8092Z" fill="#E19729"/>
</svg>
