<svg width="90" height="91" viewBox="0 0 90 91" fill="none" xmlns="http://www.w3.org/2000/svg">
<path d="M66.8747 32.5423C66.8747 20.4658 57.0847 10.6758 45.0081 10.6758C32.9316 10.6758 23.1416 20.4658 23.1416 32.5423V58.8092C23.1416 70.8858 32.9316 80.6758 45.0081 80.6758C57.0847 80.6758 66.8747 70.8858 66.8747 58.8092V32.5423Z" stroke="#CDB491" stroke-width="0.5" stroke-miterlimit="10"/>
<path d="M45.0077 79.3233C39.5526 79.3233 34.4089 77.1827 30.5216 73.2968C26.6357 69.4109 24.4951 64.2659 24.4951 58.8107V32.5438C24.4951 27.0887 26.6357 21.945 30.5216 18.0577C34.4075 14.1719 39.5526 12.0312 45.0077 12.0312C50.4628 12.0312 55.6065 14.1719 59.4938 18.0577C63.3796 21.9436 65.5203 27.0887 65.5203 32.5438V58.8107C65.5203 64.2659 63.3796 69.4096 59.4938 73.2968C55.6079 77.1827 50.4628 79.3233 45.0077 79.3233Z" stroke="#CDB491" stroke-width="0.5" stroke-miterlimit="10"/>
<path d="M45.0077 79.3233C39.5526 79.3233 34.4089 77.1827 30.5216 73.2968C26.6357 69.4109 24.4951 64.2659 24.4951 58.8107V32.5438C24.4951 27.0887 26.6357 21.945 30.5216 18.0577C34.4075 14.1719 39.5526 12.0312 45.0077 12.0312C50.4628 12.0312 55.6065 14.1719 59.4938 18.0577C63.3796 21.9436 65.5203 27.0887 65.5203 32.5438V58.8107C65.5203 64.2659 63.3796 69.4096 59.4938 73.2968C55.6079 77.1827 50.4628 79.3233 45.0077 79.3233Z" stroke="#CDB491" stroke-width="0.5" stroke-miterlimit="10"/>
<path d="M45.0072 77.9669C39.9136 77.9669 35.1098 75.9672 31.4784 72.3372C27.8471 68.7072 25.8486 63.902 25.8486 58.8083V32.5414C25.8486 27.4478 27.8485 22.6439 31.4784 19.0126C35.1084 15.3813 39.9136 13.3828 45.0072 13.3828C50.1009 13.3828 54.9047 15.3826 58.5361 19.0126C62.1674 22.6426 64.1658 27.4478 64.1658 32.5414V58.8083C64.1658 63.902 62.166 68.7058 58.5361 72.3372C54.9061 75.9685 50.1009 77.9669 45.0072 77.9669Z" stroke="#CDB491" stroke-width="0.5" stroke-miterlimit="10"/>
<path d="M45.0087 76.6145C40.2766 76.6145 35.8126 74.7555 32.4372 71.3814C29.0617 68.006 27.2041 63.542 27.2041 58.8099V32.5429C27.2041 27.8108 29.0631 23.3468 32.4372 19.9714C35.8126 16.5959 40.2766 14.7383 45.0087 14.7383C49.7409 14.7383 54.2049 16.5973 57.5803 19.9714C60.9557 23.3468 62.8134 27.8108 62.8134 32.5429V58.8099C62.8134 63.542 60.9544 68.006 57.5803 71.3814C54.2049 74.7569 49.7409 76.6145 45.0087 76.6145Z" stroke="#CDB491" stroke-width="0.5" stroke-miterlimit="10"/>
<path d="M45.0083 75.2581C40.6377 75.2581 36.5135 73.5399 33.3953 70.4204C30.2758 67.3009 28.5576 63.1767 28.5576 58.8074V32.5405C28.5576 28.1699 30.2758 24.0457 33.3953 20.9276C36.5149 17.808 40.639 16.0898 45.0083 16.0898C49.3775 16.0898 53.5031 17.808 56.6213 20.9276C59.7408 24.0471 61.459 28.1713 61.459 32.5405V58.8074C61.459 63.178 59.7408 67.3022 56.6213 70.4204C53.5017 73.5399 49.3775 75.2581 45.0083 75.2581Z" stroke="#CDB491" stroke-width="0.5" stroke-miterlimit="10"/>
<path d="M45.0078 73.9057C41.0001 73.9057 37.2158 72.3283 34.3521 69.4647C31.4885 66.601 29.9111 62.8167 29.9111 58.809V32.542C29.9111 28.5343 31.4885 24.75 34.3521 21.8863C37.2158 19.0227 41.0001 17.4453 45.0078 17.4453C49.0156 17.4453 52.7999 19.0227 55.6636 21.8863C58.5272 24.75 60.1046 28.5343 60.1046 32.542V58.809C60.1046 62.8167 58.5272 66.601 55.6636 69.4647C52.7999 72.3283 49.0156 73.9057 45.0078 73.9057Z" stroke="#CDB491" stroke-width="0.5" stroke-miterlimit="10"/>
<path d="M45.0074 72.5532C41.3612 72.5532 37.9167 71.1167 35.3089 68.5089C32.7012 65.9012 31.2646 62.4567 31.2646 58.8105V32.5435C31.2646 28.8973 32.7012 25.4528 35.3089 22.8451C37.9167 20.2374 41.3612 18.8008 45.0074 18.8008C48.6536 18.8008 52.0981 20.2374 54.7058 22.8451C57.3136 25.4528 58.7501 28.8973 58.7501 32.5435V58.8105C58.7501 62.4567 57.3136 65.9012 54.7058 68.5089C52.0981 71.1167 48.6536 72.5532 45.0074 72.5532Z" stroke="#CDB491" stroke-width="0.5" stroke-miterlimit="10"/>
<path d="M45.0089 71.1968C41.7242 71.1968 38.6195 69.9011 36.2677 67.5493C33.9159 65.1974 32.6201 62.0928 32.6201 58.808V32.5411C32.6201 29.2564 33.9159 26.1518 36.2677 23.8C38.6195 21.4481 41.7242 20.1523 45.0089 20.1523C48.2936 20.1523 51.3983 21.4481 53.7501 23.8C56.1019 26.1518 57.3977 29.2564 57.3977 32.5411V58.808C57.3977 62.0928 56.1019 65.1974 53.7501 67.5493C51.3983 69.9011 48.2936 71.1968 45.0089 71.1968Z" stroke="#CDB491" stroke-width="0.5" stroke-miterlimit="10"/>
<path d="M45.0084 69.8444C42.0852 69.8444 39.3204 68.6894 37.2245 66.5935C35.1286 64.4976 33.9736 61.7328 33.9736 58.8096V32.5426C33.9736 29.6194 35.1286 26.8546 37.2245 24.7587C39.3204 22.6627 42.0852 21.5078 45.0084 21.5078C47.9317 21.5078 50.6965 22.6627 52.7924 24.7587C54.8883 26.8546 56.0433 29.6194 56.0433 32.5426V58.8096C56.0433 61.7328 54.8883 64.4976 52.7924 66.5935C50.6965 68.6894 47.9317 69.8444 45.0084 69.8444Z" stroke="#CDB491" stroke-width="0.5" stroke-miterlimit="10"/>
<path d="M45.008 68.4919C42.4463 68.4919 40.0227 67.4778 38.1813 65.6378C36.3413 63.7977 35.3271 61.3728 35.3271 58.8111V32.5441C35.3271 29.9824 36.3413 27.5588 38.1813 25.7175C40.0214 23.8774 42.4463 22.8633 45.008 22.8633C47.5697 22.8633 49.9933 23.8774 51.8347 25.7175C53.6747 27.5575 54.6888 29.9824 54.6888 32.5441V58.8111C54.6888 61.3728 53.6747 63.7964 51.8347 65.6378C49.9947 67.4778 47.5697 68.4919 45.008 68.4919Z" stroke="#CDB491" stroke-width="0.5" stroke-miterlimit="10"/>
</svg>
