<svg width="28" height="70" viewBox="0 0 28 70" fill="none" xmlns="http://www.w3.org/2000/svg">
<path d="M27.1236 1.64152C27.0341 1.37564 26.5508 1.44899 26.5508 1.71487C26.6403 5.72144 25.8885 10.9291 24.8235 15.4216C24.0001 18.8964 22.774 22.1511 19.0778 23.1413C18.156 23.3889 17.2253 23.4806 16.3035 23.5906C15.9007 17.2002 15.677 10.6632 15.0595 4.26367C14.961 2.96177 14.8357 1.66903 14.6388 0.394623C14.5046 0.147078 14.2361 -0.00878476 13.9944 0.000383601C13.7528 0.000383601 13.4843 0.14708 13.3769 0.403794C13.1532 1.6782 13.0279 2.97094 12.9294 4.27284C12.3119 10.6724 12.0882 17.2094 11.6854 23.5997C10.7547 23.4897 9.82391 23.398 8.91105 23.1505C5.21486 22.1695 3.98876 18.9147 3.16539 15.4307C2.10039 10.9382 1.33968 5.73061 1.43812 1.72404C1.43812 1.45816 0.963791 1.38481 0.865345 1.65069C-0.879832 6.63828 0.310456 16.9435 1.83189 20.3083C3.69342 24.4249 7.63126 26.607 11.8555 26.5245V43H16.1424V26.5245C20.3666 26.607 24.2955 24.4249 26.1659 20.3083C27.6963 16.9435 28.8777 6.63828 27.1325 1.65069L27.1236 1.64152Z" fill="#A5A19C"/>
<path d="M18.8257 43H10.175C9.59832 48.3344 9.00301 52.5764 9.00301 59.3763C9.00301 61.5883 8.91928 64.3193 9.63552 66.4038C10.3425 68.4884 12.2865 70.2817 14.3608 69.9631H14.6399C16.7142 70.2817 18.649 68.4884 19.3652 66.4038C20.0722 64.3193 19.9977 61.5883 19.9977 59.3763C19.9977 52.5764 19.4117 48.3344 18.8257 43ZM14.3795 67.5781C11.4122 67.5781 11.4122 63.063 14.3795 63.063C17.3467 63.063 17.3467 67.5781 14.3795 67.5781Z" fill="#767676"/>
<path d="M8.74925 44H19.2471C21.5843 44 21.5843 41 19.2471 41H8.74925C6.42175 41 6.41209 44 8.74925 44Z" fill="#626262"/>
</svg>
