<svg width="47" height="53" viewBox="0 0 47 53" fill="none" xmlns="http://www.w3.org/2000/svg">
<path d="M24.4951 3H25.4965C26.8734 3 28 4.2025 28 5.69216V26H22V5.69216C22 4.21147 23.1182 3 24.5035 3H24.4951Z" fill="#A5A19C"/>
<path d="M28.9418 26H21.0582C20.5351 31.3246 20.0026 35.5682 20.0026 42.358C20.0026 44.5736 19.9279 47.3163 20.5724 49.3979C21.217 51.4795 22.9824 53.2752 24.8692 52.9625H25.1308C27.0176 53.2841 28.783 51.4884 29.4276 49.3979C30.0721 47.3163 29.9974 44.5736 29.9974 42.358C29.9974 35.5682 29.4649 31.3246 28.9418 26Z" fill="#767676"/>
<path d="M20.4994 27H29.5006C31.4998 27 31.4998 23 29.5006 23H20.4994C18.5002 23 18.5002 27 20.4994 27Z" fill="#626262"/>
<path d="M45.0029 1.53104C43.2556 1.04189 40.8185 1.33014 39.5586 1.27773C36.2662 1.13797 20.2552 0.491584 15.2615 0.0198968C12.3462 -0.250886 9.93675 2.29972 7.88594 4.16899C5.24655 6.57984 2.89225 9.27894 0.464382 11.9082C-0.96107 13.4542 1.20931 15.6642 2.74512 14.2404C5.46727 11.716 8.01468 9.04309 10.7828 6.60604C11.0311 6.72833 11.3254 6.79821 11.6657 6.79821C12.2727 6.79821 12.8704 6.80695 13.4774 6.81569C11.5093 8.50153 9.57808 10.231 7.63763 11.9518C7.06745 12.4585 7.07665 13.3407 7.38013 13.9783C7.4629 14.1618 7.54567 14.2666 7.70201 14.3801C7.79398 14.4413 7.87674 14.5112 7.9687 14.5723C8.59406 15.044 9.42175 14.7383 9.95514 14.3103C12.0519 12.607 14.1671 10.9211 16.2363 9.18285C17.1192 8.44038 18.2044 7.68918 19.1884 6.85936C19.9793 6.85936 20.7702 6.87683 21.5611 6.87683C19.5838 8.77231 17.5882 10.6503 15.7581 12.703C15.4086 13.0961 15.1695 13.76 15.3627 14.2928C15.473 14.5898 15.5466 14.9392 15.8225 15.1139C15.9053 15.1663 15.988 15.2187 16.0708 15.2711C16.5122 15.5506 17.1836 15.5943 17.625 15.2711C20.9173 12.8253 24.2189 10.1524 26.895 6.9205C27.9158 6.9205 28.9366 6.93797 29.9667 6.94671C29.7551 7.18255 29.5344 7.40967 29.3229 7.63677C27.548 9.57593 25.0649 11.5588 23.7223 13.856C23.0785 14.9567 24.1361 16.2407 25.1937 15.9612C27.3641 15.3934 29.1574 12.9214 30.684 11.2618C32.1922 9.6196 33.7372 8.29189 35.4018 6.98165C36.3306 6.98165 37.2503 6.99911 38.1791 7.00785C38.1423 7.04279 38.0963 7.07773 38.0595 7.11267C35.8892 8.96448 33.7648 10.8687 31.622 12.7642C31.0518 13.2708 31.061 14.153 31.3645 14.7907C31.4473 14.9741 31.5301 15.0789 31.6864 15.1925C31.7692 15.2624 31.8611 15.3235 31.9439 15.3847C32.5785 15.8563 33.3969 15.5594 33.9303 15.1226C36.0271 13.4193 38.1423 11.7335 40.2115 9.9952C41.8485 8.61508 47.9641 5.619 46.8698 2.91117C46.5663 2.15996 45.8766 1.73195 45.0213 1.4961L45.0029 1.53104Z" fill="#6E8F9A"/>
<path d="M44.0454 2.52823C42.3352 2.04114 39.95 2.33152 38.7169 2.27531C35.4856 2.1348 19.8242 1.48847 14.9368 1.02011C12.0835 0.748456 9.72532 3.28698 7.71814 5.16043C5.13491 7.55844 2.83072 10.2562 0.454504 12.879C-0.94062 14.4246 1.18356 16.6259 2.6867 15.2021C5.35094 12.6823 7.84416 10.0127 10.5534 7.58654C10.7964 7.70832 11.0844 7.77388 11.4175 7.78325C12.0115 7.78325 12.5966 7.79262 13.1816 7.80199C11.2555 9.48809 9.36529 11.2117 7.46612 12.9259C6.90807 13.4317 6.91707 14.3122 7.2141 14.9492C7.29511 15.1272 7.37612 15.2302 7.52913 15.352C7.61014 15.4176 7.70015 15.4831 7.78116 15.5487C8.40221 16.0171 9.20329 15.7173 9.72533 15.2864C11.7775 13.591 13.8477 11.9142 15.8729 10.1719C16.7369 9.43189 17.799 8.68251 18.7621 7.85819C19.5362 7.85819 20.3103 7.87693 21.0843 7.87693C19.1492 9.76911 17.196 11.6426 15.4048 13.6846C15.0628 14.078 14.8288 14.7337 15.0178 15.277C15.1258 15.5768 15.1978 15.914 15.4678 16.092C15.5488 16.1482 15.6299 16.195 15.7109 16.2512C16.1429 16.5323 16.8 16.5791 17.232 16.2512C20.4543 13.8064 23.6856 11.1461 26.3048 7.92377C27.3039 7.92377 28.303 7.9425 29.3111 7.95187C29.104 8.18605 28.888 8.42022 28.69 8.64503C26.9529 10.5841 24.5226 12.5512 23.2085 14.8555C22.5785 15.9515 23.6136 17.2348 24.6486 16.9632C26.7728 16.4011 28.528 13.9282 30.0221 12.2795C31.4983 10.6403 33.0104 9.31011 34.6395 8.00807C35.5486 8.00807 36.4487 8.0268 37.3578 8.03617C37.3218 8.07364 37.2768 8.1111 37.2408 8.14857C35.1166 9.99392 33.0374 11.8955 30.9402 13.7877C30.3822 14.2935 30.3912 15.174 30.6882 15.811C30.7692 15.989 30.8502 16.092 31.0032 16.2138C31.0932 16.2793 31.1742 16.3449 31.2642 16.4105C31.8763 16.8788 32.6864 16.5791 33.2084 16.1482C35.2606 14.4527 37.3308 12.776 39.356 11.0337C40.9581 9.6567 46.9436 6.66855 45.8725 3.97079C45.5755 3.22141 44.9005 2.79988 44.0634 2.55633L44.0454 2.52823Z" fill="#767676"/>
</svg>
