<svg width="55" height="53" viewBox="0 0 55 53" fill="none" xmlns="http://www.w3.org/2000/svg">
<g clip-path="url(#clip0_1707_2126)">
<path d="M39.9357 1.73438H5.66472C5.12394 1.73438 4.68555 2.17157 4.68555 2.71088V52.0246C4.68555 52.5639 5.12394 53.0011 5.66472 53.0011H39.9357C40.4765 53.0011 40.9149 52.5639 40.9149 52.0246V2.71088C40.9149 2.17157 40.4765 1.73438 39.9357 1.73438Z" fill="#636363"/>
<path d="M35.0398 47.9939C35.0398 48.4187 34.8097 48.6042 34.4425 48.6042H11.1578C10.7907 48.6042 10.5605 48.4187 10.5605 47.9939V9.33394C10.5605 8.90916 10.7907 8.5625 11.1578 8.5625H34.4474C34.8146 8.5625 35.0447 8.90916 35.0447 9.33394V47.989L35.0398 47.9939Z" fill="#565050"/>
<path d="M3.48585 52.9982L19.8233 45.0641C19.8233 45.0641 22.2027 44.3854 20.5283 41.6463L19.2015 39.581C19.2015 39.581 17.9727 37.7891 15.6325 38.8876C13.2922 39.9862 0 46.8218 0 46.8218L3.48585 52.9982Z" fill="#3D3939"/>
<path d="M28.1265 31.8796C27.0984 30.1707 24.5526 31.8698 24.3078 29.2967C24.2392 28.5839 24.4987 27.539 23.8818 27.0654C23.1719 26.5186 22.0312 27.1533 21.2332 27.1728C21.0765 27.4804 20.9296 27.7929 20.7925 28.0956C20.2785 29.2332 19.0056 32.0749 16.7339 31.5378C16.7339 31.5378 22.1683 37.2943 27.9454 33.8033C28.0433 33.7447 28.1412 33.6812 28.2391 33.6178C28.2245 33.0416 28.4301 32.3923 28.1265 31.8893V31.8796Z" fill="black"/>
<path d="M31.0447 23.0737C30.2271 22.1753 29.2332 21.4966 27.975 21.5454C27.9554 21.5454 27.9407 21.5454 27.926 21.5454C24.6311 21.6919 22.5847 24.4603 21.2285 27.1653C22.0265 27.1457 23.1673 26.5159 23.8772 27.0578C24.494 27.5363 24.2346 28.5812 24.3031 29.2892C24.5528 31.8623 27.0937 30.1631 28.1219 31.872C28.4254 32.3749 28.2198 33.0243 28.2345 33.6004C31.8868 31.2519 34.555 26.9162 31.0398 23.0688L31.0447 23.0737Z" fill="white"/>
<path d="M45.6537 9.34909C45.3845 9.34909 45.125 9.23679 44.9438 9.03661C44.699 8.76807 44.6256 8.38723 44.7578 8.05034C45.2768 6.70764 48.0331 0.00390625 51.6316 0.00390625C52.5961 0.00390625 53.4822 0.467748 54.2655 1.38078C55.1174 2.37194 55.0734 3.31915 54.8873 3.93923C53.9669 6.94688 47.2547 8.94872 45.9132 9.3198C45.83 9.34421 45.7419 9.35397 45.6537 9.35397V9.34909ZM51.6316 1.91786C50.2999 1.91786 48.5912 4.39331 47.3918 6.8297C49.9572 5.9069 52.6891 4.53979 53.0465 3.37286C53.0807 3.26056 53.1542 3.0262 52.8066 2.62095C52.1995 1.91786 51.7735 1.91786 51.6316 1.91786Z" fill="#3E3839"/>
<path d="M29.3949 17.6211L26.5063 20.5018C26.619 21.742 26.7316 22.8747 29.0522 25.189C31.3728 27.5034 32.7339 27.8451 33.7522 27.728L36.6114 24.8766C35.7008 24.8668 34.2271 24.5934 31.9505 22.323C29.6299 20.0087 29.6152 18.749 29.39 17.6211H29.3949Z" fill="#C66C47"/>
<path d="M48.082 6.21372C45.4187 3.55761 43.5533 3.50391 43.5533 3.50391L29.3945 17.6242C29.6197 18.7521 29.6344 20.0118 31.9551 22.3261C34.2316 24.5965 35.7053 24.8699 36.6159 24.8797L50.7992 10.735C50.7992 10.735 50.7453 8.86982 48.082 6.2186V6.21372Z" fill="#F9A742"/>
</g>
<defs>
<clipPath id="clip0_1707_2126">
<rect width="55" height="53" fill="white"/>
</clipPath>
</defs>
</svg>
