<svg width="29" height="76" viewBox="0 0 29 76" fill="none" xmlns="http://www.w3.org/2000/svg">
<path d="M27.7433 53.6844C27.7433 53.239 27.2648 53.1184 26.9914 53.304C26.8937 53.2205 26.7668 53.1741 26.6106 53.1926C25.1947 53.4153 23.7983 53.239 22.3922 53.0998C21.4938 53.0163 20.5759 52.8771 19.7362 53.2205C19.5799 53.1277 19.3554 53.1833 19.3358 53.4339C19.0136 59.4838 18.7695 66.0906 19.3554 72.1312C19.5604 74.284 20.1756 76.2976 22.7535 75.9635C25.7415 75.5738 27.1671 71.8529 27.5773 69.2733C28.3682 64.244 27.8214 58.7694 27.7433 53.6937V53.6844Z" fill="#767676"/>
<path d="M13 41.3849C12.7698 41.3553 11.2413 43.8026 10.8729 45.3125C10.2284 47.9572 9.51934 50.3158 9.0221 53L3 52.9507C3.25783 50.0296 3.35912 46.2796 4.41805 43.5757C5.28361 41.3553 5.51381 40.1513 7.6593 38C9.2523 38.9375 11.5451 40.2105 12.9908 41.3849H13Z" fill="#A5A19C"/>
<path d="M22.7337 34C23.1084 27.6321 23.0892 21.2454 22.6665 14.8775C22.4936 12.2031 22.2054 9.42593 20.7644 7.13497C19.1313 4.54478 16.2685 2.98318 13.521 1.5338C11.8303 0.645465 9.59194 -0.233516 7.69945 0.0563612C5.68207 3.55358 5.13449 7.66797 5.06725 11.6795C5 15.691 5.36505 19.7119 5 23.7047C6.49863 24.8642 7.81473 25.9302 9.48627 26.8372C13.5883 29.044 18.9295 31.3163 22.7241 33.9907L22.7337 34Z" fill="#A5A19C"/>
<path d="M17.4221 31C17.9558 24.2554 18.337 17.3499 17.5555 10.539C17.3649 8.86233 17.0694 6.89201 16.3642 5.05431C15.9449 3.95548 15.3826 2.93243 14.7536 1.96621C14.2389 1.67256 13.7148 1.38838 13.2001 1.1042C13.1334 1.06631 13.0667 1.03789 13 1C14.0197 2.35459 14.9251 3.79444 15.5351 5.36691C16.2022 7.10988 16.4881 9.01389 16.6692 10.6337C17.4221 17.2457 17.079 23.9618 16.5643 30.5453C16.8502 30.6969 17.1362 30.839 17.4125 31H17.4221Z" fill="#948377"/>
<path d="M1.42292 69.2733C1.83323 71.8622 3.24975 75.5831 6.24887 75.9635C8.82792 76.2976 9.44337 74.284 9.64852 72.1312C10.2249 66.0906 9.99044 59.4838 9.66806 53.4339C9.65829 53.1926 9.42383 53.1277 9.26753 53.2205C8.42738 52.8771 7.50909 53.0163 6.61033 53.0998C5.1938 53.239 3.80659 53.4153 2.39007 53.1926C2.23376 53.1648 2.10676 53.2205 2.00907 53.304C1.73554 53.1184 1.26662 53.239 1.25685 53.6844C1.1787 58.7601 0.631626 64.244 1.42292 69.264V69.2733Z" fill="#767676"/>
<path d="M25.9217 51.7134C26.0173 48.589 26.1225 44.7342 25.5966 41.6468C25.0706 38.5593 23.8754 35.4995 21.6857 33.1978C18.0904 29.417 12.5157 28.243 7.82079 25.858C6.73072 25.3034 6.00401 24.6841 5 24V36.7197C6.79766 38.1433 9.75232 40.482 12.707 41.4896C15.2313 42.3493 17.794 43.4493 19.19 45.6494C19.8594 46.7032 19.9932 47.9881 20.108 49.2268C20.194 50.1512 20.2801 51.0756 20.3661 52L25.9217 51.7227V51.7134Z" fill="#7A7471"/>
<path d="M11 33.9374V34.0626C11 35.0721 12.153 36.0482 13.5 35.9982C14.8578 35.9481 16 35.1472 16 34.0626V33.9374C16 32.9279 14.847 31.9518 13.5 32.0018C12.1422 32.0519 11 32.8528 11 33.9374Z" fill="#948377"/>
<path d="M20.0892 54C22.3662 54 24.6338 53.9829 26.9108 53.9743C29.6917 53.9657 29.7011 49.9914 26.9108 50C24.6338 50 22.3662 50.0171 20.0892 50.0257C17.3083 50.0343 17.2989 54.0086 20.0892 54Z" fill="#626262"/>
<path d="M8.91082 54C6.64316 54 4.36617 53.9829 2.08918 53.9743C-0.691727 53.9657 -0.701059 49.9914 2.08918 50C4.36617 50 6.63383 50.0171 8.91082 50.0257C11.6917 50.0343 11.7011 54.0086 8.91082 54Z" fill="#626262"/>
</svg>
