<svg width="52" height="58" viewBox="0 0 52 58" fill="none" xmlns="http://www.w3.org/2000/svg">
<g clip-path="url(#clip0_1707_2172)">
<path d="M45.9767 32.6179C45.9767 34.7458 44.1998 36.4702 42.0073 36.4702H8.61881C6.42624 36.4702 4.64941 34.7458 4.64941 32.6179C4.64941 30.49 6.42624 28.7656 8.61881 28.7656H42.0073C44.1998 28.7656 45.9767 30.49 45.9767 32.6179Z" fill="#5D6CF5"/>
<path d="M5.24871 26.1948C2.34701 26.1948 0.000133234 24.3531 0.000133334 22.0857C0.000133434 19.8139 2.35256 17.9766 5.24871 17.9766L46.4106 17.9766C49.3123 17.9766 51.6592 19.8183 51.6592 22.0857C51.6592 24.3531 49.3067 26.1948 46.4106 26.1948L5.24871 26.1948Z" fill="#00CFA4"/>
<path d="M8.33491 12.0706L35.9518 12.0706L35.9518 14.0943C35.9518 17.0888 38.3953 19.5234 41.4122 19.5234C44.4291 19.5234 46.8726 17.0939 46.8726 14.0943L46.8726 7.9409C46.8726 7.74572 46.8622 7.55567 46.8416 7.36563C46.8622 7.18072 46.8726 6.99581 46.8726 6.80576C46.8726 3.89857 44.5014 1.54098 41.5775 1.54098L8.34007 1.54098C5.41617 1.54098 3.04502 3.89858 3.04502 6.80577C3.04502 9.71296 5.41617 12.0706 8.34007 12.0706L8.33491 12.0706Z" fill="#7C33DC"/>
<path d="M42.7975 50.098L13.8621 50.098L13.8621 45.7014C13.8621 43.4422 11.9164 41.6055 9.51408 41.6055C7.11174 41.6055 5.16602 43.4384 5.16602 45.7014L5.16602 53.2136C5.16602 53.3608 5.17424 53.5042 5.1907 53.6476C5.17424 53.7871 5.16602 53.9266 5.16602 54.07C5.16602 56.2632 7.05415 58.0419 9.38244 58.0419H42.7934C45.1217 58.0419 47.0098 56.2632 47.0098 54.07C47.0098 51.8767 45.1217 50.098 42.7934 50.098H42.7975Z" fill="#FF81AE"/>
<path d="M46.493 38.5209C46.493 40.7914 44.4124 42.6339 41.8436 42.6339C39.2793 42.6339 37.1943 40.7914 37.1943 38.5209V32.8785C37.1943 30.6081 39.2749 28.7656 41.8436 28.7656C44.4124 28.7656 46.493 30.6081 46.493 32.8785V38.5209Z" fill="#00DAE0"/>
<path d="M8.95319 47.2534C6.57379 47.2534 4.64935 45.4117 4.64935 43.1443C4.64935 40.8725 6.57834 39.0352 8.95319 39.0352L42.7059 39.0352C45.0853 39.0352 47.0098 40.8769 47.0098 43.1443C47.0098 45.4117 45.0808 47.2534 42.7059 47.2534L8.95319 47.2534Z" fill="#FF7937"/>
</g>
<defs>
<clipPath id="clip0_1707_2172">
<rect width="52" height="58" fill="white"/>
</clipPath>
</defs>
</svg>
