<svg width="51" height="55" viewBox="0 0 51 55" fill="none" xmlns="http://www.w3.org/2000/svg">
<g clip-path="url(#clip0_1707_2109)">
<path d="M15.0746 2.73047C15.0746 2.73047 3.27968 5.40714 0 34.6305L12.5691 42.2846L15.0746 2.73047Z" fill="#AA2F2D"/>
<path d="M6.8161 10.7101C7.86963 11.5717 9.21632 12.0896 10.6867 12.0896C12.157 12.0896 13.522 11.5671 14.5802 10.6917L15.0749 2.73047C15.0749 2.73047 9.53696 5.10464 6.81152 10.7055L6.8161 10.7101Z" fill="#F8D873"/>
<path d="M35.9253 2.73047C35.9253 2.73047 47.7202 5.40714 50.9999 34.6305L38.4309 42.2846L35.9253 2.73047Z" fill="#AA2F2D"/>
<path d="M44.184 10.7101C43.1305 11.5717 41.7838 12.0896 40.3135 12.0896C38.8431 12.0896 37.4781 11.5671 36.42 10.6917L35.9253 2.73047C35.9253 2.73047 41.4632 5.10464 44.1886 10.7055L44.184 10.7101Z" fill="#F8D873"/>
<path d="M40.3363 30.0529C40.3363 30.0529 40.9364 10.7113 35.797 2.73167C34.574 0.83875 29.9476 0 25.4358 0C20.9239 0 16.2975 0.83875 15.0745 2.73167C9.93055 10.7067 10.5352 30.0529 10.5352 30.0529L9.24805 53.9092C9.24805 53.9092 14.6623 55.0046 25.4312 55.0046C36.2001 55.0046 41.6143 53.9092 41.6143 53.9092L40.3272 30.0529H40.3363Z" fill="#DA3227"/>
<path d="M25.4999 9.98698C31.1203 9.98698 34.0289 5.88948 35.4856 2.42448C34.8305 1.75531 33.722 1.22823 32.3479 0.834063C31.3631 3.22656 29.3705 6.1049 25.4724 6.1049C21.5744 6.1049 19.5315 3.2174 18.5192 0.820312C17.1587 1.20531 16.0548 1.72323 15.3906 2.37406C16.8885 5.85281 19.8567 9.98698 25.5045 9.98698H25.4999Z" fill="white"/>
<path d="M18.5146 0.825483C19.5315 3.22257 21.5653 6.11007 25.4679 6.11007C29.3706 6.11007 31.3586 3.23173 32.3434 0.839233C28.4499 -0.269934 22.4219 -0.274517 18.5146 0.825483Z" fill="#DA3227"/>
<path d="M16.4443 30.0544C16.4443 24.9577 20.5714 20.8281 25.665 20.8281C30.7586 20.8281 34.8857 24.9577 34.8857 30.0544C34.8857 35.151 30.7586 39.2806 25.665 39.2806C20.5714 39.2806 16.4443 35.151 16.4443 30.0544Z" fill="#F8D873"/>
<path d="M41.399 28.207H9.93506V31.8966H41.399V28.207Z" fill="#502E14"/>
</g>
<defs>
<clipPath id="clip0_1707_2109">
<rect width="51" height="55" fill="white"/>
</clipPath>
</defs>
</svg>
