<svg width="85" height="57" viewBox="0 0 85 57" fill="none" xmlns="http://www.w3.org/2000/svg">
<g clip-path="url(#clip0_1707_2136)">
<path d="M80.6306 6.90625H4.77246V50.0942H80.6306V6.90625Z" fill="#F6F3EE"/>
<path d="M67.8143 22.5286C67.8143 24.2227 66.4236 25.5923 64.7036 25.5923H50.0136C48.2935 25.5923 46.9028 24.2227 46.9028 22.5286C46.9028 20.8345 48.2935 19.4648 50.0136 19.4648H64.7036C66.4236 19.4648 67.8143 20.8345 67.8143 22.5286Z" fill="#FFC75F"/>
<path d="M64.7035 19.4648C66.4236 19.4648 67.8142 20.8345 67.8142 22.5286V36.6362C67.8142 38.3303 66.4236 39.7 64.7035 39.7C62.9835 39.7 61.5928 38.3303 61.5928 36.6362V22.5286C61.5928 20.8345 62.9835 19.4648 64.7035 19.4648Z" fill="#ED223E"/>
<path d="M7.56808 55.2122C7.56808 56.1998 7.18748 57 6.71172 57H2.83244C2.35668 57 1.97607 56.1998 1.97607 55.2122V1.79499C1.97607 0.807386 2.35668 0 2.83244 0H6.71172C7.18748 0 7.56808 0.807386 7.56808 1.79499V55.2122Z" fill="#C8A475"/>
<path d="M8.08792 5.57422H1.46388C0.6554 5.57422 0 6.21972 0 7.01598V49.9876C0 50.7839 0.6554 51.4294 1.46388 51.4294H8.08792C8.8964 51.4294 9.5518 50.7839 9.5518 49.9876V7.01598C9.5518 6.21972 8.8964 5.57422 8.08792 5.57422Z" fill="white"/>
<path d="M83.0236 55.2122C83.0236 56.1998 82.6357 57 82.1673 57H78.288C77.8122 57 77.4316 56.1998 77.4316 55.2122V1.79499C77.4316 0.807386 77.8122 0 78.288 0H82.1673C82.643 0 83.0236 0.807386 83.0236 1.79499V55.2122Z" fill="#C8A475"/>
<path d="M83.5362 5.57422H76.9121C76.1036 5.57422 75.4482 6.21972 75.4482 7.01598V49.9876C75.4482 50.7839 76.1036 51.4294 76.9121 51.4294H83.5362C84.3446 51.4294 85 50.7839 85 49.9876V7.01598C85 6.21972 84.3446 5.57422 83.5362 5.57422Z" fill="white"/>
<path d="M32.8639 26.9258H24.7979C20.7503 26.9258 17.4639 30.1625 17.4639 34.149V34.3869C17.4639 38.3806 20.7503 41.6101 24.7979 41.6101H32.8639C36.9115 41.6101 40.1979 38.3734 40.1979 34.3869V34.149C40.1979 30.1553 36.9115 26.9258 32.8639 26.9258ZM33.508 34.3148C33.508 35.9584 32.1539 37.2848 30.4924 37.2848H27.1767C25.5079 37.2848 24.1611 35.9512 24.1611 34.3148V34.2139C24.1611 32.5703 25.5079 31.2439 27.1767 31.2439H30.4924C32.1612 31.2439 33.508 32.5775 33.508 34.2139V34.3148Z" fill="#426BB3"/>
<path d="M40.6664 23.5637C40.6664 25.2578 39.2757 26.6275 37.5556 26.6275H19.206C17.4859 26.6275 16.0952 25.2578 16.0952 23.5637C16.0952 21.8697 17.4859 20.5 19.206 20.5H37.5556C39.2757 20.5 40.6664 21.8697 40.6664 23.5637Z" fill="#ED223E"/>
<path d="M32.5346 19.478C32.5346 21.7344 30.6754 23.5654 28.3845 23.5654C26.0935 23.5654 24.2344 21.7344 24.2344 19.478C24.2344 17.2217 26.0935 15.3906 28.3845 15.3906C30.6754 15.3906 32.5346 17.2217 32.5346 19.478Z" fill="#6C9460"/>
</g>
<defs>
<clipPath id="clip0_1707_2136">
<rect width="85" height="57" fill="white"/>
</clipPath>
</defs>
</svg>
