<svg width="31" height="69" viewBox="0 0 31 69" fill="none" xmlns="http://www.w3.org/2000/svg">
<path d="M30.7278 18.2634C30.3455 14.5409 30.0221 0.848433 27.768 1.62472C27.2976 1.78371 26.9546 2.19524 26.7782 2.63482C26.3371 3.71974 26.2489 5.02914 26.1019 6.17953C25.8667 7.97527 25.8667 9.79907 25.8079 11.6135C25.7099 14.7467 25.4061 18.0389 23.593 20.6577C23.2696 21.1253 22.858 21.593 22.2798 21.7052C21.7113 21.8081 21.1429 21.5368 20.6823 21.2001C20.055 20.7512 19.5356 20.1713 19.1534 19.5166C18.3792 18.1979 18.2224 16.636 18.0753 15.1302C17.6441 10.6595 17.2129 6.17953 16.7915 1.70889C16.7425 1.22255 16.6837 0.698788 16.3505 0.324676C16.1447 0.0908556 15.7918 -0.0307311 15.488 0.00668017C15.1842 -0.0307311 14.8314 0.100208 14.6256 0.324676C14.2924 0.698788 14.2336 1.22255 14.1846 1.70889C13.7533 6.17953 13.3221 10.6595 12.9007 15.1302C12.7537 16.636 12.5969 18.1979 11.8227 19.5166C11.4404 20.1713 10.921 20.7418 10.2938 21.2001C9.83315 21.5368 9.26473 21.8081 8.6963 21.7052C8.11807 21.593 7.70645 21.1253 7.38303 20.6577C5.56995 18.0389 5.26614 14.7467 5.16813 11.6135C5.10933 9.79907 5.10933 7.98462 4.87412 6.17953C4.71731 5.03849 4.6389 3.71974 4.19788 2.63482C4.01167 2.19524 3.67846 1.78371 3.20804 1.62472C0.95393 0.848433 0.62071 14.5409 0.248292 18.2634C-0.124126 21.9484 -0.398534 26.0168 1.91438 28.991C3.18844 30.6278 5.09952 31.7033 7.06942 32.4703C9.73515 33.5084 12.6165 34.0602 15.4978 33.9948C18.3694 34.0509 21.2605 33.5084 23.9262 32.4703C25.8961 31.7033 27.8072 30.6184 29.0813 28.991C31.3942 26.0168 31.1296 21.9484 30.7474 18.2634H30.7278Z" fill="#A5A19C"/>
<path d="M12 25.6585V45.3415C12 48.8862 20 48.8862 20 45.3415V25.6585C20 22.1138 12 22.1138 12 25.6585Z" fill="#7A7471"/>
<path d="M20.9874 59.887C20.9874 53.7037 20.3838 49.9843 19.8313 45L15.9949 45.3021L12.1584 45C11.606 49.9843 11.0024 53.7037 11.0024 59.887C11.0024 61.7844 10.9308 64.135 11.5753 65.9191C12.2198 67.7033 13.9897 69.242 15.8721 68.9683H16.1279C18.0103 69.242 19.7802 67.7033 20.4247 65.9191C21.0692 64.135 20.9976 61.7844 20.9976 59.887H20.9874Z" fill="#767676"/>
<path d="M11.5 46H20.5C22.5 46 22.5 44 20.5 44H11.5C9.5 44 9.5 46 11.5 46Z" fill="#626262"/>
</svg>
