<svg width="72" height="55" viewBox="0 0 72 55" fill="none" xmlns="http://www.w3.org/2000/svg">
<g clip-path="url(#clip0_1707_2085)">
<path d="M60.5291 35.6484H14.0312V47.4633H60.5291V35.6484Z" fill="#00A381"/>
<path d="M61.7814 21.25H12.7334V25.625H61.7814V21.25Z" fill="#824B26"/>
<path d="M70.585 54.1703C70.585 54.6328 69.9373 55.0016 69.1387 55.0016H4.11865C3.32005 55.0016 2.67236 54.6266 2.67236 54.1703V50.8391C2.67236 50.3766 3.32005 50.0078 4.11865 50.0078H69.1387C69.9373 50.0078 70.585 50.3828 70.585 50.8391V54.1703Z" fill="#C5C0BC"/>
<path d="M13.9915 47.3063C13.9915 48.1 13.4256 48.75 12.7339 48.75H10.2186C9.52688 48.75 8.96094 48.1063 8.96094 47.3063V12.6937C8.96094 11.9 9.52688 11.25 10.2186 11.25H12.7339C13.4256 11.25 13.9915 11.8937 13.9915 12.6937V47.3063Z" fill="#A26C45"/>
<path d="M30.3159 47.7264C30.3159 48.3085 29.7513 48.7852 29.0612 48.7852H26.552C25.8619 48.7852 25.2974 48.3131 25.2974 47.7264V22.3439C25.2974 21.7618 25.8619 21.2852 26.552 21.2852H29.0612C29.7513 21.2852 30.3159 21.7572 30.3159 22.3439V47.7264Z" fill="#A54300"/>
<path d="M58.0088 47.3063C58.0088 48.1 58.5747 48.75 59.2664 48.75H61.7817C62.4734 48.75 63.0394 48.1063 63.0394 47.3063V12.6937C63.0394 11.9 62.4734 11.25 61.7817 11.25H59.2664C58.5747 11.25 58.0088 11.8937 58.0088 12.6937V47.3063Z" fill="#A26C45"/>
<path d="M41.6841 47.7264C41.6841 48.3085 42.2487 48.7852 42.9387 48.7852H45.448C46.138 48.7852 46.7026 48.3131 46.7026 47.7264V22.3439C46.7026 21.7618 46.138 21.2852 45.448 21.2852H42.9387C42.2487 21.2852 41.6841 21.7572 41.6841 22.3439V47.7264Z" fill="#A54300"/>
<path d="M66.1834 49.0625C66.1834 49.5813 65.6175 50 64.9257 50H8.33186C7.64016 50 7.07422 49.5813 7.07422 49.0625V45.3125C7.07422 44.7938 7.64016 44.375 8.33186 44.375H64.9257C65.6175 44.375 66.1834 44.7938 66.1834 45.3125V49.0625Z" fill="#A26C45"/>
<path d="M24.0525 0H18.8647L15.249 8.95625L9.51416 14.8375C10.3756 15.8 13.9096 19.1625 18.1856 14.8187C18.1856 14.8187 18.2422 14.8938 18.3554 15.0125L22.166 8.95625L24.0525 0Z" fill="#2E6187"/>
<path d="M35.9999 0H30.3405L29.2904 8.95625L27.0015 14.8625C27.7246 15.5938 31.5164 19.0125 35.7672 14.8625L35.9936 8.95V0H35.9999Z" fill="#2E6187"/>
<path d="M18.8646 0H15.2489L8.64629 8.4375C8.64629 8.4375 4.01188 12.8625 0 14.6C0 14.6 4.13764 19.0188 9.31284 14.6C9.31284 14.6 9.38201 14.6938 9.51406 14.8375L15.2489 8.95625L18.8646 0Z" fill="#3D6C95"/>
<path d="M30.3408 0H24.0526L22.1661 8.95625L18.3555 15.0125C19.1666 15.8875 22.8201 19.2938 26.8823 14.7313C26.8823 14.7313 26.9263 14.7813 27.008 14.8625L29.297 8.95625L30.3471 0L30.3408 0Z" fill="#3D6C95"/>
<path d="M52.9905 0H47.8027L49.6892 8.95625L53.5627 15.1062C53.7262 14.9375 53.8206 14.825 53.8206 14.825C57.9896 19.0562 61.4544 15.9688 62.4228 14.9188L56.6125 8.9625L52.9968 0.00625L52.9905 0Z" fill="#3D6C95"/>
<path d="M63.3537 8.4375L56.7511 0H52.9907L56.6064 8.95625L62.4168 14.9125C62.5928 14.7188 62.6871 14.6 62.6871 14.6C67.8623 19.0188 72 14.6 72 14.6C67.9881 12.8563 63.3537 8.4375 63.3537 8.4375Z" fill="#2E6187"/>
<path d="M47.8029 -0.0015625H41.5146L42.5648 8.95469L44.8914 14.9672C45.0423 14.8234 45.1178 14.7297 45.1178 14.7297C49.0542 19.1484 52.6008 16.0922 53.5629 15.0984L49.6893 8.94844L47.8029 -0.0078125V-0.0015625Z" fill="#2E6187"/>
<path d="M41.5146 0H35.9998V8.95625L35.7734 14.8688C35.8489 14.7938 35.9244 14.725 35.9998 14.6438C40.1689 18.9688 43.9418 15.8813 44.8913 14.9688L42.5647 8.95625L41.5146 0Z" fill="#3D6C95"/>
</g>
<defs>
<clipPath id="clip0_1707_2085">
<rect width="72" height="55" fill="white"/>
</clipPath>
</defs>
</svg>
