<svg width="80" height="36" viewBox="0 0 80 36" fill="none" xmlns="http://www.w3.org/2000/svg">
<g clip-path="url(#clip0_1707_2155)">
<path d="M8.8404 0.387235C9.06142 0.328507 9.26719 0.26978 9.4501 0.225734C9.64063 0.181688 9.83116 0.144984 10.0141 0.11562C10.2351 0.0568923 10.5094 0.0201876 10.8372 0.00550571C11.1649 -0.00917618 11.4773 0.00550571 11.7822 0.0495514C12.0794 0.0935971 12.3614 0.189029 12.6281 0.321166C12.8949 0.453303 13.093 0.65885 13.215 0.930465C13.3369 1.23144 13.4284 1.59115 13.4741 1.9949C13.5198 2.406 13.5427 2.81709 13.5427 3.24286C13.5427 3.66864 13.5351 4.07973 13.5198 4.49082C13.5046 4.90192 13.497 5.26896 13.497 5.59931V28.7747C13.497 29.105 13.497 29.45 13.5198 29.7951C13.5351 30.1401 13.5198 30.4998 13.497 30.8595C13.4665 31.2192 13.3674 31.5642 13.215 31.8799C13.0549 32.1956 12.8187 32.4598 12.5062 32.6727C12.0642 33.0031 11.4773 33.1792 10.7381 33.1939C9.99883 33.2086 9.36626 33.1279 8.83278 32.9443C8.26881 32.7608 7.93347 32.4158 7.81916 31.9019C7.71246 31.3881 7.65149 30.8742 7.65149 30.3603C7.43047 26.3668 7.3314 22.4615 7.34664 18.6368C7.36188 14.8122 7.3695 10.8701 7.3695 6.8179C7.30853 6.97206 7.09514 7.1042 6.73694 7.229C6.37874 7.34645 5.9672 7.45657 5.50992 7.54466C5.05265 7.63275 4.62586 7.7135 4.21432 7.77223C3.80277 7.83095 3.53603 7.86032 3.41409 7.86032C2.59862 7.94841 1.85174 7.86032 1.18107 7.61073C0.50278 7.35379 0.121719 6.75918 0.030264 5.81953C-0.0992968 4.85053 0.12934 4.09441 0.716174 3.55118C1.29539 3.00795 2.04227 2.59686 2.95681 2.32524C3.96282 1.9949 4.93833 1.64988 5.89861 1.30485C6.85888 0.959829 7.8344 0.644168 8.8404 0.372553V0.387235Z" fill="#6C9460"/>
<path d="M32.0244 33.0055C31.4605 33.0055 30.8889 32.9688 30.302 32.888C29.7228 32.8146 29.1512 32.6678 28.5873 32.4549C27.7413 32.1246 26.9335 31.6768 26.1637 31.1189C25.394 30.561 24.6928 29.9296 24.0679 29.2396C22.5589 27.6099 21.4157 25.6792 20.6307 23.4549C19.8457 21.2306 19.457 18.9696 19.457 16.6719C19.457 13.53 20.082 10.4908 21.3395 7.55444C21.5605 7.04058 21.8501 6.49735 22.2083 5.92475C22.5665 5.35216 22.978 4.80159 23.4353 4.2657C23.8926 3.73715 24.3575 3.25999 24.8452 2.83422C25.333 2.40844 25.8284 2.09278 26.3314 1.87989C27.0249 1.57891 27.7718 1.27794 28.5949 0.969615C29.6009 0.668637 30.7288 0.529159 31.9863 0.558522C33.2438 0.587886 34.387 0.727364 35.4235 0.969615C36.8639 1.29996 38.1062 1.90192 39.1427 2.76081C40.1791 3.6197 41.0556 4.65477 41.7796 5.844C42.5036 7.04058 43.0676 8.33993 43.4715 9.74205C43.8831 11.1515 44.1803 12.5757 44.3632 14.0292C44.4851 14.9982 44.5385 15.9598 44.508 16.9068C44.4775 17.8611 44.4013 18.8228 44.2717 19.7845C44.1422 20.6654 43.9974 21.5389 43.8221 22.4125C43.6468 23.2934 43.4182 24.1376 43.1362 24.9525C42.8542 25.7673 42.496 26.5455 42.054 27.2869C41.6119 28.0283 41.0632 28.7184 40.4078 29.3497C39.2112 30.4655 37.9233 31.3391 36.521 31.9557C35.1263 32.5724 33.6249 32.9174 32.0244 32.9761V33.0055ZM31.9787 6.56342C31.5367 6.56342 31.1099 6.60012 30.6831 6.67353C30.2563 6.74694 29.86 6.90844 29.4789 7.15069C29.0369 7.42231 28.6482 7.75999 28.3053 8.14906C27.9623 8.54547 27.6651 8.94922 27.4136 9.375C26.7505 10.4615 26.3009 11.6287 26.0494 12.8693C25.7979 14.1099 25.6759 15.3652 25.6759 16.6352C25.6759 17.9052 25.8284 19.2853 26.1256 20.6727C26.4228 22.0602 26.9639 23.3301 27.7489 24.4827C28.1224 25.0259 28.572 25.5031 29.0903 25.9141C29.6085 26.3252 30.2106 26.6189 30.9041 26.8024C31.529 26.9566 32.1692 27.0006 32.8094 26.9419C33.4496 26.8832 34.0593 26.6849 34.6233 26.3546C35.5302 25.8114 36.2542 25.0846 36.7877 24.1743C37.3212 23.2641 37.7251 22.2877 37.9918 21.2233C38.2586 20.1662 38.4186 19.0797 38.4644 17.9566C38.5101 16.8407 38.5025 15.8277 38.4415 14.9174C38.3805 14.0071 38.2205 13.0602 37.969 12.0618C37.7175 11.0634 37.3517 10.1531 36.8639 9.33829C36.3761 8.52345 35.736 7.84808 34.9357 7.31953C34.1355 6.79099 33.1524 6.54139 31.9939 6.57076L31.9787 6.56342Z" fill="#6C9460"/>
<path d="M52.4723 33.138C52.4723 33.9234 52.1827 34.5988 51.6035 35.1567C51.0242 35.7146 50.3231 35.9936 49.5076 35.9936C48.6922 35.9936 47.991 35.7146 47.4118 35.1567C46.8326 34.5988 46.543 33.9234 46.543 33.138C46.543 32.3525 46.8326 31.6698 47.4118 31.0972C47.991 30.5246 48.6922 30.2383 49.5076 30.2383C50.3231 30.2383 51.0242 30.5246 51.6035 31.0972C52.1827 31.6698 52.4723 32.3525 52.4723 33.138Z" fill="#6C9460"/>
<path d="M66.861 33.2313C65.413 33.2313 64.0259 33.0698 62.6922 32.7541C61.3585 32.4384 60.1391 31.8071 59.0416 30.8748C58.6301 30.5151 58.249 30.0967 57.8908 29.6269C57.5326 29.157 57.2811 28.6872 57.1363 28.2174C56.9915 27.7476 56.9991 27.2777 57.1592 26.8079C57.3192 26.3381 57.7079 25.9197 58.3329 25.56C58.7444 25.3177 59.1102 25.2003 59.4379 25.2003C59.7657 25.2003 60.0781 25.2737 60.383 25.4278C60.6802 25.582 60.9622 25.7802 61.2289 26.0371C61.4957 26.2941 61.77 26.5437 62.052 26.7859C62.776 27.3585 63.5534 27.7402 64.3841 27.9164C65.2148 28.0999 66.0837 28.188 66.9982 28.188C68.0347 28.188 68.995 27.9458 69.8714 27.4613C70.7478 26.9768 71.4947 26.3454 72.112 25.56C72.7217 24.7745 73.1714 23.8789 73.4534 22.8805C73.7354 21.8822 73.7963 20.8838 73.6439 19.8854C72.7294 20.3993 71.7005 20.803 70.5344 21.0893C69.376 21.3756 68.2557 21.5224 67.1887 21.5224C65.4968 21.5224 63.9649 21.2875 62.6007 20.8177C61.2365 20.3479 60.0629 19.6799 59.095 18.821C58.1195 17.9621 57.365 16.9123 56.8315 15.6717C56.298 14.4311 56.0312 13.0583 56.0312 11.5461C56.0312 10.0339 56.3132 8.51429 56.8772 7.1709C57.4412 5.82751 58.2414 4.6603 59.2779 3.67661C60.3144 2.69292 61.5566 1.92212 62.9971 1.36421C64.4375 0.8063 66.0455 0.527344 67.7984 0.527344C69.8104 0.527344 71.4947 0.8063 72.8589 1.36421C74.2231 1.92212 75.473 2.76633 76.6009 3.88216C77.7594 5.06405 78.6206 6.60565 79.1693 8.50695C79.718 10.4156 79.9924 12.9262 79.9924 16.0388C79.9924 18.5787 79.7028 20.9058 79.1236 23.0273C78.5444 25.1415 77.706 26.9621 76.6009 28.467C75.5035 29.9792 74.1317 31.1538 72.4779 31.9833C70.8317 32.8128 68.9569 33.2313 66.8534 33.2313H66.861ZM67.9432 6.01103C67.3793 5.98167 66.8229 6.01103 66.2742 6.0771C65.7255 6.15051 65.2301 6.26796 64.788 6.41478C63.9421 6.74512 63.2638 7.28101 62.7608 8.02245C62.2578 8.76388 61.9453 9.57139 61.8158 10.4523C61.6862 11.3332 61.7624 12.2068 62.0292 13.0804C62.2959 13.9613 62.776 14.6807 63.4619 15.2606C64.0564 15.8039 64.7652 16.1709 65.5807 16.3471C66.3961 16.5306 67.2192 16.5746 68.0499 16.4866C68.8806 16.3985 69.6732 16.1709 70.4277 15.8039C71.1823 15.4441 71.8072 14.9743 72.3102 14.4017C72.8132 13.8291 73.1485 13.2125 73.3238 12.5665C73.4991 11.9205 73.5296 11.2671 73.4153 10.6138C73.3086 9.96046 73.0799 9.34382 72.7294 8.75654C72.3864 8.16927 71.9596 7.64806 71.4566 7.19292C71.0146 6.86258 70.4887 6.59831 69.879 6.4001C69.2693 6.20189 68.6139 6.0771 67.928 6.01103H67.9432Z" fill="#E75752"/>
</g>
<defs>
<clipPath id="clip0_1707_2155">
<rect width="80" height="36" fill="white"/>
</clipPath>
</defs>
</svg>
