<svg width="42" height="80" viewBox="0 0 42 80" fill="none" xmlns="http://www.w3.org/2000/svg">
<path d="M41.4607 38.9894C38.7741 28.2511 33.7048 18.2531 28.1987 8.62058C26.7178 6.04378 25.1894 3.44823 23.0819 1.33994C22.0852 0.346697 21.3922 0.0749616 20.9745 0C20.5852 0.0655914 19.8922 0.346697 18.905 1.33994C16.7975 3.44823 15.2596 6.03441 13.7882 8.62058C8.28213 18.2531 3.21279 28.2511 0.526231 38.9894C0.137012 40.5355 -0.204743 42.1565 0.146503 43.7213C0.488257 45.2768 1.70338 46.7667 3.30772 46.9447C8.34858 47.5069 12.5066 43.6183 17.3006 42.7281C20.9745 42.0441 24.8382 42.3533 28.3411 43.637C31.7872 44.902 34.806 47.3851 38.6982 46.9447C40.3025 46.7667 41.5176 45.2862 41.8594 43.7213C42.2011 42.1659 41.8594 40.5448 41.4797 38.9894H41.4607Z" fill="#A5A19C"/>
<path d="M18 27.7222V55.2778C18 60.2407 24 60.2407 24 55.2778V27.7222C24 22.7593 18 22.7593 18 27.7222Z" fill="#7A7471"/>
<path d="M25.9874 70.887C25.9874 64.7037 25.3838 60.9843 24.8313 56L20.9949 56.3021L17.1584 56C16.606 60.9843 16.0024 64.7037 16.0024 70.887C16.0024 72.7844 15.9308 75.135 16.5753 76.9191C17.2198 78.7033 18.9897 80.242 20.8721 79.9683H21.1279C23.0103 80.242 24.7802 78.7033 25.4247 76.9191C26.0692 75.135 25.9976 72.7844 25.9976 70.887H25.9874Z" fill="#767676"/>
<path d="M16.5 57H25.5C27.5 57 27.5 55 25.5 55H16.5C14.5 55 14.5 57 16.5 57Z" fill="#626262"/>
</svg>
