<svg width="52" height="58" viewBox="0 0 52 58" fill="none" xmlns="http://www.w3.org/2000/svg">
<g clip-path="url(#clip0_1707_2048)">
<path d="M32.7467 11.0022C32.7467 13.2776 30.8921 15.1216 28.6036 15.1216H4.14306C1.85456 15.1216 0 13.2776 0 11.0022C0 8.72677 1.85456 6.88281 4.14306 6.88281H28.6036C30.8921 6.88281 32.7467 8.72677 32.7467 11.0022Z" fill="#FF7937"/>
<path d="M21.9086 5.50106C21.9086 8.53666 19.4342 11.0021 16.3759 11.0021C13.3177 11.0021 10.8433 8.5418 10.8433 5.50106C10.8433 2.46033 13.3177 0 16.3759 0C19.4342 0 21.9086 2.46033 21.9086 5.50106Z" fill="#00BEFD"/>
<path d="M22.353 17.8789H11.5976C6.19925 17.8789 1.82373 22.2294 1.82373 27.5969V27.9205C1.82373 33.288 6.19925 37.6386 11.5976 37.6386H22.353C27.7514 37.6386 32.1269 33.288 32.1269 27.9205V27.5969C32.1269 22.2294 27.7514 17.8789 22.353 17.8789ZM23.2054 27.8229C23.2054 30.0316 21.4077 31.819 19.1863 31.819H14.7643C12.543 31.819 10.7452 30.0316 10.7452 27.8229V27.6894C10.7452 25.4807 12.543 23.6933 14.7643 23.6933H19.1863C21.4077 23.6933 23.2054 25.4807 23.2054 27.6894V27.8229Z" fill="#FF81AE"/>
<path d="M46.4673 39.2045C46.4673 41.8908 44.2769 44.0635 41.5803 44.0635C38.8785 44.0635 36.6934 41.8857 36.6934 39.2045V5.40198C36.6934 2.71566 38.8837 0.542969 41.5803 0.542969C44.2769 0.542969 46.4673 2.72079 46.4673 5.40198V39.2045Z" fill="#00CFA4"/>
<path d="M51.9999 23.7042C51.9999 26.7398 49.5203 29.2053 46.4673 29.2053C43.4142 29.2053 40.9346 26.7449 40.9346 23.7042C40.9346 20.6635 43.409 18.2031 46.4673 18.2031C49.5255 18.2031 51.9999 20.6635 51.9999 23.7042Z" fill="#FFF96D"/>
<path d="M41.5801 47.4685H13.9632V45.4448C13.9632 42.4503 11.5197 40.0156 8.50284 40.0156C5.48595 40.0156 3.04248 42.4451 3.04248 45.4448V51.5982C3.04248 51.7933 3.05281 51.9834 3.07348 52.1734C3.05281 52.3583 3.04248 52.5433 3.04248 52.7333C3.04248 55.6405 5.41363 57.9981 8.33753 57.9981H41.575C44.4989 57.9981 46.87 55.6405 46.87 52.7333C46.87 49.8261 44.4989 47.4685 41.575 47.4685H41.5801Z" fill="#5D6CF5"/>
<path d="M13.9632 52.6692C13.9632 55.6124 11.5197 58.0008 8.50284 58.0008C5.49112 58.0008 3.04248 55.6124 3.04248 52.6692V45.355C3.04248 42.4119 5.48595 40.0234 8.50284 40.0234C11.5197 40.0234 13.9632 42.4119 13.9632 45.355V52.6692Z" fill="#00DAE0"/>
</g>
<defs>
<clipPath id="clip0_1707_2048">
<rect width="52" height="58" fill="white"/>
</clipPath>
</defs>
</svg>
