<svg width="90" height="91" viewBox="0 0 90 91" fill="none" xmlns="http://www.w3.org/2000/svg">
<path d="M69.911 12.2288C69.4766 12.0675 69.0395 11.9192 68.5998 11.7891C68.5972 11.7891 68.5946 11.7891 68.5894 11.7865C68.4723 11.7527 68.3552 11.7189 68.2407 11.6851C68.2043 11.6747 68.1679 11.6642 68.1315 11.6538C68.0378 11.6278 67.9441 11.6044 67.8479 11.5784C67.788 11.5628 67.7282 11.5472 67.6684 11.5316C67.5929 11.5133 67.5175 11.4951 67.442 11.4769C67.3613 11.4587 67.2807 11.4379 67.2 11.4197C67.1428 11.4067 67.083 11.3937 67.0257 11.3807C66.9269 11.3598 66.828 11.3364 66.7291 11.3182C66.6875 11.3104 66.6459 11.3026 66.6043 11.2922C66.4872 11.2688 66.3701 11.248 66.2556 11.2246C66.2296 11.2194 66.2036 11.2142 66.1776 11.2116C66.0449 11.1881 65.9096 11.1647 65.7743 11.1439C65.7639 11.1439 65.7535 11.1413 65.7431 11.1387C63.3573 10.7693 60.9689 10.8187 58.669 11.2454C58.6612 11.2454 58.6534 11.248 58.6482 11.2506C58.2449 11.326 57.8469 11.4119 57.4488 11.5107C57.4176 11.5186 57.389 11.5264 57.3578 11.5342C56.9779 11.6304 56.6033 11.7345 56.2286 11.8516C56.187 11.8646 56.1454 11.8776 56.1037 11.8906C55.9242 11.9478 55.7447 12.0077 55.5678 12.0675C55.5652 12.0675 55.5626 12.0675 55.5574 12.0701C55.3727 12.1352 55.1905 12.2028 55.0084 12.2704C54.972 12.2835 54.9382 12.2965 54.9043 12.3121C54.5271 12.4578 54.1551 12.6139 53.7882 12.7804C53.783 12.7804 53.7778 12.7856 53.7726 12.7882C52.6096 13.3163 51.4961 13.946 50.4424 14.6744C50.2733 14.7915 50.1042 14.9138 49.9377 15.0361C49.9299 15.0413 49.9221 15.0465 49.9143 15.0543C49.7478 15.1766 49.5839 15.304 49.4199 15.4315C49.4095 15.4393 49.4017 15.4471 49.3913 15.4549C49.2404 15.5746 49.0921 15.6943 48.9438 15.8192C48.9256 15.8322 48.91 15.8478 48.8918 15.8608C48.7357 15.9909 48.5822 16.1262 48.4287 16.2615C48.4209 16.2667 48.4157 16.2745 48.4079 16.2797C48.2622 16.4098 48.1191 16.5399 47.9786 16.6751C47.963 16.6908 47.9448 16.7064 47.9292 16.722C47.6274 17.0082 47.336 17.3022 47.0498 17.6066C47.042 17.6144 47.0316 17.6248 47.0238 17.6326C46.2901 18.4209 45.6084 19.2691 44.9944 20.1771C44.9294 20.0834 44.8643 19.9897 44.7967 19.8961C44.7707 19.8596 44.7447 19.8206 44.7187 19.7842C44.6484 19.6853 44.5782 19.5891 44.5053 19.4902C44.4689 19.4408 44.4325 19.3939 44.3986 19.3471C44.2816 19.191 44.1619 19.0349 44.0396 18.8814C43.9954 18.8268 43.9511 18.7695 43.9069 18.7149C43.8393 18.6316 43.7716 18.5484 43.7014 18.4677C43.6493 18.4053 43.5973 18.3428 43.5427 18.283C43.4438 18.1659 43.3423 18.0514 43.2409 17.937C43.1732 17.8615 43.1056 17.7861 43.0353 17.7106C42.9703 17.6404 42.9053 17.5727 42.8402 17.5025C42.7726 17.4322 42.7049 17.362 42.6373 17.2918C42.567 17.2215 42.4994 17.1487 42.4291 17.081C42.3251 16.9769 42.2184 16.8729 42.1117 16.7714C42.0519 16.7142 41.9921 16.6569 41.9296 16.5997C41.8464 16.5242 41.7657 16.4462 41.6825 16.3707C41.6278 16.3213 41.5732 16.2719 41.5185 16.2224C41.3911 16.1106 41.2636 16.0013 41.1361 15.892C41.0815 15.8452 41.0268 15.801 40.9722 15.7567C40.8733 15.6761 40.7771 15.5954 40.6782 15.5174C40.6288 15.4784 40.5819 15.4393 40.5325 15.4003C40.3946 15.291 40.2541 15.1844 40.1136 15.0803C40.0694 15.0465 40.0226 15.0153 39.9783 14.9814C39.8638 14.8982 39.7468 14.8123 39.6297 14.7317C39.5881 14.703 39.5465 14.6718 39.5048 14.6432C39.3539 14.5391 39.2004 14.4351 39.0443 14.3362C39.0105 14.3154 38.9793 14.2946 38.9454 14.2738C38.8102 14.1853 38.6723 14.0995 38.5344 14.0162C38.5006 13.9954 38.4693 13.9746 38.4355 13.9564C38.269 13.8549 38.1025 13.7586 37.9334 13.6624C37.9178 13.652 37.9022 13.6441 37.8839 13.6363C37.7226 13.5453 37.5613 13.4568 37.4 13.371C37.3766 13.358 37.3532 13.3476 37.3298 13.3345C36.9681 13.1446 36.5987 12.9651 36.2267 12.796C36.2162 12.7908 36.2032 12.7856 36.1928 12.7804C32.246 10.9956 27.7529 10.4128 23.3118 11.3078C23.3065 11.3078 23.3013 11.3078 23.2961 11.3104C23.1504 11.339 23.0048 11.3703 22.8591 11.4041C22.8486 11.4041 22.8382 11.4093 22.8304 11.4093C22.6873 11.4405 22.5469 11.4743 22.4038 11.5107C22.3933 11.5133 22.3803 11.516 22.3699 11.5186C22.2268 11.555 22.0812 11.5914 21.9381 11.6304C21.9303 11.6304 21.9198 11.6356 21.912 11.6382C21.298 11.8047 20.6866 12.0025 20.0778 12.2288C9.12461 16.3135 3.55175 28.5051 7.63384 39.4583C8.08133 40.6551 9.11161 43.0565 11.1878 46.4179C11.3283 46.6443 11.4766 46.8784 11.6275 47.1152C11.9215 47.5783 12.2363 48.0544 12.5719 48.5539C16.0894 53.7756 21.8444 60.7612 31.1065 68.8109L44.997 80.8906L58.8928 68.8109C69.0395 59.9885 74.9818 52.4383 78.3874 47.097C78.8687 46.3451 79.2954 45.6296 79.6805 44.9662C81.1869 42.3619 81.9856 40.4704 82.3654 39.4583C86.4501 28.5051 80.8773 16.3135 69.9162 12.2288H69.911Z" fill="#E62E2E"/>
</svg>
