<svg width="90" height="91" viewBox="0 0 90 91" fill="none" xmlns="http://www.w3.org/2000/svg">
<path d="M61.5905 46.8804L79.9413 42.978L61.1955 42.1668L77.7039 33.2503L59.4903 37.7535L72.82 24.5491L56.6119 34.0001L65.6797 17.5768L52.7923 31.2116L56.865 12.8962L48.3412 29.6104L47.09 10.8906L43.618 29.329L37.1447 11.7184L39.0084 30.3885L27.8357 15.3157L34.8837 32.704L19.9173 21.3917L31.5797 36.0884L14.0306 29.4496L29.3612 40.2652L10.6532 38.8414L28.4104 44.8985L10.0596 48.8032L28.803 49.6145L12.2946 58.5286L30.5083 54.0254L17.1809 67.2298L33.3866 57.7788L24.3188 74.2045L37.2062 60.5696L33.1335 78.8826L41.6574 62.1708L42.9109 80.8906L46.3805 62.4523L52.8561 80.0605L50.9901 61.3927L62.1652 76.4632L55.1148 59.0773L70.0836 70.3896L58.4212 55.6928L75.9679 62.3293L60.6373 51.5137L79.3453 52.9398L61.5905 46.8804Z" fill="#FCCA23"/>
</svg>
