<svg width="42" height="70" viewBox="0 0 42 70" fill="none" xmlns="http://www.w3.org/2000/svg">
<g clip-path="url(#clip0_1983_8111)">
<path d="M39.4981 12.7719C35.4983 6.05528 28.6295 4.60336 21.5669 3.08742C21.1932 3.00732 20.8065 3.00732 20.4327 3.08742C13.3702 4.60336 6.50139 6.05528 2.50156 12.7719C-2.17797 20.6298 0.665877 29.9681 4.10062 37.6976C5.39803 40.6186 6.81745 43.4993 7.75925 46.5536C9.77492 53.0896 9.50444 60.0781 8.41651 66.8688C8.1534 68.5114 9.4163 70.0012 11.08 70.0012H30.9196C32.5831 70.0012 33.8463 68.5114 33.5832 66.8688C32.4952 60.0781 32.2251 53.0896 34.2404 46.5536C35.1822 43.4993 36.6013 40.6186 37.8991 37.6976C41.3335 29.9681 44.1777 20.6298 39.4981 12.7719Z" fill="#FFF0E0"/>
<path d="M28.0441 6.7733H12.7748L11.5239 0H29.2949L28.0441 6.7733Z" fill="#FFF0E0"/>
</g>
<defs>
<clipPath id="clip0_1983_8111">
<rect width="41.9087" height="70" fill="white" transform="translate(0.0454102)"/>
</clipPath>
</defs>
</svg>
