<svg width="44" height="80" viewBox="0 0 44 80" fill="none" xmlns="http://www.w3.org/2000/svg">
<path d="M43.9148 51.1134C43.8879 51.4981 43.8524 51.8944 43.8086 52.2997C43.5504 54.6878 42.9848 57.4183 41.8602 60.178C41.6982 60.5734 41.5267 60.9688 41.3421 61.3643C41.1148 61.8498 40.8694 62.3349 40.6046 62.8184C40.386 63.2158 40.1551 63.6113 39.9097 64.0046C38.4149 66.4006 36.3949 68.7089 33.6784 70.7164C33.1256 71.1246 32.5439 71.5213 31.9325 71.9027C31.0529 72.4512 30.1113 72.9705 29.1015 73.4547C29.1015 73.4547 29.2358 75.7939 29.696 77.8459C29.9444 78.9527 29.0908 80.0016 27.9521 80.0016H16.0466C14.908 80.0016 14.0544 78.9527 14.3027 77.8459C14.763 75.7939 14.8972 73.4547 14.8972 73.4547C13.8879 72.9705 12.9459 72.4516 12.0663 71.9027C11.4548 71.5213 10.8731 71.1246 10.3203 70.7164C7.60381 68.7089 5.5839 66.4006 4.0891 64.0046C3.8441 63.6113 3.61273 63.2158 3.39417 62.8184C3.12934 62.3349 2.88393 61.8498 2.65669 61.3643C2.47201 60.9688 2.30055 60.5734 2.1386 60.178C1.01399 57.4179 0.448378 54.6878 0.190156 52.2997C0.146362 51.8944 0.110831 51.4981 0.0839756 51.1134C-0.192838 47.2374 0.303361 44.5181 0.303361 44.5181C0.330216 44.3736 0.318234 44.2115 0.32815 44.0642C0.347981 43.7873 0.374836 43.5108 0.407476 43.2347C0.454988 42.8372 0.515723 42.4418 0.589264 42.0484C0.679745 41.56 0.789644 41.0749 0.916896 40.5943C1.02101 40.196 1.13835 39.8006 1.26436 39.4081C1.26519 39.4039 1.26725 39.399 1.26849 39.3953C2.3522 36.0382 4.13785 32.9464 6.06853 30.0094C6.67215 29.091 7.29849 28.1936 7.94549 27.3098C8.23511 26.9115 8.53011 26.516 8.82882 26.1235C9.11183 25.7499 9.39856 25.3783 9.68736 25.0084C10.0803 24.5064 10.4794 24.0082 10.8826 23.5119C11.2024 23.1165 11.5247 22.7211 11.8465 22.3257C13.2938 20.5514 14.732 18.769 15.9834 16.8503C17.9476 13.8343 18.9143 10.4014 19.1052 6.80892C19.2325 4.40103 18.0017 2.72925 16.6974 1.64504C16.0256 1.08668 16.4127 0 17.2878 0H26.7122C27.5877 0 27.9748 1.08627 27.3039 1.64504C25.9995 2.72925 24.7679 4.40103 24.896 6.80892C25.0856 10.401 26.0524 13.8343 28.0178 16.8503C29.2684 18.769 30.7079 20.5514 32.1539 22.3257C32.4753 22.7211 32.798 23.1165 33.1186 23.5119C33.5206 24.0082 33.9197 24.5064 34.3126 25.0084C34.6014 25.3779 34.8882 25.7499 35.1712 26.1235C35.4699 26.516 35.7649 26.9115 36.0545 27.3098C36.7015 28.1936 37.3279 29.091 37.9315 30.0094C39.8621 32.9464 41.6478 36.0382 42.7315 39.3953C42.7323 39.3994 42.7344 39.4044 42.7356 39.4081C42.8629 39.8006 42.979 40.196 43.0831 40.5943C43.2104 41.0749 43.3203 41.56 43.4107 42.0484C43.4843 42.4418 43.5458 42.8372 43.5925 43.2347C43.6264 43.5104 43.652 43.7873 43.6718 44.0642C43.6826 44.2115 43.6698 44.3736 43.6966 44.5181C43.6966 44.5181 44.1928 47.2374 43.916 51.1134H43.9148Z" fill="#FFF0E0"/>
<path d="M33.116 23.5144H10.8804C11.2002 23.119 11.5224 22.7235 11.8443 22.3281H32.1513C32.4727 22.7235 32.7954 23.119 33.116 23.5144Z" fill="#F6DAC3"/>
<path d="M36.0554 27.3113H7.94678C8.2364 26.913 8.53139 26.5175 8.8301 26.125H35.1721C35.4708 26.5175 35.7658 26.913 36.0554 27.3113Z" fill="#F6DAC3"/>
<path d="M43.0833 40.5964H0.917969C1.02208 40.1981 1.13942 39.8027 1.26543 39.4102H42.7359C42.8631 39.8027 42.9792 40.1981 43.0833 40.5964Z" fill="#F6DAC3"/>
<path d="M43.5911 43.237H0.407715C0.455228 42.8396 0.515962 42.4441 0.589504 42.0508H43.4097C43.4833 42.4441 43.5448 42.8396 43.5915 43.237H43.5911Z" fill="#F6DAC3"/>
<path d="M43.9172 51.1172C43.8904 51.5019 43.8549 51.8982 43.8111 52.3034H0.192606C0.148812 51.8982 0.113281 51.5019 0.0864258 51.1172H43.9172Z" fill="#F6DAC3"/>
<path d="M41.8632 60.1797C41.7012 60.5751 41.5297 60.9705 41.3451 61.3659H2.6597C2.47502 60.9705 2.30356 60.5751 2.1416 60.1797H41.8632Z" fill="#F6DAC3"/>
<path d="M40.6073 62.8203C40.3887 63.2178 40.1578 63.6132 39.9124 64.0066H4.09141C3.84641 63.6132 3.61504 63.2178 3.39648 62.8203H40.6069H40.6073Z" fill="#F6DAC3"/>
<path d="M33.6814 70.7188C33.1286 71.1269 32.5469 71.5236 31.9354 71.905H12.0692C11.4578 71.5236 10.876 71.1269 10.3232 70.7188H33.6814Z" fill="#F6DAC3"/>
</svg>
