<svg width="90" height="91" viewBox="0 0 90 91" fill="none" xmlns="http://www.w3.org/2000/svg">
<path d="M86.6019 33.5492C86.6019 25.7122 79.6206 19.3569 71.0123 19.3569C66.7226 19.3569 62.8397 20.9339 60.0214 23.4855C60.2617 22.804 60.3885 22.0961 60.3885 21.3723C60.3885 15.6114 52.3956 10.9414 42.5326 10.9414C32.6696 10.9414 24.6767 15.6114 24.6767 21.3723C24.6767 21.4489 24.6846 21.5229 24.6872 21.5995C23.4114 19.7399 21.2692 18.5196 18.8444 18.5196C14.9325 18.5196 11.7602 21.6919 11.7602 25.6039C11.7602 26.5706 11.9556 27.4951 12.3069 28.3351C7.27241 28.8449 3.39746 31.9644 3.39746 35.739C3.39746 38.5521 5.55021 41.0033 8.73047 42.2791C5.8302 44.9601 4.08423 48.4072 4.08423 52.1712C4.08423 60.7029 13.0492 67.6208 24.1088 67.6208C29.484 67.6208 34.3601 65.9831 37.9577 63.3232C42.3424 65.9725 48.5444 67.6234 55.4227 67.6234C56.7037 67.6234 57.9584 67.5653 59.184 67.4544C59.1761 67.5257 59.1682 67.5944 59.1682 67.6683C59.1682 69.2452 61.1519 70.521 63.5978 70.521C66.0438 70.521 68.0275 69.2426 68.0275 67.6683C68.0275 67 67.6682 66.3872 67.0713 65.9012C74.4699 63.5504 79.478 59.0336 79.478 53.8458C79.478 51.3206 78.292 48.9566 76.2211 46.9227C82.2673 44.9707 86.6019 39.7196 86.6019 33.5466V33.5492Z" fill="white"/>
<path d="M70.3478 74.8719C70.3478 73.921 69.1512 73.1523 67.6773 73.1523C66.2034 73.1523 65.0068 73.921 65.0068 74.8719C65.0068 75.8228 66.2007 76.5915 67.6773 76.5915C69.1538 76.5915 70.3478 75.8228 70.3478 74.8719Z" fill="white"/>
<path d="M70.6301 80.942C71.4791 80.942 72.1674 80.4985 72.1674 79.9515C72.1674 79.4044 71.4791 78.9609 70.6301 78.9609C69.781 78.9609 69.0928 79.4044 69.0928 79.9515C69.0928 80.4985 69.781 80.942 70.6301 80.942Z" fill="white"/>
</svg>
