<svg width="19" height="20" viewBox="0 0 19 20" fill="none" xmlns="http://www.w3.org/2000/svg">
<path fill-rule="evenodd" clip-rule="evenodd" d="M1.6969 15.5991C1.64081 15.5953 1.58622 15.5787 1.53742 15.5503C1.48069 15.5173 1.43385 15.4697 1.4018 15.4125C1.36889 15.3555 1.35156 15.2908 1.35156 15.225C1.35156 15.1591 1.36889 15.0945 1.4018 15.0375C2.0993 13.8347 2.8493 11.0362 2.8493 7.72498C2.8493 6.03422 3.52095 4.41271 4.7165 3.21717C5.91204 2.02163 7.53355 1.34998 9.2243 1.34998C9.35811 1.34998 9.49148 1.35418 9.62425 1.36252C9.49161 1.3542 9.35837 1.35 9.22469 1.35C7.53394 1.35 5.91243 2.02165 4.71689 3.21719C3.52134 4.41274 2.84969 6.03424 2.84969 7.725C2.84969 11.0362 2.09969 13.8347 1.40219 15.0375C1.36928 15.0945 1.35195 15.1592 1.35195 15.225C1.35195 15.2908 1.36928 15.3555 1.40219 15.4125C1.43425 15.4698 1.48108 15.5174 1.53781 15.5503C1.5865 15.5787 1.64095 15.5953 1.6969 15.5991ZM8.98921 18.5894C8.44295 18.5402 7.92357 18.3209 7.506 17.9592C7.0289 17.546 6.71666 16.9747 6.62649 16.35H11.8221C11.8221 16.35 11.8221 16.35 11.8221 16.35H6.62688C6.65678 16.5571 6.7111 16.7584 6.78774 16.95C6.94225 17.3362 7.18749 17.683 7.50639 17.9592C7.92386 18.3208 8.44309 18.5402 8.98921 18.5894ZM7.45013 16.95H10.9993C10.8846 17.1587 10.7331 17.3473 10.5502 17.5057C10.1822 17.8244 9.7115 17.9999 9.22463 18C8.73777 17.9999 8.26723 17.8244 7.89921 17.5057C7.7163 17.3473 7.5648 17.1587 7.45013 16.95ZM12.5781 16.35H16.7247C16.9218 16.3493 17.1153 16.2968 17.2858 16.1978C17.4563 16.0988 17.5977 15.9567 17.696 15.7858C17.7943 15.6149 17.8459 15.4212 17.8457 15.224C17.8456 15.0269 17.7936 14.8332 17.695 14.6625C17.1541 13.725 16.3497 11.1122 16.3497 7.725C16.3497 5.83533 15.599 4.02306 14.2628 2.68686C13.0623 1.48637 11.4776 0.758519 9.79764 0.623056C11.4774 0.7586 13.062 1.48644 14.2624 2.68684C15.5986 4.02304 16.3493 5.83531 16.3493 7.72498C16.3493 11.1122 17.1537 13.725 17.6946 14.6625C17.7932 14.8332 17.8452 15.0268 17.8453 15.224C17.8455 15.4211 17.7939 15.6149 17.6956 15.7858C17.5973 15.9567 17.4559 16.0987 17.2854 16.1978C17.1149 16.2968 16.9214 16.3493 16.7243 16.35H12.5777C12.4842 17.1738 12.0906 17.9344 11.4721 18.4866C10.8536 19.0389 10.0535 19.3441 9.2243 19.3441C9.19224 19.3441 9.16022 19.3436 9.12826 19.3427C9.16035 19.3436 9.1925 19.3441 9.22469 19.3441C10.0538 19.3441 10.854 19.0389 11.4725 18.4867C12.091 17.9344 12.4846 17.1739 12.5781 16.35ZM5.87087 16.35C5.87087 16.35 5.87087 16.35 5.87087 16.35H1.7243C1.7167 16.35 1.70911 16.3499 1.70152 16.3498C1.70924 16.3499 1.71696 16.35 1.72469 16.35H5.87087ZM18.4457 15.2235C18.4455 14.9212 18.3658 14.6243 18.2146 14.3625C17.7417 13.5427 16.9497 11.0426 16.9497 7.725C16.9497 5.6762 16.1358 3.71132 14.6871 2.2626C13.2384 0.813882 11.2735 0 9.22469 0C7.1759 0 5.21101 0.813882 3.76229 2.2626C2.31358 3.71132 1.49969 5.6762 1.49969 7.725C1.49969 11.0423 0.706916 13.5415 0.234727 14.3563C0.0820863 14.6181 0.00112761 14.9156 1.16948e-05 15.2186C-0.00110559 15.5221 0.0778529 15.8205 0.228916 16.0837C0.379979 16.3469 0.597801 16.5656 0.860396 16.7177C1.12299 16.8698 1.42123 16.9499 1.72469 16.95H5.37261C5.56679 17.7126 5.98426 18.4047 6.5773 18.9342C7.30575 19.5846 8.24814 19.9441 9.22469 19.9441C10.2013 19.9441 11.1436 19.5846 11.8721 18.9342C12.4651 18.4047 12.8826 17.7126 13.0768 16.95L16.7247 16.95L16.7268 16.95C17.0291 16.9489 17.3258 16.8684 17.5872 16.7166C17.8486 16.5648 18.0655 16.3469 18.2161 16.0849C18.3668 15.8228 18.446 15.5258 18.4457 15.2235ZM2.10052 15H16.3489C15.6454 13.5552 14.9997 10.8342 14.9997 7.725C14.9997 6.19337 14.3913 4.72448 13.3082 3.64146C12.2252 2.55844 10.7563 1.95 9.22469 1.95C7.69307 1.95 6.22417 2.55844 5.14115 3.64146C4.05813 4.72448 3.44969 6.19337 3.44969 7.725C3.44969 10.835 2.80397 13.5553 2.10052 15Z" fill="#44523F"/>
</svg>
