<svg width="12" height="13" viewBox="0 0 12 13" fill="none" xmlns="http://www.w3.org/2000/svg">
<path d="M5.65375 12.6883L0.52732 7.56182C0.236089 7.27059 0.236089 6.79841 0.527319 6.50718V6.50718C0.818202 6.2163 1.28969 6.2159 1.58107 6.50629L5.65375 10.5653L9.72643 6.50629C10.0178 6.2159 10.4893 6.2163 10.7802 6.50718V6.50718C11.0714 6.79841 11.0714 7.27059 10.7802 7.56182L5.65375 12.6883ZM5.65375 6.7075L0.52732 1.58107C0.236089 1.28984 0.236089 0.817662 0.527319 0.526431V0.526431C0.818202 0.235548 1.28969 0.23515 1.58107 0.525541L5.65375 4.5845L9.72643 0.525542C10.0178 0.23515 10.4893 0.235547 10.7802 0.526431V0.526431C11.0714 0.817662 11.0714 1.28984 10.7802 1.58107L8.48063 3.88063L5.65375 6.7075Z" fill="#56714D"/>
</svg>
