<svg width="28" height="25" viewBox="0 0 28 25" fill="none" xmlns="http://www.w3.org/2000/svg">
<path d="M5.81766 6.6584C5.81575 6.77964 5.67969 7.96156 5.67969 7.96156L8.11939 7.84643C8.11939 7.84643 10.1918 5.74852 10.6771 5.75362C14.0378 5.79335 12.8275 3.90534 12.8275 1.98472C12.8275 -2.26203 5.85286 4.41886 5.81671 6.65738L5.81766 6.6584Z" fill="#313132" stroke="#1A1818" stroke-linecap="round" stroke-linejoin="round"/>
<path d="M22.1384 6.63414C22.1403 6.73056 22.1862 7.11727 22.2369 7.56995C22.321 8.3251 19.76 7.7557 19.76 7.7557C19.76 7.7557 17.7307 5.72776 17.2535 5.73283C13.8757 5.77242 15.0922 3.89165 15.0922 1.97942C15.0922 -2.25104 22.102 4.40422 22.1384 6.63414Z" fill="#313132" stroke="#1A1818" stroke-linecap="round" stroke-linejoin="round"/>
<path d="M23.5209 12.3845C22.7911 6.56369 18.8466 2.44141 13.9555 2.44141C9.06431 2.44141 5.11986 6.56369 4.39001 12.3845L3.83594 20.8414L13.9335 17.7739L24.0759 20.8414L23.5219 12.3845H23.5209Z" fill="#313132" stroke="#1A1818" stroke-linecap="round" stroke-linejoin="round"/>
<path d="M14.8791 2.44141H13.0391V18.0814H14.8791V2.44141Z" fill="white"/>
<path d="M13.9609 2.44141V2.44141V18.0814V18.0814V2.44141Z" stroke="#1A1818" stroke-linecap="round" stroke-linejoin="round"/>
<path d="M26.8381 23.6009H1.07812C1.07812 16.4443 4.63733 8.88086 13.9809 8.88086C23.3244 8.88086 26.8381 16.4433 26.8381 23.6009Z" fill="#313132" stroke="#1A1818" stroke-linecap="round" stroke-linejoin="round"/>
</svg>


