<svg width="27" height="27" viewBox="0 0 27 27" fill="none" xmlns="http://www.w3.org/2000/svg">
<mask id="mask0_2437_2493" style="mask-type:alpha" maskUnits="userSpaceOnUse" x="0" y="0" width="27" height="27">
<rect x="0.5" y="0.5" width="26" height="26" fill="#D9D9D9"/>
</mask>
<g mask="url(#mask0_2437_2493)">
<path d="M7.3334 23.793C6.7948 23.793 6.33375 23.6012 5.95025 23.2177C5.56675 22.8342 5.375 22.3732 5.375 21.8346V11.668C5.375 11.1294 5.56675 10.6684 5.95025 10.2849C6.33375 9.90139 6.7948 9.70964 7.3334 9.70964H8.625V7.54297C8.625 6.19025 9.09932 5.03957 10.048 4.09093C10.9966 3.14229 12.1473 2.66797 13.5 2.66797C14.8527 2.66797 16.0034 3.14229 16.952 4.09093C17.9007 5.03957 18.375 6.19025 18.375 7.54297V9.70964H19.6666C20.2052 9.70964 20.6663 9.90139 21.0498 10.2849C21.4333 10.6684 21.625 11.1294 21.625 11.668V21.8346C21.625 22.3732 21.4333 22.8342 21.0498 23.2177C20.6663 23.6012 20.2052 23.793 19.6666 23.793H7.3334ZM13.5 18.6471C14.0263 18.6471 14.4739 18.4628 14.8428 18.0941C15.2115 17.7252 15.3958 17.2776 15.3958 16.7513C15.3958 16.225 15.2115 15.7774 14.8428 15.4085C14.4739 15.0398 14.0263 14.8555 13.5 14.8555C12.9737 14.8555 12.5261 15.0398 12.1572 15.4085C11.7885 15.7774 11.6042 16.225 11.6042 16.7513C11.6042 17.2776 11.7885 17.7252 12.1572 18.0941C12.5261 18.4628 12.9737 18.6471 13.5 18.6471ZM10.25 9.70964H16.75V7.54297C16.75 6.64019 16.434 5.87283 15.8021 5.24089C15.1701 4.60894 14.4028 4.29297 13.5 4.29297C12.5972 4.29297 11.8299 4.60894 11.1979 5.24089C10.566 5.87283 10.25 6.64019 10.25 7.54297V9.70964Z" fill="#AF2620"/>
</g>
</svg>
