<svg width="19" height="19" viewBox="0 0 19 19" fill="none" xmlns="http://www.w3.org/2000/svg">
<g clip-path="url(#clip0_2279_1885)">
<path d="M15.1328 9.10156H4.63281C3.80439 9.10156 3.13281 9.77314 3.13281 10.6016V15.8516C3.13281 16.68 3.80439 17.3516 4.63281 17.3516H15.1328C15.9612 17.3516 16.6328 16.68 16.6328 15.8516V10.6016C16.6328 9.77314 15.9612 9.10156 15.1328 9.10156Z" stroke="#6A5444" stroke-width="1.6" stroke-linecap="round" stroke-linejoin="round"/>
<path d="M6.13281 9.10156V6.10156C6.13281 5.107 6.5279 4.15317 7.23116 3.44991C7.93442 2.74665 8.88825 2.35156 9.88281 2.35156C10.8774 2.35156 11.8312 2.74665 12.5345 3.44991C13.2377 4.15317 13.6328 5.107 13.6328 6.10156V9.10156" stroke="#6A5444" stroke-width="1.6" stroke-linecap="round" stroke-linejoin="round"/>
</g>
<defs>
<clipPath id="clip0_2279_1885">
<rect width="18" height="18" fill="white" transform="translate(0.882812 0.851562)"/>
</clipPath>
</defs>
</svg>
