<svg width="15" height="12" viewBox="0 0 15 12" fill="none" xmlns="http://www.w3.org/2000/svg">
<path d="M1.5 12.001C1.0875 12.001 0.734375 11.8541 0.440625 11.5604C0.146875 11.2666 0 10.9135 0 10.501V1.50098C0 1.08848 0.146875 0.735352 0.440625 0.441602C0.734375 0.147852 1.0875 0.000976562 1.5 0.000976562H13.5C13.9125 0.000976562 14.2656 0.147852 14.5594 0.441602C14.8531 0.735352 15 1.08848 15 1.50098V10.501C15 10.9135 14.8531 11.2666 14.5594 11.5604C14.2656 11.8541 13.9125 12.001 13.5 12.001H1.5ZM7.5 6.61973C7.5625 6.61973 7.62812 6.61035 7.69687 6.5916C7.76562 6.57285 7.83125 6.54473 7.89375 6.50723L13.2 3.18848C13.3 3.12598 13.375 3.04785 13.425 2.9541C13.475 2.86035 13.5 2.75723 13.5 2.64473C13.5 2.39473 13.3937 2.20723 13.1812 2.08223C12.9687 1.95723 12.75 1.96348 12.525 2.10098L7.5 5.25098L2.475 2.10098C2.25 1.96348 2.03125 1.96035 1.81875 2.0916C1.60625 2.22285 1.5 2.40723 1.5 2.64473C1.5 2.76973 1.525 2.8791 1.575 2.97285C1.625 3.0666 1.7 3.13848 1.8 3.18848L7.10625 6.50723C7.16875 6.54473 7.23437 6.57285 7.30312 6.5916C7.37187 6.61035 7.4375 6.61973 7.5 6.61973Z" fill="#2B6A1B"/>
</svg>
