<svg width="14" height="14" viewBox="0 0 14 14" fill="none" xmlns="http://www.w3.org/2000/svg">
<path fill-rule="evenodd" clip-rule="evenodd" d="M7.25194 1.59458C7.48623 1.27761 7.51247 0.852577 7.31894 0.509194C7.12542 0.165811 6.74824 -0.0318582 6.35575 0.00441274C5.03181 0.126761 3.7701 0.623633 2.71825 1.43689C1.6664 2.25014 0.867909 3.34614 0.416219 4.59664C-0.0354709 5.84715 -0.12168 7.20042 0.167678 8.49813C0.457036 9.79584 1.10999 10.9843 2.05015 11.9245C2.9903 12.8646 4.17876 13.5176 5.47647 13.8069C6.77418 14.0963 8.12746 14.0101 9.37796 13.5584C10.6285 13.1067 11.7245 12.3082 12.5377 11.2564C13.351 10.2045 13.8478 8.94279 13.9702 7.61886C14.0065 7.22637 13.8088 6.84919 13.4654 6.65566C13.122 6.46214 12.697 6.48838 12.38 6.72267C11.6738 7.24469 10.8037 7.49589 9.92786 7.43058C9.05207 7.36527 8.22881 6.98779 7.60781 6.3668C6.98681 5.7458 6.60933 4.92254 6.54402 4.04675C6.47871 3.17096 6.72991 2.30081 7.25194 1.59458Z" fill="#FFBB54"/>
</svg>
