<svg width="17" height="18" viewBox="0 0 17 18" fill="none" xmlns="http://www.w3.org/2000/svg">
<path d="M17 9.02948C17 11.2051 16.2856 13.0949 14.8568 14.6987C13.4279 16.3026 11.6423 17.2262 9.5 17.4697L9.5 15.939C11.227 15.6865 12.6587 14.908 13.7952 13.6035C14.9317 12.299 15.5 10.7743 15.5 9.02948C15.5 7.07948 14.8208 5.42531 13.4625 4.06698C12.1042 2.70864 10.45 2.02948 8.5 2.02948C6.55 2.02948 4.89583 2.70864 3.5375 4.06698C2.17917 5.42531 1.5 7.07948 1.5 9.02948C1.5 10.1218 1.74267 11.1455 2.228 12.1005C2.71317 13.0556 3.38075 13.8781 4.23075 14.568L4.23075 11.9525L5.73075 11.9525L5.73075 17.0295L0.653751 17.0295L0.653751 15.5295L3.023 15.5295C2.06533 14.718 1.32208 13.7461 0.793249 12.614C0.264416 11.482 -3.13961e-07 10.2871 -3.68935e-07 9.02948C-4.20515e-07 7.84948 0.223083 6.74423 0.66925 5.71373C1.11542 4.68323 1.72183 3.78464 2.4885 3.01798C3.25517 2.25131 4.15367 1.64489 5.184 1.19872C6.2145 0.752558 7.31967 0.529476 8.4995 0.529476C9.67933 0.529476 10.7846 0.752558 11.8152 1.19872C12.8461 1.64489 13.7448 2.25131 14.5115 3.01798C15.2782 3.78464 15.8846 4.68323 16.3307 5.71373C16.7769 6.74423 17 7.84948 17 9.02948Z" fill="#6C9460"/>
</svg>
