<svg width="30" height="30" viewBox="0 0 30 30" fill="none" xmlns="http://www.w3.org/2000/svg">
<path d="M13.667 4.33398H4.33366C3.62641 4.33398 2.94814 4.61494 2.44804 5.11503C1.94794 5.61513 1.66699 6.29341 1.66699 7.00065V25.6673C1.66699 26.3746 1.94794 27.0528 2.44804 27.5529C2.94814 28.053 3.62641 28.334 4.33366 28.334H23.0003C23.7076 28.334 24.3858 28.053 24.8859 27.5529C25.386 27.0528 25.667 26.3746 25.667 25.6673V16.334" stroke="#9F9F9F" stroke-width="2" stroke-linecap="round" stroke-linejoin="round"/>
<path d="M23.667 2.33331C24.1974 1.80288 24.9168 1.50488 25.667 1.50488C26.4171 1.50488 27.1366 1.80288 27.667 2.33331C28.1974 2.86374 28.4954 3.58316 28.4954 4.33331C28.4954 5.08346 28.1974 5.80288 27.667 6.33331L15.0003 19L9.66699 20.3333L11.0003 15L23.667 2.33331Z" stroke="#9F9F9F" stroke-width="2" stroke-linecap="round" stroke-linejoin="round"/>
</svg>
