<svg width="16" height="16" viewBox="0 0 16 16" fill="none" xmlns="http://www.w3.org/2000/svg">
<path fill-rule="evenodd" clip-rule="evenodd" d="M7.99984 5.66797C6.71117 5.66797 5.6665 6.71264 5.6665 8.0013C5.6665 9.28997 6.71117 10.3346 7.99984 10.3346C9.2885 10.3346 10.3332 9.28997 10.3332 8.0013C10.3332 6.71264 9.2885 5.66797 7.99984 5.66797ZM3.6665 8.0013C3.6665 5.60807 5.6066 3.66797 7.99984 3.66797C10.3931 3.66797 12.3332 5.60807 12.3332 8.0013C12.3332 10.3945 10.3931 12.3346 7.99984 12.3346C5.6066 12.3346 3.6665 10.3945 3.6665 8.0013Z" fill="#FFBB54"/>
<path fill-rule="evenodd" clip-rule="evenodd" d="M8 0C8.55228 0 9 0.447715 9 1V2C9 2.55228 8.55228 3 8 3C7.44772 3 7 2.55228 7 2V1C7 0.447715 7.44772 0 8 0Z" fill="#FFBB54"/>
<path fill-rule="evenodd" clip-rule="evenodd" d="M8 13C8.55228 13 9 13.4477 9 14V15C9 15.5523 8.55228 16 8 16C7.44772 16 7 15.5523 7 15V14C7 13.4477 7.44772 13 8 13Z" fill="#FFBB54"/>
<path fill-rule="evenodd" clip-rule="evenodd" d="M2.29289 2.29289C2.68342 1.90237 3.31658 1.90237 3.70711 2.29289L4.70711 3.29289C5.09763 3.68342 5.09763 4.31658 4.70711 4.70711C4.31658 5.09763 3.68342 5.09763 3.29289 4.70711L2.29289 3.70711C1.90237 3.31658 1.90237 2.68342 2.29289 2.29289Z" fill="#FFBB54"/>
<path fill-rule="evenodd" clip-rule="evenodd" d="M11.2929 11.2929C11.6834 10.9024 12.3166 10.9024 12.7071 11.2929L13.7071 12.2929C14.0976 12.6834 14.0976 13.3166 13.7071 13.7071C13.3166 14.0976 12.6834 14.0976 12.2929 13.7071L11.2929 12.7071C10.9024 12.3166 10.9024 11.6834 11.2929 11.2929Z" fill="#FFBB54"/>
<path fill-rule="evenodd" clip-rule="evenodd" d="M0 8C0 7.44772 0.447715 7 1 7H2C2.55228 7 3 7.44772 3 8C3 8.55228 2.55228 9 2 9H1C0.447715 9 0 8.55228 0 8Z" fill="#FFBB54"/>
<path fill-rule="evenodd" clip-rule="evenodd" d="M13 8C13 7.44772 13.4477 7 14 7H15C15.5523 7 16 7.44772 16 8C16 8.55228 15.5523 9 15 9H14C13.4477 9 13 8.55228 13 8Z" fill="#FFBB54"/>
<path fill-rule="evenodd" clip-rule="evenodd" d="M4.70711 11.2929C5.09763 11.6834 5.09763 12.3166 4.70711 12.7071L3.70711 13.7071C3.31658 14.0976 2.68342 14.0976 2.29289 13.7071C1.90237 13.3166 1.90237 12.6834 2.29289 12.2929L3.29289 11.2929C3.68342 10.9024 4.31658 10.9024 4.70711 11.2929Z" fill="#FFBB54"/>
<path fill-rule="evenodd" clip-rule="evenodd" d="M13.7071 2.29289C14.0976 2.68342 14.0976 3.31658 13.7071 3.70711L12.7071 4.70711C12.3166 5.09763 11.6834 5.09763 11.2929 4.70711C10.9024 4.31658 10.9024 3.68342 11.2929 3.29289L12.2929 2.29289C12.6834 1.90237 13.3166 1.90237 13.7071 2.29289Z" fill="#FFBB54"/>
</svg>
