<svg width="26" height="30" viewBox="0 0 26 30" fill="none" xmlns="http://www.w3.org/2000/svg">
<path fill-rule="evenodd" clip-rule="evenodd" d="M23.2363 11.4893L19.5664 16.2361C19.2423 16.6553 18.8736 17.0197 18.4723 17.328C18.3365 15.4078 17.4138 13.5516 15.771 12.2815C13.7582 10.7253 11.166 10.4369 8.95472 11.2933C9.1378 10.4469 9.50783 9.62702 10.0728 8.89625L13.7427 4.14948C15.7696 1.52791 19.5378 1.04578 22.1594 3.07262C24.781 5.09945 25.2631 8.86772 23.2363 11.4893ZM8.82045 12.4442C10.8139 11.4562 13.281 11.6203 15.1594 13.0726C16.722 14.2807 17.5245 16.1075 17.4886 17.9413C15.4952 18.9293 13.0281 18.7652 11.1497 17.3129C9.58711 16.1048 8.78462 14.2781 8.82045 12.4442ZM7.83678 13.0575C7.97258 14.9777 8.89526 16.834 10.538 18.104C12.5509 19.6602 15.1431 19.9487 17.3544 19.0922C17.1713 19.9386 16.8012 20.7585 16.2363 21.4893L12.5664 26.2361C10.5395 28.8576 6.77125 29.3398 4.14968 27.3129C1.52812 25.2861 1.04599 21.5178 3.07282 18.8962L6.74273 14.1495C7.06682 13.7303 7.43544 13.3658 7.83678 13.0575ZM7.85707 11.8334C7.14223 12.267 6.49356 12.8368 5.9516 13.5378L2.28169 18.2846C-0.0829445 21.3431 0.479538 25.7394 3.53803 28.104C6.59653 30.4687 10.9928 29.9062 13.3575 26.8477L17.0274 22.1009C17.8529 21.0333 18.3216 19.8025 18.452 18.5521C19.1668 18.1186 19.8155 17.5487 20.3575 16.8477L24.0274 12.1009C26.392 9.04245 25.8295 4.64613 22.771 2.28149C19.7126 -0.0831483 15.3162 0.479334 12.9516 3.53783L9.28169 8.2846C8.45622 9.35228 7.98746 10.583 7.85707 11.8334Z" fill="#371D1E"/>
</svg>
