<svg width="43" height="168" viewBox="0 0 43 168" fill="none" xmlns="http://www.w3.org/2000/svg">
<path d="M36 0H7V6H36V0Z" fill="#D1945E"/>
<path d="M21.8508 24H21.1593H17L18.383 128H21.1593H21.8508H24.617L26 24H21.8508Z" fill="#FF8B68"/>
<path d="M21.8508 24H21.1593H17L18.383 128H21.1593H21.8508H24.617L26 24H21.8508Z" fill="#D1945E"/>
<path d="M42.0743 138.736C41.3959 135.87 39.5626 130.776 34.8327 128.951C33.9252 128.604 32.9902 128.403 32.0919 128.221C31.3219 128.056 30.5978 127.91 29.9103 127.673C27.1878 126.742 24.9512 124.369 24.3829 121.722L24.6762 97.0954C22.4304 97.0133 19.9921 96.9585 18.3055 97.0406L18.608 121.703C17.9938 124.351 15.7572 126.751 13.0805 127.673C12.3931 127.91 11.6689 128.065 10.8989 128.221C9.99143 128.412 9.05644 128.604 8.15812 128.951C3.4282 130.776 1.59489 135.86 0.91657 138.736C-0.0459154 142.816 -0.0642485 146.969 0.0457498 150.492C0.219914 155.987 0.788238 161.527 1.74156 166.949C1.85156 167.57 2.40155 168.026 3.0432 167.999C3.68486 167.981 4.19819 167.515 4.28068 166.894C4.68401 163.599 5.04151 160.213 5.399 156.936C5.82983 152.883 6.27899 148.685 6.81065 144.65C7.05814 142.761 7.3148 141.757 8.28646 140.415C9.10228 139.283 11.1831 138.562 12.5397 138.845C12.943 143.528 13.1355 151.56 13.2914 158.068C13.3739 161.336 13.4472 164.412 13.5297 166.566C13.5572 167.351 14.1897 167.953 14.9872 167.962C15.7847 167.999 16.4355 167.406 16.4997 166.621C16.738 163.672 17.0038 158.935 17.288 153.924C17.5905 148.457 17.9113 142.807 18.1955 139.594C18.2688 138.8 19.0021 138.17 19.8729 138.17H23.842C24.2362 138.17 24.6762 138.17 24.8045 139.594C25.0887 142.797 25.4004 148.457 25.712 153.924C25.9962 158.944 26.262 163.681 26.5003 166.621C26.5645 167.396 27.2062 167.99 28.0128 167.962C28.8103 167.944 29.4428 167.342 29.4703 166.566C29.562 164.412 29.6353 161.327 29.7086 158.068C29.8645 151.56 30.057 143.528 30.4694 138.845C31.8261 138.562 33.9069 139.283 34.7227 140.415C35.6944 141.757 35.951 142.761 36.1985 144.65C36.7302 148.685 37.1793 152.883 37.6102 156.936C37.9585 160.213 38.316 163.599 38.7193 166.894C38.7927 167.515 39.3151 167.981 39.9568 167.999C40.6168 167.999 41.1484 167.561 41.2584 166.949C42.2118 161.527 42.7801 155.987 42.9543 150.492C43.0643 146.969 43.0459 142.825 42.0834 138.736H42.0743Z" fill="#A5A19C"/>
<path d="M36.6698 0.562993C36.4708 -0.299538 35.014 -0.116021 35.1225 0.774038C36.0184 8.02297 31.3312 12.0145 26.6622 16.5198C24.201 18.8964 23.5947 21.3463 23.4862 24.2642H19.5048C19.3872 21.3555 18.79 18.8964 16.3288 16.5198C11.6507 12.0145 6.96355 8.02297 7.85936 0.774038C7.96794 -0.125197 6.51113 -0.299538 6.31206 0.562993C5.19004 5.48125 7.21691 10.0417 10.4201 13.6845C12.2298 15.749 14.8629 17.3365 16.374 19.6671C17.3241 21.1353 17.3694 22.8236 17.496 24.512L17.6227 35H25.3773L25.513 24.512C25.6306 22.8236 25.6759 21.1353 26.626 19.6671C28.1371 17.3456 30.7612 15.749 32.5799 13.6845C35.7831 10.0325 37.81 5.48125 36.6879 0.562993H36.6698Z" fill="#7A7471"/>
</svg>
