<svg width="16" height="100" viewBox="0 0 16 100" fill="none" xmlns="http://www.w3.org/2000/svg">
<path d="M8.42789 0H7.56982V39.5749H8.42789V0Z" fill="#938277"/>
<path d="M8.42789 51.6797H7.56982V62.3292H8.42789V51.6797Z" fill="#938277"/>
<path d="M2.56495 49.0325C2.09473 49.0325 1.65283 48.8498 1.3199 48.5169C0.986968 48.1848 0.804199 47.742 0.804199 47.2718C0.804199 46.8016 0.986968 46.3597 1.3199 46.0267L8.42469 38.9219C8.75762 38.589 9.19953 38.4062 9.66975 38.4062C10.14 38.4062 10.5819 38.589 10.9148 38.9219C11.2477 39.254 11.4305 39.6968 11.4305 40.167C11.4305 40.6372 11.2477 41.0791 10.9148 41.4121L3.81001 48.5169C3.47708 48.8498 3.03517 49.0325 2.56495 49.0325ZM9.66975 39.2635C9.42863 39.2635 9.2021 39.357 9.03135 39.5277L1.92655 46.6325C1.7558 46.8033 1.66227 47.0298 1.66227 47.2709C1.66227 47.5121 1.7558 47.7386 1.92655 47.9093C2.09731 48.0801 2.32384 48.1736 2.56495 48.1736C2.80607 48.1736 3.0326 48.0801 3.20335 47.9093L10.3082 40.8045C10.4789 40.6338 10.5724 40.4073 10.5724 40.1661C10.5724 39.925 10.4789 39.6985 10.3082 39.5277C10.1374 39.357 9.91087 39.2635 9.66975 39.2635Z" fill="#938277"/>
<path d="M6.33058 52.7982C5.86036 52.7982 5.41845 52.6154 5.08552 52.2825C4.75259 51.9504 4.56982 51.5076 4.56982 51.0374C4.56982 50.5672 4.75259 50.1253 5.08552 49.7924L12.1903 42.6876C12.5232 42.3546 12.9652 42.1719 13.4354 42.1719C13.9056 42.1719 14.3475 42.3546 14.6804 42.6876C15.0134 43.0196 15.1961 43.4624 15.1961 43.9326C15.1961 44.4029 15.0134 44.8448 14.6804 45.1777L7.57563 52.2825C7.2427 52.6154 6.8008 52.7982 6.33058 52.7982ZM13.4354 43.0299C13.1943 43.0299 12.9677 43.1235 12.797 43.2942L5.69218 50.399C5.52142 50.5698 5.42789 50.7963 5.42789 51.0374C5.42789 51.2785 5.52142 51.5051 5.69218 51.6758C5.86293 51.8466 6.08946 51.9401 6.33058 51.9401C6.57169 51.9401 6.79822 51.8466 6.96898 51.6758L14.0738 44.571C14.2445 44.4003 14.3381 44.1737 14.3381 43.9326C14.3381 43.6915 14.2445 43.465 14.0738 43.2942C13.903 43.1235 13.6765 43.0299 13.4354 43.0299Z" fill="#938277"/>
<path d="M13.4354 49.0325C12.9652 49.0325 12.5232 48.8498 12.1903 48.5169L5.08552 41.4121C4.75259 41.08 4.56982 40.6372 4.56982 40.167C4.56982 39.6968 4.75259 39.2549 5.08552 38.9219C5.41845 38.5899 5.86036 38.4062 6.33058 38.4062C6.8008 38.4062 7.2427 38.589 7.57563 38.9219L14.6804 46.0267C15.0134 46.3588 15.1961 46.8016 15.1961 47.2718C15.1961 47.742 15.0134 48.1839 14.6804 48.5169C14.3475 48.8489 13.9056 49.0325 13.4354 49.0325ZM6.33058 39.2635C6.08946 39.2635 5.86293 39.357 5.69218 39.5277C5.52142 39.6985 5.42789 39.925 5.42789 40.1661C5.42789 40.4073 5.52142 40.6338 5.69218 40.8045L12.797 47.9093C12.9677 48.0801 13.1943 48.1736 13.4354 48.1736C13.6765 48.1736 13.903 48.0801 14.0738 47.9093C14.2445 47.7386 14.3381 47.5121 14.3381 47.2709C14.3381 47.0298 14.2445 46.8033 14.0738 46.6325L6.96898 39.5277C6.79822 39.357 6.57169 39.2635 6.33058 39.2635Z" fill="#938277"/>
<path d="M9.66975 52.7982C9.19953 52.7982 8.75762 52.6154 8.42469 52.2825L1.3199 45.1777C0.986968 44.8456 0.804199 44.4029 0.804199 43.9326C0.804199 43.4624 0.986968 43.0205 1.3199 42.6876C1.65283 42.3555 2.09473 42.1719 2.56495 42.1719C3.03517 42.1719 3.47708 42.3546 3.81001 42.6876L10.9148 49.7924C11.2477 50.1244 11.4305 50.5672 11.4305 51.0374C11.4305 51.5076 11.2477 51.9495 10.9148 52.2825C10.5819 52.6146 10.14 52.7982 9.66975 52.7982ZM2.56495 43.0299C2.32384 43.0299 2.09731 43.1235 1.92655 43.2942C1.7558 43.465 1.66227 43.6915 1.66227 43.9326C1.66227 44.1737 1.7558 44.4003 1.92655 44.571L9.03135 51.6758C9.2021 51.8466 9.42863 51.9401 9.66975 51.9401C9.91087 51.9401 10.1374 51.8466 10.3082 51.6758C10.4789 51.5051 10.5724 51.2785 10.5724 51.0374C10.5724 50.7963 10.4789 50.5698 10.3082 50.399L3.20335 43.2942C3.0326 43.1235 2.80607 43.0299 2.56495 43.0299Z" fill="#938277"/>
<path d="M3.87803 62.6931L3.06201 62.4288C3.55197 60.9152 5.87819 58.9356 7.74191 57.543L8.25589 58.2303C5.79753 60.0674 4.20152 61.6943 3.87803 62.6939V62.6931Z" fill="#938277"/>
<path d="M12.0883 62.6939C11.7648 61.6952 10.1688 60.0683 7.71045 58.2303L8.22443 57.543C10.089 58.9365 12.4144 60.9152 12.9043 62.4288L12.0883 62.6931V62.6939Z" fill="#938277"/>
<path d="M10.0077 57.7652C10.2105 56.6562 9.47579 55.5928 8.36677 55.39C7.25775 55.1873 6.19435 55.922 5.99161 57.031C5.78887 58.14 6.52355 59.2034 7.63257 59.4062C8.74159 59.6089 9.80499 58.8742 10.0077 57.7652Z" fill="#E5C9BD"/>
<path d="M4.20898 61.8555H2.65759C1.9617 61.8555 1.39795 62.4192 1.39795 63.1151V99.9991H5.46948V63.1151C5.46948 62.4192 4.90573 61.8555 4.20983 61.8555H4.20898Z" fill="#E28E7D"/>
<path d="M5.46948 65.6719H1.39795V68.476H5.46948V65.6719Z" fill="#E5C9BD"/>
<path d="M8.77929 61.8555H7.2279C6.53201 61.8555 5.96826 62.4192 5.96826 63.1151V99.9991H10.0398V63.1151C10.0398 62.4192 9.47604 61.8555 8.78015 61.8555H8.77929Z" fill="#D36857"/>
<path d="M10.0398 65.6719H5.96826V68.476H10.0398V65.6719Z" fill="#E5C9BD"/>
<path d="M13.3418 61.8555H11.7904C11.0945 61.8555 10.5308 62.4192 10.5308 63.1151V99.9991H14.6023V63.1151C14.6023 62.4192 14.0385 61.8555 13.3426 61.8555H13.3418Z" fill="#E0ADA4"/>
<path d="M14.6023 65.6719H10.5308V68.476H14.6023V65.6719Z" fill="#E5C9BD"/>
</svg>
