<svg width="14" height="100" viewBox="0 0 14 100" fill="none" xmlns="http://www.w3.org/2000/svg">
<path d="M7.43082 0H6.57275V39.5749H7.43082V0Z" fill="#938277"/>
<path d="M7.43082 45.6797H6.57275V59.7082H7.43082V45.6797Z" fill="#938277"/>
<path d="M8.81274 53.8935C8.98055 52.8929 8.30541 51.9457 7.30477 51.7779C6.30413 51.6101 5.35691 52.2852 5.1891 53.2858C5.02129 54.2865 5.69644 55.2337 6.69708 55.4015C7.69772 55.5693 8.64493 54.8942 8.81274 53.8935Z" fill="#EAAD98"/>
<path d="M7.00363 28.7485C8.01824 28.7485 8.84075 27.926 8.84075 26.9113C8.84075 25.8967 8.01824 25.0742 7.00363 25.0742C5.98901 25.0742 5.1665 25.8967 5.1665 26.9113C5.1665 27.926 5.98901 28.7485 7.00363 28.7485Z" fill="#EAAD98"/>
<path d="M6.99981 33.2761L0.0258789 40.25L6.9998 47.2239L13.9737 40.25L6.99981 33.2761Z" fill="#D36857"/>
<path d="M6.479 34.7676C6.479 34.4904 6.70382 34.2656 6.98097 34.2656C7.25813 34.2656 7.48294 34.4904 7.48294 34.7676C7.48294 35.0448 7.25813 35.2696 6.98097 35.2696C6.70382 35.2696 6.479 35.0448 6.479 34.7676Z" fill="#E5C9BD"/>
<path d="M6.479 45.6387C6.479 45.3615 6.70382 45.1367 6.98097 45.1367C7.25813 45.1367 7.48294 45.3615 7.48294 45.6387C7.48294 45.9158 7.25813 46.1407 6.98097 46.1407C6.70382 46.1407 6.479 45.9158 6.479 45.6387Z" fill="#E5C9BD"/>
<path d="M12.4185 39.7031C12.6956 39.7031 12.9204 39.9279 12.9204 40.2051C12.9204 40.4823 12.6956 40.7071 12.4185 40.7071C12.1413 40.7071 11.9165 40.4823 11.9165 40.2051C11.9165 39.9279 12.1413 39.7031 12.4185 39.7031Z" fill="#E5C9BD"/>
<path d="M1.54348 39.7031C1.82063 39.7031 2.04544 39.9279 2.04544 40.2051C2.04544 40.4823 1.82063 40.7071 1.54348 40.7071C1.26632 40.7071 1.0415 40.4823 1.0415 40.2051C1.0415 39.9279 1.26632 39.7031 1.54348 39.7031Z" fill="#E5C9BD"/>
<path d="M6.38063 39.1289L5.76025 40.2032L6.38063 41.2775H7.6214L8.24178 40.2032L7.6214 39.1289H6.38063ZM7.42662 40.9403H6.57628L6.15067 40.2032L6.57628 39.4661H7.42662L7.85222 40.2032L7.42662 40.9403Z" fill="#E5C9BD"/>
<path d="M9.03908 40.2026C9.34799 40.0679 10.1202 39.6655 9.86884 39.1189C9.68864 38.7782 9.37115 38.834 9.37115 38.834C9.37115 38.834 9.57881 38.5869 9.37373 38.26C9.02535 37.7683 8.2917 38.2368 8.0197 38.4367C8.05659 38.1021 8.09521 37.232 7.49542 37.1762C7.11015 37.1625 6.99946 37.4654 6.99946 37.4654C6.99946 37.4654 6.88962 37.1625 6.50349 37.1762C5.9037 37.232 5.94232 38.1021 5.97922 38.4367C5.70807 38.2368 4.97356 37.7692 4.62518 38.26C4.42011 38.5869 4.62776 38.834 4.62776 38.834C4.62776 38.834 4.31028 38.7782 4.13008 39.1189C3.87867 39.6663 4.65093 40.0679 4.95983 40.2026C4.65093 40.3374 3.87867 40.7398 4.13008 41.2864C4.31028 41.627 4.62776 41.5713 4.62776 41.5713C4.62776 41.5713 4.42011 41.8184 4.62518 42.1453C4.97356 42.637 5.70721 42.1685 5.97922 41.9685C5.94232 42.3032 5.9037 43.1733 6.50349 43.229C6.88877 43.2428 6.99946 42.9399 6.99946 42.9399C6.99946 42.9399 7.10929 43.2428 7.49542 43.229C8.09521 43.1733 8.05659 42.3032 8.0197 41.9685C8.29085 42.1685 9.02535 42.6361 9.37373 42.1453C9.57881 41.8184 9.37115 41.5713 9.37115 41.5713C9.37115 41.5713 9.68864 41.627 9.86884 41.2864C10.1202 40.7389 9.34799 40.3374 9.03908 40.2026ZM9.34112 38.8512C9.34112 38.8512 8.81856 39.6887 8.58602 39.2871C8.35349 38.8846 9.34112 38.8512 9.34112 38.8512ZM6.99946 37.4989C6.99946 37.4989 7.46367 38.3707 6.99946 38.3707C6.53524 38.3707 6.99946 37.4989 6.99946 37.4989ZM4.65779 41.555C4.65779 41.555 5.18035 40.7175 5.41289 41.1191C5.64542 41.5215 4.65779 41.555 4.65779 41.555ZM5.41289 39.2871C5.18035 39.6895 4.65779 38.8512 4.65779 38.8512C4.65779 38.8512 5.64457 38.8846 5.41289 39.2871ZM6.99946 42.9064C6.99946 42.9064 6.53524 42.0346 6.99946 42.0346C7.46367 42.0346 6.99946 42.9064 6.99946 42.9064ZM7.73053 41.4691H6.26838L5.53731 40.2035L6.26838 38.9378H7.73053L8.4616 40.2035L7.73053 41.4691ZM8.58602 41.1191C8.81856 40.7166 9.34112 41.555 9.34112 41.555C9.34112 41.555 8.35435 41.5215 8.58602 41.1191Z" fill="#E5C9BD"/>
<path d="M5.1409 62.4893L4.28369 62.4498C4.28798 62.3537 4.41412 60.0833 6.83987 59.3007L6.97115 59.2578L7.10244 59.3007C9.5282 60.0824 9.65433 62.3529 9.65862 62.4498L8.80141 62.4893C8.79798 62.4189 8.69158 60.7946 6.97115 60.1631C5.25073 60.7946 5.14433 62.4189 5.1409 62.4893Z" fill="#938277"/>
<path d="M5.49316 61.8555H3.94177C3.24588 61.8555 2.68213 62.4192 2.68213 63.1151V99.9991H6.75366V63.1151C6.75366 62.4192 6.18991 61.8555 5.49402 61.8555H5.49316Z" fill="#E28E7D"/>
<path d="M6.75366 65.6719H2.68213V68.476H6.75366V65.6719Z" fill="#E5C9BD"/>
<path d="M10.0557 61.8555H8.50427C7.80838 61.8555 7.24463 62.4192 7.24463 63.1151V99.9991H11.3162V63.1151C11.3162 62.4192 10.7524 61.8555 10.0565 61.8555H10.0557Z" fill="#D36857"/>
<path d="M11.3162 65.6719H7.24463V68.476H11.3162V65.6719Z" fill="#E5C9BD"/>
</svg>
