<svg width="12" height="100" viewBox="0 0 12 100" fill="none" xmlns="http://www.w3.org/2000/svg">
<path d="M6.42789 0H5.56982V74.3429H6.42789V0Z" fill="#BAAAAE"/>
<path d="M7.5193 51.019C7.65686 50.1935 7.09915 49.4128 6.27363 49.2752C5.4481 49.1377 4.66738 49.6954 4.52982 50.5209C4.39227 51.3464 4.94998 52.1271 5.7755 52.2647C6.60102 52.4022 7.38175 51.8445 7.5193 51.019Z" fill="#9195C4"/>
<path d="M5.99925 69.6791C6.83615 69.6791 7.51459 69.0007 7.51459 68.1638C7.51459 67.3269 6.83615 66.6484 5.99925 66.6484C5.16234 66.6484 4.48389 67.3269 4.48389 68.1638C4.48389 69.0007 5.16234 69.6791 5.99925 69.6791Z" fill="#9195C4"/>
<path d="M8.035 80.3153C7.68234 79.3972 7.72953 78.7691 8.035 77.5112C7.88313 73.4371 5.99967 73.8687 5.99967 73.8687C5.99967 73.8687 4.11622 73.4371 3.96434 77.5112C4.26981 78.7691 4.317 79.398 3.96434 80.3153C1.39014 83.588 1.39014 99.9994 1.39014 99.9994H10.6101C10.6101 99.9994 10.6101 83.588 8.03586 80.3153H8.035Z" fill="#E5C1C7"/>
<path d="M8.03979 77.5117H3.96826V80.3159H8.03979V77.5117Z" fill="#C6919D"/>
<path d="M6.00033 57.9991C6.00033 57.9991 6.4062 55.2507 9.04561 55.1392C11.0312 55.056 11.4353 57.1402 10.7386 58.387C10.1465 59.4467 8.16524 60.5236 8.16524 60.5236C8.16524 60.5236 10.0101 61.0092 9.67029 62.0775C9.33049 63.1458 7.28229 63.1939 6.00033 61.8836C4.71752 63.1947 2.67017 63.1458 2.33038 62.0775C1.99059 61.0092 3.83543 60.5236 3.83543 60.5236C3.83543 60.5236 1.85416 59.4467 1.26209 58.387C0.564482 57.1402 0.969488 55.0551 2.95506 55.1392C5.59533 55.2507 6.00033 57.9991 6.00033 57.9991Z" fill="#C6919D"/>
<path d="M7.50729 33.9976C7.64138 33.1715 7.0804 32.3932 6.25431 32.2591C5.42822 32.125 4.64984 32.6859 4.51575 33.512C4.38166 34.3381 4.94263 35.1165 5.76872 35.2506C6.59481 35.3847 7.37319 34.8237 7.50729 33.9976Z" fill="#9195C4"/>
<path d="M6.00033 40.9874C6.00033 40.9874 6.4062 38.239 9.04561 38.1275C11.0312 38.0442 11.4353 40.1285 10.7386 41.3753C10.1465 42.435 8.16524 43.5118 8.16524 43.5118C8.16524 43.5118 10.0101 43.9975 9.67029 45.0658C9.33049 46.1341 7.28229 46.1821 6.00033 44.8719C4.71752 46.183 2.67017 46.1341 2.33038 45.0658C1.99059 43.9975 3.83543 43.5118 3.83543 43.5118C3.83543 43.5118 1.85416 42.435 1.26209 41.3753C0.564482 40.1285 0.969488 38.0434 2.95506 38.1275C5.59533 38.239 6.00033 40.9874 6.00033 40.9874Z" fill="#A1C2D3"/>
<path d="M5.99925 18.2573C6.83615 18.2573 7.51459 17.5788 7.51459 16.7419C7.51459 15.905 6.83615 15.2266 5.99925 15.2266C5.16234 15.2266 4.48389 15.905 4.48389 16.7419C4.48389 17.5788 5.16234 18.2573 5.99925 18.2573Z" fill="#9195C4"/>
<path d="M6.00033 23.9757C6.00033 23.9757 6.4062 21.2273 9.04561 21.1157C11.0312 21.0325 11.4353 23.1168 10.7386 24.3635C10.1465 25.4232 8.16524 26.5001 8.16524 26.5001C8.16524 26.5001 10.0101 26.9858 9.67029 28.0541C9.33049 29.1224 7.28229 29.1704 6.00033 27.8602C4.71752 29.1713 2.67017 29.1224 2.33038 28.0541C1.99059 26.9858 3.83543 26.5001 3.83543 26.5001C3.83543 26.5001 1.85416 25.4232 1.26209 24.3635C0.564482 23.1168 0.969488 21.0317 2.95506 21.1157C5.59533 21.2273 6.00033 23.9757 6.00033 23.9757Z" fill="#E5C1C7"/>
</svg>
