<svg width="24" height="113" viewBox="0 0 24 113" fill="none" xmlns="http://www.w3.org/2000/svg">
<path d="M12.0373 82H0V112.016L5.38414 107.631L11.9813 113L18.6159 107.631L24 112.016V82H12.0373ZM6.90513 101.615C6.90513 102.49 6.1773 103.201 5.2815 103.201C4.3857 103.201 3.65785 102.49 3.65785 101.615V88.6813C3.65785 87.8062 4.3857 87.0953 5.2815 87.0953C6.1773 87.0953 6.90513 87.8062 6.90513 88.6813V101.615ZM20.2115 101.615C20.2115 102.49 19.4837 103.201 18.5879 103.201C17.6921 103.201 16.9642 102.49 16.9642 101.615V88.6813C16.9642 87.8062 17.6921 87.0953 18.5879 87.0953C19.4837 87.0953 20.2115 87.8062 20.2115 88.6813V101.615Z" fill="#A5A19C"/>
<path d="M12.0046 89C9.79422 89 8 87.2136 8 85.0129V4H16V85.0037C16 87.2044 14.2058 88.9908 11.9954 88.9908L12.0046 89Z" fill="#D1945E"/>
<path d="M3.71879 0H20.2812C21.7886 0 23 1.17857 23 2.625V3.375C23 4.83036 21.7793 6 20.2812 6H3.71879C2.21144 6 1 4.82143 1 3.375V2.625C1 1.16964 2.22068 0 3.71879 0Z" fill="#626262"/>
<path d="M8.04598 13L16 12.8624L15.954 4L8 4.13762L8.04598 13Z" fill="#7A7471"/>
</svg>
