<svg width="16" height="100" viewBox="0 0 16 100" fill="none" xmlns="http://www.w3.org/2000/svg">
<path d="M8.42984 0H7.57178V31.2268H8.42984V0Z" fill="#8B93A0"/>
<path d="M8.42984 44.1055H7.57178V59.7077H8.42984V44.1055Z" fill="#8B93A0"/>
<path d="M7.99871 56.2211C8.91191 56.2211 9.6522 55.4808 9.6522 54.5676C9.6522 53.6544 8.91191 52.9141 7.99871 52.9141C7.08551 52.9141 6.34521 53.6544 6.34521 54.5676C6.34521 55.4808 7.08551 56.2211 7.99871 56.2211Z" fill="#597296"/>
<path d="M7.99871 50.6586C8.91191 50.6586 9.6522 49.9183 9.6522 49.0051C9.6522 48.0919 8.91191 47.3516 7.99871 47.3516C7.08551 47.3516 6.34521 48.0919 6.34521 49.0051C6.34521 49.9183 7.08551 50.6586 7.99871 50.6586Z" fill="#597296"/>
<path d="M9.80824 62.4893C9.80481 62.4189 9.69756 60.7955 7.97799 60.1631C6.24126 60.8023 6.14859 62.4696 6.14774 62.4867L5.29053 62.4498C5.29482 62.3537 5.42095 60.0833 7.8467 59.3007L7.97799 59.2578L8.10928 59.3007C10.535 60.0824 10.6612 62.3529 10.6655 62.4498L9.80824 62.4893Z" fill="#8B93A0"/>
<path d="M6.49218 61.8555H4.9408C4.24491 61.8555 3.68115 62.4192 3.68115 63.1151V99.9991H7.75269V63.1151C7.75269 62.4192 7.18893 61.8555 6.49304 61.8555H6.49218Z" fill="#7997C9"/>
<path d="M7.75269 65.6719H3.68115V68.476H7.75269V65.6719Z" fill="#597296"/>
<path d="M11.0625 61.8555H9.51111C8.81522 61.8555 8.25146 62.4192 8.25146 63.1151V99.9991H12.323V63.1151C12.323 62.4192 11.7592 61.8555 11.0634 61.8555H11.0625Z" fill="#7997C9"/>
<path d="M12.323 65.6719H8.25146V68.476H12.323V65.6719Z" fill="#597296"/>
<path d="M8.23384 44.6523C8.05794 44.6523 7.84942 44.6085 7.60916 44.4875C7.35518 44.3597 7.0171 44.0843 6.85321 43.5008C6.44735 42.0592 7.34574 39.5622 7.96355 38.5703L8.69204 39.0234C8.08711 39.9964 7.37492 42.1853 7.67953 43.2682C7.74389 43.4982 7.84771 43.6458 7.99529 43.7204C8.12744 43.7874 8.23641 43.8097 8.28618 43.7822C8.38743 43.7256 8.47066 43.4622 8.48525 43.2983L9.34075 43.3678C9.33388 43.4544 9.25837 44.2198 8.70835 44.5304C8.59251 44.5957 8.43463 44.6523 8.2347 44.6523H8.23384Z" fill="#8B93A0"/>
<path d="M6.50827 44.4761C6.2826 44.4761 5.99857 44.3946 5.68967 44.114C5.47944 43.9218 5.22803 43.5666 5.22803 42.9599C5.22631 41.4618 6.76568 39.3003 7.62718 38.5117L8.20638 39.1441C7.36118 39.9181 6.08438 41.8333 6.0861 42.9591C6.0861 43.1985 6.14616 43.3684 6.26801 43.4799C6.37441 43.5769 6.47308 43.6301 6.52628 43.6164C6.63955 43.5889 6.79057 43.3529 6.84892 43.195L7.6555 43.4876C7.62547 43.57 7.34832 44.2959 6.73308 44.4487C6.66787 44.465 6.59236 44.4761 6.50827 44.4761Z" fill="#8B93A0"/>
<path d="M4.89385 43.8412C4.88356 43.8412 4.87412 43.8412 4.86382 43.8412C4.61413 43.8335 4.25288 43.7219 3.94912 43.2354C3.7981 42.9943 3.65224 42.5833 3.81527 41.9998C4.2177 40.5574 6.28307 38.891 7.32562 38.3633L7.71261 39.1287C7.19606 39.3895 6.48986 39.9147 5.91238 40.4655C5.2285 41.1185 4.77716 41.7449 4.64159 42.2297C4.57723 42.4597 4.58839 42.6399 4.67591 42.7798C4.75314 42.9033 4.83551 42.9805 4.89043 42.9823C5.00455 42.9891 5.2182 42.7995 5.31087 42.6699L6.00848 43.1693C5.95871 43.2388 5.50995 43.8403 4.89299 43.8403L4.89385 43.8412Z" fill="#8B93A0"/>
<path d="M3.5169 42.7905C3.42079 42.7905 3.32211 42.7776 3.22429 42.7467C2.98661 42.6729 2.66912 42.4696 2.50781 41.9213C2.42801 41.6484 2.39798 41.2134 2.71289 40.6951C3.48944 39.414 5.9272 38.3672 7.07358 38.1406L7.24005 38.9824C6.67287 39.0948 5.85084 39.4088 5.1455 39.7838C4.31061 40.2274 3.70738 40.7097 3.44653 41.1396C3.32297 41.3438 3.28521 41.5206 3.33155 41.6793C3.37188 41.8166 3.42851 41.911 3.47913 41.9264C3.59068 41.9607 3.85154 41.8312 3.97596 41.7299L4.5174 42.3949C4.45991 42.4413 4.01629 42.7888 3.5169 42.7888V42.7905Z" fill="#8B93A0"/>
<path d="M2.54719 41.4149C2.34468 41.4149 2.12845 41.3737 1.9371 41.2501C1.72773 41.1145 1.47717 40.8331 1.47031 40.2616C1.46688 39.9767 1.55612 39.5503 1.99802 39.1367C3.09206 38.113 5.72117 37.7621 6.88643 37.8539L6.81951 38.7094C6.24289 38.6639 5.3668 38.7454 4.58681 38.9162C3.66353 39.1187 2.95219 39.419 2.58494 39.7631C2.41075 39.9261 2.32666 40.0857 2.32838 40.2513C2.33009 40.3938 2.35841 40.501 2.40303 40.5302C2.50085 40.5937 2.77887 40.5413 2.93589 40.4753L3.27569 41.263C3.2242 41.2853 2.90843 41.4157 2.54719 41.4157V41.4149Z" fill="#8B93A0"/>
<path d="M2.14698 39.8628C1.86554 39.8628 1.39532 39.807 1.10014 39.4706C0.935396 39.2827 0.770647 38.9429 0.918235 38.3886C0.992029 38.1132 1.19196 37.727 1.72996 37.4473C3.05911 36.7566 5.68651 37.1289 6.78312 37.5305L6.48794 38.3363C5.94478 38.1372 5.079 37.9784 4.28185 37.933C3.33798 37.8789 2.57258 37.9767 2.12553 38.2084C1.91359 38.3182 1.79002 38.4495 1.74712 38.6091C1.70937 38.749 1.70851 38.8622 1.7454 38.9034C1.82177 38.991 2.09893 39.0176 2.26454 38.9978L2.37351 39.849C2.34863 39.8525 2.26368 39.8619 2.14698 39.8619V39.8628Z" fill="#8B93A0"/>
<path d="M1.89239 38.2372C1.80744 38.2244 1.05149 38.0957 0.780338 37.5259C0.673079 37.3002 0.606151 36.927 0.898751 36.4327C1.04376 36.1873 1.34151 35.8698 1.93443 35.7454C3.40001 35.4391 5.83005 36.5057 6.77822 37.1895L6.27625 37.8854C5.34696 37.2153 3.21124 36.3555 2.11034 36.5855C1.87609 36.6344 1.72164 36.727 1.63755 36.8695C1.56204 36.9973 1.53114 37.1054 1.55516 37.1569C1.60407 37.2616 1.85978 37.3629 2.02196 37.3886L1.89239 38.2372Z" fill="#8B93A0"/>
<path d="M6.19197 37.3965C5.47805 36.5007 3.65381 35.0961 2.53146 35.0205C2.29292 35.0042 2.11872 35.0523 1.99945 35.1664C1.89477 35.2668 1.83557 35.3621 1.84501 35.417C1.86474 35.532 2.08784 35.6984 2.23972 35.7671L1.89048 36.5513C1.81068 36.5162 1.10878 36.1892 0.999802 35.5654C0.956899 35.3192 0.992089 34.9433 1.40654 34.5469C1.61247 34.3504 1.98401 34.1239 2.58894 34.1651C4.0837 34.2654 6.13448 35.9481 6.86298 36.862L6.19197 37.3965Z" fill="#8B93A0"/>
<path d="M6.24332 36.9034C6.01851 36.3705 5.54314 35.63 5.03259 35.0156C4.42851 34.2889 3.83387 33.7963 3.35936 33.6281C3.13455 33.5483 2.95349 33.5475 2.80762 33.6256C2.68148 33.6925 2.59997 33.7672 2.59482 33.8204C2.58281 33.937 2.75871 34.1601 2.88913 34.2683L2.34598 34.9324C2.27733 34.8766 1.67927 34.3704 1.74019 33.738C1.76422 33.49 1.89893 33.1382 2.40261 32.8688C2.65403 32.7349 3.07276 32.6173 3.64424 32.8198C5.05661 33.3201 6.57711 35.4936 7.03274 36.5705L6.24247 36.9042L6.24332 36.9034Z" fill="#8B93A0"/>
<path d="M6.41933 36.4369C6.34639 35.8628 6.08811 35.021 5.7629 34.2925C5.37677 33.4293 4.93744 32.7944 4.52643 32.5043C4.33079 32.367 4.15746 32.3173 3.99615 32.3525C3.85542 32.3833 3.75503 32.434 3.73529 32.4846C3.69239 32.5927 3.79794 32.8527 3.89232 32.9909L3.18784 33.4808C3.13808 33.4087 2.70561 32.7635 2.93558 32.174C3.02653 31.9414 3.2522 31.6385 3.81166 31.515C4.08967 31.4541 4.52471 31.4541 5.02067 31.8033C6.24514 32.6657 7.12379 35.1695 7.27138 36.3287L6.42019 36.4369H6.41933Z" fill="#8B93A0"/>
<path d="M7.57117 36.1657L6.72255 36.0404C6.80664 35.4681 6.78604 34.5886 6.66849 33.7983C6.52948 32.863 6.27807 32.1336 5.95972 31.7432C5.8087 31.5579 5.65511 31.4635 5.49036 31.454C5.34706 31.4463 5.23724 31.4678 5.20377 31.5107C5.13341 31.6034 5.16515 31.8822 5.21921 32.041L4.4092 32.3233C4.38003 32.2409 4.13719 31.5012 4.51818 30.995C4.66834 30.7959 4.96694 30.5642 5.53841 30.5968C5.82243 30.6131 6.24203 30.7307 6.62472 31.2001C7.57117 32.361 7.74193 35.009 7.57117 36.1648V36.1657Z" fill="#8B93A0"/>
<path d="M7.89827 36.0881L7.11486 35.7389C7.58165 34.6929 7.98923 32.4267 7.54046 31.3953C7.44521 31.1765 7.32251 31.0435 7.16634 30.9903C7.02476 30.9423 6.91321 30.9337 6.86688 30.9689C6.76648 31.0453 6.72788 31.3353 6.73474 31.4691L5.87838 31.5163C5.87323 31.4305 5.84664 30.666 6.34861 30.285C6.54854 30.134 6.90034 29.9924 7.44435 30.1786C7.71379 30.2704 8.08533 30.4969 8.32817 31.053C8.92624 32.4259 8.37622 35.0215 7.89999 36.089L7.89827 36.0881Z" fill="#8B93A0"/>
<path d="M8.237 36.1032L7.57715 35.5549C8.30908 34.6737 9.31302 32.6015 9.15857 31.4868C9.12597 31.25 9.04359 31.0896 8.90715 30.996C8.78102 30.9094 8.67204 30.8707 8.61541 30.8922C8.50386 30.9351 8.38803 31.1754 8.35199 31.3255L7.51709 31.1282C7.53597 31.0458 7.7213 30.3182 8.30565 30.0916C8.5399 30.0007 8.91917 29.9612 9.39454 30.2881C9.62879 30.4494 9.92654 30.7678 10.0089 31.3684C10.2148 32.852 8.98438 35.2031 8.23786 36.1024L8.237 36.1032Z" fill="#8B93A0"/>
<path d="M8.56001 36.2086L8.07178 35.5024C8.548 35.1738 9.17611 34.5577 9.67379 33.933C10.2624 33.1933 10.6245 32.5112 10.6923 32.0126C10.7249 31.7758 10.6889 31.5991 10.5833 31.4721C10.4907 31.3605 10.3989 31.2962 10.3448 31.3005C10.229 31.3125 10.047 31.5244 9.9681 31.6711L9.20958 31.2696C9.2499 31.1923 9.62403 30.5136 10.2538 30.4467C10.5027 30.4201 10.8751 30.4819 11.2423 30.9212C11.4242 31.14 11.625 31.527 11.5427 32.1276C11.3402 33.6121 9.52191 35.5436 8.56001 36.2077V36.2086Z" fill="#8B93A0"/>
<path d="M8.84284 36.3964L8.56396 35.5847C9.11055 35.3968 9.88282 34.9729 10.5298 34.5053C11.2961 33.9518 11.8289 33.3923 12.0288 32.9307C12.1241 32.711 12.137 32.5317 12.0692 32.3807C12.0082 32.246 11.9387 32.1593 11.883 32.149C11.7689 32.1284 11.538 32.2811 11.4231 32.3996L10.8035 31.8058C10.8636 31.7431 11.405 31.1957 12.028 31.3029C12.2742 31.345 12.6175 31.5054 12.8526 32.0289C12.9693 32.2889 13.0577 32.7153 12.8166 33.2714C12.2211 34.646 9.94889 36.0155 8.8437 36.3956L8.84284 36.3964Z" fill="#8B93A0"/>
<path d="M9.05905 36.6532L9.00928 35.7969C9.58676 35.7634 10.444 35.5635 11.1931 35.2881C12.0803 34.962 12.7436 34.5673 13.0611 34.176C13.2112 33.9907 13.273 33.8208 13.2481 33.6577C13.2267 33.5161 13.1838 33.414 13.1349 33.3909C13.0293 33.3402 12.7616 33.4303 12.6157 33.5161L12.173 32.7808C12.2485 32.7353 12.9238 32.344 13.4987 32.6135C13.7244 32.7199 14.011 32.9644 14.0959 33.5299C14.1379 33.8113 14.1079 34.2455 13.7261 34.7166C12.7822 35.8793 10.2243 36.5855 9.05733 36.6532H9.05905Z" fill="#8B93A0"/>
<path d="M10.8572 37.1073C10.2034 37.1073 9.60874 37.049 9.20459 36.9606L9.38736 36.1223C9.95282 36.2458 10.8315 36.2844 11.6278 36.2218C12.5699 36.1472 13.3156 35.9464 13.7266 35.6555C13.9214 35.5173 14.0261 35.3706 14.0467 35.2067C14.0647 35.0643 14.0501 34.9536 14.0098 34.9175C13.9222 34.8412 13.6417 34.854 13.4786 34.8969L13.2521 34.0689C13.3362 34.0457 14.0913 33.8527 14.5709 34.2671C14.7597 34.4302 14.9699 34.7442 14.8987 35.3123C14.8635 35.5946 14.7177 36.0047 14.2226 36.3548C13.4331 36.9134 12.0474 37.1065 10.8581 37.1065L10.8572 37.1073Z" fill="#8B93A0"/>
<path d="M13.0957 38.234C11.7202 38.234 10.047 37.7123 9.25928 37.2936L9.66172 36.5359C10.6734 37.0731 12.9061 37.6342 13.9658 37.2567C14.1906 37.176 14.3313 37.0636 14.3957 36.9109C14.4532 36.7745 14.4686 36.6646 14.4377 36.6166C14.3742 36.5196 14.1056 36.4544 13.9409 36.4518L13.9512 35.5938C14.0379 35.5938 14.8067 35.6178 15.1542 36.1455C15.2915 36.3549 15.4091 36.7144 15.1868 37.2438C15.0761 37.5064 14.8256 37.8616 14.2541 38.0658C13.9203 38.1851 13.5222 38.2349 13.0957 38.2349V38.234Z" fill="#8B93A0"/>
<path d="M13.659 39.7284C12.1677 39.7284 10.0362 38.4104 9.22021 37.633L9.81227 37.0117C10.642 37.802 12.6396 38.9467 13.7628 38.8669C14.0014 38.8506 14.167 38.7793 14.2699 38.6498C14.36 38.5365 14.4055 38.4327 14.3892 38.3803C14.354 38.2696 14.1103 38.1349 13.9507 38.0869L14.1901 37.2631C14.2742 37.2872 15.013 37.5154 15.2061 38.1186C15.2825 38.3563 15.2979 38.7347 14.9418 39.1835C14.765 39.4066 14.427 39.6812 13.822 39.7232C13.7688 39.7266 13.7139 39.7284 13.659 39.7284Z" fill="#8B93A0"/>
<path d="M13.3504 41.2413C13.232 41.2413 13.1024 41.2284 12.9625 41.2001C11.4952 40.8972 9.69243 38.9502 9.09521 37.9463L9.83315 37.5078C10.1292 38.0046 10.7007 38.6739 11.2901 39.2128C11.9878 39.8503 12.6433 40.2579 13.1367 40.36C13.371 40.4081 13.5494 40.3849 13.6833 40.2879C13.7991 40.2039 13.8695 40.1189 13.8678 40.0657C13.8635 39.949 13.6601 39.7525 13.516 39.6624L13.9639 38.9305C14.0394 38.976 14.6992 39.3964 14.7241 40.0314C14.7344 40.2802 14.6486 40.6475 14.1853 40.983C14.0094 41.1108 13.7339 41.2421 13.3495 41.2421L13.3504 41.2413Z" fill="#8B93A0"/>
<path d="M12.5027 42.5949C12.2831 42.5949 12.0222 42.5434 11.7305 42.3924C10.3996 41.705 9.18889 39.3436 8.88428 38.2153L9.71317 37.9922C9.86333 38.5508 10.234 39.3496 10.6553 40.0267C11.1547 40.829 11.6764 41.3987 12.1243 41.6295C12.3363 41.7394 12.5156 41.7651 12.6701 41.7076C12.8039 41.6578 12.8957 41.5952 12.9086 41.5429C12.9361 41.4296 12.7945 41.1851 12.6804 41.0606L13.3102 40.478C13.3702 40.5424 13.8911 41.1241 13.7444 41.7419C13.6869 41.9848 13.505 42.3151 12.9687 42.5133C12.8468 42.5588 12.6898 42.5957 12.5045 42.5957L12.5027 42.5949Z" fill="#8B93A0"/>
<path d="M11.2857 43.6616C11.006 43.6616 10.6242 43.5724 10.232 43.2077C9.13627 42.1866 8.60684 39.5867 8.61885 38.418L9.47692 38.4265C9.47091 39.0049 9.61164 39.8741 9.8356 40.6404C10.1007 41.5482 10.4491 42.2364 10.8172 42.5805C10.9923 42.7435 11.157 42.8164 11.3218 42.8027C11.4642 42.7915 11.568 42.7555 11.5938 42.7092C11.6504 42.6071 11.5757 42.3239 11.502 42.1814L12.2631 41.7859C12.3042 41.864 12.6526 42.5684 12.3446 43.1245C12.2236 43.3424 11.9602 43.6118 11.3913 43.6573C11.3587 43.6599 11.3235 43.6616 11.2866 43.6616H11.2857Z" fill="#8B93A0"/>
<path d="M9.87769 44.3645C9.78073 44.3645 9.67433 44.3542 9.55763 44.3319C9.2779 44.277 8.87889 44.1036 8.56312 43.5862C7.78314 42.3068 7.97535 39.6606 8.30142 38.5391L9.12516 38.7785C8.96384 39.3336 8.8643 40.2089 8.87288 41.0069C8.88318 41.9525 9.03249 42.7093 9.29506 43.1392C9.41948 43.3434 9.55848 43.4575 9.72065 43.4893C9.86309 43.5167 9.97379 43.5107 10.0115 43.4738C10.0853 43.4 10.0991 43.1409 10.0622 42.959L10.9022 42.7839C10.9202 42.8689 11.0652 43.6274 10.6233 44.0762C10.4843 44.2169 10.2501 44.3653 9.87683 44.3653L9.87769 44.3645Z" fill="#8B93A0"/>
<path d="M8.00166 39.2621C6.94195 39.2621 6.07959 38.3998 6.07959 37.34C6.07959 36.2803 6.94195 35.418 8.00166 35.418C9.06138 35.418 9.92372 36.2803 9.92372 37.34C9.92372 38.3998 9.06138 39.2621 8.00166 39.2621ZM8.00166 36.2769C7.41474 36.2769 6.93766 36.754 6.93766 37.3409C6.93766 37.9278 7.41474 38.4049 8.00166 38.4049C8.58858 38.4049 9.06566 37.9278 9.06566 37.3409C9.06566 36.754 8.58858 36.2769 8.00166 36.2769Z" fill="#8B93A0"/>
</svg>
