<svg width="14" height="101" viewBox="0 0 14 101" fill="none" xmlns="http://www.w3.org/2000/svg">
<path d="M7.59244 0.0625H6.73438V62.3925H7.59244V0.0625Z" fill="#A5959A"/>
<path d="M3.03477 62.7556L2.21875 62.4913C2.70871 60.9777 5.03492 58.9981 6.89864 57.6055L7.41262 58.2928C4.95426 60.1299 3.35826 61.7568 3.03477 62.7564V62.7556Z" fill="#A5959A"/>
<path d="M11.245 62.7564C10.9215 61.7577 9.32555 60.1308 6.86719 58.2928L7.38117 57.6055C9.24575 58.999 11.5711 60.9777 12.0619 62.4913L11.2459 62.7556L11.245 62.7564Z" fill="#A5959A"/>
<path d="M8.70041 57.8737C8.92591 57.025 8.42072 56.1542 7.57203 55.9287C6.72335 55.7032 5.85255 56.2084 5.62705 57.0571C5.40155 57.9058 5.90674 58.7766 6.75543 59.0021C7.60411 59.2276 8.47491 58.7224 8.70041 57.8737Z" fill="#E5C1C7"/>
<path d="M8.74573 50.9769C8.77898 50.0994 8.09458 49.3611 7.21708 49.3278C6.33957 49.2946 5.60127 49.979 5.56802 50.8565C5.53477 51.734 6.21917 52.4723 7.09667 52.5055C7.97417 52.5388 8.71248 51.8544 8.74573 50.9769Z" fill="#E5C1C7"/>
<path d="M3.36572 61.918H1.81433C1.11844 61.918 0.554688 62.4817 0.554688 63.1776V100.062H4.62621V63.1776C4.62621 62.4817 4.06247 61.918 3.36658 61.918H3.36572Z" fill="#9195C4"/>
<path d="M4.62622 65.7344H0.554688V68.5385H4.62622V65.7344Z" fill="#E5C1C7"/>
<path d="M7.93603 61.918H6.38465C5.68875 61.918 5.125 62.4817 5.125 63.1776V100.062H9.19652V63.1776C9.19652 62.4817 8.63278 61.918 7.93689 61.918H7.93603Z" fill="#656FA0"/>
<path d="M9.19653 65.7344H5.125V68.5385H9.19653V65.7344Z" fill="#E5C1C7"/>
<path d="M12.5063 61.918H10.955C10.2591 61.918 9.69531 62.4817 9.69531 63.1776V100.062H13.7668V63.1776C13.7668 62.4817 13.2031 61.918 12.5072 61.918H12.5063Z" fill="#747CB2"/>
<path d="M13.7668 65.7344H9.69531V68.5385H13.7668V65.7344Z" fill="#E5C1C7"/>
<path d="M7.15707 42.2882C7.15707 42.2882 7.56294 39.5398 10.2024 39.4282C12.1879 39.345 12.5921 41.4293 11.8953 42.676C11.3033 43.7357 9.32197 44.8126 9.32197 44.8126C9.32197 44.8126 11.1668 45.2983 10.827 46.3666C10.4872 47.4349 8.43902 47.4829 7.15707 46.1727C5.87426 47.4838 3.82691 47.4349 3.48712 46.3666C3.14732 45.2983 4.99217 44.8126 4.99217 44.8126C4.99217 44.8126 3.0109 43.7357 2.41883 42.676C1.72122 41.4293 2.12623 39.3442 4.11179 39.4282C6.75207 39.5398 7.15707 42.2882 7.15707 42.2882Z" fill="#9195C4"/>
</svg>
