<svg width="16" height="100" viewBox="0 0 16 100" fill="none" xmlns="http://www.w3.org/2000/svg">
<path d="M8.43277 0H7.57471V62.33H8.43277V0Z" fill="#BAAAAE"/>
<path d="M11.8649 51.3103C13.9995 49.1757 13.9995 45.7149 11.8649 43.5804C9.73035 41.4458 6.26954 41.4458 4.13498 43.5803C2.00042 45.7149 2.00042 49.1757 4.13499 51.3103C6.26955 53.4448 9.73035 53.4448 11.8649 51.3103Z" fill="#E5C1C7"/>
<path d="M9.48442 38.9933C9.6214 38.1677 9.06314 37.3874 8.23753 37.2504C7.41191 37.1134 6.63157 37.6717 6.4946 38.4973C6.35762 39.3229 6.91588 40.1032 7.74149 40.2402C8.56711 40.3772 9.34745 39.8189 9.48442 38.9933Z" fill="#9195C4"/>
<path d="M8.00411 57.6635C8.84101 57.6635 9.51945 56.9851 9.51945 56.1482C9.51945 55.3113 8.84101 54.6328 8.00411 54.6328C7.16721 54.6328 6.48877 55.3113 6.48877 56.1482C6.48877 56.9851 7.16721 57.6635 8.00411 57.6635Z" fill="#9195C4"/>
<path d="M10.0321 68.3036C9.67941 67.3855 9.7266 66.7574 10.0321 65.4994C9.8802 61.4253 7.99674 61.8569 7.99674 61.8569C7.99674 61.8569 6.11329 61.4253 5.96141 65.4994C6.26688 66.7574 6.31407 67.3863 5.96141 68.3036C3.38721 71.5763 3.38721 100.001 3.38721 100.001H12.6071C12.6071 100.001 12.6071 71.5763 10.0329 68.3036H10.0321Z" fill="#E5C1C7"/>
<path d="M10.0369 65.5H5.96533V68.3042H10.0369V65.5Z" fill="#C6919D"/>
<path d="M7.99656 43.6562C7.99656 43.6562 6.22122 45.1407 7.99656 46.7487C9.7719 45.1407 7.99656 43.6562 7.99656 43.6562Z" fill="#C6919D"/>
<path d="M7.99656 51.2331C7.99656 51.2331 9.7719 49.7486 7.99656 48.1406C6.22122 49.7486 7.99656 51.2331 7.99656 51.2331Z" fill="#C6919D"/>
<path d="M11.7844 47.4453C11.7844 47.4453 10.2999 45.6699 8.69189 47.4453C10.2999 49.2206 11.7844 47.4453 11.7844 47.4453Z" fill="#C6919D"/>
<path d="M4.20752 47.4453C4.20752 47.4453 5.69196 49.2206 7.29998 47.4453C5.69196 45.6699 4.20752 47.4453 4.20752 47.4453Z" fill="#C6919D"/>
<path d="M10.6717 44.7662C10.6717 44.7662 8.36696 44.5602 8.48537 46.9525C10.8777 47.0709 10.6717 44.7662 10.6717 44.7662Z" fill="#C6919D"/>
<path d="M5.31352 50.1244C5.31352 50.1244 7.61829 50.3303 7.49988 47.938C5.10759 47.8196 5.31352 50.1244 5.31352 50.1244Z" fill="#C6919D"/>
<path d="M10.6717 50.1244C10.6717 50.1244 10.8777 47.8196 8.48537 47.938C8.36696 50.3303 10.6717 50.1244 10.6717 50.1244Z" fill="#C6919D"/>
<path d="M5.31352 44.7662C5.31352 44.7662 5.10759 47.0709 7.49988 46.9525C7.61829 44.5602 5.31352 44.7662 5.31352 44.7662Z" fill="#C6919D"/>
</svg>
