<svg width="14" height="100" viewBox="0 0 14 100" fill="none" xmlns="http://www.w3.org/2000/svg">
<path d="M7.43815 0H6.58008V48.3495H7.43815V0Z" fill="#938277"/>
<path d="M7.43815 57.4766H6.58008V62.3306H7.43815V57.4766Z" fill="#938277"/>
<path d="M2.62419 55.7628C2.22262 55.7628 1.8442 55.6066 1.56018 55.3217C1.27616 55.0377 1.11914 54.6601 1.11914 54.2577C1.11914 53.8553 1.2753 53.4777 1.56018 53.1937L7.29808 47.4558C7.88414 46.8689 8.83917 46.8689 9.42609 47.4558C9.71011 47.7398 9.86713 48.1174 9.86713 48.5198C9.86713 48.9222 9.71097 49.2998 9.42609 49.5838L3.68819 55.3217C3.40417 55.6057 3.02663 55.7628 2.62419 55.7628ZM8.36294 47.8737C8.19733 47.8737 8.03174 47.9363 7.9056 48.0625L2.1677 53.8004C2.04585 53.9222 1.97807 54.0844 1.97807 54.2577C1.97807 54.431 2.04499 54.5924 2.1677 54.7151C2.28954 54.8369 2.45258 54.9047 2.62505 54.9047C2.79752 54.9047 2.95968 54.8378 3.08239 54.7151L8.82029 48.9772C8.94214 48.8553 9.00992 48.6923 9.00992 48.5198C9.00992 48.3473 8.943 48.1852 8.82029 48.0625C8.69416 47.9363 8.52854 47.8737 8.36294 47.8737Z" fill="#938277"/>
<path d="M5.66326 58.8018C5.26168 58.8018 4.88326 58.6457 4.59924 58.3608C4.31522 58.0768 4.1582 57.6992 4.1582 57.2968C4.1582 56.8943 4.31436 56.5168 4.59924 56.2328L10.3371 50.4949C10.9241 49.908 11.8782 49.908 12.4652 50.4949C13.0521 51.0818 13.0521 52.036 12.4652 52.6229L6.72725 58.3608C6.44323 58.6448 6.06569 58.8018 5.66326 58.8018ZM11.4011 50.9136C11.2355 50.9136 11.0699 50.9762 10.9438 51.1024L5.2059 56.8403C5.08405 56.9621 5.01627 57.1243 5.01627 57.2976C5.01627 57.471 5.0832 57.6323 5.2059 57.755C5.32775 57.8768 5.49078 57.9446 5.66326 57.9446C5.83573 57.9446 5.99791 57.8777 6.12061 57.755L11.8585 52.0171C12.1108 51.7648 12.1108 51.3547 11.8585 51.1024C11.7324 50.9762 11.5667 50.9136 11.4011 50.9136Z" fill="#938277"/>
<path d="M11.4011 55.7628C10.9996 55.7628 10.6212 55.6066 10.3371 55.3217L4.59924 49.5838C4.31522 49.2998 4.1582 48.9222 4.1582 48.5198C4.1582 48.1174 4.31436 47.7398 4.59924 47.4558C5.18616 46.8689 6.14033 46.8689 6.72725 47.4558L12.4652 53.1937C13.0521 53.7806 13.0521 54.7348 12.4652 55.3217C12.1811 55.6057 11.8036 55.7628 11.4011 55.7628ZM5.66326 47.8737C5.49765 47.8737 5.33204 47.9363 5.2059 48.0625C5.08405 48.1843 5.01627 48.3473 5.01627 48.5198C5.01627 48.6923 5.0832 48.8545 5.2059 48.9772L10.9438 54.7151C11.0656 54.8369 11.2287 54.9047 11.4011 54.9047C11.5736 54.9047 11.7358 54.8378 11.8585 54.7151C12.1108 54.4628 12.1108 54.0526 11.8585 53.8004L6.12061 48.0625C5.99448 47.9363 5.82886 47.8737 5.66326 47.8737Z" fill="#938277"/>
<path d="M8.36208 58.8018C7.9605 58.8018 7.5821 58.6457 7.29808 58.3608L1.56018 52.6229C1.27616 52.3389 1.11914 51.9613 1.11914 51.5589C1.11914 51.1564 1.2753 50.7789 1.56018 50.4949C2.1471 49.908 3.10127 49.908 3.68819 50.4949L9.42609 56.2328C9.71011 56.5168 9.86713 56.8943 9.86713 57.2968C9.86713 57.6992 9.71097 58.0768 9.42609 58.3608C9.14207 58.6448 8.76451 58.8018 8.36208 58.8018ZM2.62333 50.9136C2.45773 50.9136 2.29211 50.9762 2.16598 51.1024C2.04413 51.2242 1.97635 51.3873 1.97635 51.5597C1.97635 51.7322 2.04327 51.8944 2.16598 52.0171L7.90388 57.755C8.02573 57.8768 8.18875 57.9446 8.36122 57.9446C8.53369 57.9446 8.69587 57.8777 8.81857 57.755C8.94128 57.6323 9.0082 57.4701 9.0082 57.2976C9.0082 57.1252 8.94128 56.963 8.81857 56.8403L3.08067 51.1024C2.95453 50.9762 2.78894 50.9136 2.62333 50.9136Z" fill="#938277"/>
<path d="M12.3379 39.9702C12.9871 37.0221 11.1235 34.1059 8.17546 33.4567C5.22738 32.8074 2.31117 34.671 1.66191 37.6191C1.01265 40.5671 2.87622 43.4834 5.8243 44.1326C8.77238 44.7819 11.6886 42.9183 12.3379 39.9702Z" fill="#CC9A58"/>
<path d="M9.04526 68.3036C8.69259 67.3855 8.73979 66.7574 9.04526 65.4994C8.89338 61.4253 7.00992 61.8569 7.00992 61.8569C7.00992 61.8569 5.12647 61.4253 4.97459 65.4994C5.28006 66.7574 5.32726 67.3863 4.97459 68.3036C2.40039 71.5763 2.40039 100.001 2.40039 100.001H11.6203C11.6203 100.001 11.6203 71.5763 9.04612 68.3036H9.04526Z" fill="#E2B574"/>
<path d="M9.04223 65.5H4.9707V68.3042H9.04223V65.5Z" fill="#CC9A58"/>
<path d="M7.14066 40.6142C7.14066 40.6142 5.93078 40.5499 5.82266 39.6532C5.72827 38.8732 6.47909 39.0723 6.47909 39.0723C6.47909 39.0723 6.46793 38.6021 7.00422 38.5703C7.43154 38.5703 7.54051 38.9925 7.54051 38.9925C7.54051 38.9925 7.6924 38.6184 8.08797 38.8363C8.55819 39.0946 8.41832 40.4152 7.1398 40.6142H7.14066Z" fill="#E2B574"/>
<path d="M5.66844 39.9142C5.66844 39.9142 4.50661 39.7108 4.59242 38.6331C4.69281 38.041 5.12957 38.3919 5.12957 38.3919C5.12957 38.3919 4.97511 37.9638 5.3312 37.8728C5.68644 37.7819 5.74136 38.1826 5.74136 38.1826C5.74136 38.1826 5.7774 37.8359 6.12406 37.9277C6.47072 38.0187 6.40636 38.6202 6.40636 38.6202C6.40636 38.6202 6.32399 38.7703 6.32399 38.887C6.32399 38.887 6.08374 38.7721 5.76711 39.0303C5.59292 39.1719 5.53029 39.4937 5.66758 39.9142H5.66844Z" fill="#E2B574"/>
<path d="M8.38524 39.9142C8.38524 39.9142 9.54707 39.7108 9.46126 38.6331C9.36087 38.041 8.92411 38.3919 8.92411 38.3919C8.92411 38.3919 9.07855 37.9638 8.72246 37.8728C8.36722 37.7819 8.3123 38.1826 8.3123 38.1826C8.3123 38.1826 8.27626 37.8359 7.9296 37.9277C7.58294 38.0187 7.6473 38.6202 7.6473 38.6202C7.64043 38.6185 8.14927 38.4812 8.42814 38.887C8.55514 39.0724 8.57659 39.5297 8.38524 39.915V39.9142Z" fill="#E2B574"/>
<path d="M6.59399 38.4968C6.59399 38.4968 6.5674 38.1553 6.43612 37.915C6.31685 37.6971 5.91611 37.6319 5.77539 37.8181C5.77539 37.3487 6.16667 37.2938 6.33657 37.5323C6.21558 37.1839 6.55624 37.1402 6.55624 37.1402C6.87973 37.0801 6.9784 37.407 6.9784 37.407C6.9784 37.407 7.01701 37.1153 7.38513 37.1342C7.38513 37.1342 7.66058 37.1342 7.63741 37.486C7.63741 37.486 7.99521 37.2981 8.09647 37.7074C8.09647 37.7074 7.54474 37.6619 7.48467 38.0746C7.4392 38.3904 7.44862 38.532 7.44862 38.532C7.44862 38.532 7.0848 38.1107 6.59399 38.4968Z" fill="#E2B574"/>
<path d="M4.19 40.6117C3.93 40.6683 3.93001 41.0648 4.33073 41.0536C4.24407 41.2707 4.47145 41.4869 4.86187 41.3351C5.73967 41.7907 6.6252 40.7267 6.6252 40.7267C5.77314 40.592 5.71221 40.1072 5.71221 40.1072C5.23941 40.1029 5.10728 39.9132 4.69112 39.7699C4.69112 39.7699 4.54354 39.703 4.44057 39.7528C4.3376 39.8025 4.24234 40.0188 4.42511 40.1664C4.15911 40.1166 3.98063 40.386 4.18914 40.61L4.19 40.6117Z" fill="#E2B574"/>
<path d="M4.5879 39.4836C4.5879 39.4836 4.07735 39.5257 4.16487 39.9813C3.83109 40.0336 3.79418 40.3254 3.94434 40.4918C3.40891 40.6145 2.89236 40.1452 3.09401 39.7393C2.89236 39.614 2.88979 39.1799 3.22272 39.0692C3.04081 38.6745 3.3926 38.3827 3.59339 38.532C3.63715 38.1442 4.45061 38.0652 4.37681 38.4333C4.28071 38.9139 4.48493 39.4296 4.5879 39.4819V39.4836Z" fill="#E2B574"/>
<path d="M4.50309 38.1965C4.50309 38.1965 4.60779 38.0025 4.89867 38.0515C4.80171 37.7365 5.2848 37.4602 5.58512 37.7039C5.5671 37.3298 5.99356 37.1994 5.99356 37.1994C5.99356 37.1994 6.12914 36.5087 5.78077 36.3147C5.43239 36.1208 5.31053 36.4846 5.31053 36.4846C5.31053 36.4846 5.20499 36.1903 4.9081 36.2838C4.61807 36.3748 4.70131 36.6777 4.70131 36.6777C4.70131 36.6777 4.49623 36.4941 4.26626 36.7506C4.13069 36.9016 4.26197 37.1153 4.26197 37.1153C4.26197 37.1153 4.06719 36.9385 3.89643 37.1359C3.74198 37.3135 3.77546 37.4414 3.86727 37.5298C3.86727 37.5298 3.72911 37.534 3.66304 37.728C3.63301 37.8163 3.65533 38.0231 3.742 38.0712C4.12041 37.794 4.50395 38.1982 4.50395 38.1982L4.50309 38.1965Z" fill="#E2B574"/>
<path d="M9.77104 40.6127C10.0062 40.6693 10.0061 41.0658 9.64317 41.0546C9.72125 41.2717 9.51533 41.4879 9.16267 41.3361C8.3681 41.7917 7.68164 40.7097 7.68164 40.7097C8.24625 40.5578 8.39298 40.1082 8.39298 40.1082C8.86921 40.0627 9.18668 39.8456 9.34456 39.668C9.34456 39.668 9.85769 39.8284 9.55736 40.1682C9.79762 40.1185 9.95982 40.3879 9.77018 40.6118L9.77104 40.6127Z" fill="#E2B574"/>
<path d="M9.43164 39.5227C9.43164 39.5227 9.94218 39.5647 9.85466 40.0204C10.1884 40.0727 10.2254 40.3644 10.0752 40.5309C10.6106 40.6536 11.1272 40.1842 10.9255 39.7784C11.1272 39.6531 11.1297 39.2189 10.7968 39.1082C10.9787 38.7135 10.6269 38.4218 10.4261 38.5711C10.3824 38.1832 9.56893 38.1043 9.64272 38.4724C9.73883 38.9529 9.53461 39.4686 9.43164 39.521V39.5227Z" fill="#E2B574"/>
<path d="M9.51035 38.1965C9.51035 38.1965 9.35932 38.0025 9.06843 38.0515C9.16539 37.7365 8.63424 37.4465 8.33392 37.6902C8.35194 37.3161 7.96067 37.268 7.96067 37.268C7.96067 37.268 7.8371 36.5078 8.18634 36.3147C8.53557 36.1208 8.65656 36.4846 8.65656 36.4846C8.65656 36.4846 8.76211 36.1903 9.059 36.2838C9.34903 36.3748 9.26579 36.6777 9.26579 36.6777C9.26579 36.6777 9.47088 36.4941 9.70084 36.7506C9.83641 36.9016 9.70513 37.1153 9.70513 37.1153C9.70513 37.1153 9.89991 36.9385 10.0707 37.1359C10.2251 37.3135 10.1916 37.4414 10.0998 37.5298C10.0998 37.5298 10.238 37.534 10.3041 37.728C10.3341 37.8163 10.3118 38.0231 10.2251 38.0712C9.8467 37.794 9.50949 38.1982 9.50949 38.1982L9.51035 38.1965Z" fill="#E2B574"/>
<path d="M6.19586 37.2259C6.19586 37.2259 6.22074 36.7917 6.1847 36.5866C6.14866 36.3815 5.99592 36.1112 5.62695 36.0958C5.66814 35.5732 6.19157 35.7406 6.27909 35.853C6.27909 35.5046 6.54595 35.4402 6.64377 35.4402C6.64377 35.4402 7.10542 35.3793 7.14231 35.8324C7.14231 35.8324 7.29504 35.4179 7.64599 35.5106C7.99694 35.6033 7.95576 35.8461 7.95576 35.8461C7.95576 35.8461 8.32816 35.7045 8.46545 36.0169C8.46545 36.0169 7.93601 36.0014 7.81588 36.4159C7.7112 36.7788 7.7541 37.1486 7.7541 37.1486C7.7541 37.1486 7.48297 36.6553 6.97499 37.0242C6.82826 36.8586 6.40952 36.7831 6.19586 37.2259Z" fill="#E2B574"/>
<path d="M6.84253 40.7773C6.84253 40.7773 7.21406 40.8202 7.4955 40.7773C7.4955 40.7773 7.75379 41.4681 8.57668 41.6457C8.57668 41.6457 8.26948 42.037 7.85846 41.8499C7.73919 42.1125 7.25697 42.1674 7.14113 41.9435C6.99526 42.1906 6.4418 42.0584 6.42721 41.8611C5.96901 42.0336 5.73132 41.6835 5.67383 41.5642C5.82656 41.6071 6.59454 41.2827 6.84253 40.7773Z" fill="#E2B574"/>
</svg>
