<svg width="35" height="158" viewBox="0 0 35 158" fill="none" xmlns="http://www.w3.org/2000/svg">
<path d="M34.7595 120H0.240479C0.240479 120 -3.38292 159.39 17.5 157.962C38.3829 159.39 34.7595 120 34.7595 120Z" fill="#A5A19C"/>
<path d="M33 0H2V6H33V0Z" fill="#D1945E"/>
<path d="M17.8565 26H13L14.349 133.354C14.3683 134.815 15.621 136 17.1531 136H17.8469C19.3887 136 20.6317 134.824 20.651 133.354L22 26H17.8373H17.8565Z" fill="#FF8B68"/>
<path d="M17.8565 26H13L14.349 133.354C14.3683 134.815 15.621 136 17.1531 136H17.8469C19.3887 136 20.6317 134.824 20.651 133.354L22 26H17.8373H17.8565Z" fill="#D1945E"/>
<path d="M14.0095 102.035L14.3905 133.295C14.4095 134.788 15.6476 136 17.1619 136H17.8476C19.3714 136 20.6 134.798 20.619 133.295L21 102.101C18.5333 102.016 15.8571 101.96 14 102.035H14.0095Z" fill="#7A7471"/>
<path d="M33.6501 0.596815C33.4406 -0.320604 31.8825 -0.127947 32.001 0.816995C32.9577 8.47744 27.9647 12.6976 22.9899 17.459C20.3659 19.9727 19.7281 22.5598 19.6097 25.6424H15.3729C15.2545 22.5598 14.6076 19.9727 11.9926 17.459C7.01788 12.6976 2.02491 8.47744 2.98159 0.816995C3.10004 -0.127947 1.55112 -0.320604 1.33245 0.596815C0.138875 5.79858 2.28913 10.615 5.70586 14.4682C7.63744 16.6516 10.4346 18.3305 12.0382 20.7892C13.0587 22.3396 13.0951 24.1286 13.2318 25.9176L13.3684 37H21.6232L21.769 25.9176C21.8966 24.1286 21.9421 22.3488 22.9626 20.7892C24.5662 18.3305 27.3633 16.6516 29.2949 14.4682C32.7026 10.615 34.8619 5.79858 33.6683 0.596815H33.6501Z" fill="#7A7471"/>
</svg>
