<svg width="90" height="90" viewBox="0 0 90 90" fill="none" xmlns="http://www.w3.org/2000/svg">
<path d="M82.0053 24.8254C84.2803 24.8254 85 25.4243 85 27.9408V35.3645C85 38.1176 84.1595 38.7165 82.1261 38.7165L68.4715 38.9581V60.7511C68.4715 63.1468 67.631 63.9873 65.1195 63.9873H56.7345C54.218 63.9873 53.3825 63.1468 53.3825 60.7511V39.1946L36.6175 39.4362V61.9489C36.6175 64.3446 35.777 65.1801 33.2655 65.1801H24.8805C22.364 65.1801 21.5285 64.3446 21.5285 61.9489V39.6728L7.87386 39.9093C5.83548 39.9093 5 39.3104 5 36.5573V29.1336C5 26.6171 5.71972 26.0182 7.99465 26.0182L82.0053 24.8203V24.8254Z" fill="#FFA41B"/>
</svg>
