<svg width="90" height="90" viewBox="0 0 90 90" fill="none" xmlns="http://www.w3.org/2000/svg">
<path d="M12.8034 17.7469C12.8034 15.1797 13.6994 14.2836 16.3975 14.2836L73.6019 13C76.2949 13 77.3218 13.896 77.191 16.4633L73.2142 73.5367C73.0834 76.104 71.9306 77 69.2375 77H60.2572C57.5641 77 56.9198 76.0989 57.0506 73.5367L57.9467 59.5578L19.3423 60.4589C16.6492 60.4589 15.7482 59.5578 15.7482 56.9956V49.0422C15.7482 46.4799 16.6442 45.5789 19.3423 45.5789L58.9736 44.6778L60.1263 28.2625L16.3925 29.1636C13.6994 29.1636 12.7983 28.2625 12.7983 25.7003V17.7469H12.8034Z" fill="#ED83B1"/>
</svg>
