<svg width="90" height="90" viewBox="0 0 90 90" fill="none" xmlns="http://www.w3.org/2000/svg">
<g clip-path="url(#clip0_1983_1883)">
<path d="M63.2208 54.626C65.3975 54.626 66.0862 55.199 66.0862 57.607V64.7103C66.0862 67.3446 65.2819 67.9177 63.3363 67.9177L40.4177 68.3752V89.8009C40.4177 92.0933 39.6135 92.8975 37.2104 92.8975H29.1871C26.7792 92.8975 25.9798 92.0933 25.9798 89.8009V68.7172L3.74983 69.0591C1.79941 69.0591 1 68.486 1 65.8469V58.7435C1 56.3404 1.68867 55.7625 3.86544 55.7625L63.2256 54.6163L63.2208 54.626ZM74.562 0.197264C74.562 -2.09508 75.3663 -2.89453 77.7694 -2.89453H85.7926C88.2006 -2.89453 89 -2.09508 89 0.197264V76.0565C89 78.3488 88.1957 79.1482 85.7926 79.1482H77.7694C75.3615 79.1482 74.562 78.3488 74.562 76.0565V0.197264Z" fill="#ED83B1"/>
</g>
<defs>
<clipPath id="clip0_1983_1883">
<rect width="90" height="90" fill="white"/>
</clipPath>
</defs>
</svg>
