<svg width="90" height="90" viewBox="0 0 90 90" fill="none" xmlns="http://www.w3.org/2000/svg">
<path d="M20.8039 52.1629V26.7294C20.8039 24.2597 21.6703 23.3984 24.2593 23.3984H32.9032C35.4974 23.3984 36.3587 24.2597 36.3587 26.7294V51.9139L53.6413 51.5455V26.7294C53.6413 24.2597 54.5077 23.3984 57.0968 23.3984H65.7407C68.3349 23.3984 69.1961 24.2597 69.1961 26.7294V51.2965L81.9129 51.0474C84.258 51.0474 85 51.6648 85 54.259V61.9119C85 64.75 84.1335 65.3674 82.0374 65.3674L7.96262 66.6023C5.86132 66.6023 5 65.9848 5 63.1468V55.4887C5 52.8997 5.74198 52.2771 8.08714 52.2771L20.8039 52.1525V52.1629Z" fill="#5B5EBF"/>
</svg>
