<svg width="90" height="90" viewBox="0 0 90 90" fill="none" xmlns="http://www.w3.org/2000/svg">
<path d="M74.1088 72.3458C74.1088 74.8571 73.2323 75.6105 70.5979 75.7336L18.9042 76.9893C16.2698 77.1173 15.3933 76.1078 15.3933 73.6014L14.1377 17.6435C14.1377 15.1322 15.0142 14.2557 17.6486 14.2557L72.3509 13C74.9853 13 75.8618 13.8765 75.8618 16.3878V24.168C75.8618 26.6793 74.9853 27.5558 72.3509 27.5558L30.1953 28.5603L30.3234 38.0934L70.5979 37.0889C73.2323 37.0889 74.1088 37.9654 74.1088 40.4767V48.2569C74.1088 50.7682 73.2323 51.6447 70.5979 51.6447L30.6976 52.6492L30.9487 62.1824L70.5979 61.1778C73.2323 61.0498 74.1088 62.0543 74.1088 64.5656V72.3458Z" fill="#B6BBFB"/>
</svg>
