<svg width="90" height="90" viewBox="0 0 90 90" fill="none" xmlns="http://www.w3.org/2000/svg">
<path d="M39.8869 70.329C39.8869 72.8905 38.9878 73.654 36.3006 73.7846L10.0672 74.4275C7.38003 74.5581 6.61155 73.5284 6.48096 70.9719L5.20018 24.2609C5.07462 21.7043 6.09423 20.8053 8.78639 20.8053L35.0199 20.1624C37.707 20.1624 38.6061 21.0614 38.6061 23.618V31.5538C38.6061 34.1154 37.712 35.0094 35.0199 35.0094L21.5842 35.3962L22.2271 59.3293L36.3057 58.9425C38.9928 58.8119 39.8919 59.8416 39.8919 62.3981V70.334L39.8869 70.329ZM84.6792 72.8905C84.6792 75.4471 83.7851 76.2155 81.093 76.3461L51.1477 76.989C48.4606 77.1196 47.5665 76.09 47.5665 73.5334L46.2858 17.0985C46.2858 14.537 47.1798 13.6429 49.872 13.6429L81.2236 13C83.9107 13 84.8098 13.894 84.8098 16.4556V24.3914C84.8098 26.953 83.9107 27.8471 81.2236 27.8471L62.6647 28.2288L63.4332 61.8858L81.093 61.4991C83.7801 61.3685 84.6792 62.3981 84.6792 64.9547V72.8905Z" fill="#FF814F"/>
</svg>
