<svg width="90" height="90" viewBox="0 0 90 90" fill="none" xmlns="http://www.w3.org/2000/svg">
<path d="M63.2883 73.3417C65.4593 73.3417 66.1462 73.9134 66.1462 76.315V83.3997C66.1462 86.0271 65.3441 86.6035 63.4036 86.6035L3.74263 87.7466C1.79732 87.7466 1 87.1751 1 84.5477V77.463C1 75.0613 1.68684 74.4897 3.8579 74.4897L63.2883 73.3465V73.3417ZM74.5999 5.3376C74.5999 3.05126 75.4021 2.25391 77.7989 2.25391H85.8011C88.2027 2.25391 89 3.05126 89 5.3376V78.7118C89 80.9981 88.1979 81.7955 85.8011 81.7955H77.7989C75.3973 81.7955 74.5999 80.9981 74.5999 78.7118V5.3376Z" fill="#01A66C"/>
</svg>
