<svg width="90" height="90" viewBox="0 0 90 90" fill="none" xmlns="http://www.w3.org/2000/svg">
<path d="M52.8497 40.3069C52.8497 43.2885 52.4746 45.1496 54.8375 46.7622L77.0582 63.3948C78.6707 64.7638 78.549 65.7528 77.1848 67.3654L71.475 74.1958C70.2327 75.6866 68.7467 75.8084 67.1292 74.4442L45.157 58.0601L23.5599 76.0617C21.6989 77.4258 20.8317 77.304 19.2142 75.6866L12.8808 69.3531C11.39 67.8623 11.39 66.4982 12.8808 65.2607L35.2233 46.6404C37.3328 44.7793 37.211 43.1667 37.211 40.1851V16.3519C37.211 13.8672 38.083 13 40.6895 13H49.3809C51.9874 13 52.8595 13.8672 52.8595 16.3519V40.3118L52.8497 40.3069Z" fill="#01A66C"/>
</svg>
