<svg width="90" height="90" viewBox="0 0 90 90" fill="none" xmlns="http://www.w3.org/2000/svg">
<path d="M22.2047 72.0316V50.5106C22.2047 48.3897 22.9488 47.6501 25.1722 47.6501H32.5953C34.8232 47.6501 35.5628 48.3897 35.5628 50.5106V71.7153L54.5396 71.292C56.5536 71.292 57.1908 71.8222 57.1908 74.0501V80.6222C57.1908 83.0595 56.4467 83.5941 54.6466 83.5941L3.5442 84.6546C1.73965 84.6546 1 84.1244 1 81.6871V75.115C1 72.8871 1.63716 72.3569 3.65114 72.3569L22.2047 72.0406V72.0316ZM78.3954 48.1803V76.2735C78.3954 78.3944 77.6513 79.134 75.4279 79.134H68.0048C65.7769 79.134 65.0373 78.3944 65.0373 76.2735V8.20823C65.0373 6.08732 65.7814 5.34766 68.0048 5.34766H75.4279C77.6558 5.34766 78.3954 6.08732 78.3954 8.20823V35.8781L86.3489 35.5618C88.3628 35.4548 89 36.092 89 38.3198V45.1059C89 47.3337 88.3628 47.757 86.3489 47.8639L78.3954 48.1803Z" fill="#FFA41B"/>
</svg>
