<svg width="90" height="90" viewBox="0 0 90 90" fill="none" xmlns="http://www.w3.org/2000/svg">
<path d="M38.4399 22.0966V15.8564C38.4399 13.739 39.179 13 41.4043 13H48.8111C51.0323 13 51.7714 13.7432 51.7714 15.8564V21.7811L70.496 21.3576C72.5055 21.3576 73.1407 21.889 73.1407 24.1102V30.6701C73.1407 33.103 72.4017 33.6303 70.5998 33.6303L19.3998 34.689C17.6021 34.689 16.8589 34.1617 16.8589 31.7288V25.1689C16.8589 22.9477 17.4941 22.4204 19.5036 22.4204L38.4399 22.1008V22.0966ZM19.3998 58.0636C19.3998 45.6871 29.0278 39.0235 45.635 39.0235C62.2422 39.0235 71.8702 45.6871 71.8702 58.0636C71.8702 70.4402 62.2422 77 45.635 77C29.0278 77 19.3998 70.4402 19.3998 58.0636ZM58.3271 58.0636C58.3271 52.6663 53.2494 50.2333 45.6309 50.2333C38.0123 50.2333 32.9346 52.6663 32.9346 58.0636C32.9346 63.461 38.0123 65.786 45.6309 65.786C53.2494 65.786 58.3271 63.4568 58.3271 58.0636Z" fill="#01A66C"/>
</svg>
