<svg width="90" height="90" viewBox="0 0 90 90" fill="none" xmlns="http://www.w3.org/2000/svg">
<path d="M18.4646 76.9892C15.8249 77.1175 14.9466 76.106 14.9466 73.5946L14.0635 17.6528C14.0635 15.1364 14.9466 14.2582 17.5863 14.2582H26.3886C29.0283 14.2582 29.9115 15.1414 29.9115 17.6528L30.0349 31.4828L59.5798 30.8513L60.083 16.3946C60.2063 13.8783 60.9612 13 63.6009 13H72.4033C75.043 13 76.0495 13.8783 75.9262 16.3946L74.1647 72.3365C74.0364 74.8528 73.2864 75.6077 70.6418 75.7311L18.4695 76.9892H18.4646ZM30.5332 62.1527L58.5683 61.3977L59.0715 45.4313L30.2816 46.0579L30.5332 62.1477V62.1527Z" fill="#5B5EBF"/>
</svg>
