<svg width="90" height="90" viewBox="0 0 90 90" fill="none" xmlns="http://www.w3.org/2000/svg">
<path d="M26.1436 74.1391V50.8254C26.1436 48.5392 26.9456 47.742 29.3423 47.742H37.3441C39.7456 47.742 40.5428 48.5392 40.5428 50.8254V73.7981L63.2849 73.3418C65.4558 73.3418 66.1427 73.9133 66.1427 76.3148V83.3992C66.1427 86.0264 65.3406 86.6027 63.4002 86.6027L3.74251 87.7458C1.7973 87.7458 1 87.1743 1 84.5471V77.4627C1 75.0612 1.68683 74.4897 3.85777 74.4897L26.1436 74.1487V74.1391ZM74.6007 5.34134C74.6007 3.05513 75.4028 2.25781 77.7995 2.25781H85.8012C88.2027 2.25781 89 3.05513 89 5.34134V78.7115C89 80.9977 88.1979 81.795 85.8012 81.795H77.7995C75.398 81.795 74.6007 80.9977 74.6007 78.7115V5.34134Z" fill="#FFB1D3"/>
</svg>
