<svg width="90" height="90" viewBox="0 0 90 90" fill="none" xmlns="http://www.w3.org/2000/svg">
<path d="M69.7688 27.7146L69.0138 61.2837L74.417 61.1554C77.057 61.1554 77.9402 62.0338 77.9402 64.5504V72.3468C77.9402 74.8634 77.0619 75.7417 74.417 75.7417L15.7018 77C13.0619 77 12.1786 76.1167 12.1786 73.6051V65.8086C12.1786 63.2921 13.0569 62.4137 15.7018 62.4137L21.9883 62.2854L21.6133 28.7163L14.4484 28.8446C11.8085 28.8446 10.9253 27.9613 10.9253 25.4496V17.6532C10.9253 15.1366 11.8036 14.2583 14.4484 14.2583L75.552 13C78.1919 13 79.0752 13.8783 79.0752 16.3949V24.1914C79.0752 26.7079 78.1919 27.5863 75.552 27.5863L69.7688 27.7096V27.7146ZM37.8329 62.0387L53.0459 61.6637L53.9242 28.0945L37.3296 28.4745L37.8329 62.0436V62.0387Z" fill="#5B5EBF"/>
</svg>
