<svg width="90" height="90" viewBox="0 0 90 90" fill="none" xmlns="http://www.w3.org/2000/svg">
<path d="M33.2733 37.2971V9.19546C33.2733 6.92866 34.0686 6.13811 36.4449 6.13811H44.3787C46.7598 6.13811 47.5503 6.92866 47.5503 9.19546V81.9427C47.5503 84.2095 46.755 85 44.3787 85H36.4449C34.0638 85 33.2733 84.2095 33.2733 81.9427V50.4408L20.582 50.8932C18.4295 50.8932 17.7485 50.3265 17.7485 47.9454V40.6926C17.7485 38.3115 18.4295 37.7448 20.582 37.7448L33.2733 37.2924V37.2971ZM57.9747 8.06205C57.9747 5.79525 58.77 5 61.1464 5H69.0802C71.4613 5 72.2518 5.79525 72.2518 8.06205V80.8092C72.2518 83.076 71.4565 83.8666 69.0802 83.8666H61.1464C58.7653 83.8666 57.9747 83.0713 57.9747 80.8092V8.06205Z" fill="#ED83B1"/>
</svg>
