<svg width="90" height="90" viewBox="0 0 90 90" fill="none" xmlns="http://www.w3.org/2000/svg">
<path d="M19.3655 46.4357C20.9625 44.1005 20.842 42.9957 20.842 40.0429V20.0056C20.842 17.545 21.7008 16.6861 24.282 16.6861H32.8894C35.4707 16.6861 36.3343 17.545 36.3343 20.0056V39.5508C36.3343 43.1163 36.4597 44.1005 38.3028 45.9436L47.8896 54.3049L51.0885 50.2473C52.6855 48.1582 52.8109 46.8072 52.8109 43.8545V16.3194C52.8109 13.8588 53.6698 13 56.2558 13H64.8632C67.4445 13 68.3033 13.8588 68.3033 16.3194V44.3466C68.3033 47.2945 68.1826 48.6503 70.0257 50.7394L82.3192 64.1378C83.6702 65.7348 83.4242 66.5985 82.0732 67.9494L76.0519 73.2325C74.7009 74.3422 73.9627 74.3422 72.607 72.9865L60.6801 60.0802L48.3866 75.9392C47.2817 77.4156 46.5435 77.2902 44.6956 75.9392L38.1822 70.8973C36.8312 69.7925 36.7058 68.6828 37.8155 67.3318L39.784 64.8712L29.3335 55.7765L18.1449 71.018C17.04 72.4943 16.3018 72.3737 14.4539 71.018L7.9405 65.9809C6.46412 64.8712 6.46411 64.0124 7.56898 62.4154L19.3704 46.4357H19.3655Z" fill="#ED83B1"/>
</svg>
