<svg width="90" height="90" viewBox="0 0 90 90" fill="none" xmlns="http://www.w3.org/2000/svg">
<path d="M4.14307 24.155C4.14307 21.5927 5.03908 20.6917 7.73721 20.6917L37.3663 20.0473C40.0594 20.0473 41.343 20.9484 40.9604 23.5106L37.3663 70.9645C36.9787 73.5267 36.0826 74.4277 33.3896 74.4277H24.4092C21.7161 74.4277 20.8151 73.5267 21.2027 70.9645L23.8958 35.3099L7.73721 35.5666C5.04411 35.5666 4.14307 34.6656 4.14307 32.1034V24.1499V24.155ZM47.2376 17.1026C47.2376 14.5353 48.1336 13.6393 50.8318 13.6393L82.2529 13C84.946 13 85.9729 13.896 85.847 16.4633L81.7444 73.5367C81.6136 76.104 80.4608 77 77.7677 77H68.7874C66.0943 77 65.455 76.0989 65.5808 73.5367L68.7874 28.1317L50.8318 28.5193C48.1387 28.5193 47.2376 27.6233 47.2376 25.056V17.1026Z" fill="#FFA41B"/>
</svg>
