<svg width="90" height="90" viewBox="0 0 90 90" fill="none" xmlns="http://www.w3.org/2000/svg">
<path d="M79.4652 13C81.8002 13 82.5384 13.6127 82.5384 16.1938V23.8164C82.5384 26.6435 81.6796 27.261 79.5858 27.261L68.3981 27.507V44.3491C68.3981 47.2968 68.2726 48.6524 70.1203 50.7414L82.413 64.1388C83.7638 65.7357 83.5178 66.5993 82.167 67.9501L76.1413 73.2328C74.7904 74.3424 74.0523 74.3424 72.7015 72.9868L60.7755 60.0815L48.4829 75.9393C47.3781 77.4156 46.6399 77.2902 44.797 75.9393L38.284 70.8978C36.9332 69.793 36.8078 68.6834 37.9126 67.3325L39.881 64.8721L29.4313 55.7781L18.2435 71.0184C17.1387 72.4947 16.4005 72.3741 14.5576 71.0184L8.04465 65.9817C6.56838 64.8721 6.56837 64.0134 7.67316 62.4165L19.4737 46.438C21.0705 44.103 20.95 42.9982 20.95 40.0457V28.3658L9.6415 28.4912C7.55253 28.4912 6.68896 27.8737 6.68896 25.0514V17.4288C6.68896 14.8477 7.4271 14.2302 9.76211 14.2302L79.4605 13H79.4652ZM51.1942 50.2445C52.7911 48.1555 52.9165 46.8047 52.9165 43.8521V27.7482L36.446 28.1197V39.5536C36.446 43.1188 36.5666 44.103 38.4143 45.9459L48.0004 54.3066L51.199 50.2493L51.1942 50.2445Z" fill="#B6BBFB"/>
</svg>
