<svg width="90" height="90" viewBox="0 0 90 90" fill="none" xmlns="http://www.w3.org/2000/svg">
<path d="M73.5822 13C75.94 13 76.6854 13.6236 76.6854 16.2249V23.9219C76.6854 26.7767 75.8134 27.4002 73.704 27.4002L52.8491 27.8971V40.3097C52.8491 43.2911 52.4739 45.152 54.8366 46.7645L77.0556 63.3958C78.6681 64.7647 78.5463 65.7536 77.1823 67.3661L71.4729 74.196C70.2306 75.6867 68.7448 75.8084 67.1275 74.4444L45.1569 58.0615L23.5615 76.0618C21.7006 77.4258 20.8335 77.304 19.2161 75.6867L12.8831 69.3537C11.3925 67.863 11.3925 66.499 12.8831 65.2616L35.2239 46.6427C37.3333 44.7818 37.2115 43.1693 37.2115 40.1879V28.2722L16.113 28.6473C14.0036 28.6473 13.1316 28.0238 13.1316 25.1739V17.4769C13.1316 14.8707 13.8769 14.2471 16.2347 14.2471L73.5822 13.0049V13Z" fill="#FF814F"/>
</svg>
