<svg width="90" height="90" viewBox="0 0 90 90" fill="none" xmlns="http://www.w3.org/2000/svg">
<path d="M34.6894 50.8959V34.5797L19.1638 35.0321C17.0111 35.0321 16.3301 34.4654 16.3301 32.0842V24.8309C16.3301 22.4544 17.0111 21.8829 19.1638 21.8829L34.6894 21.4305V9.19094C34.6894 6.924 35.4847 6.13347 37.8612 6.13347H45.7955C48.1767 6.13347 48.9673 6.924 48.9673 9.19094V81.9425C48.9673 84.2094 48.172 85 45.7955 85H37.8612C35.48 85 34.6894 84.2094 34.6894 81.9425V64.0404L19.1638 64.4928C17.0111 64.4928 16.3301 63.9261 16.3301 61.5448V54.2916C16.3301 51.9151 17.0111 51.3436 19.1638 51.3436L34.6894 50.8912V50.8959ZM59.3924 8.06224C59.3924 5.7953 60.1877 5 62.5642 5H70.4984C72.8797 5 73.6703 5.7953 73.6703 8.06224V80.8138C73.6703 83.0807 72.8749 83.8713 70.4984 83.8713H62.5642C60.183 83.8713 59.3924 83.0759 59.3924 80.8138V8.06224Z" fill="#5B5EBF"/>
</svg>
