<svg width="90" height="90" viewBox="0 0 90 90" fill="none" xmlns="http://www.w3.org/2000/svg">
<path d="M17.569 71.2679V50.6564C17.569 48.6352 18.2781 47.9303 20.397 47.9303H27.4713C29.5945 47.9303 30.2994 48.6352 30.2994 50.6564V70.9664L43.9384 70.563C45.8577 70.563 46.4649 71.0683 46.4649 73.1915V79.4548C46.4649 81.7775 45.7558 82.287 44.0403 82.287L3.42461 83.2976C1.70487 83.2976 1 82.7923 1 80.4696V74.2064C1 72.0832 1.6072 71.5779 3.52652 71.5779L17.569 71.2764V71.2679ZM76.2696 47.2212L65.9639 47.425V75.3104C65.9639 77.3316 65.2548 78.0365 63.1359 78.0365H56.0615C53.9384 78.0365 53.2336 77.3316 53.2336 75.3104V10.4441C53.2336 8.4229 53.9426 7.71799 56.0615 7.71799H63.1359C65.259 7.71799 65.9639 8.4229 65.9639 10.4441V35.701L76.2696 35.5015V9.43351C76.2696 7.41228 76.9787 6.70312 79.0976 6.70312H86.172C88.2951 6.70312 89 7.41228 89 9.43351V74.2998C89 76.321 88.2909 77.0259 86.172 77.0259H79.0976C76.9745 77.0259 76.2696 76.3167 76.2696 74.2998V47.2212Z" fill="#B6BBFB"/>
</svg>
