<svg width="90" height="90" viewBox="0 0 90 90" fill="none" xmlns="http://www.w3.org/2000/svg">
<path d="M46.4929 63.0483V81.8985C46.4929 84.198 45.6861 85 43.2755 85H35.2271C32.8117 85 32.0098 84.198 32.0098 81.8985V8.10141C32.0098 5.80189 32.8165 5 35.2271 5H43.2755C45.6909 5 46.4929 5.80189 46.4929 8.10141V23.0435L55.116 22.7005C57.2996 22.5846 57.9904 23.2753 57.9904 25.6908V33.0483C57.9904 35.4589 57.2996 35.9227 55.116 36.0387L46.4929 36.3816V49.715L55.116 49.372C57.2996 49.256 57.9904 49.9468 57.9904 52.3623V59.7198C57.9904 62.1353 57.2996 62.5942 55.116 62.7101L46.4929 63.0531V63.0483Z" fill="#FF814F"/>
</svg>
