<svg width="90" height="90" viewBox="0 0 90 90" fill="none" xmlns="http://www.w3.org/2000/svg">
<path d="M75.5312 46.6918C75.4029 49.2079 74.653 49.7112 72.0135 50.0861L31.1581 53.6087L31.2864 62.1538L71.2636 61.1473C73.9031 61.0191 74.7813 62.0255 74.7813 64.5417V72.3368C74.7813 74.853 73.9031 75.6078 71.2636 75.7312L19.0954 76.9892C16.4559 77.1175 15.5777 76.1061 15.5777 73.5949L15.1978 43.6773C15.1978 41.2895 16.076 40.7862 18.7204 40.4063L60.0791 36.637L60.3307 27.9637L16.964 28.8468C14.3245 28.9751 13.4414 27.9637 13.4414 25.5808V17.5291C13.4414 15.1412 14.3196 14.2581 16.964 14.2581L73.0299 13C75.6693 13 76.6758 13.8782 76.5475 16.3943L75.5411 46.6918H75.5312Z" fill="#ED83B1"/>
</svg>
