<svg width="90" height="90" viewBox="0 0 90 90" fill="none" xmlns="http://www.w3.org/2000/svg">
<path d="M19.3876 67.9081C13.3713 62.1329 10.0547 54.2751 10.0547 45.0627C10.0547 35.8503 13.3713 27.8671 19.3876 22.0919C25.2834 16.3167 34.1294 13 44.9375 13C55.7456 13 64.5916 16.3167 70.6079 22.0919C76.629 27.8671 79.9456 35.8503 79.9456 45.0627C79.9456 54.2751 76.629 62.1377 70.6079 67.9081C64.5868 73.6833 55.7456 77 44.9375 77C34.1294 77 25.2834 73.6833 19.3876 67.9081ZM59.4286 57.5917C62.7453 54.5209 64.4662 49.975 64.4662 45.0627C64.4662 34.7463 57.7124 27.2501 44.9375 27.2501C38.6754 27.2501 33.8836 29.2169 30.5669 32.2877C27.2502 35.6044 25.5292 40.025 25.5292 45.0627C25.5292 50.1003 27.2502 54.5209 30.5669 57.5917C33.8836 60.9084 38.6754 62.7499 44.9375 62.7499C51.1996 62.7499 56.1167 60.9084 59.4334 57.5917H59.4286Z" fill="#FFA41B"/>
</svg>
