<svg width="90" height="90" viewBox="0 0 90 90" fill="none" xmlns="http://www.w3.org/2000/svg">
<path d="M44.9469 53.9917C46.8662 53.9917 47.4734 54.497 47.4734 56.62V62.883C47.4734 65.2056 46.7643 65.7109 45.0489 65.7109L30.9052 66.1143V85.0051C30.9052 87.0263 30.1961 87.7353 28.0773 87.7353H21.0033C18.8803 87.7353 18.1754 87.0263 18.1754 85.0051V66.4158L3.42455 66.7172C1.70488 66.7172 1 66.2119 1 63.8851V57.6221C1 55.5033 1.60722 54.9938 3.52645 54.9938L44.9512 53.9832L44.9469 53.9917ZM54.2416 18.2313V6.00679C54.2416 3.98566 54.9507 3.28079 57.0695 3.28079H64.1435C66.2665 3.28079 66.9713 3.98566 66.9713 6.00679V72.8911C66.9713 74.9122 66.2623 75.617 64.1435 75.617H57.0695C54.9465 75.617 54.2416 74.9122 54.2416 72.8911V29.9504L38.7817 30.2519C36.8624 30.2519 36.2552 29.7466 36.2552 27.6236V21.1568C36.2552 19.0337 36.8624 18.5285 38.7817 18.5285L54.2416 18.227V18.2313ZM76.2703 4.99197C76.2703 2.97084 76.9794 2.26172 79.0982 2.26172H86.1721C88.2952 2.26172 89 2.97084 89 4.99197V71.8762C89 73.8974 88.2909 74.6064 86.1721 74.6064H79.0982C76.9751 74.6064 76.2703 73.8974 76.2703 71.8762V4.99197Z" fill="#5B5EBF"/>
</svg>
