<svg width="90" height="90" viewBox="0 0 90 90" fill="none" xmlns="http://www.w3.org/2000/svg">
<path d="M7.10198 75.7057C4.40956 75.8366 3.51377 74.8099 3.51377 72.2433L2.23047 24.1572C2.23047 21.5956 3.12627 20.6948 5.82372 20.6948H13.0052C15.6976 20.6948 16.5934 21.5956 16.5934 24.1572L16.8501 33.9053L26.9806 33.6486L27.2373 23.5181C27.2373 20.9515 28.1331 20.0557 30.8255 20.0557H38.0069C40.6993 20.0557 41.6002 20.9565 41.6002 23.5181L40.8302 71.4733C40.8302 74.0399 39.9294 74.8099 37.237 74.9357L7.10198 75.7057ZM17.4892 60.5778L26.5931 60.3212L26.8497 47.2416L17.2325 47.3724L17.4892 60.5829V60.5778ZM52.7473 76.989C50.0549 77.1199 49.1591 76.0882 49.1591 73.5266V17.1066C49.1591 14.54 50.0549 13.6442 52.7473 13.6442H59.9288C62.6212 13.6442 63.522 14.545 63.522 17.1066V29.9295L72.8826 29.7987L73.3959 16.4624C73.5267 13.8958 74.2917 13 76.9841 13H84.1656C86.858 13 87.8847 13.8958 87.7588 16.4624L85.7055 72.7566C85.5747 75.3182 84.8098 76.0882 82.1123 76.2191L52.7473 76.989ZM63.522 61.8611L71.7302 61.6045L72.3692 44.68L63.522 44.9366V61.8611Z" fill="#FFB1D3"/>
</svg>
