<svg width="90" height="90" viewBox="0 0 90 90" fill="none" xmlns="http://www.w3.org/2000/svg">
<path d="M50.7787 65.7369L39.2209 65.9655V81.9427C39.2209 84.2095 38.4256 85 36.0492 85H28.1154C25.7343 85 24.9438 84.2095 24.9438 81.9427V9.19546C24.9438 6.92866 25.7391 6.13811 28.1154 6.13811H36.0492C38.4303 6.13811 39.2209 6.92866 39.2209 9.19546V23.3582L50.7787 23.1296V8.06205C50.7787 5.79525 51.574 5 53.9503 5H61.8841C64.2652 5 65.0558 5.79525 65.0558 8.06205V80.8092C65.0558 83.076 64.2604 83.8666 61.8841 83.8666H53.9503C51.5692 83.8666 50.7787 83.0713 50.7787 80.8092V65.7369ZM39.2209 52.8171L50.7787 52.5885V36.2733L39.2209 36.5018V52.8171Z" fill="#B6BBFB"/>
</svg>
