<svg width="90" height="90" viewBox="0 0 90 90" fill="none" xmlns="http://www.w3.org/2000/svg">
<g clip-path="url(#clip0_1983_1871)">
<path d="M63.2174 54.6228C65.394 54.6228 66.0826 55.1959 66.0826 57.6037V64.7066C66.0826 67.3408 65.2784 67.9138 63.3329 67.9138L40.4156 68.3713V89.7959C40.4156 92.0881 39.6114 92.8923 37.2084 92.8923H29.1856C26.7778 92.8923 25.9784 92.0881 25.9784 89.7959V68.7132L3.74969 69.0551C1.79938 69.0551 1 68.4821 1 65.8431V58.7401C1 56.3372 1.68863 55.7593 3.86528 55.7593L63.2222 54.6132L63.2174 54.6228ZM74.5629 18.53V0.197095C74.5629 -2.09512 75.3671 -2.89453 77.7701 -2.89453H85.7928C88.2006 -2.89453 89 -2.09512 89 0.197095V76.0522C89 78.3444 88.1958 79.1438 85.7928 79.1438H77.7701C75.3623 79.1438 74.5629 78.3444 74.5629 76.0522V31.8211L53.9377 32.2785C51.7611 32.2785 51.0725 31.7055 51.0725 29.2977V21.9635C51.0725 19.5605 51.7611 18.9827 53.9377 18.9827L74.5629 18.5252V18.53Z" fill="#FF814F"/>
</g>
<defs>
<clipPath id="clip0_1983_1871">
<rect width="90" height="90" fill="white"/>
</clipPath>
</defs>
</svg>
