<svg width="90" height="90" viewBox="0 0 90 90" fill="none" xmlns="http://www.w3.org/2000/svg">
<path d="M37.9423 22.1028V16.0343C37.9423 13.785 38.7317 13 41.0912 13H48.9591C51.3186 13 52.1081 13.7894 52.1081 16.0343V21.7632L70.8737 21.3133C73.0083 21.3133 73.6831 21.8735 73.6831 24.233V31.2012C73.6831 33.7856 72.8981 34.3457 70.984 34.3457L52.1036 34.7955V43.7837C52.1036 46.4827 51.7641 48.1675 53.903 49.6273L74.0183 64.6839C75.4781 65.9232 75.3678 66.8185 74.1329 68.2783L68.9641 74.4615C67.8395 75.811 66.4944 75.9213 65.0301 74.6864L45.1398 59.8547L25.5891 76.1506C23.9044 77.3855 23.1194 77.2752 21.6552 75.811L15.9262 70.0777C14.5767 68.7281 14.5767 67.4933 15.9262 66.373L36.1517 49.517C38.0614 47.8323 37.9511 46.3725 37.9511 43.6734V35.1351L18.8502 35.4747C16.9406 35.4747 16.1511 34.9102 16.1511 32.3258V25.3576C16.1511 22.9981 16.8259 22.438 18.9605 22.438L37.9511 22.0984L37.9423 22.1028Z" fill="#FFB1D3"/>
</svg>
