<svg width="90" height="90" viewBox="0 0 90 90" fill="none" xmlns="http://www.w3.org/2000/svg">
<path d="M48.9663 20.6328V8.10141C48.9663 5.80189 49.773 5 52.1836 5H60.232C62.6474 5 63.4494 5.80189 63.4494 8.10141V81.8985C63.4494 84.198 62.6426 85 60.232 85H52.1836C49.7682 85 48.9663 84.198 48.9663 81.8985V61.5507L29.4252 62.4734C27.2416 62.5845 26.5508 61.8985 26.5508 59.4831V52.1256C26.5508 49.7149 27.2416 49.2512 29.4252 49.1353L48.9663 48.2125V33.9613L29.4252 34.8841C27.2416 35 26.5508 34.3091 26.5508 31.8937V24.5362C26.5508 22.1207 27.2416 21.6618 29.4252 21.5459L48.9663 20.6232V20.6328Z" fill="#ED83B1"/>
</svg>
