<svg width="71" height="35" viewBox="0 0 71 35" fill="none" xmlns="http://www.w3.org/2000/svg">
<path d="M69.6235 0.222656H1.4546C0.948964 0.222656 0.539062 0.629357 0.539062 1.13104V33.3143C0.539062 33.816 0.948964 34.2227 1.4546 34.2227H69.6235C70.1292 34.2227 70.5391 33.816 70.5391 33.3143V1.13104C70.5391 0.629357 70.1292 0.222656 69.6235 0.222656Z" fill="#F2E2DB"/>
<path d="M1.19531 0.222656L32.1433 15.5414C34.2833 16.6005 36.7989 16.6005 38.9389 15.5414L69.8869 0.222656H1.19531Z" fill="#B63F36"/>
<path d="M35.5363 24.1125C39.3706 24.1125 42.4788 21.0285 42.4788 17.2242C42.4788 13.4199 39.3706 10.3359 35.5363 10.3359C31.702 10.3359 28.5938 13.4199 28.5938 17.2242C28.5938 21.0285 31.702 24.1125 35.5363 24.1125Z" fill="#9F2C28"/>
</svg>
