<svg width="60" height="36" viewBox="0 0 60 36" fill="none" xmlns="http://www.w3.org/2000/svg">
<path d="M27.4959 19.4272C30.8649 16.0631 30.8649 10.6088 27.4959 7.24469C24.1268 3.88059 18.6645 3.88059 15.2955 7.24469C11.9265 10.6088 11.9265 16.0631 15.2955 19.4272C18.6645 22.7913 24.1268 22.7913 27.4959 19.4272Z" fill="url(#paint0_linear_1983_8284)"/>
<path d="M43.9568 19.4272C47.3258 16.0631 47.3258 10.6088 43.9568 7.2447C40.5877 3.8806 35.1255 3.88059 31.7564 7.24469C28.3874 10.6088 28.3874 16.0631 31.7564 19.4272C35.1255 22.7913 40.5878 22.7913 43.9568 19.4272Z" fill="url(#paint1_linear_1983_8284)"/>
<path d="M30.0176 17.7286C34.7821 17.7286 38.6445 13.8719 38.6445 9.11432C38.6445 4.35676 34.7821 0.5 30.0176 0.5C25.253 0.5 21.3906 4.35676 21.3906 9.11432C21.3906 13.8719 25.253 17.7286 30.0176 17.7286Z" fill="#F2E2DB"/>
<path d="M0 17.1926V30.9855C0 33.4782 2.02371 35.499 4.52009 35.499H30C30 35.499 5.83339 17.7174 1.10479 14.2383C0.417009 15.0306 0 16.0631 0 17.1926Z" fill="url(#paint2_linear_1983_8284)"/>
<path d="M55.4854 12.6797H4.52468C3.16045 12.6797 1.93867 13.2845 1.10938 14.2379C5.83797 17.717 30.0046 35.4986 30.0046 35.4986L58.8998 14.2379C58.0714 13.2836 56.8487 12.6797 55.4845 12.6797H55.4854Z" fill="#9394E6"/>
<path d="M30 35.499H55.4799C57.9763 35.499 60 33.4782 60 30.9855V17.1926C60 16.0621 59.583 15.0296 58.8952 14.2383L30 35.499Z" fill="url(#paint3_linear_1983_8284)"/>
<path d="M34.482 12.3867H25.5078V35.4986H34.482V12.3867Z" fill="#F2E2DB"/>
<defs>
<linearGradient id="paint0_linear_1983_8284" x1="19.9847" y1="13.4892" x2="24.7" y2="12.9742" gradientUnits="userSpaceOnUse">
<stop stop-color="#F2E2DB"/>
<stop offset="1" stop-color="#E0CAC1"/>
</linearGradient>
<linearGradient id="paint1_linear_1983_8284" x1="39.9589" y1="14.2767" x2="34.9893" y2="12.0452" gradientUnits="userSpaceOnUse">
<stop stop-color="#F2E2DB"/>
<stop offset="1" stop-color="#E0CAC1"/>
</linearGradient>
<linearGradient id="paint2_linear_1983_8284" x1="12.498" y1="28.3666" x2="17.4946" y2="22.6268" gradientUnits="userSpaceOnUse">
<stop stop-color="#9394E6"/>
<stop offset="1" stop-color="#7674D6"/>
</linearGradient>
<linearGradient id="paint3_linear_1983_8284" x1="47.0586" y1="28.9196" x2="42.9462" y2="22.4468" gradientUnits="userSpaceOnUse">
<stop stop-color="#9394E6"/>
<stop offset="1" stop-color="#7674D6"/>
</linearGradient>
</defs>
</svg>
