<svg width="60" height="54" viewBox="0 0 60 54" fill="none" xmlns="http://www.w3.org/2000/svg">
<path d="M52.8036 10.7188H7.19634C3.41581 10.7188 0.351074 13.7308 0.351074 17.4465V47.2699C0.351074 50.9855 3.41581 53.9976 7.19634 53.9976H52.8036C56.5841 53.9976 59.6488 50.9855 59.6488 47.2699V17.4465C59.6488 13.7308 56.5841 10.7188 52.8036 10.7188Z" fill="#FA98A5"/>
<path d="M30.0206 29.5117L2.07764 51.7098C3.33226 53.1109 5.16924 53.9965 7.21738 53.9965H52.8246C54.8605 53.9965 56.6879 53.1223 57.9412 51.7359L30.0206 29.5117Z" fill="#F6DAC3"/>
<path d="M53.6511 10.7773C57.0349 11.1844 59.6565 14.0167 59.6565 17.4528V47.2763C59.6565 48.9914 59.0027 50.5551 57.9278 51.7434L30.0073 29.5192L53.6511 10.7773Z" fill="url(#paint0_linear_1983_8261)"/>
<path d="M47.9114 25.2503L44.8198 22.2115L48.1927 18.8968C48.9052 18.1959 50.0658 18.1959 50.779 18.8968L51.2843 19.3936C51.9975 20.0945 51.9975 21.2347 51.2843 21.9356L47.9121 25.2509L47.9114 25.2503ZM46.163 22.2115L47.9114 23.93L50.6128 21.2748C50.9554 20.9381 50.9554 20.3898 50.6128 20.053L50.1074 19.5563C49.7648 19.2195 49.2069 19.2195 48.8643 19.5563L46.163 22.2115Z" fill="#F6DAC3"/>
<path d="M47.9144 25.2509L44.5422 21.9356C43.829 21.2347 43.829 20.0945 44.5422 19.3936L45.0476 18.8968C45.7607 18.1959 46.9207 18.1959 47.6338 18.8968L51.0067 22.2115L47.9151 25.2503L47.9144 25.2509ZM46.3403 19.3045C46.1149 19.3045 45.8901 19.3889 45.7185 19.5569L45.2131 20.0537C44.8705 20.3904 44.8705 20.9388 45.2131 21.2755L47.9144 23.9307L49.6629 22.2121L46.9615 19.5569C46.7899 19.3882 46.5651 19.3045 46.3397 19.3045H46.3403Z" fill="#F6DAC3"/>
<path d="M46.3403 30.8016C45.8724 30.8016 45.4038 30.6262 45.0476 30.276L44.5422 29.7792C43.829 29.0783 43.829 27.9381 44.5422 27.2372L47.9144 23.9219L51.006 26.9607L47.6331 30.2753C47.2769 30.6255 46.8083 30.8009 46.3403 30.8009V30.8016ZM47.9144 25.2428L45.2131 27.898C44.8705 28.2347 44.8705 28.783 45.2131 29.1198L45.7185 29.6166C46.0611 29.9533 46.6189 29.9533 46.9615 29.6166L49.6629 26.9614L47.9144 25.2428Z" fill="#F6DAC3"/>
<path d="M49.4855 30.8009C49.0169 30.8009 48.549 30.6255 48.1927 30.2753L44.8198 26.9607L47.9114 23.9219L51.2837 27.2372C51.9968 27.9381 51.9968 29.0783 51.2837 29.7792L50.7783 30.276C50.422 30.6262 49.9534 30.8016 49.4855 30.8016V30.8009ZM46.163 26.9607L48.8643 29.6159C49.2069 29.9526 49.7648 29.9526 50.1074 29.6159L50.6128 29.1191C50.9554 28.7824 50.9554 28.2341 50.6128 27.8973L47.9114 25.2421L46.163 26.9607Z" fill="#F6DAC3"/>
<path d="M45.4925 27.6259L42.1203 24.3106C41.4072 23.6097 41.4072 22.4695 42.1203 21.7686L42.6257 21.2718C43.3388 20.5709 44.4988 20.5709 45.2119 21.2718L48.5848 24.5865L45.4932 27.6253L45.4925 27.6259ZM43.9185 21.6802C43.6937 21.6802 43.4682 21.7646 43.2973 21.9326L42.7919 22.4294C42.4493 22.7661 42.4493 23.3144 42.7919 23.6512L45.4932 26.3064L47.2416 24.5878L44.5403 21.9326C44.3687 21.7639 44.1439 21.6802 43.9185 21.6802Z" fill="#F6DAC3"/>
<path d="M43.9185 28.4266C43.4505 28.4266 42.9819 28.2512 42.6257 27.901L42.1203 27.4042C41.4072 26.7033 41.4072 25.5631 42.1203 24.8622L45.4925 21.5469L48.5842 24.5857L45.2112 27.9003C44.855 28.2505 44.3864 28.4259 43.9185 28.4259V28.4266ZM45.4925 22.8671L42.7912 25.5223C42.4486 25.8591 42.4486 26.4074 42.7912 26.7441L43.2966 27.2409C43.6392 27.5776 44.197 27.5776 44.5396 27.2409L47.241 24.5857L45.4925 22.8671Z" fill="#F6DAC3"/>
<path d="M51.9074 28.4266C51.419 28.4266 50.9599 28.2398 50.6146 27.9003L47.2417 24.5857L50.3333 21.5469L53.7055 24.8622C54.4187 25.5631 54.4187 26.7033 53.7055 27.4042L53.2001 27.901C52.8548 28.2404 52.3957 28.4272 51.9074 28.4272V28.4266ZM48.5849 24.585L51.2862 27.2402C51.4524 27.4036 51.6731 27.4933 51.9081 27.4933C52.143 27.4933 52.3637 27.4036 52.5292 27.2402L53.0346 26.7435C53.3772 26.4067 53.3772 25.8584 53.0346 25.5216L50.3333 22.8664L48.5849 24.585Z" fill="#F6DAC3"/>
<path d="M50.3333 27.6258L47.2417 24.587L50.6146 21.2723C50.9599 20.9329 51.419 20.7461 51.9074 20.7461C52.3957 20.7461 52.8548 20.9329 53.2001 21.2723L53.7055 21.7691C54.4187 22.47 54.4187 23.6102 53.7055 24.3111L50.3333 27.6264V27.6258ZM48.5849 24.587L50.3333 26.3055L53.0346 23.6503C53.3772 23.3136 53.3772 22.7653 53.0346 22.4285L52.5292 21.9318C52.363 21.7684 52.1424 21.6787 51.9081 21.6787C51.6738 21.6787 51.4524 21.7684 51.2862 21.9318L48.5849 24.587Z" fill="#F6DAC3"/>
<path d="M48.528 10.7227H47.5151V19.4635H48.528V10.7227Z" fill="#F6DAC3"/>
<path d="M48.528 29.3828H47.5151V32.5167H48.528V29.3828Z" fill="#F6DAC3"/>
<path d="M48.7533 40.2481H47.4053C47.0287 40.2481 46.7501 39.9856 46.8352 39.3141L47.3883 33.207H48.7689L49.322 39.3141C49.4078 39.985 49.1292 40.2481 48.7519 40.2481H48.7533Z" fill="#F6DAC3"/>
<path d="M48.4103 31.3281H47.6297C46.9624 31.3281 46.4214 31.8597 46.4214 32.5155C46.4214 33.1712 46.9624 33.7028 47.6297 33.7028H48.4103C49.0776 33.7028 49.6186 33.1712 49.6186 32.5155C49.6186 31.8597 49.0776 31.3281 48.4103 31.3281Z" fill="#689976"/>
<path d="M38.8276 5.36047L58.7368 1.20025C59.7667 0.985345 60.4355 2.23729 59.6686 2.94628C56.1056 6.24152 48.6978 11.6209 39.0184 10.7211L38.8276 5.36047Z" fill="url(#paint1_linear_1983_8261)"/>
<path d="M21.1721 5.36047L1.26289 1.20025C0.233031 0.985345 -0.435825 2.23729 0.331117 2.94628C3.89406 6.24152 11.3019 11.6209 20.9813 10.7211L21.1721 5.36047Z" fill="url(#paint2_linear_1983_8261)"/>
<path d="M39.0158 10.7201H20.6718L18.7408 5.25095C17.8336 2.68171 19.7748 0 22.5422 0H37.1454C39.9121 0 41.8533 2.68171 40.9467 5.25095L39.0158 10.7201Z" fill="#F6DAC3"/>
<defs>
<linearGradient id="paint0_linear_1983_8261" x1="49.6767" y1="28.8899" x2="41.3817" y2="17.362" gradientUnits="userSpaceOnUse">
<stop stop-color="#FA98A5"/>
<stop offset="1" stop-color="#F4788C"/>
</linearGradient>
<linearGradient id="paint1_linear_1983_8261" x1="53.9376" y1="5.68383" x2="35.0854" y2="7.51057" gradientUnits="userSpaceOnUse">
<stop stop-color="#F6DAC3"/>
<stop offset="1" stop-color="#E1B799"/>
</linearGradient>
<linearGradient id="paint2_linear_1983_8261" x1="7.38481" y1="4.32075" x2="26.4223" y2="11.3402" gradientUnits="userSpaceOnUse">
<stop stop-color="#F6DAC3"/>
<stop offset="1" stop-color="#E1B799"/>
</linearGradient>
</defs>
</svg>
