<svg width="70" height="50" viewBox="0 0 70 50" fill="none" xmlns="http://www.w3.org/2000/svg">
<path d="M70 16.0781H0L35.0006 36.8345L70 16.0781Z" fill="#D49779"/>
<path d="M69.0844 50.0014H0.915531C0.410191 50.0014 0 49.5953 0 49.095V16.0781H70V49.095C70 49.5953 69.5898 50.0014 69.0844 50.0014Z" fill="#5C91CC"/>
<path d="M0 16.0767L30.948 0.792582C33.088 -0.264194 35.6048 -0.264194 37.7435 0.792582L70 16.0767H0Z" fill="#3471A3"/>
<path d="M66.0596 6.67578H4.66642C3.71588 6.67578 2.94531 7.4386 2.94531 8.37959V35.1305C2.94531 36.0714 3.71588 36.8343 4.66642 36.8343H66.0596C67.0101 36.8343 67.7807 36.0714 67.7807 35.1305V8.37959C67.7807 7.4386 67.0101 6.67578 66.0596 6.67578Z" fill="#F6DAC3"/>
<path d="M32.5505 35.3814L0 16.0781V49.095C0 49.5953 0.410191 50.0014 0.915531 50.0014H69.0844C69.5898 50.0014 70 49.5953 70 49.095V16.0781L37.4495 35.3814C35.9409 36.2755 34.0579 36.2755 32.5505 35.3814Z" fill="#5C91CC"/>
<path d="M6.32946 8.69922H5.75V17.661H6.32946V8.69922Z" fill="#D49779"/>
<path d="M7.99353 8.69922H7.41406V13.6981H7.99353V8.69922Z" fill="#D49779"/>
<path d="M9.65759 8.69922H9.07812V12.223H9.65759V8.69922Z" fill="#D49779"/>
<path d="M11.2826 8.69922H10.7031V10.7479H11.2826V8.69922Z" fill="#D49779"/>
<path d="M14.8029 8.69922H5.75V9.27286H14.8029V8.69922Z" fill="#D49779"/>
<path d="M11.284 10.1758H5.75V10.7494H11.284V10.1758Z" fill="#D49779"/>
<path d="M9.65555 11.6484H5.75V12.2221H9.65555V11.6484Z" fill="#D49779"/>
<path d="M7.99251 13.125H5.75V13.6986H7.99251V13.125Z" fill="#D49779"/>
<path d="M65.0951 8.69922H64.5156V17.661H65.0951V8.69922Z" fill="#D49779"/>
<path d="M63.431 8.69922H62.8516V13.6981H63.431V8.69922Z" fill="#D49779"/>
<path d="M61.767 8.69922H61.1875V12.223H61.767V8.69922Z" fill="#D49779"/>
<path d="M60.1342 8.69922H59.5547V10.7479H60.1342V8.69922Z" fill="#D49779"/>
<path d="M65.0919 8.69922H56.0391V9.27286H65.0919V8.69922Z" fill="#D49779"/>
<path d="M65.0887 10.1758H59.5547V10.7494H65.0887V10.1758Z" fill="#D49779"/>
<path d="M65.0931 11.6484H61.1875V12.2221H65.0931V11.6484Z" fill="#D49779"/>
<path d="M65.0941 13.125H62.8516V13.6986H65.0941V13.125Z" fill="#D49779"/>
</svg>
