<svg width="70" height="64" viewBox="0 0 70 64" fill="none" xmlns="http://www.w3.org/2000/svg">
<path d="M48.5731 15.6014C45.2184 18.9504 42.4079 18.1888 40.2034 15.9892C38.0001 13.7885 37.2372 10.9826 40.5919 7.63365C43.0842 5.14556 48.366 4.27181 50.9156 3.98795C51.6715 3.90385 52.3092 4.54047 52.225 5.29508C51.9407 7.84041 51.0654 13.1121 48.5731 15.6014Z" fill="#03BE9C"/>
<path d="M52.2311 5.29649C52.2732 4.91919 52.1351 4.57109 51.8917 4.32812L40.2095 15.9906C42.4139 18.1913 45.2245 18.9518 48.5792 15.6028C51.0715 13.1147 51.9467 7.84182 52.2311 5.29649Z" fill="url(#paint0_linear_1983_8122)"/>
<path d="M22.8767 15.6014C26.2313 18.9504 29.0419 18.1888 31.2464 15.9892C33.4508 13.7885 34.2126 10.9826 30.8579 7.63365C28.3656 5.14556 23.0838 4.27181 20.5341 3.98795C19.7782 3.90385 19.1405 4.54047 19.2248 5.29508C19.5091 7.84041 20.3844 13.1121 22.8767 15.6014Z" fill="#03BE9C"/>
<path d="M19.2248 5.29649C19.1827 4.91919 19.3207 4.57109 19.5641 4.32812L31.2464 15.9906C29.0419 18.1913 26.2313 18.9518 22.8767 15.6028C20.3844 13.1147 19.5091 7.84182 19.2248 5.29649Z" fill="url(#paint1_linear_1983_8122)"/>
<path d="M41.7491 16.7428C42.5929 13.2635 40.4516 9.76008 36.9664 8.9177C33.4811 8.07533 29.9718 10.213 29.1279 13.6923C28.2841 17.1716 30.4254 20.6751 33.9107 21.5175C37.3959 22.3598 40.9053 20.2222 41.7491 16.7428Z" fill="#03BE9C"/>
<path d="M41.7491 16.7428C42.5929 13.2635 40.4516 9.76008 36.9664 8.9177C33.4811 8.07533 29.9718 10.213 29.1279 13.6923C28.2841 17.1716 30.4254 20.6751 33.9107 21.5175C37.3959 22.3598 40.9053 20.2222 41.7491 16.7428Z" fill="url(#paint2_linear_1983_8122)"/>
<path d="M69.6995 16.6917C69.6504 16.5772 69.5966 16.4651 69.5369 16.3552C69.4772 16.2466 69.4129 16.1403 69.3438 16.0387C69.2397 15.8857 69.125 15.7397 69.001 15.603C68.9179 15.5119 68.8313 15.4254 68.7401 15.3425C68.6488 15.2596 68.554 15.1813 68.4546 15.1077C68.4054 15.0703 68.3551 15.0353 68.3036 15.0002C68.1503 14.8963 67.9889 14.804 67.8204 14.7234C67.708 14.6697 67.5934 14.6206 67.4752 14.5774C67.0621 14.4267 66.6163 14.3438 66.1518 14.3438H4.73214C4.26761 14.3438 3.82181 14.4255 3.40876 14.5774C3.29058 14.6206 3.17591 14.6697 3.06358 14.7234C2.89509 14.804 2.73361 14.8974 2.58033 15.0002C2.52885 15.0353 2.47853 15.0703 2.42939 15.1077C2.3311 15.1813 2.23515 15.2596 2.14388 15.3425C1.91572 15.5492 1.71329 15.7829 1.54011 16.0387C1.47108 16.1415 1.40672 16.2466 1.34705 16.3552C1.28737 16.4639 1.23355 16.576 1.1844 16.6917C0.990167 17.1519 0.881348 17.6565 0.881348 18.188V60.1562C0.881348 60.2368 0.884858 60.3162 0.889538 60.3956C0.890708 60.419 0.893049 60.4412 0.895389 60.4645C0.900069 60.5241 0.90592 60.5837 0.91411 60.6421C0.916451 60.6631 0.918791 60.6841 0.922301 60.7052C0.934002 60.7834 0.946873 60.8605 0.962084 60.9365C0.962084 60.9411 0.964425 60.9458 0.965595 60.9516C0.980806 61.0229 0.998358 61.0942 1.01708 61.1642C1.02293 61.1841 1.02761 61.2028 1.03346 61.2226C1.05101 61.2822 1.06973 61.3418 1.08963 61.4014C1.09431 61.4166 1.10016 61.4317 1.10484 61.4469C1.13175 61.5217 1.15983 61.5953 1.19025 61.6665C1.19142 61.6689 1.19259 61.6724 1.19376 61.6747C1.22302 61.7436 1.25461 61.8102 1.28854 61.8768C1.29556 61.8908 1.30258 61.9037 1.3096 61.9177C1.34237 61.9808 1.3763 62.0427 1.4114 62.1034C1.41491 62.1092 1.41842 62.1151 1.42076 62.1209C1.50267 62.2588 1.59394 62.3919 1.6934 62.5181C1.69808 62.5251 1.70393 62.5309 1.70861 62.5379C1.85955 62.7295 2.02921 62.9059 2.21292 63.0648C2.21526 63.0659 2.21643 63.0683 2.21877 63.0694C2.40716 63.2306 2.61075 63.3743 2.82722 63.4981C3.38887 63.817 4.0371 64.0004 4.7298 64.0004H66.1506C66.8433 64.0004 67.4916 63.817 68.0532 63.4981C68.2697 63.3743 68.4733 63.2306 68.6617 63.0694C68.664 63.0683 68.6652 63.0659 68.6675 63.0648C68.8524 62.9059 69.0209 62.7295 69.1718 62.5379C69.1765 62.5309 69.1824 62.5251 69.187 62.5181C69.2853 62.3919 69.3766 62.2599 69.4597 62.1221C69.4632 62.1163 69.4667 62.1104 69.4702 62.1046C69.5065 62.0438 69.5404 61.9819 69.572 61.92C69.579 61.906 69.5861 61.8931 69.5931 61.8791C69.627 61.8125 69.6586 61.746 69.6878 61.677C69.689 61.6747 69.6902 61.6712 69.6914 61.6689C69.7218 61.5964 69.751 61.5229 69.7768 61.4493C69.7826 61.4341 69.7873 61.4189 69.792 61.4037C69.8119 61.3453 69.8306 61.2857 69.8482 61.225C69.854 61.2051 69.8599 61.1864 69.8645 61.1666C69.8833 61.0965 69.9008 61.0264 69.916 60.954C69.916 60.9493 69.9184 60.9446 69.9195 60.9388C69.9347 60.8629 69.9476 60.7858 69.9593 60.7075C69.9628 60.6865 69.9652 60.6655 69.9675 60.6444C69.9745 60.586 69.9815 60.5264 69.9862 60.4669C69.9886 60.4435 69.9897 60.4213 69.9921 60.398C69.9967 60.3185 70.0003 60.2391 70.0003 60.1585V18.1869C70.0003 17.6565 69.8926 17.1507 69.6972 16.6905L69.6995 16.6917Z" fill="#03BE9C"/>
<path d="M69.986 60.4609C69.9813 60.5206 69.9755 60.5803 69.9673 60.6388C69.9743 60.5803 69.9813 60.5206 69.986 60.4609Z" fill="#03BE9C"/>
<path d="M1.41283 62.104C1.37656 62.0432 1.34263 61.9812 1.31104 61.918C1.3438 61.9812 1.37773 62.0432 1.41283 62.104Z" fill="#03BE9C"/>
<path d="M1.18551 61.6653C1.15509 61.5927 1.12584 61.519 1.1001 61.4453C1.12701 61.5202 1.15509 61.5939 1.18551 61.6653Z" fill="#03BE9C"/>
<path d="M69.9172 60.9492C69.902 61.0206 69.8844 61.092 69.8657 61.1622C69.8844 61.092 69.902 61.0218 69.9172 60.9492Z" fill="#03BE9C"/>
<path d="M1.28863 61.8743C1.25469 61.8076 1.2231 61.7409 1.19385 61.6719C1.2231 61.7409 1.25586 61.8076 1.28863 61.8743Z" fill="#03BE9C"/>
<path d="M1.70947 62.5352C1.86042 62.7271 2.03008 62.9037 2.21379 63.0629C2.02891 62.9037 1.86042 62.7271 1.70947 62.5352Z" fill="#03BE9C"/>
<path d="M0.907882 60.6427C0.900861 60.5842 0.893841 60.5245 0.88916 60.4648C0.893841 60.5245 0.899691 60.5842 0.907882 60.6427Z" fill="#03BE9C"/>
<path d="M34.9587 14.3438L2.82666 63.4958C3.38831 63.8147 4.03654 63.9981 4.72924 63.9981H66.1501C66.8428 63.9981 67.491 63.8147 68.0527 63.4958L35.9182 14.3438H34.9587Z" fill="url(#paint3_linear_1983_8122)"/>
<path d="M1.01096 61.1622C0.992235 61.092 0.974684 61.0218 0.959473 60.9492C0.974684 61.0206 0.992235 61.092 1.01096 61.1622Z" fill="#03BE9C"/>
<path d="M1.08595 61.4017C1.06606 61.3432 1.04734 61.2835 1.02979 61.2227C1.04734 61.2823 1.06606 61.342 1.08595 61.4017Z" fill="#03BE9C"/>
<path d="M69.4587 62.1211C69.3768 62.2592 69.2855 62.3914 69.186 62.5178C69.2843 62.3914 69.3756 62.2592 69.4587 62.1211Z" fill="#03BE9C"/>
<path d="M68.6626 63.0629C68.8475 62.9037 69.016 62.7271 69.1669 62.5352C69.016 62.7271 68.8463 62.9037 68.6626 63.0629Z" fill="#03BE9C"/>
<path d="M69.5691 61.918C69.5363 61.9812 69.5024 62.0432 69.4673 62.1028C69.5036 62.042 69.5375 61.98 69.5691 61.918Z" fill="#03BE9C"/>
<path d="M69.8438 61.2227C69.8262 61.2823 69.8075 61.342 69.7876 61.4017C69.8075 61.3432 69.8262 61.2835 69.8438 61.2227Z" fill="#03BE9C"/>
<path d="M68.6617 63.0664C68.4733 63.2279 68.2697 63.373 68.0532 63.4958C68.2697 63.3718 68.4733 63.2279 68.6617 63.0664Z" fill="#03BE9C"/>
<path d="M69.7793 61.4453C69.7524 61.5202 69.7243 61.5939 69.6938 61.6653C69.7243 61.5927 69.7535 61.519 69.7793 61.4453Z" fill="#03BE9C"/>
<path d="M1.69304 62.515C1.59475 62.3886 1.50349 62.2564 1.42041 62.1172C1.50232 62.2553 1.59358 62.3875 1.69304 62.515Z" fill="#03BE9C"/>
<path d="M0.962983 60.9488C0.962983 60.9488 0.960643 60.9394 0.959473 60.9336C0.959473 60.9383 0.961813 60.943 0.962983 60.9488Z" fill="url(#paint4_linear_1983_8122)"/>
<path d="M0.887198 60.4636C0.884858 60.4402 0.883688 60.4179 0.881348 60.3945C0.882518 60.4179 0.884858 60.4402 0.887198 60.4636Z" fill="url(#paint5_linear_1983_8122)"/>
<path d="M1.19736 61.6722C1.19736 61.6722 1.19502 61.6664 1.19385 61.6641C1.19502 61.6664 1.19619 61.6699 1.19736 61.6722Z" fill="url(#paint6_linear_1983_8122)"/>
<path d="M1.42196 62.1191C1.42196 62.1191 1.41494 62.1074 1.4126 62.1016C1.41611 62.1074 1.41962 62.1133 1.42196 62.1191Z" fill="url(#paint7_linear_1983_8122)"/>
<path d="M2.22314 63.0672C2.22314 63.0672 2.21963 63.0637 2.21729 63.0625C2.21963 63.0637 2.2208 63.066 2.22314 63.0672Z" fill="url(#paint8_linear_1983_8122)"/>
<path d="M1.03054 61.2187C1.02469 61.1988 1.01884 61.18 1.01416 61.1602C1.02001 61.18 1.02469 61.1988 1.03054 61.2187Z" fill="url(#paint9_linear_1983_8122)"/>
<path d="M1.09968 61.4441C1.09383 61.4289 1.08915 61.4136 1.08447 61.3984C1.08915 61.4136 1.095 61.4289 1.09968 61.4441Z" fill="url(#paint10_linear_1983_8122)"/>
<path d="M1.18604 16.6925C1.23518 16.5778 1.289 16.4655 1.34868 16.3555C1.289 16.4643 1.23518 16.5766 1.18604 16.6925Z" fill="url(#paint11_linear_1983_8122)"/>
<path d="M2.57666 15C2.72994 14.8958 2.89142 14.8034 3.05991 14.7227C2.89142 14.8034 2.72994 14.897 2.57666 15Z" fill="url(#paint12_linear_1983_8122)"/>
<path d="M1.34229 16.3562C1.40196 16.2473 1.46632 16.1409 1.53535 16.0391C1.46632 16.142 1.40196 16.2473 1.34229 16.3562Z" fill="url(#paint13_linear_1983_8122)"/>
<path d="M2.13916 15.3407C2.23043 15.2576 2.32521 15.1792 2.42466 15.1055C2.32638 15.1792 2.23043 15.2576 2.13916 15.3407Z" fill="url(#paint14_linear_1983_8122)"/>
<path d="M4.73214 14.3438C4.26761 14.3438 3.82181 14.4255 3.40876 14.5774C3.29058 14.6206 3.17591 14.6697 3.06358 14.7234C2.89509 14.804 2.73361 14.8974 2.58033 15.0002C2.52885 15.0353 2.47853 15.0703 2.42939 15.1077C2.3311 15.1813 2.23515 15.2596 2.14388 15.3425C1.91571 15.5492 1.71329 15.7829 1.54011 16.0387C1.47108 16.1415 1.40672 16.2466 1.34705 16.3552C1.28737 16.4639 1.23355 16.576 1.1844 16.6917C0.990167 17.1519 0.881348 17.6565 0.881348 18.188V60.1562C0.881348 60.2368 0.884858 60.3162 0.889538 60.3956C0.890708 60.419 0.893049 60.4412 0.895389 60.4645C0.900069 60.5241 0.90592 60.5837 0.91411 60.6421C0.916451 60.6631 0.918791 60.6841 0.922301 60.7052C0.934002 60.7834 0.946873 60.8605 0.962084 60.9365C0.962084 60.9411 0.964425 60.9458 0.965595 60.9516C0.980806 61.0229 0.998358 61.0942 1.01708 61.1642C1.02293 61.1841 1.02761 61.2028 1.03346 61.2226C1.05101 61.2822 1.06973 61.3418 1.08963 61.4014C1.09431 61.4166 1.10016 61.4317 1.10484 61.4469C1.13175 61.5217 1.15983 61.5953 1.19025 61.6665C1.19142 61.6689 1.19259 61.6724 1.19376 61.6747C1.22302 61.7436 1.25461 61.8102 1.28854 61.8768C1.29556 61.8908 1.30258 61.9037 1.3096 61.9177C1.34237 61.9808 1.3763 62.0427 1.4114 62.1034C1.41491 62.1093 1.41842 62.1151 1.42076 62.1209C1.50267 62.2588 1.59394 62.3919 1.6934 62.5181C1.69808 62.5251 1.70393 62.5309 1.70861 62.5379C1.85955 62.7295 2.02921 62.9059 2.21292 63.0648C2.21526 63.0659 2.21643 63.0683 2.21877 63.0694C2.40716 63.2306 2.61075 63.3755 2.82722 63.4981L34.9617 14.3438H4.73214Z" fill="#03BE9C"/>
<path d="M4.73214 14.3438C4.26761 14.3438 3.82181 14.4255 3.40876 14.5774C3.29058 14.6206 3.17591 14.6697 3.06358 14.7234C2.89509 14.804 2.73361 14.8974 2.58033 15.0002C2.52885 15.0353 2.47853 15.0703 2.42939 15.1077C2.3311 15.1813 2.23515 15.2596 2.14388 15.3425C1.91571 15.5492 1.71329 15.7829 1.54011 16.0387C1.47108 16.1415 1.40672 16.2466 1.34705 16.3552C1.28737 16.4639 1.23355 16.576 1.1844 16.6917C0.990167 17.1519 0.881348 17.6565 0.881348 18.188V60.1562C0.881348 60.2368 0.884858 60.3162 0.889538 60.3956C0.890708 60.419 0.893049 60.4412 0.895389 60.4645C0.900069 60.5241 0.90592 60.5837 0.91411 60.6421C0.916451 60.6631 0.918791 60.6841 0.922301 60.7052C0.934002 60.7834 0.946873 60.8605 0.962084 60.9365C0.962084 60.9411 0.964425 60.9458 0.965595 60.9516C0.980806 61.0229 0.998358 61.0942 1.01708 61.1642C1.02293 61.1841 1.02761 61.2028 1.03346 61.2226C1.05101 61.2822 1.06973 61.3418 1.08963 61.4014C1.09431 61.4166 1.10016 61.4317 1.10484 61.4469C1.13175 61.5217 1.15983 61.5953 1.19025 61.6665C1.19142 61.6689 1.19259 61.6724 1.19376 61.6747C1.22302 61.7436 1.25461 61.8102 1.28854 61.8768C1.29556 61.8908 1.30258 61.9037 1.3096 61.9177C1.34237 61.9808 1.3763 62.0427 1.4114 62.1034C1.41491 62.1093 1.41842 62.1151 1.42076 62.1209C1.50267 62.2588 1.59394 62.3919 1.6934 62.5181C1.69808 62.5251 1.70393 62.5309 1.70861 62.5379C1.85955 62.7295 2.02921 62.9059 2.21292 63.0648C2.21526 63.0659 2.21643 63.0683 2.21877 63.0694C2.40716 63.2306 2.61075 63.3755 2.82722 63.4981L34.9617 14.3438H4.73214Z" fill="#03BE9C"/>
<path d="M69.8587 61.1602C69.8528 61.18 69.8481 61.1988 69.8423 61.2187C69.8481 61.1988 69.854 61.18 69.8587 61.1602Z" fill="url(#paint15_linear_1983_8122)"/>
<path d="M69.6895 61.6641C69.6895 61.6641 69.6872 61.6699 69.686 61.6722C69.6872 61.6699 69.6884 61.6664 69.6895 61.6641Z" fill="url(#paint16_linear_1983_8122)"/>
<path d="M69.7872 61.3984C69.7825 61.4136 69.7767 61.4289 69.772 61.4441C69.7778 61.4289 69.7825 61.4136 69.7872 61.3984Z" fill="url(#paint17_linear_1983_8122)"/>
<path d="M68.6606 63.0625C68.6606 63.0625 68.6571 63.066 68.6548 63.0672C68.6571 63.066 68.6583 63.0637 68.6606 63.0625Z" fill="url(#paint18_linear_1983_8122)"/>
<path d="M67.8188 14.7227C67.9873 14.8034 68.1488 14.897 68.3021 15C68.1488 14.8958 67.9873 14.8034 67.8188 14.7227Z" fill="url(#paint19_linear_1983_8122)"/>
<path d="M69.3423 16.0391C69.4113 16.142 69.4757 16.2473 69.5354 16.3562C69.4757 16.2473 69.4113 16.1409 69.3423 16.0391Z" fill="url(#paint20_linear_1983_8122)"/>
<path d="M68.4517 15.1055C68.5499 15.1792 68.6459 15.2576 68.7372 15.3407C68.6459 15.2576 68.5511 15.1792 68.4517 15.1055Z" fill="url(#paint21_linear_1983_8122)"/>
<path d="M69.9888 60.3945C69.9876 60.4179 69.9853 60.4402 69.9829 60.4636C69.9853 60.4402 69.9864 60.4179 69.9888 60.3945Z" fill="url(#paint22_linear_1983_8122)"/>
<path d="M69.5298 16.3555C69.5895 16.4643 69.6433 16.5766 69.6924 16.6925C69.6433 16.5778 69.5895 16.4655 69.5298 16.3555Z" fill="url(#paint23_linear_1983_8122)"/>
<path d="M69.9239 60.9375C69.9239 60.9375 69.9216 60.9469 69.9204 60.9527C69.9204 60.948 69.9227 60.9434 69.9239 60.9375Z" fill="url(#paint24_linear_1983_8122)"/>
<path d="M69.4613 62.1209C69.4648 62.1151 69.4683 62.1093 69.4718 62.1034C69.5081 62.0427 69.542 61.9808 69.5736 61.9188C69.5806 61.9048 69.5877 61.892 69.5947 61.878C69.6286 61.8114 69.6602 61.7448 69.6895 61.6759C69.6906 61.6735 69.6918 61.67 69.693 61.6677C69.7234 61.5953 69.7527 61.5217 69.7784 61.4481C69.7842 61.4329 69.7889 61.4177 69.7936 61.4025C69.8135 61.3441 69.8322 61.2846 69.8498 61.2238C69.8556 61.204 69.8615 61.1853 69.8662 61.1654C69.8849 61.0953 69.9024 61.0252 69.9176 60.9528C69.9176 60.9481 69.92 60.9435 69.9211 60.9376C69.9364 60.8617 69.9492 60.7846 69.9609 60.7063C69.9644 60.6853 69.9668 60.6643 69.9691 60.6433C69.9761 60.5849 69.9832 60.5253 69.9878 60.4657C69.9902 60.4423 69.9913 60.4202 69.9937 60.3968C69.9984 60.3174 70.0019 60.2379 70.0019 60.1573V18.188C70.0019 17.6577 69.8942 17.1519 69.6988 16.6917C69.6497 16.5772 69.5959 16.4651 69.5362 16.3552C69.4765 16.2466 69.4122 16.1403 69.3431 16.0387C69.239 15.8857 69.1243 15.7397 69.0003 15.603C68.9172 15.5119 68.8306 15.4254 68.7393 15.3425C68.6481 15.2596 68.5533 15.1813 68.4538 15.1077C68.4047 15.0703 68.3544 15.0353 68.3029 15.0002C68.1496 14.8963 67.9881 14.804 67.8197 14.7234C67.7073 14.6697 67.5926 14.6206 67.4745 14.5774C67.0614 14.4267 66.6156 14.3438 66.1511 14.3438H35.9204L68.0525 63.4958C68.269 63.372 68.4726 63.2283 68.661 63.0671C68.6633 63.0659 68.6645 63.0636 68.6668 63.0624C68.8517 62.9036 69.0202 62.7272 69.1711 62.5356C69.1758 62.5286 69.1816 62.5228 69.1863 62.5158C69.2846 62.3896 69.3759 62.2576 69.459 62.1198L69.4613 62.1209Z" fill="#03BE9C"/>
<path d="M69.4613 62.1209C69.4648 62.1151 69.4683 62.1093 69.4718 62.1034C69.5081 62.0427 69.542 61.9808 69.5736 61.9188C69.5806 61.9048 69.5877 61.892 69.5947 61.878C69.6286 61.8114 69.6602 61.7448 69.6895 61.6759C69.6906 61.6735 69.6918 61.67 69.693 61.6677C69.7234 61.5953 69.7527 61.5217 69.7784 61.4481C69.7842 61.4329 69.7889 61.4177 69.7936 61.4025C69.8135 61.3441 69.8322 61.2846 69.8498 61.2238C69.8556 61.204 69.8615 61.1853 69.8662 61.1654C69.8849 61.0953 69.9024 61.0252 69.9176 60.9528C69.9176 60.9481 69.92 60.9435 69.9211 60.9376C69.9364 60.8617 69.9492 60.7846 69.9609 60.7063C69.9644 60.6853 69.9668 60.6643 69.9691 60.6433C69.9761 60.5849 69.9832 60.5253 69.9878 60.4657C69.9902 60.4423 69.9913 60.4202 69.9937 60.3968C69.9984 60.3174 70.0019 60.2379 70.0019 60.1573V18.188C70.0019 17.6577 69.8942 17.1519 69.6988 16.6917C69.6497 16.5772 69.5959 16.4651 69.5362 16.3552C69.4765 16.2466 69.4122 16.1403 69.3431 16.0387C69.239 15.8857 69.1243 15.7397 69.0003 15.603C68.9172 15.5119 68.8306 15.4254 68.7393 15.3425C68.6481 15.2596 68.5533 15.1813 68.4538 15.1077C68.4047 15.0703 68.3544 15.0353 68.3029 15.0002C68.1496 14.8963 67.9881 14.804 67.8197 14.7234C67.7073 14.6697 67.5926 14.6206 67.4745 14.5774C67.0614 14.4267 66.6156 14.3438 66.1511 14.3438H35.9204L68.0525 63.4958C68.269 63.372 68.4726 63.2283 68.661 63.0671C68.6633 63.0659 68.6645 63.0636 68.6668 63.0624C68.8517 62.9036 69.0202 62.7272 69.1711 62.5356C69.1758 62.5286 69.1816 62.5228 69.1863 62.5158C69.2846 62.3896 69.3759 62.2576 69.459 62.1198L69.4613 62.1209Z" fill="#03BE9C"/>
<path d="M34.9587 14.3438L2.82666 63.4958C3.38831 63.8147 4.03654 63.9981 4.72924 63.9981H66.1501C66.8428 63.9981 67.491 63.8147 68.0527 63.4958L35.9182 14.3438H34.9587Z" fill="url(#paint25_linear_1983_8122)"/>
<path d="M50.008 19.5957H47.2642V14.3018C47.2642 14.074 47.449 13.8906 47.676 13.8906H49.5962C49.8232 13.8906 50.008 14.0752 50.008 14.3018V19.5957Z" fill="url(#paint26_linear_1983_8122)"/>
<path d="M52.783 34.2622L47.1782 28.6669L52.68 23.1744C53.4289 22.4268 54.4235 22.0156 55.4824 22.0156C56.5414 22.0156 57.5359 22.4268 58.2848 23.1744C59.0337 23.922 59.4455 24.9149 59.4455 25.972C59.4455 27.0292 59.0337 28.0221 58.2848 28.7697L52.783 34.2622ZM50.0883 28.6669L52.7818 31.3559L56.828 27.3165C57.1872 26.9568 57.3862 26.4802 57.3862 25.972C57.3862 25.4639 57.1884 24.9861 56.828 24.6275C56.4676 24.2689 55.9902 24.0703 55.4812 24.0703C54.9723 24.0703 54.4937 24.2678 54.1345 24.6275L50.0883 28.6669Z" fill="url(#paint27_linear_1983_8122)"/>
<path d="M48.6424 30.1255L43.0376 24.5302L48.5394 19.0377C49.2883 18.2901 50.2829 17.8789 51.3418 17.8789C52.4007 17.8789 53.3953 18.2901 54.1442 19.0377C54.893 19.7853 55.3049 20.7782 55.3049 21.8353C55.3049 22.8925 54.893 23.8854 54.1442 24.633L48.6424 30.1255ZM45.9488 24.5302L48.6424 27.2192L52.6886 23.1798C53.0478 22.82 53.2467 22.3435 53.2467 21.8353C53.2467 21.3272 53.049 20.8494 52.6886 20.4908C52.3282 20.1322 51.8508 19.9336 51.3418 19.9336C50.8328 19.9336 50.3542 20.131 49.995 20.4908L45.9488 24.5302Z" fill="#F2E2DB"/>
<path d="M48.6376 30.1255L43.1358 24.633C42.387 23.8854 41.9751 22.8925 41.9751 21.8353C41.9751 20.7782 42.387 19.7853 43.1358 19.0377C43.8847 18.2901 44.8793 17.8789 45.9382 17.8789C46.9972 17.8789 47.9917 18.2901 48.7406 19.0377L54.2424 24.5302L48.6376 30.1255ZM45.9382 19.9336C45.4292 19.9336 44.9507 20.131 44.5914 20.4908C44.2322 20.8506 44.0333 21.3272 44.0333 21.8353C44.0333 22.3435 44.231 22.8212 44.5914 23.1798L48.6376 27.2192L51.3312 24.5302L47.285 20.4908C46.9258 20.1322 46.4472 19.9336 45.9382 19.9336Z" fill="url(#paint28_linear_1983_8122)"/>
<path d="M45.9382 39.4536C44.8793 39.4536 43.8847 39.0424 43.1358 38.2948C42.387 37.5472 41.9751 36.5543 41.9751 35.4972C41.9751 34.44 42.387 33.4471 43.1358 32.6995L48.6376 27.207L54.2424 32.8023L48.7406 38.2948C47.9917 39.0424 46.9972 39.4536 45.9382 39.4536ZM48.6376 30.1133L44.5914 34.1527C44.2322 34.5113 44.0333 34.989 44.0333 35.4972C44.0333 36.0053 44.231 36.4831 44.5914 36.8417C44.9518 37.2003 45.4292 37.3989 45.9382 37.3989C46.4472 37.3989 46.9258 37.2014 47.285 36.8417L51.3312 32.8023L48.6376 30.1133Z" fill="#F2E2DB"/>
<path d="M51.3418 39.4536C50.2829 39.4536 49.2883 39.0424 48.5394 38.2948L43.0376 32.8023L48.6424 27.207L54.1442 32.6995C54.893 33.4471 55.3049 34.44 55.3049 35.4972C55.3049 36.5543 54.893 37.5472 54.1442 38.2948C53.3953 39.0424 52.4007 39.4536 51.3418 39.4536ZM45.9488 32.8023L49.995 36.8417C50.3554 37.2014 50.8328 37.3989 51.3418 37.3989C51.8508 37.3989 52.3294 37.2014 52.6886 36.8417C53.0478 36.4819 53.2467 36.0053 53.2467 35.4972C53.2467 34.989 53.049 34.5113 52.6886 34.1527L48.6424 30.1133L45.9488 32.8023Z" fill="url(#paint29_linear_1983_8122)"/>
<path d="M41.7976 35.3169C40.7387 35.3169 39.7441 34.9057 38.9952 34.1581C38.2463 33.4105 37.8345 32.4176 37.8345 31.3604C37.8345 30.3033 38.2463 29.3104 38.9952 28.5628L44.497 23.0703L50.1018 28.6656L44.6 34.1581C43.8511 34.9057 42.8565 35.3169 41.7976 35.3169ZM44.497 25.9766L40.4508 30.0159C40.0916 30.3757 39.8927 30.8523 39.8927 31.3604C39.8927 31.8686 40.0904 32.3463 40.4508 32.7049C40.8112 33.0636 41.2886 33.2621 41.7976 33.2621C42.3066 33.2621 42.7852 33.0647 43.1444 32.7049L47.1906 28.6656L44.497 25.9766Z" fill="url(#paint30_linear_1983_8122)"/>
<path d="M55.4824 35.3169C54.4235 35.3169 53.4289 34.9057 52.68 34.1581L47.1782 28.6656L52.783 23.0703L58.2848 28.5628C59.0337 29.3104 59.4455 30.3033 59.4455 31.3604C59.4455 32.4176 59.0337 33.4105 58.2848 34.1581C57.5359 34.9057 56.5414 35.3169 55.4824 35.3169ZM50.0894 28.6656L54.1356 32.7049C54.496 33.0647 54.9734 33.2621 55.4824 33.2621C55.9914 33.2621 56.47 33.0647 56.8292 32.7049C57.1884 32.3452 57.3873 31.8686 57.3873 31.3604C57.3873 30.8523 57.1896 30.3746 56.8292 30.0159L52.783 25.9766L50.0894 28.6656Z" fill="#F2E2DB"/>
<path d="M44.497 34.2622L38.9952 28.7697C38.2463 28.0221 37.8345 27.0292 37.8345 25.972C37.8345 24.9149 38.2463 23.922 38.9952 23.1744C39.7441 22.4268 40.7387 22.0156 41.7976 22.0156C42.8565 22.0156 43.8511 22.4268 44.6 23.1744L50.1018 28.6669L44.497 34.2622ZM41.7976 24.0703C41.2886 24.0703 40.81 24.2678 40.4508 24.6275C40.0916 24.9873 39.8927 25.4639 39.8927 25.972C39.8927 26.4802 40.0904 26.9579 40.4508 27.3165L44.497 31.3559L47.1906 28.6669L43.1444 24.6275C42.784 24.2678 42.3066 24.0703 41.7976 24.0703Z" fill="#F2E2DB"/>
<defs>
<linearGradient id="paint0_linear_1983_8122" x1="46.0496" y1="10.1612" x2="50.0333" y2="14.1517" gradientUnits="userSpaceOnUse">
<stop stop-color="#009475"/>
<stop offset="0.99" stop-color="#009475"/>
</linearGradient>
<linearGradient id="paint1_linear_1983_8122" x1="25.4032" y1="10.1612" x2="21.4195" y2="14.1517" gradientUnits="userSpaceOnUse">
<stop stop-color="#009475"/>
<stop offset="0.99" stop-color="#009475"/>
</linearGradient>
<linearGradient id="paint2_linear_1983_8122" x1="35.4384" y1="7.81295" x2="35.4384" y2="17.096" gradientUnits="userSpaceOnUse">
<stop offset="0.01" stop-color="#009475"/>
<stop offset="1" stop-color="#009475"/>
</linearGradient>
<linearGradient id="paint3_linear_1983_8122" x1="43.5824" y1="43.4941" x2="59.8072" y2="34.095" gradientUnits="userSpaceOnUse">
<stop offset="0.01" stop-color="#009475"/>
<stop offset="1" stop-color="#009475"/>
</linearGradient>
<linearGradient id="paint4_linear_1983_8122" x1="-6.37581" y1="56.0763" x2="4.47707" y2="63.2722" gradientUnits="userSpaceOnUse">
<stop offset="0.01" stop-color="#009475"/>
<stop offset="1" stop-color="#009475"/>
</linearGradient>
<linearGradient id="paint5_linear_1983_8122" x1="-6.16612" y1="55.7542" x2="4.68497" y2="62.9504" gradientUnits="userSpaceOnUse">
<stop offset="0.01" stop-color="#009475"/>
<stop offset="1" stop-color="#009475"/>
</linearGradient>
<linearGradient id="paint6_linear_1983_8122" x1="-6.63521" y1="56.4798" x2="4.20999" y2="63.6768" gradientUnits="userSpaceOnUse">
<stop offset="0.01" stop-color="#009475"/>
<stop offset="1" stop-color="#009475"/>
</linearGradient>
<linearGradient id="paint7_linear_1983_8122" x1="-6.77341" y1="56.6806" x2="4.0753" y2="63.8763" gradientUnits="userSpaceOnUse">
<stop offset="0.01" stop-color="#009475"/>
<stop offset="1" stop-color="#009475"/>
</linearGradient>
<linearGradient id="paint8_linear_1983_8122" x1="-6.97721" y1="56.9603" x2="3.89357" y2="64.1606" gradientUnits="userSpaceOnUse">
<stop offset="0.01" stop-color="#009475"/>
<stop offset="1" stop-color="#009475"/>
</linearGradient>
<linearGradient id="paint9_linear_1983_8122" x1="-6.47327" y1="56.22" x2="4.37938" y2="63.4161" gradientUnits="userSpaceOnUse">
<stop offset="0.01" stop-color="#009475"/>
<stop offset="1" stop-color="#009475"/>
</linearGradient>
<linearGradient id="paint10_linear_1983_8122" x1="-6.56096" y1="56.3469" x2="4.29313" y2="63.5429" gradientUnits="userSpaceOnUse">
<stop offset="0.01" stop-color="#009475"/>
<stop offset="1" stop-color="#009475"/>
</linearGradient>
<linearGradient id="paint11_linear_1983_8122" x1="14.2116" y1="25.1067" x2="25.0631" y2="32.3016" gradientUnits="userSpaceOnUse">
<stop offset="0.01" stop-color="#009475"/>
<stop offset="1" stop-color="#009475"/>
</linearGradient>
<linearGradient id="paint12_linear_1983_8122" x1="15.4501" y1="23.2363" x2="26.3028" y2="30.4324" gradientUnits="userSpaceOnUse">
<stop offset="0.01" stop-color="#009475"/>
<stop offset="1" stop-color="#009475"/>
</linearGradient>
<linearGradient id="paint13_linear_1983_8122" x1="14.4088" y1="24.7972" x2="25.2579" y2="31.991" gradientUnits="userSpaceOnUse">
<stop offset="0.01" stop-color="#009475"/>
<stop offset="1" stop-color="#009475"/>
</linearGradient>
<linearGradient id="paint14_linear_1983_8122" x1="15.1179" y1="23.7338" x2="25.9717" y2="30.9299" gradientUnits="userSpaceOnUse">
<stop offset="0.01" stop-color="#009475"/>
<stop offset="1" stop-color="#009475"/>
</linearGradient>
<linearGradient id="paint15_linear_1983_8122" x1="77.3457" y1="56.22" x2="66.4938" y2="63.416" gradientUnits="userSpaceOnUse">
<stop offset="0.01" stop-color="#009475"/>
<stop offset="1" stop-color="#009475"/>
</linearGradient>
<linearGradient id="paint16_linear_1983_8122" x1="77.5104" y1="56.4798" x2="66.6696" y2="63.6663" gradientUnits="userSpaceOnUse">
<stop offset="0.01" stop-color="#009475"/>
<stop offset="1" stop-color="#009475"/>
</linearGradient>
<linearGradient id="paint17_linear_1983_8122" x1="77.4281" y1="56.3469" x2="66.577" y2="63.5386" gradientUnits="userSpaceOnUse">
<stop offset="0.01" stop-color="#009475"/>
<stop offset="1" stop-color="#009475"/>
</linearGradient>
<linearGradient id="paint18_linear_1983_8122" x1="77.8519" y1="56.9603" x2="66.9832" y2="64.1583" gradientUnits="userSpaceOnUse">
<stop offset="0.01" stop-color="#009475"/>
<stop offset="1" stop-color="#009475"/>
</linearGradient>
<linearGradient id="paint19_linear_1983_8122" x1="55.4287" y1="23.2375" x2="44.576" y2="30.4336" gradientUnits="userSpaceOnUse">
<stop offset="0.01" stop-color="#009475"/>
<stop offset="1" stop-color="#009475"/>
</linearGradient>
<linearGradient id="paint20_linear_1983_8122" x1="56.4687" y1="24.7972" x2="45.6183" y2="31.9911" gradientUnits="userSpaceOnUse">
<stop offset="0.01" stop-color="#009475"/>
<stop offset="1" stop-color="#009475"/>
</linearGradient>
<linearGradient id="paint21_linear_1983_8122" x1="55.7576" y1="23.7338" x2="44.905" y2="30.9296" gradientUnits="userSpaceOnUse">
<stop offset="0.01" stop-color="#009475"/>
<stop offset="1" stop-color="#009475"/>
</linearGradient>
<linearGradient id="paint22_linear_1983_8122" x1="77.0357" y1="55.7542" x2="66.1845" y2="62.948" gradientUnits="userSpaceOnUse">
<stop offset="0.01" stop-color="#009475"/>
<stop offset="1" stop-color="#009475"/>
</linearGradient>
<linearGradient id="paint23_linear_1983_8122" x1="56.6673" y1="25.1067" x2="45.8159" y2="32.3013" gradientUnits="userSpaceOnUse">
<stop offset="0.01" stop-color="#009475"/>
<stop offset="1" stop-color="#009475"/>
</linearGradient>
<linearGradient id="paint24_linear_1983_8122" x1="77.2527" y1="56.0791" x2="66.4042" y2="63.2645" gradientUnits="userSpaceOnUse">
<stop offset="0.01" stop-color="#009475"/>
<stop offset="1" stop-color="#009475"/>
</linearGradient>
<linearGradient id="paint25_linear_1983_8122" x1="13.7542" y1="35.6058" x2="26.6561" y2="43.2434" gradientUnits="userSpaceOnUse">
<stop stop-color="#009475"/>
<stop offset="0.99" stop-color="#009475"/>
</linearGradient>
<linearGradient id="paint26_linear_1983_8122" x1="48.6355" y1="16.4091" x2="48.6355" y2="18.458" gradientUnits="userSpaceOnUse">
<stop stop-color="#F2E2DB"/>
<stop offset="1" stop-color="#E0CAC1"/>
</linearGradient>
<linearGradient id="paint27_linear_1983_8122" x1="47.1782" y1="28.1389" x2="59.4444" y2="28.1389" gradientUnits="userSpaceOnUse">
<stop stop-color="#F2E2DB"/>
<stop offset="1" stop-color="#E0CAC1"/>
</linearGradient>
<linearGradient id="paint28_linear_1983_8122" x1="41.9751" y1="24.0022" x2="54.2424" y2="24.0022" gradientUnits="userSpaceOnUse">
<stop stop-color="#F2E2DB"/>
<stop offset="1" stop-color="#E0CAC1"/>
</linearGradient>
<linearGradient id="paint29_linear_1983_8122" x1="47.5951" y1="34.662" x2="53.5754" y2="31.8507" gradientUnits="userSpaceOnUse">
<stop stop-color="#F2E2DB"/>
<stop offset="1" stop-color="#E0CAC1"/>
</linearGradient>
<linearGradient id="paint30_linear_1983_8122" x1="37.8345" y1="29.1936" x2="50.1018" y2="29.1936" gradientUnits="userSpaceOnUse">
<stop stop-color="#F2E2DB"/>
<stop offset="1" stop-color="#E0CAC1"/>
</linearGradient>
</defs>
</svg>
