<svg width="50" height="72" viewBox="0 0 50 72" fill="none" xmlns="http://www.w3.org/2000/svg">
<path d="M13.6172 19.6052C15.8783 23.5421 20.1272 26.1944 24.9971 26.1944C32.2377 26.1944 38.1077 20.3302 38.1077 13.0966C38.1077 10.0986 37.0986 7.33684 35.4026 5.12891L13.6172 19.6052Z" fill="url(#paint0_linear_1983_8243)"/>
<path d="M35.388 5.13018C32.9918 2.01126 29.2224 0 24.9826 0C20.3392 0 16.2592 2.41203 13.9297 6.05023L26.682 10.9154L35.388 5.13018Z" fill="url(#paint1_linear_1983_8243)"/>
<path d="M13.9405 6.05078C12.6382 8.0859 11.8828 10.5037 11.8828 13.0984C11.8828 15.4676 12.513 17.6896 13.6135 19.607L26.6928 10.916L13.9405 6.05078Z" fill="url(#paint2_linear_1983_8243)"/>
<path d="M43.6408 17.3203H6.35924C2.84713 17.3203 0 20.1647 0 23.6734V65.597C0 69.1057 2.84713 71.9501 6.35924 71.9501H43.6408C47.1529 71.9501 50 69.1057 50 65.597V23.6734C50 20.1647 47.1529 17.3203 43.6408 17.3203Z" fill="#FFC562"/>
<path d="M0 23.2587V66.109C0 69.3621 2.63926 71.9988 5.89549 71.9988H24.9996L0.564268 20.7422C0.202647 21.505 0 22.3584 0 23.2587Z" fill="url(#paint3_linear_1983_8243)"/>
<path d="M49.9996 23.2587V66.109C49.9996 69.3621 47.3603 71.9988 44.1041 71.9988H25L49.4353 20.7422C49.797 21.505 49.9996 22.3584 49.9996 23.2587Z" fill="url(#paint4_linear_1983_8243)"/>
<path d="M41.4532 51.467H34.4547C33.3937 51.467 32.6038 50.4893 32.827 49.4533L34.304 42.6122C34.6664 40.9326 36.1524 39.7344 37.8724 39.7344H38.0363C39.7555 39.7344 41.2423 40.9334 41.6047 42.6122L43.0817 49.4533C43.3049 50.4893 42.515 51.467 41.454 51.467H41.4532Z" fill="#C84641"/>
<path d="M38.673 17.3203H37.2422V43.7267H38.673V17.3203Z" fill="#C84641"/>
<path d="M38.1099 33.8751C41.7044 33.8751 44.6182 30.9641 44.6182 27.3731C44.6182 23.7821 41.7044 20.8711 38.1099 20.8711C34.5154 20.8711 31.6016 23.7821 31.6016 27.3731C31.6016 30.9641 34.5154 33.8751 38.1099 33.8751Z" fill="#613737"/>
<path d="M38.9728 39.5303C39.5315 38.9721 39.5315 38.067 38.9727 37.5088C38.414 36.9505 37.508 36.9505 36.9493 37.5088C36.3905 38.067 36.3905 38.9721 36.9492 39.5303C37.508 40.0885 38.414 40.0885 38.9728 39.5303Z" fill="#613737"/>
<path d="M37.3799 26.1445H35.6797V27.8826H36.5298V28.3056H35.6797V28.9187H36.5298V29.5005H35.6797V31.2385H37.9944V30.6254V30.1144V29.5013H37.1443V28.9195H37.9944V28.3064H37.1443V27.8834H37.9944V27.2703V26.7593V26.1462H37.3807L37.3799 26.1445ZM37.3799 30.6254H36.2934V30.1144H37.3799V30.6254ZM37.3799 27.2687H36.2934V26.7576H37.3799V27.2687Z" fill="#FFF0E0"/>
<path d="M37.1443 23.5039H36.5298V24.1409H35.6797V24.7539H36.5298V25.2024H35.6797V25.8155H36.5298H37.1443H37.9944V25.2024H37.1443V24.7539H37.9944V24.1409H37.1443V23.5039Z" fill="#FFF0E0"/>
<path d="M39.9424 26.1445H38.2422V27.8826H39.0923V28.3056H38.2422V28.9187H39.0923V29.5005H38.2422V31.2385H40.5569V30.6254V30.1144V29.5013H39.7068V28.9195H40.5569V28.3064H39.7068V27.8834H40.5569V27.2703V26.7593V26.1462H39.9432L39.9424 26.1445ZM39.9424 30.6254H38.8559V30.1144H39.9424V30.6254ZM39.9424 27.2687H38.8559V26.7576H39.9424V27.2687Z" fill="#FFF0E0"/>
<path d="M40.5561 24.7539V24.1409H39.706V23.5039H39.0923V24.1409H38.2422V24.7539H39.0923V25.2024H38.2422V25.8155H39.0923H39.706H40.5561V25.2024H39.706V24.7539H40.5561Z" fill="#FFF0E0"/>
<defs>
<linearGradient id="paint0_linear_1983_8243" x1="29.6891" y1="19.174" x2="24.2163" y2="12.0718" gradientUnits="userSpaceOnUse">
<stop stop-color="#FFC562"/>
<stop offset="1" stop-color="#FFA912"/>
</linearGradient>
<linearGradient id="paint1_linear_1983_8243" x1="24.6589" y1="9.02432" x2="24.6589" y2="25.5703" gradientUnits="userSpaceOnUse">
<stop stop-color="#FFC562"/>
<stop offset="1" stop-color="#FFA912"/>
</linearGradient>
<linearGradient id="paint2_linear_1983_8243" x1="19.7231" y1="14.6579" x2="12.9328" y2="5.12203" gradientUnits="userSpaceOnUse">
<stop stop-color="#FFC562"/>
<stop offset="1" stop-color="#FFA912"/>
</linearGradient>
<linearGradient id="paint3_linear_1983_8243" x1="1.87153" y1="51.2567" x2="18.5715" y2="43.7632" gradientUnits="userSpaceOnUse">
<stop stop-color="#FFC562"/>
<stop offset="1" stop-color="#FFA912"/>
</linearGradient>
<linearGradient id="paint4_linear_1983_8243" x1="48.1281" y1="51.2567" x2="31.4289" y2="43.7632" gradientUnits="userSpaceOnUse">
<stop stop-color="#FFC562"/>
<stop offset="1" stop-color="#FFA912"/>
</linearGradient>
</defs>
</svg>
