<svg width="70" height="64" viewBox="0 0 70 64" fill="none" xmlns="http://www.w3.org/2000/svg">
<path d="M58.6684 8.67188H10.3656C6.71161 8.67188 3.74951 11.6238 3.74951 15.2652V57.4046C3.74951 61.046 6.71161 63.998 10.3656 63.998H58.6684C62.3223 63.998 65.2844 61.046 65.2844 57.4046V15.2652C65.2844 11.6238 62.3223 8.67188 58.6684 8.67188Z" fill="#F1522E"/>
<path d="M52.4565 0.328125C49.2715 0.328125 46.2849 1.2299 43.7107 2.44127C40.7766 3.8212 39.3096 6.24888 39.3096 8.67657H70.0002C70.0002 8.67657 62.1454 0.328125 52.4565 0.328125Z" fill="url(#paint0_linear_1983_8115)"/>
<path d="M17.5442 0.328125C20.7292 0.328125 23.7158 1.2299 26.2901 2.44127C29.2241 3.8212 30.6906 6.24888 30.6906 8.67657H0C0 8.67657 7.85479 0.328125 17.5437 0.328125H17.5442Z" fill="url(#paint1_linear_1983_8115)"/>
<path d="M39.6536 11.2576H30.3315L29.509 6.48319C28.9252 3.09534 31.5433 0 34.9928 0C38.4424 0 41.0605 3.09534 40.4767 6.48319L39.6541 11.2576H39.6536Z" fill="#FFC562"/>
<path d="M59.0057 8.67188H10.9831C8.74996 8.67188 7.63558 11.3172 9.21981 12.8574L32.017 35.0161C33.673 36.6258 36.3153 36.6258 37.9719 35.0161L60.769 12.8574C62.3533 11.3172 61.2389 8.67188 59.0057 8.67188Z" fill="#F6DAC3"/>
<defs>
<linearGradient id="paint0_linear_1983_8115" x1="37.8934" y1="4.50207" x2="54.1016" y2="4.50207" gradientUnits="userSpaceOnUse">
<stop stop-color="#D49779"/>
<stop offset="1" stop-color="#F2CFC0"/>
</linearGradient>
<linearGradient id="paint1_linear_1983_8115" x1="34.5639" y1="-42.48" x2="16.699" y2="-42.48" gradientUnits="userSpaceOnUse">
<stop stop-color="#D49779"/>
<stop offset="1" stop-color="#F2CFC0"/>
</linearGradient>
</defs>
</svg>
