<svg width="60" height="40" viewBox="0 0 60 40" fill="none" xmlns="http://www.w3.org/2000/svg">
<path d="M56.6548 10.7422H55.3491C53.1858 12.4465 49.8195 14.4717 46.0388 14.4717C43.893 14.4717 41.8811 13.8196 40.1468 12.9438C39.4682 12.6012 38.9088 12.1678 38.4632 11.6775L38.4617 11.6825H21.5307C21.0856 12.1708 20.5283 12.6027 19.8521 12.9438C18.1179 13.8196 16.1054 14.4717 13.9602 14.4717C10.1794 14.4717 6.81318 12.4465 4.64988 10.7422H3.34418C1.49715 10.7422 0.000488281 12.2474 0.000488281 14.1038V36.1383C0.000488281 37.9953 1.49765 39.5 3.34418 39.5H56.6558C58.5023 39.5 59.9995 37.9948 59.9995 36.1383V14.1038C59.9995 12.2469 58.5023 10.7422 56.6558 10.7422H56.6548Z" fill="#7B4F4D"/>
<path d="M3.34418 10.7422C1.49716 10.7422 0.000488281 12.2474 0.000488281 14.1038V36.1383C0.000488281 37.1976 0.488183 38.1424 1.25005 38.7582L29.8647 10.7422H3.34468H3.34418Z" fill="url(#paint0_linear_1983_8096)"/>
<path d="M56.6538 10.7422C58.5008 10.7422 59.9975 12.2474 59.9975 14.1038V36.1383C59.9975 37.1976 59.5098 38.1424 58.7479 38.7582L30.1333 10.7422H56.6533H56.6538Z" fill="url(#paint1_linear_1983_8096)"/>
<path d="M39.9226 5.98586L38.7036 10.7419H55.3499C56.9217 9.50373 57.8585 8.43492 57.8585 8.43492C57.8585 8.43492 52.5671 2.39844 46.0396 2.39844C43.8938 2.39844 41.8819 3.05052 40.1476 3.92633C40.0885 3.95606 40.0334 3.98882 39.9757 4.02006C40.102 4.64643 40.095 5.31413 39.9226 5.98586Z" fill="#F6DAC3"/>
<path d="M38.4614 11.6775C38.907 12.1683 39.4664 12.6017 40.145 12.9438C41.8793 13.8196 43.8917 14.4717 46.037 14.4717C49.8177 14.4717 53.184 12.4465 55.3473 10.7422H38.701L38.4614 11.6775Z" fill="#F6DAC3"/>
<path d="M20.0405 5.98636C19.8665 5.30758 19.8605 4.63384 19.9908 4.00192C19.9442 3.97672 19.9001 3.95052 19.852 3.92633C18.1178 3.05052 16.1053 2.39844 13.9601 2.39844C7.43258 2.39844 2.14111 8.43492 2.14111 8.43492C2.14111 8.43492 3.07841 9.50373 4.64976 10.7419H21.2595L20.0405 5.98586V5.98636Z" fill="#F6DAC3"/>
<path d="M19.8517 12.9438C20.5278 12.6027 21.0857 12.1708 21.5303 11.6825H21.4997L21.2586 10.7422H4.64893C6.81223 12.4465 10.1785 14.4717 13.9592 14.4717C16.105 14.4717 18.1169 13.8196 19.8512 12.9438H19.8517Z" fill="#F6DAC3"/>
<path d="M22.2126 10.7422H37.7903C36.5217 8.4665 37.2515 5.50243 39.9771 4.0204C39.5807 2.05661 37.8589 0.5 35.6946 0.5H24.2717C22.1144 0.5 20.3962 2.04704 19.9927 4.00226C22.7459 5.47824 23.4862 8.45692 22.2126 10.7422Z" fill="#7B4F4D"/>
<path d="M22.2114 10.7422C22.0274 11.0728 21.7999 11.3877 21.5317 11.6825H38.4627L38.4642 11.6775C38.1981 11.3842 37.9725 11.0707 37.7891 10.7422H22.2114Z" fill="#7B4F4D"/>
<path d="M37.7918 10.7413H38.7066L39.9256 5.98533C40.098 5.3131 40.105 4.64591 39.9787 4.01953C37.253 5.50156 36.5237 8.46563 37.7918 10.7413Z" fill="#7B4F4D"/>
<path d="M37.7896 10.7422C37.9725 11.0707 38.1981 11.3842 38.4647 11.6775L38.7043 10.7422H37.7896Z" fill="#7B4F4D"/>
<path d="M20.0388 5.98785L21.2578 10.7439H22.2091C23.4827 8.45857 22.7424 5.47939 19.9892 4.00391C19.8588 4.63582 19.8649 5.30956 20.0388 5.98834V5.98785Z" fill="#7B4F4D"/>
<path d="M21.2583 10.7422L21.4994 11.6825H21.53C21.7981 11.3877 22.0257 11.0728 22.2096 10.7422H21.2583Z" fill="#7B4F4D"/>
<defs>
<linearGradient id="paint0_linear_1983_8096" x1="-0.436081" y1="7.78165" x2="23.2226" y2="32.649" gradientUnits="userSpaceOnUse">
<stop stop-color="#7B4F4D"/>
<stop offset="1" stop-color="#422522"/>
</linearGradient>
<linearGradient id="paint1_linear_1983_8096" x1="60.9257" y1="9.20523" x2="36.4438" y2="32.0556" gradientUnits="userSpaceOnUse">
<stop stop-color="#7B4F4D"/>
<stop offset="1" stop-color="#422522"/>
</linearGradient>
</defs>
</svg>
