<svg width="32" height="32" viewBox="0 0 32 32" fill="none" xmlns="http://www.w3.org/2000/svg">
<path fill-rule="evenodd" clip-rule="evenodd" d="M30.6652 16.333C30.6652 15.2926 30.5693 14.2936 30.3931 13.3333H16.2988V19.0065H24.3533C24.0065 20.8401 22.9519 22.3931 21.3672 23.4335V27.1129H26.2044C29.034 24.5596 30.6666 20.8 30.6666 16.333H30.6652Z" fill="#3E82F1"/>
<path fill-rule="evenodd" clip-rule="evenodd" d="M16.2989 30.6665C20.3395 30.6665 23.7273 29.3526 26.203 27.1128L21.3658 23.4334C20.0251 24.3135 18.3121 24.833 16.2974 24.833C12.3992 24.833 9.10018 22.2534 7.92295 18.7867H2.92505V22.5864C5.38805 27.3795 10.448 30.6665 16.2989 30.6665Z" fill="#32A753"/>
<path fill-rule="evenodd" clip-rule="evenodd" d="M7.92428 18.7869C7.6254 17.9067 7.4548 16.9672 7.4548 16C7.4548 15.0328 7.6254 14.0932 7.92428 13.2131V9.41345H2.92497C1.91129 11.3934 1.33325 13.6331 1.33325 16C1.33325 18.3668 1.91129 20.6066 2.92497 22.5865L7.92428 18.7869Z" fill="#F9BB00"/>
<path fill-rule="evenodd" clip-rule="evenodd" d="M16.2988 7.16682C18.4954 7.16682 20.4692 7.90741 22.02 9.35957L26.313 5.15231C23.7203 2.78685 20.3324 1.33331 16.2988 1.33331C10.448 1.33331 5.38805 4.62036 2.92505 9.41346L7.92436 13.2131C9.10158 9.74645 12.4006 7.16682 16.2988 7.16682Z" fill="#E74133"/>
</svg>
