<svg width="91" height="91" viewBox="0 0 91 91" fill="none" xmlns="http://www.w3.org/2000/svg">
<path d="M53.6933 80.9414C53.3783 80.9414 53.077 80.7976 52.8785 80.5374L52.3033 79.7842C51.6254 79.7637 50.8859 79.1885 50.4408 78.7777C50.4134 78.7503 50.3929 78.7297 50.3655 78.7023C50.119 78.4216 49.6329 77.8738 49.6808 77.2644L48.9755 76.6892C48.8523 76.5865 48.7564 76.4633 48.6948 76.3195C48.5578 76.1894 48.462 76.0319 48.414 75.847C48.3319 75.758 48.2292 75.6416 48.147 75.5526C48.0443 75.5183 47.9484 75.4773 47.8526 75.4088C46.9487 74.772 46.5721 74.0256 46.2708 73.4231C46.0997 73.0807 45.9627 72.8068 45.7573 72.6083L45.1068 72.1974C44.8877 72.0536 44.7302 71.8414 44.6686 71.6017C44.4152 71.4237 44.155 71.184 43.8469 70.7047C43.1827 69.5407 42.3542 68.4862 41.4777 67.3769C40.7245 66.4183 39.9508 65.4323 39.2866 64.3778C39.136 64.2682 39.0127 64.1176 38.9442 63.9396C38.9237 63.8917 38.9031 63.8437 38.8895 63.7958C38.506 62.8714 37.9719 62.3099 37.3488 61.6663C36.6915 60.9815 35.952 60.2146 35.4863 58.989C35.459 58.9068 35.4384 58.8247 35.4247 58.7425C35.3973 58.674 35.37 58.6055 35.3494 58.5371C35.1166 58.2906 34.8975 57.9756 34.6647 57.6401C34.5277 57.4415 34.3976 57.2498 34.2812 57.1128C34.158 56.969 34.0827 56.791 34.0553 56.613C33.6239 56.161 33.2336 55.5859 32.8501 55.0176C32.6721 54.7574 32.5009 54.4972 32.3298 54.2644C32.1723 54.0452 32.1038 53.7782 32.138 53.518C32.1243 53.4221 32.0969 53.2989 32.0627 53.1619C32.0353 53.1619 32.0079 53.1551 31.9805 53.1482C31.6861 53.0866 31.4327 52.8949 31.289 52.6347C31.2547 52.5662 31.2068 52.4909 31.152 52.4019C30.9329 52.039 30.6932 51.6418 30.6385 51.2378C30.6042 51.1557 30.57 51.0735 30.5358 50.9776C30.4057 50.8133 30.3098 50.6353 30.2345 50.4504C30.1934 50.3408 30.166 50.2313 30.166 50.1217C29.9469 49.7725 29.5703 49.3617 29.3032 49.0673C29.2074 48.9646 29.1252 48.8687 29.0499 48.7865C28.7418 48.4305 28.7144 47.9169 28.9677 47.5335C28.9061 47.4034 28.8513 47.2664 28.7965 47.1226C28.7829 47.0747 28.7692 47.0336 28.7555 46.9857C28.6048 46.8761 28.4816 46.7186 28.4131 46.5338C28.3378 46.342 28.3241 46.1435 28.3652 45.9517C28.3378 45.8079 28.2556 45.582 28.1871 45.445C28.1803 45.445 28.1734 45.4313 28.1666 45.4245C27.8174 45.1438 27.653 44.9109 27.4065 44.3358C27.3586 44.2194 27.3312 44.103 27.3244 43.9797C27.208 43.8222 27.0984 43.6305 27.0162 43.3361C27.0026 43.2881 26.982 43.2334 26.9752 43.1717C26.9683 43.1238 26.9615 43.0759 26.9546 43.0348C26.8725 42.9184 26.7903 42.8431 26.6328 42.6993L26.4411 42.5212C26.2151 42.309 26.1056 42.0077 26.1261 41.7132C25.8248 41.1997 25.6536 40.8163 25.5578 40.5218C25.1812 40.1041 24.9552 39.3509 24.6745 38.1732L24.6334 38.0089C24.606 37.913 24.5992 37.8103 24.606 37.7213C24.2636 36.8174 24.1404 35.8931 24.0171 34.9824C23.976 34.7016 23.9418 34.4277 23.8939 34.1539C23.8596 33.9621 23.8939 33.7635 23.9624 33.5924C23.7227 33.3116 23.394 32.8871 23.3187 32.1887C23.2982 31.9901 23.3392 31.7984 23.4214 31.6272C23.3392 30.696 23.3666 30.0934 23.442 29.1279C23.4557 28.9568 23.5104 28.7993 23.5995 28.6555C23.5995 28.6007 23.5995 28.5528 23.5995 28.498C23.5995 28.3268 23.5995 28.1625 23.5789 28.0461C23.5378 27.7859 23.5926 27.5188 23.7432 27.3065C23.798 27.2107 23.887 26.8272 23.9213 26.6834C23.9555 26.526 23.9761 26.3548 24.0034 26.1767C24.0377 25.9097 24.0788 25.6084 24.1541 25.2866C24.291 24.5402 24.5375 23.5748 25.0168 22.7531C24.9347 22.5066 24.9415 22.2327 25.0579 21.9862C25.4688 21.1029 25.9549 20.2675 26.6807 19.9731C26.7355 19.8909 26.7903 19.8088 26.8588 19.7197C26.8588 19.4116 26.982 19.1103 27.2354 18.9049C28.0707 18.2202 29.3854 17.378 30.8781 17.2342C32.2818 17.063 33.5623 17.5355 34.247 18.0901C36.1026 18.9118 37.3557 19.8909 38.5539 21.4384C38.6361 21.5411 38.6909 21.6644 38.732 21.7876C39.0538 22.2806 39.4304 22.9243 39.5057 23.52C39.6769 23.6912 39.8481 23.8555 40.0261 24.0199C40.5944 24.5471 41.2312 25.1428 41.7927 26.1973C41.8407 26.2931 41.8749 26.389 41.8954 26.4849C41.9434 26.5328 41.9913 26.5807 42.0529 26.6355C42.1351 26.7108 42.2036 26.7999 42.2583 26.8957C42.3337 27.0258 42.3747 27.1628 42.3953 27.2997C42.4774 27.375 42.5596 27.464 42.6349 27.5599C42.7924 27.7585 42.8677 28.005 42.854 28.2446C43.08 28.6349 43.395 29.0869 43.7168 29.5525C43.8332 29.7168 43.9496 29.8811 44.0592 30.0455C44.0592 30.0112 44.066 29.977 44.0729 29.9496C43.9907 29.799 43.9496 29.6278 43.9496 29.4429C43.9633 28.9294 43.9085 28.7102 43.8401 28.4295C43.7647 28.1145 43.6689 27.7174 43.6757 27.0327C43.6757 26.882 43.71 26.7314 43.7716 26.5944C43.7373 26.2178 43.7168 25.6632 44.0523 25.177C44.0318 25.0743 44.0249 24.9716 44.0249 24.8552C44.0249 24.5882 44.1345 24.3348 44.3194 24.1499C44.3399 23.5611 44.3536 22.89 44.292 22.5477C44.244 22.2806 44.292 22.0136 44.4426 21.7945C44.47 21.5959 44.4837 21.3973 44.5042 21.1988C44.5522 20.603 44.6001 19.9868 44.963 19.4595C44.9972 19.4048 45.0383 19.3568 45.0863 19.3158C45.1273 19.1857 45.1616 19.0419 45.1958 18.9323C45.2985 18.542 45.4971 17.7614 46.0791 17.4327C46.0997 17.152 46.1955 16.8302 46.4626 16.433C46.5173 16.3509 46.579 16.2824 46.6543 16.2208C46.9898 15.6388 47.428 14.9061 47.921 14.3241C48.0032 14.2214 48.1059 14.1392 48.2223 14.0776C48.3867 13.9886 48.5921 13.8311 48.8043 13.6667C49.0577 13.4339 49.3453 13.2148 49.6192 13.0094L49.715 12.9341C50.0574 12.6602 50.434 12.4685 50.7627 12.2973L50.8517 12.2493C50.8928 12.2288 50.9407 12.2083 50.9886 12.1877C51.1735 12.1261 51.3858 12.0576 51.6117 12.0028C51.6665 11.9618 51.7213 11.9207 51.7761 11.8796C51.9267 11.7358 52.1116 11.6331 52.317 11.5989C52.3718 11.5509 52.4334 11.4961 52.5087 11.4482C52.7005 11.325 52.9333 11.2702 53.1524 11.2839C53.2072 11.2702 53.2619 11.2496 53.3236 11.2359L53.5358 11.1743L53.6043 11.1538C53.796 11.1058 53.9741 11.0511 54.1589 11.0305C54.426 10.9347 54.7135 10.9415 55.0217 10.9415H55.1929C55.4257 10.9415 55.6448 11.0237 55.816 11.1606C56.22 11.0853 56.7198 11.0716 57.3771 11.2702C57.4662 11.2976 57.5483 11.3318 57.6237 11.3866L57.788 11.4893C57.788 11.4893 57.8222 11.5098 57.8359 11.5235C58.1509 11.5235 58.4385 11.592 58.596 11.6331L58.8904 11.7358C58.8904 11.7358 58.9109 11.7358 58.9178 11.7426C59.178 11.7563 59.4245 11.8727 59.6094 12.0645L59.671 12.1261C59.7942 12.2425 59.8833 12.3589 59.9586 12.4685C60.1846 12.4548 60.4105 12.5232 60.6091 12.6602C60.9583 12.9135 61.3006 13.119 61.6293 13.3107C62.3277 13.7284 63.0536 14.1529 63.6082 14.9951C63.615 15.0088 63.6219 15.0157 63.6287 15.0293C63.7794 15.0773 63.9232 15.1526 64.0396 15.269C64.5737 15.7757 64.7448 16.1728 64.8681 16.4673C64.9434 16.6522 64.9845 16.748 65.1557 16.9261C65.2515 17.0288 65.3269 17.1589 65.3748 17.289C65.457 17.5218 65.4775 17.7477 65.4364 17.96C65.6145 18.3092 65.6966 18.6584 65.7583 18.9391C65.7856 19.0556 65.8199 19.2199 65.8472 19.2815C65.8472 19.2884 65.8541 19.2952 65.861 19.3021C65.9294 19.3705 65.9842 19.439 66.0253 19.5143C66.1348 19.6239 66.217 19.754 66.2718 19.9046C66.2855 19.932 66.2992 19.9526 66.3129 19.9731C66.4087 20.1237 66.5114 20.2881 66.5936 20.5209C66.7922 20.6167 66.9565 20.7811 67.0524 21.0002C67.1551 21.233 67.2304 21.6096 67.1688 21.9794C67.5248 22.308 67.6618 22.7326 67.6686 23.4515C67.6686 23.5268 67.6618 23.609 67.6413 23.6775C67.6549 23.7323 67.6618 23.7802 67.6755 23.8213C67.7029 23.9514 67.7029 24.0815 67.6823 24.1979C67.6823 24.2047 67.696 24.2184 67.696 24.2253C67.7371 24.2869 67.7645 24.3554 67.7919 24.4307C67.8672 24.5539 67.922 24.6909 67.9425 24.8415L67.9631 24.999C67.9768 25.136 67.9973 25.2729 68.0384 25.4235V25.4372C68.1274 25.7454 68.0589 26.0603 67.8877 26.3C67.8672 26.5807 67.874 26.8615 67.9425 27.1422C68.0384 27.5257 67.9083 27.9091 67.6344 28.1556C67.6139 28.2035 67.5933 28.2515 67.5659 28.2994C67.6481 28.498 67.6892 28.7034 67.6892 28.9636C67.785 29.1416 67.833 29.3607 67.8056 29.5798C67.7645 29.9359 67.7645 30.2235 67.7645 30.5248C67.7645 30.7028 67.7645 30.8877 67.7576 31.0794C67.8056 31.2095 67.8398 31.3601 67.8672 31.5313C67.9014 31.8052 67.8261 32.0791 67.6686 32.2914C67.6686 32.3256 67.6549 32.3599 67.6481 32.3941C67.6344 32.4831 67.6138 32.5653 67.6002 32.6474C67.6481 32.8597 67.6207 33.0857 67.5317 33.2842C67.4906 33.3664 67.4495 33.4417 67.4016 33.5102C67.3674 33.7156 67.381 33.7704 67.4358 33.9416C67.5591 34.3319 67.6686 34.7701 67.4769 35.4754C67.429 35.6876 67.3331 35.8794 67.2099 36.119C67.2099 36.1327 67.2099 36.1396 67.2167 36.1532C67.292 36.434 67.2441 36.7353 67.0866 36.9749C66.9017 37.2625 66.8881 37.6597 66.8881 38.2211V38.3855C66.8538 39.0497 66.8127 39.8713 66.443 40.7272C66.4087 40.8094 66.3608 40.8847 66.306 40.9601C66.2718 41.2545 66.1759 41.7475 65.9157 42.1241C65.8678 42.5349 65.7651 42.8157 65.6213 43.1717C65.5802 43.2813 65.5254 43.4045 65.4707 43.562C65.4227 43.699 65.3474 43.8154 65.2584 43.9112C65.2515 44.0003 65.2379 44.0961 65.2173 44.2057C65.1762 44.4522 65.053 44.6644 64.8749 44.8219C64.8339 45.1848 64.738 45.5683 64.6421 45.9654C64.5737 46.2325 64.512 46.5064 64.4641 46.7597C64.4367 46.9172 64.3751 47.061 64.2861 47.1843C64.1423 47.691 63.9506 48.1771 63.7588 48.6427C63.5877 49.0673 63.4233 49.4712 63.3138 49.8684C63.4507 50.2861 63.3138 50.7859 63.1768 51.2858C63.1289 51.4638 63.0741 51.635 63.0604 51.7446C63.033 51.9226 62.9645 52.0938 62.8618 52.2444C62.8481 52.3471 62.8276 52.4567 62.8002 52.5731V52.6073C62.7934 52.7853 62.7523 52.9565 62.6633 53.114C62.5948 53.2441 62.5195 53.3468 62.4373 53.429C62.4715 53.7645 62.3414 54.0932 62.0812 54.3123C62.0333 54.3808 61.9238 54.5588 61.8211 54.7848C61.8553 54.9902 61.821 55.2093 61.7183 55.4147C61.4924 55.8461 61.4034 56.2775 61.3007 56.7294C61.239 57.0238 61.1706 57.3251 61.0678 57.6264C61.0268 57.7428 60.972 57.8523 60.8967 57.9413C60.8898 58.003 60.8693 58.0646 60.8556 58.1194L60.6707 58.6535C60.6022 58.8589 60.4721 59.0232 60.3146 59.1396C60.39 59.4614 60.301 59.8175 60.0613 60.0708C59.9449 60.331 59.8148 60.6323 59.6915 60.9199C59.493 61.3855 59.3492 61.7279 59.2054 61.9676C59.1301 62.2551 59.041 62.529 58.9589 62.7824C58.9178 62.9056 58.863 63.0631 58.8288 63.1795C58.8699 63.3302 58.8767 63.4877 58.8493 63.652C58.7808 63.9944 58.6165 64.2956 58.4796 64.5558C58.4316 64.638 58.37 64.7544 58.3358 64.8366C58.3974 65.1105 58.3358 65.398 58.1783 65.6377C58.1167 65.7267 58.0071 65.8842 57.8496 66.028C57.8428 66.0622 57.8291 66.1033 57.8222 66.1444C57.8565 66.3909 57.8085 66.6374 57.6716 66.8497C57.6031 66.9524 57.5209 67.0414 57.4251 67.1167C57.3977 67.2126 57.3635 67.3427 57.3361 67.4317C57.2881 67.6097 57.2402 67.8014 57.1717 67.9932C57.1923 68.1027 57.206 68.2191 57.2128 68.3424C57.2128 68.4519 57.206 68.5615 57.1717 68.6711C57.1923 68.7669 57.1991 68.8765 57.1923 68.9792C57.1649 69.2873 57.0006 69.5681 56.7404 69.7392L56.6993 69.7666C56.7609 70.0884 56.7061 70.4308 56.6513 70.7663C56.6239 70.9238 56.5692 71.0676 56.4802 71.1909C56.4802 71.2114 56.4802 71.2319 56.4802 71.2525C56.4596 71.6154 56.4254 72.1632 56.1446 72.7931C56.1104 72.8685 56.0693 72.9369 56.0214 73.0054C55.9872 73.0944 55.9392 73.1766 55.8844 73.2519C55.8639 73.4642 55.8091 73.7038 55.6516 74.0051C55.6379 74.0393 55.6174 74.0667 55.5968 74.101C55.6174 74.3338 55.5626 74.5597 55.4394 74.7514C55.0902 76.6002 54.8505 78.3189 54.7067 79.9896C54.6725 80.4142 54.378 80.7702 53.974 80.8866C53.8782 80.914 53.7823 80.9277 53.6865 80.9277L53.6933 80.9414ZM52.9196 77.5041C53.0702 76.3537 53.2688 75.176 53.5084 73.9366C53.5084 73.9161 53.5153 73.8955 53.5221 73.875C53.5221 73.8545 53.5221 73.8271 53.5358 73.8065L53.5837 73.5532C53.6111 73.4025 53.6385 73.2519 53.6728 73.1013C53.707 72.9369 53.7823 72.7863 53.885 72.663C53.9193 72.5329 53.9672 72.396 54.0494 72.2385V72.0742C54.0699 71.7866 54.2068 71.5264 54.4191 71.3483C54.4191 71.2867 54.426 71.2251 54.4328 71.1566C54.4465 70.9101 54.4671 70.6157 54.5835 70.3212C54.4671 70.0953 54.4397 69.8351 54.5013 69.5954L54.6588 68.9997C54.7135 68.8012 54.8231 68.6231 54.9738 68.4862C54.9806 68.4588 54.9874 68.4314 55.0011 68.3972C55.0011 68.3835 54.9943 68.3629 54.9874 68.3492C54.9327 68.0822 54.9874 67.8083 55.1312 67.5823C55.1997 67.4728 55.2887 67.151 55.3435 66.9387C55.3914 66.7538 55.4531 66.5347 55.5284 66.3224C55.5284 66.2334 55.5352 66.1444 55.5489 66.0485C55.5763 65.8089 55.6927 65.5898 55.8639 65.4323C55.8981 65.131 55.9666 64.6928 56.2473 64.2751C56.3021 64.1998 56.3637 64.1245 56.4322 64.0697C56.5075 63.8917 56.5897 63.7341 56.665 63.604C56.6924 63.5561 56.7198 63.5013 56.7472 63.4534C56.7267 63.0083 56.8841 62.5222 57.0074 62.1593C57.1032 61.8785 57.1991 61.5909 57.2539 61.3376C57.2881 61.1664 57.3703 61.0158 57.473 60.8857C57.5552 60.7213 57.6921 60.3927 57.7948 60.1462C57.9318 59.8312 58.0756 59.4888 58.2057 59.2081C58.192 58.8041 58.3221 58.3796 58.4385 57.9893C58.4796 57.8523 58.5206 57.7085 58.5549 57.5853C58.6097 57.3593 58.7329 57.1676 58.911 57.0238C58.9247 56.9759 58.9315 56.928 58.9452 56.88C59 56.6609 59.1232 56.476 59.2875 56.3391C59.2875 56.3391 59.2875 56.3322 59.2875 56.3254C59.3286 56.12 59.3766 55.9009 59.445 55.6612C59.2328 55.3873 59.1643 55.0244 59.2807 54.6889L59.445 54.2096C59.5067 54.0384 59.6025 53.8946 59.7326 53.7782C59.7326 53.7714 59.7463 53.7577 59.7532 53.7508C59.7737 53.7234 59.7874 53.7029 59.8079 53.6755C59.9107 53.4906 60.0613 53.3537 60.2325 53.2647C60.2393 53.1688 60.2599 53.0661 60.2872 52.9565C60.3557 52.7443 60.4721 52.3745 60.746 52.1075C60.7186 51.9431 60.7323 51.7719 60.7871 51.6007C60.8693 51.3679 60.9857 51.1968 61.1021 51.0735C61.1295 50.9776 61.1569 50.8749 61.1842 50.7722C61.1842 50.7585 61.1911 50.7448 61.1979 50.7243C61.1363 50.56 61.1158 50.3751 61.15 50.1902C61.2664 49.3411 61.5608 48.6085 61.8484 47.9032C62.0675 47.3691 62.273 46.8624 62.3688 46.3831C62.3962 46.253 62.4442 46.1298 62.5195 46.0202C62.5606 45.849 62.6016 45.671 62.6427 45.4998C62.7386 45.1095 62.8481 44.6713 62.8413 44.459C62.8413 44.3632 62.8481 44.2605 62.8755 44.1714C62.9303 43.9729 63.0467 43.699 63.2384 43.4662C63.2795 43.1306 63.348 42.8431 63.6082 42.2337C63.6698 42.0899 63.7588 41.9666 63.8752 41.8639C63.8821 41.7817 63.8889 41.6859 63.8889 41.5558C63.8889 41.364 63.9437 41.186 64.0327 41.0285C64.0943 40.5834 64.1902 40.2137 64.2861 39.8645C64.3545 39.6043 64.5257 39.3715 64.7517 39.2345C64.7996 38.9401 64.8133 38.632 64.827 38.317V38.2006C64.827 37.9336 64.827 37.6117 64.8749 37.2694C64.8749 37.2557 64.8612 37.2351 64.8544 37.2214C64.7859 37.0365 64.7654 36.838 64.8065 36.6463C64.9229 36.0779 65.1899 35.5575 65.368 35.2152C65.409 35.133 65.4501 35.0577 65.4775 34.9961C65.4775 34.9961 65.4775 34.9824 65.4775 34.9755C65.5323 34.7838 65.5254 34.7701 65.4707 34.5921C65.409 34.4072 65.3543 34.2086 65.3269 33.969C65.1078 33.6951 64.9913 33.2979 64.9845 32.7844C64.9845 32.7296 64.9845 32.6748 64.9913 32.62C65.0803 31.9559 65.3474 31.545 65.6624 31.3191C65.6898 31.0589 65.6898 30.8261 65.6898 30.5453C65.6898 30.4015 65.6898 30.2509 65.6898 30.0934C65.6145 29.9359 65.5734 29.7647 65.5734 29.5935C65.5734 29.5662 65.5734 29.5456 65.5734 29.5182C65.5939 29.2991 65.6008 29.1622 65.6008 29.0868C65.457 28.8266 65.3885 28.5459 65.3748 28.1282C65.3748 28.0392 65.3748 27.9433 65.4022 27.8543C65.4433 27.6831 65.498 27.5394 65.5665 27.4161C65.5665 27.3476 65.5665 27.2792 65.5665 27.2107C65.6007 26.9094 65.6829 26.6766 65.7925 26.5123C65.7925 26.2384 65.8199 25.9919 65.8404 25.7796C65.7925 25.6906 65.7582 25.5947 65.7377 25.4989C65.5049 25.2934 65.3885 25.0469 65.3406 24.9442C65.2652 24.773 65.2379 24.5882 65.2584 24.4101C65.2584 24.3691 65.2241 24.2732 65.2036 24.1773C65.1351 23.8624 65.0256 23.3488 65.2447 22.9037C65.142 22.7189 65.0598 22.486 64.9913 22.1916C64.9845 22.1642 64.9776 22.13 64.9708 22.1026C64.9229 22.0341 64.8749 21.9588 64.827 21.8766C64.7654 21.7671 64.7174 21.6507 64.6969 21.5206C64.6969 21.5 64.6969 21.4864 64.6901 21.4727C64.4025 21.2467 64.2518 20.9249 64.1217 20.6373C64.0738 20.5346 64.0259 20.4182 63.9574 20.3018C63.8821 20.158 63.841 20.0073 63.841 19.8498C63.7931 19.706 63.7657 19.5623 63.7314 19.4322C63.6698 19.172 63.6219 18.946 63.5123 18.8227C63.4165 18.7132 63.348 18.5831 63.3001 18.4462C62.9166 18.3503 62.6153 18.0422 62.54 17.6313C62.5332 17.5834 62.3414 17.4054 62.2456 17.3163C62.0059 17.0904 61.6978 16.8096 61.4718 16.3851C61.3486 16.1523 61.3212 15.8921 61.376 15.6456C61.15 15.4744 60.883 15.3101 60.5543 15.1184C60.4174 15.0362 60.2736 14.954 60.1229 14.8582C59.7669 14.8102 59.4587 14.6185 59.1985 14.461C59.0821 14.3925 58.8973 14.2761 58.8219 14.2488C58.5412 14.1666 58.3084 13.968 58.1851 13.7078C58.1851 13.7078 58.1714 13.7078 58.1646 13.701L57.9797 13.6393C57.9797 13.6393 57.9592 13.6393 57.9386 13.6325C57.6305 13.7352 57.2813 13.6941 57.0006 13.4887C56.8978 13.4134 56.7951 13.3518 56.6856 13.2901L56.6171 13.249C56.3569 13.1806 56.2063 13.208 56.0077 13.2559L55.905 13.2833C55.5763 13.3586 55.1723 13.4476 54.5355 13.4408C54.3096 13.4408 54.1041 13.3586 53.933 13.2285L53.8713 13.249C53.7481 13.2833 53.6111 13.3312 53.4605 13.3586C53.3578 13.4408 53.2414 13.5229 53.0976 13.5914C52.9059 13.8653 52.5703 14.0433 52.2211 14.0296C52.1527 14.0296 51.9883 14.0502 51.6802 14.1529L51.6528 14.1666C51.3926 14.3035 51.1187 14.4405 50.9202 14.598L50.8106 14.6801C50.5572 14.8719 50.3107 15.0636 50.0985 15.2553C50.0779 15.269 50.0642 15.2827 50.0437 15.3032C49.7835 15.5155 49.5507 15.6867 49.3179 15.8305C48.8797 16.3851 48.4551 17.1315 48.1744 17.6382C48.147 17.6929 48.1128 17.7409 48.0717 17.7888C48.0854 18.1654 48.0375 18.5899 47.654 19.2062C47.6061 19.2815 47.5513 19.35 47.4828 19.4116C47.339 19.5486 47.2021 19.6376 47.0651 19.6992C46.9624 20.0826 46.8186 20.5277 46.5447 20.8906C46.5242 21.0481 46.5037 21.2535 46.4968 21.4042C46.4694 21.7808 46.4352 22.2053 46.3256 22.6641C46.3256 22.6641 46.3256 22.6641 46.3256 22.6709C46.3667 23.1571 46.3462 23.7117 46.3256 24.2595C46.3188 24.5745 46.3051 24.8895 46.3119 25.1702C46.3393 25.314 46.353 25.4646 46.3462 25.6427C46.3462 25.8001 46.3051 25.9508 46.2366 26.0877C46.2161 26.1357 46.1887 26.1973 46.1681 26.2658C46.0791 26.4986 45.9764 26.7793 45.8052 27.019C45.8052 27.108 45.7984 27.2038 45.7778 27.2997C45.7641 27.3887 45.7367 27.4777 45.6957 27.5599C45.7162 27.7242 45.7436 27.8475 45.7778 27.9981C45.8326 28.2378 45.9011 28.5185 45.9285 28.9294C45.9285 28.9294 45.9285 28.943 45.9353 28.943C46.2161 29.5456 46.1613 29.9633 46.0517 30.2851C46.1407 30.5932 46.086 30.9425 45.9148 31.2027C45.9216 31.2369 45.9285 31.2643 45.9353 31.2985C46.0517 31.8258 46.2024 32.4763 46.2845 33.0172C46.3051 33.1541 46.2982 33.2979 46.264 33.428C46.3256 33.7225 46.3736 34.0443 46.4078 34.3935C46.442 34.7085 46.3256 35.0166 46.0997 35.2357C45.9285 35.4 45.7094 35.5028 45.4765 35.5233C45.4492 35.5233 45.4218 35.5233 45.3944 35.5301C44.9835 35.5507 44.6138 35.3316 44.4289 34.9755C44.2166 34.5647 43.6552 33.4691 43.3744 33.2705C43.1211 33.0857 42.9225 32.7638 42.9088 32.4489C42.9088 32.3667 42.9088 32.2914 42.9157 32.2161C42.6349 31.7367 42.2926 31.2506 41.9639 30.7713C41.4298 30.0112 40.93 29.2923 40.6492 28.5801C40.4917 28.409 40.3137 28.1625 40.2178 27.8132C39.9097 27.4846 39.7043 27.197 39.581 26.9163C39.5263 26.7999 39.4989 26.6697 39.4989 26.5465C39.2113 26.1699 38.9032 25.8755 38.5608 25.5605C38.239 25.2661 37.9103 24.9579 37.5679 24.5539C37.3831 24.3348 37.3009 24.0541 37.3351 23.7665C37.3351 23.7391 37.342 23.7049 37.3488 23.6775C37.2666 23.4995 37.0955 23.1776 36.7668 22.6915C36.7257 22.623 36.6846 22.5545 36.6572 22.4861C35.7055 21.322 34.7195 20.5962 33.2062 19.9526C33.0898 19.9046 32.9803 19.8293 32.8912 19.7403C32.6858 19.5349 31.9258 19.2062 31.0288 19.3158C30.2482 19.3911 29.5018 19.7882 28.9198 20.1922C28.8582 20.3976 28.7486 20.6167 28.5911 20.829C28.5295 20.9112 28.461 20.9796 28.3857 21.0413C28.3857 21.055 28.3035 21.1851 28.2556 21.2672C28.0776 21.5685 27.8174 22.0136 27.2696 22.1095C27.2422 22.1574 27.208 22.2122 27.1669 22.2806C27.2285 22.397 27.2627 22.534 27.2696 22.6641C27.2901 22.9448 27.1943 23.2119 27.0094 23.4173C26.6122 23.8555 26.2836 24.6909 26.1056 25.7043C26.1056 25.7248 26.0987 25.7522 26.0919 25.7728C26.0371 25.9919 26.0097 26.2178 25.9755 26.4575C25.9412 26.704 25.9138 26.9436 25.8591 27.1628C25.7837 27.5051 25.7084 27.8201 25.5852 28.1077C25.592 28.2515 25.592 28.3816 25.592 28.5117C25.592 28.7034 25.592 28.902 25.6194 29.0115C25.7016 29.3402 25.6194 29.6963 25.3866 29.9496C25.3455 30.6823 25.366 31.2164 25.4893 32.2503C25.4893 32.2708 25.4893 32.2914 25.4893 32.3119C25.4893 32.3119 25.4962 32.3188 25.503 32.3256C25.7153 32.579 26.0439 32.9624 26.1466 33.5787C26.1946 33.8663 26.1192 34.1538 25.9412 34.3729C25.9549 34.4894 25.9755 34.6058 25.9892 34.7222C26.1329 35.7493 26.2631 36.7216 26.7013 37.5227C26.8382 37.7829 26.8656 38.0773 26.7698 38.3444C26.8382 38.5977 26.8998 38.8032 26.9478 38.9538C27.0916 39.0291 27.2217 39.1387 27.3175 39.2825C27.475 39.5084 27.5298 39.7755 27.4887 40.0288C27.6051 40.3027 27.879 40.8026 28.1871 41.2613C28.2488 41.3572 28.2967 41.4599 28.3241 41.5695C28.5158 41.7817 28.6802 42.0282 28.954 42.5212C28.9951 42.5897 29.0225 42.665 29.043 42.7403C29.0704 42.8294 29.0841 42.9115 29.091 43.0005C29.2485 43.1991 29.3991 43.4525 29.5292 43.8975C29.5361 43.9249 29.5429 43.9592 29.5498 43.9866C29.5703 44.0071 29.5908 44.0208 29.6114 44.0413C29.6662 44.0893 29.7141 44.1441 29.7552 44.2057C29.762 44.2194 30.2276 44.9246 30.344 45.6778C30.5769 45.9175 30.7617 46.2188 30.8781 46.5543C30.9261 46.6981 30.9466 46.8487 30.926 46.9925C31.0151 47.1432 31.1178 47.2801 31.2136 47.4239C31.4738 47.7868 31.7683 48.1976 31.8984 48.8071C31.9258 48.9372 31.9326 49.0673 31.9121 49.1905C32.0079 49.348 32.0901 49.5123 32.1517 49.6767C32.1791 49.752 32.2065 49.8341 32.2133 49.9163C32.2133 49.9232 32.227 49.93 32.2339 49.9437C32.2955 49.9779 32.3503 50.019 32.4051 50.067C32.6653 50.2929 32.9255 50.56 33.1103 50.9434C33.2199 50.9982 33.3089 51.0461 33.3774 51.0872C33.6924 51.2789 33.8909 51.6213 33.8772 51.991C33.8772 52.1691 33.9457 52.5183 34.0005 52.7785C34.0484 52.9976 34.0895 53.1962 34.1101 53.3742C34.2333 53.5454 34.3565 53.7303 34.4798 53.9151C34.8495 54.4629 35.411 55.2914 35.726 55.4626C35.8356 55.5243 35.9383 55.5996 36.0204 55.6954C36.3354 56.0583 36.397 56.4144 36.397 56.6678C36.5135 56.8321 36.6436 57.017 36.7394 57.1197C36.9928 57.2155 37.1982 57.4141 37.3077 57.6675C37.4104 57.9003 37.4652 58.1194 37.4721 58.3179C37.5405 58.4686 37.5679 58.6261 37.5611 58.7836C37.8761 59.3587 38.2937 59.797 38.7662 60.29C39.3619 60.9062 40.0193 61.591 40.5328 62.6317C40.5739 62.6797 40.615 62.7344 40.6492 62.7961C41.3066 63.9533 42.1488 65.0283 43.0389 66.1581C43.9222 67.2811 44.8329 68.4383 45.5519 69.6982C45.6957 69.9241 45.7368 69.9447 45.8942 70.0337C46.0106 70.0953 46.127 70.1706 46.2708 70.2665C46.4763 70.4103 46.6132 70.6157 46.668 70.8485L46.8734 70.9786C46.9145 71.006 46.9556 71.0334 46.9966 71.0676C47.5376 71.5401 47.8115 72.081 48.0511 72.5603C48.2018 72.8616 48.3319 73.1218 48.5236 73.3614C48.7906 73.3957 49.044 73.5395 49.2083 73.7654C49.3042 73.8955 49.4548 74.0599 49.6055 74.2174C49.8246 74.457 50.0163 74.6624 50.1533 74.8747C50.4066 75.0596 50.5367 75.2924 50.6052 75.4636L51.2351 75.9771C51.2967 76.0319 51.3584 76.0867 51.4063 76.1552C51.7144 76.566 51.8171 76.922 51.8103 77.2165C51.8651 77.2028 51.9199 77.1891 51.9815 77.1891C52.2554 77.1685 52.5224 77.2507 52.7347 77.4287L52.8716 77.5452L52.9196 77.5041ZM51.7144 11.9138C51.7144 11.9138 51.6734 11.9549 51.6528 11.9823C51.6734 11.9549 51.6939 11.9344 51.7144 11.9138Z" fill="#DD3874"/>
</svg>
