<svg width="91" height="91" viewBox="0 0 91 91" fill="none" xmlns="http://www.w3.org/2000/svg">
<path d="M46.1873 26.7949C46.2082 27.0391 46.2571 27.0391 45.8314 26.774C46.1035 27.0322 46.3897 27.2834 46.6548 27.5555C46.4594 27.402 46.2292 27.2834 46.0198 27.1438C46.2501 27.395 46.5641 27.6184 46.6618 27.7998C46.3548 27.6044 46.4106 27.6114 46.4106 27.8137C46.2989 27.3043 45.7128 27.2136 45.4755 26.7112L45.7546 26.4739C45.5523 26.104 45.2382 25.9017 44.9242 25.6644C44.6032 25.4271 44.2682 25.1829 43.8774 24.82L44.0938 25.0852C43.8914 25.1061 43.5844 24.6874 43.2843 24.513C43.382 24.4362 43.2494 24.2687 43.1796 24.1152C43.1447 24.199 42.5516 23.6407 42.3352 23.7942L42.0282 23.3964C41.3094 22.894 41.0093 23.1941 40.2836 22.8312C40.5627 22.8033 40.2487 22.573 40.807 22.7195C40.5488 22.6009 40.3185 22.4823 40.2836 22.559C40.158 22.4195 39.495 22.4474 39.2787 22.2799C39.1461 22.3008 39.0833 22.4125 38.7832 22.3427C38.7553 22.3148 38.7972 22.2869 38.7972 22.2869C38.7832 22.3427 38.3017 22.2869 38.546 22.4613C38.3576 22.3357 38.0994 22.252 37.8272 22.231C37.6876 22.2171 37.5411 22.2101 37.3945 22.2031L36.9549 22.245C36.3617 22.3078 35.8244 22.4892 35.4127 22.4544C34.8405 22.7056 34.1985 23.0684 33.7518 23.4034C33.7588 23.3546 33.7169 23.3546 33.8146 23.3057C33.4518 23.4592 33.4239 23.6267 33.375 23.7663C33.3262 23.9128 33.2634 24.0524 32.9144 24.2966C32.4608 24.4502 33.1796 23.9058 32.9284 24.0384C32.5585 23.8291 32.1957 24.7921 31.6862 25.134L31.756 25.0084C31.3513 25.2876 31.2396 26.0064 30.8977 26.6484C30.8977 26.6484 30.8768 26.5995 30.8419 26.6204C30.807 27.1648 30.5837 28.0719 30.5488 28.7628C30.4162 28.5255 30.5209 28.4348 30.3324 28.5465C30.3185 28.8605 30.5976 28.4976 30.5697 29.1117C30.4581 29.3001 30.3813 29.7398 30.2068 29.8026L30.2208 29.2024C29.9835 29.4955 30.1929 29.984 30.1789 30.291L30.0812 30.2562C30.1789 31.1843 30.4232 31.1564 30.6255 32.0985L30.6674 31.9868C31.0373 32.4195 30.6465 32.4543 30.9954 32.887L30.8209 33.1243C30.9116 33.2778 31.0861 33.536 31.2815 33.8151C31.2117 33.7942 31.128 33.7593 31.0373 33.7105C30.9675 33.6197 30.9047 33.522 30.8488 33.4453C30.8698 33.5011 30.9047 33.5779 30.9465 33.6616C30.8907 33.6337 30.8419 33.5988 30.786 33.5639C30.8628 33.6337 30.9326 33.7035 31.0024 33.7733C31.0303 33.8291 31.0582 33.8849 31.0931 33.9477C30.2836 33.6616 30.5209 33.2778 29.509 33.0964H29.8649C29.5927 33.0336 29.1182 32.8661 28.6018 32.7823C28.0854 32.6986 27.569 32.6986 27.2899 32.8451C27.1991 32.7963 27.0666 32.6916 27.3178 32.6707C26.6479 32.6079 25.9012 32.7405 25.2313 32.9568C24.5543 33.1731 23.9682 33.4662 23.4657 33.6546L23.5076 33.522C23.2982 33.6825 23.2145 33.8919 22.9075 34.0105C22.9005 33.9687 22.9354 33.871 22.8377 33.9407C22.74 34.0454 22.405 34.492 22.1538 34.7223L22.2794 34.4292C21.7421 34.8828 21.5257 35.4062 21.3862 35.8737C21.2606 36.3622 21.2257 36.8158 21.1768 37.3532C20.8907 37.2973 20.7023 38.3511 20.7372 38.8675L20.6953 38.8535C20.8279 40.4027 21.4629 41.3029 22.1259 42.4334C22.1747 42.8591 22.4888 43.5081 22.9075 44.1222C23.3192 44.7432 23.7658 45.4132 24.1287 45.9645C24.0449 45.7761 24.3171 45.8598 24.4776 46.0203C24.6241 46.2924 25.1405 46.5506 24.9242 46.6763C24.9033 46.6483 24.8823 46.6204 24.8614 46.5925C24.8195 46.9275 25.301 47.3462 25.629 47.7091L25.9221 47.5486C26.1664 48.1906 26.8293 48.7139 27.4015 49.2094C28.0086 49.67 28.5669 50.0678 28.6925 50.4585C28.9786 50.5911 29.2857 50.8144 29.5718 50.9331L29.4532 51.0587C30.0952 51.6169 30.4301 51.8751 31.3164 52.4334L31.0721 52.4125C31.5536 52.7614 31.9654 52.4195 32.4259 52.6916V52.9987C33.2843 53.5499 34.0728 54.2617 35.0708 54.5548C35.0359 54.5828 34.9731 54.6316 34.8265 54.5548C35.2452 54.7921 36.3897 55.5946 36.3966 55.1899C36.2989 55.4132 37.3248 55.6853 37.8621 55.8389L37.7086 55.9575C38.218 55.9645 38.2599 55.9226 38.867 56.1459C38.9926 56.2296 38.9298 56.3273 38.7623 56.2017C39.188 56.5018 39.188 56.2227 39.7114 56.5716H39.4532C39.9207 56.8088 39.9068 56.7391 40.2278 56.7391C40.5557 56.8089 41.114 57.1857 41.128 57.3601C41.2326 57.3043 41.5467 57.3043 41.8119 57.4718C41.8258 57.5416 41.7072 57.5346 41.6513 57.5276C42.412 57.9812 42.9284 57.8556 43.4169 58.2534C43.4029 58.3092 43.4308 58.3511 43.4727 58.386C42.8307 58.1068 42.3213 57.8765 42.3771 57.8905C42.3143 58.037 42.8237 58.2813 42.3213 58.3092C42.7818 58.379 43.5983 58.4418 44.0728 58.7209C44.0938 58.7419 44.1077 58.7698 44.1217 58.7977H44.0659C44.1775 58.8535 44.2892 58.8884 44.3939 58.9023C44.5474 58.9931 44.6381 59.0559 44.7916 59.1187C44.7986 59.2652 45.3638 59.4257 45.6151 59.5374C45.6569 59.3699 45.9849 59.5374 45.7267 59.2722C45.7616 59.3001 45.6709 59.2722 45.4964 59.2094C45.4546 59.1954 45.4057 59.1815 45.3778 59.1815H45.3987C45.2243 59.1047 45.001 59.021 44.7497 58.9233C44.987 58.9233 45.2313 58.9442 45.4825 59.1536C45.6569 59.1047 45.8453 59.0559 45.95 59.0419C46.2152 59.4118 46.8502 59.8095 46.8851 59.984C47.7155 60.2143 48.7763 60.6818 49.3904 60.5772C49.6276 60.633 49.6137 60.7656 49.6765 60.8493C49.5369 60.8284 49.3834 60.7586 49.2927 60.7726C49.7742 60.8772 50.6395 61.282 50.8279 61.1145C51.3583 61.4425 50.4301 61.1773 51.2257 61.4634L51.0931 61.4844C52.4887 62.4404 53.8007 61.9589 55.3289 63.0754C55.2243 62.9987 55.1684 62.9638 55.1615 62.9219C57.0177 63.8989 59.2229 64.3594 61.0163 65.4341C61.5327 65.7132 61.6513 65.6016 62.0212 65.6365L62.0701 65.8598L62.719 65.8877C63.5844 66.0691 63.9402 66.8717 65.0707 67.0112L64.987 66.8437C65.3429 67.0112 66.1733 67.2415 66.0547 67.3532C66.1035 67.3532 66.2222 67.2834 66.3408 67.402L66.3129 67.4997L67.2759 67.7091C67.9458 68.058 67.0247 68.0231 68.0296 68.4488C68.3227 68.5395 68.846 68.5883 69.0345 68.5604C69.0275 68.5814 69.0205 68.5953 69.0205 68.6232C69.3415 68.686 69.3276 68.7837 69.6904 68.8256C69.8649 68.9721 69.9137 69.1536 69.837 69.1815C69.9277 69.2024 70.0463 69.4676 70.2208 69.4676C70.1301 69.1466 69.8788 68.8744 69.516 68.686C69.502 68.6302 69.5299 68.6162 69.5648 68.6162L70.6953 69.6769C70.1998 69.1745 69.7183 68.6651 69.2368 68.1487C69.3904 67.9672 69.488 67.7788 68.8879 67.3671L68.4762 67.3183C68.4343 67.2764 68.3924 67.2276 68.3576 67.1857L68.5948 67.2764C68.4901 67.1647 68.3785 67.1229 68.2738 67.095C68.0854 66.8786 67.897 66.6623 67.7086 66.446H67.7714L67.6458 66.3762C67.5201 66.2366 67.4015 66.0971 67.2759 65.9575C67.3178 65.9505 67.3666 65.9575 67.4504 66.0342C67.2759 65.6365 67.1363 65.8179 67.0177 65.455C67.0107 65.4132 67.0317 65.4132 67.0596 65.4411L66.7456 65.1829C66.8363 65.2108 66.8432 65.0154 66.9689 65.2317C66.6199 64.5827 66.0756 64.4571 66.0547 64.1222L66.1035 64.1571C65.5871 63.6128 65.7267 63.9058 65.5662 63.8989C65.4685 63.7733 65.3708 63.6546 65.2731 63.529L65.308 63.0615L65.0987 63.1033C65.0428 63.0196 64.9242 62.8521 65.0079 62.8312C64.673 62.6009 64.98 62.9358 64.7497 62.8312C64.5823 62.3287 63.8565 61.7775 64.031 61.5123C63.8077 61.4564 64.2264 61.9589 63.8286 61.596C63.9961 61.289 63.4239 61.1285 63.2773 60.6749C63.4936 60.6888 63.6751 61.0936 63.5285 60.633C63.1447 60.5702 63.054 59.8793 62.8028 59.5932C62.6074 59.7049 62.2585 58.9582 61.8328 58.4697C61.9165 58.4627 61.2745 57.3881 61.0163 56.8437H61.0582C60.807 56.8647 60.5208 56.3134 60.2417 55.9505C60.3673 55.8947 60.4511 55.9365 60.6325 56.111L60.4092 55.7551C60.2975 55.7063 60.1929 55.6155 60.0254 55.3992H60.2278C59.9347 54.9247 59.4811 54.5269 59.2159 53.85C59.1112 53.8779 59.1042 54.192 58.9647 54.1989C58.9019 54.0873 58.8391 53.9756 58.7763 53.864C58.8321 53.85 58.8879 53.864 58.9577 53.9407C58.9158 53.8919 58.7832 53.7733 58.7483 53.6337L59.0205 53.8291C58.9158 53.5081 58.8321 53.7384 58.7135 53.5011C58.8251 53.4453 58.6925 53.2848 58.7972 53.2708C58.8391 53.3267 58.867 53.4941 58.9577 53.5639C58.8321 53.2917 58.7204 52.9428 58.7483 52.7963C58.6995 52.8521 58.6018 52.873 58.4832 52.6916C58.204 52.2031 58.5181 52.4544 58.4134 52.1403C58.2738 52.0566 58.1901 51.7007 58.0226 51.7774C57.9458 51.6309 58.0086 51.5681 58.0226 51.4844C57.8132 51.268 57.3736 50.2911 57.3527 50.6679L57.3736 50.7377C57.3736 50.7377 57.3527 50.7167 57.3457 50.6958C56.7595 49.9212 56.5571 48.8744 56.0966 48.044L56.1524 48.0231C55.8453 47.5416 55.6011 46.8926 55.315 46.5716C55.2452 46.4181 55.2592 46.1668 55.3569 46.2017C55.1405 45.8249 55.0568 45.804 54.9172 45.1899C55.1824 45.5527 54.9451 45.0154 55.1615 45.5737C54.994 45.0364 55.0359 44.8828 54.652 44.3874C54.8754 44.5199 54.68 43.9198 54.5334 43.6895L54.5753 44.0943C54.4427 43.8221 54.3589 43.5709 54.2752 43.3197L54.5195 43.3755C54.3241 42.2171 53.368 41.596 53.4378 40.626C53.1936 40.3957 53.5704 41.2471 53.3192 41.0517C53.1517 40.5493 53.2215 39.9212 53.1656 39.7677C52.9982 39.0489 52.6353 39.2443 52.4259 38.5116C52.3911 38.6302 52.2515 38.7837 51.9724 38.2883C51.7979 37.7858 52.0072 37.5695 52.1887 37.8556C52.2445 37.9742 52.2445 38.037 52.2236 38.044C52.3143 38.1906 52.4259 38.393 52.419 38.1627L52.3282 38.1278C52.2934 37.8556 52.0072 37.1787 52.1887 37.2904C51.9724 36.9415 52.0142 37.1787 52.091 37.4648C51.9305 36.7879 51.6723 36.4809 51.4629 35.804C51.4699 35.9226 51.435 36.0552 51.3862 35.9505C51.0512 34.9666 51.0721 35.5876 50.7511 34.9666C50.6814 34.5548 51.0512 34.9805 50.6674 34.3804C50.5557 33.9547 50.807 34.2129 50.9326 34.3455C50.5348 33.8221 50.479 33.222 50.3394 32.8731L50.5488 33.1522C50.4232 32.9847 50.3534 32.8312 50.2766 32.6777L50.2347 32.9219C50.165 32.7335 50.0882 32.58 50.144 32.5521C49.9626 32.4125 50.0045 32.8033 49.6904 32.5032C49.6276 32.231 49.2299 31.8333 49.3555 31.6588C49.7044 32.4264 49.4811 31.4844 49.8509 32.0915C49.7672 31.9798 49.6835 31.8333 49.6067 31.6449C49.6067 31.61 49.6555 31.6449 49.6904 31.6937C49.4462 30.8982 49.3276 31.4704 48.8949 30.7516C49.0414 30.7865 48.9717 30.4795 48.8809 30.3748C49.0554 30.6679 48.8112 30.6051 48.5809 30.3888C48.3785 29.8863 48.218 29.9282 48.0714 29.6909L48.218 29.977C48.0645 29.9491 47.9249 29.7188 47.6876 29.4327C47.7365 29.356 47.9249 29.677 47.883 29.5444C47.4922 29.3141 47.5271 28.6511 47.0526 28.2743C46.9479 28.0161 47.1992 28.1278 47.0945 27.9114C46.5851 27.4788 46.7735 27.2485 46.2222 26.8089L46.1873 26.7949ZM31.6444 34.3176C31.6862 34.3734 31.7211 34.4223 31.763 34.4711C31.7351 34.4432 31.7072 34.4083 31.6723 34.3804C31.6513 34.3525 31.6444 34.3315 31.6444 34.3176ZM45.1545 59.2443C45.1545 59.2443 45.1754 59.2373 45.1824 59.2303C45.1545 59.2513 45.1196 59.2722 45.0847 59.2862C44.9033 59.2373 44.8614 59.1815 44.8474 59.1396C44.9312 59.1675 45.0289 59.2024 45.1545 59.2443ZM69.188 68.2464L69.4811 68.5255C69.3206 68.4627 69.1531 68.4208 69.0624 68.4767C68.9158 68.4069 68.7065 68.2673 68.7344 68.1766L69.0973 68.2673C69.0973 68.2673 69.1182 68.2394 69.1322 68.2255C69.1531 68.2324 69.167 68.2394 69.188 68.2464ZM66.8223 65.3713C66.8223 65.3713 66.8293 65.4132 66.8363 65.4271C66.7874 65.3713 66.7386 65.3085 66.6897 65.2527C66.7316 65.2945 66.7735 65.3294 66.8223 65.3713Z" fill="#F276A0"/>
</svg>
