<svg width="91" height="91" viewBox="0 0 91 91" fill="none" xmlns="http://www.w3.org/2000/svg">
<path d="M34.3713 70.7386C34.2873 70.7386 34.2034 70.7063 34.1452 70.6482C34.0936 70.6611 34.0484 70.6547 34.0161 70.6482C33.8418 70.6224 33.7126 70.4739 33.6997 70.2866C33.6997 70.2414 33.6997 70.2026 33.719 70.1574L33.803 69.9185L33.6803 69.6408C33.6803 69.6408 33.6222 69.6473 33.5899 69.6408C33.1637 69.5892 33.0216 68.5107 32.9893 68.175C32.97 67.6648 32.9829 67.2709 33.2928 67.1353C33.2928 67.1095 33.2928 67.0707 33.2928 67.0255L33.2154 66.6833C33.1637 66.4443 33.112 66.2118 33.0475 65.9794C33.0216 65.8954 33.041 65.805 33.0797 65.734C33.0797 65.734 33.0797 65.7275 33.0733 65.7275C33.0087 65.6242 33.0087 65.4886 33.0733 65.3853C33.0604 65.2238 33.0087 64.9074 32.97 64.7008C32.97 64.6878 32.97 64.6685 32.9635 64.6556C32.9054 64.6168 32.8537 64.5652 32.8279 64.5006C32.5567 63.8225 32.5438 63.2543 32.5308 62.7506C32.5179 62.3115 32.5115 61.9369 32.3436 61.543L31.9819 60.9554C31.9174 60.852 31.9174 60.7164 31.9819 60.6131V60.6002C31.9819 60.6002 31.9626 60.5679 31.9561 60.555C31.8076 60.3483 31.6784 60.174 31.5428 59.6251C31.1747 57.7976 30.1932 56.0799 29.2439 54.4267C29.0567 54.0974 28.8694 53.7745 28.6886 53.4516C28.624 53.4193 28.5659 53.3612 28.5336 53.2837C28.5336 53.2837 28.5207 53.2514 28.5142 53.2385C28.1074 52.244 27.5391 51.6693 26.9321 51.0623C26.3897 50.5199 25.8343 49.958 25.4146 49.0927C25.3952 49.0475 25.3823 49.0023 25.3823 48.9571C25.2983 48.828 25.2467 48.7311 25.2596 48.6342C25.0465 48.4663 24.8076 48.1628 24.4847 47.7302C24.362 47.5687 24.2457 47.4137 24.1424 47.2911C24.0778 47.2136 24.052 47.1038 24.0778 47.0069C23.516 46.4774 22.9413 45.5088 22.4763 44.6757C22.4247 44.5853 22.4247 44.4755 22.4699 44.3787C22.457 44.3722 22.4247 44.1656 22.3989 44.0235C22.3666 43.8556 22.3343 43.6619 22.3149 43.4746C22.2245 43.4746 22.1276 43.4423 22.0372 43.3648C22.0114 43.3648 21.9856 43.3584 21.9597 43.3455C21.8693 43.3132 21.7983 43.2421 21.7725 43.1517L21.695 42.9451C21.5206 42.4801 21.4108 42.1573 21.4561 41.9312C21.4238 41.7892 21.4108 41.6729 21.385 41.5244C21.3269 41.3888 21.2752 41.2338 21.2494 41.0724C21.2365 40.9949 21.2494 40.9239 21.2881 40.8657C21.23 40.5041 21.0751 40.0779 20.9395 39.6969C20.849 39.4386 20.7586 39.1997 20.707 38.9995C20.6618 38.838 20.7522 38.6766 20.9072 38.612C20.9588 38.5927 21.0169 38.5862 21.0621 38.5927C21.0234 38.3537 20.9976 38.0761 21.0298 37.7532C21.0363 37.6821 21.0686 37.6176 21.1138 37.5659C21.088 37.4626 21.0621 37.3915 21.0428 37.3657C20.9717 37.3011 20.9459 37.2172 20.9459 37.1203C20.9459 37.0428 20.9846 36.9783 21.0363 36.9201C21.1073 36.7781 21.2107 36.2098 21.1784 35.9128C21.1719 35.9128 21.1525 35.8611 21.1396 35.8159C21.0492 35.5511 21.0298 35.422 21.1073 34.8989C21.1202 34.815 21.1655 34.7375 21.23 34.6858C21.23 34.6664 21.23 34.6406 21.2236 34.6212C21.1977 34.4533 21.1848 34.3048 21.2494 34.0465C21.2559 34.0013 21.2752 33.9561 21.2881 33.9109C21.3075 33.8592 21.3398 33.814 21.3786 33.7817C21.4044 33.4782 21.385 33.3555 21.3527 33.1166C21.3398 33.0262 21.3269 32.9164 21.3075 32.7808C21.2946 32.6452 21.3656 32.5161 21.4883 32.4515C21.5271 32.1803 21.5723 31.8832 21.624 31.6184C21.6885 31.3214 21.766 31.1341 21.8306 31.005C21.7983 30.8048 21.8758 30.5336 22.0114 30.1719C22.1405 29.8813 22.2955 29.5907 22.4247 29.3454C22.5022 29.1968 22.5732 29.0677 22.6184 28.9708C22.6507 28.9062 22.7024 28.8546 22.7669 28.8223C23.2125 27.7697 23.9874 26.8915 24.6849 26.1101C24.7494 26.0391 24.8398 26.0003 24.9367 26.0003H25.0659C25.1433 25.8712 25.1821 25.742 25.2273 25.5999C25.3112 25.3223 25.4081 25.0058 25.7504 24.6701C25.8214 24.6055 25.9118 24.5732 25.9957 24.5797C26.2024 24.3924 26.3961 24.2439 26.5769 24.1082L26.7965 23.9403C27.0742 23.7079 27.3712 23.5464 27.7135 23.3527L27.9524 23.2171C28.0299 23.1719 28.1268 23.1654 28.2107 23.1913C28.3463 23.0944 28.4884 23.004 28.624 22.9136C28.7402 22.8425 28.85 22.7715 28.9533 22.694C29.005 22.6553 29.0631 22.6359 29.1277 22.6294C29.4183 22.6101 29.9284 22.4034 30.4644 22.1839C30.6517 22.1064 30.8519 22.0289 31.052 21.9449L31.3168 21.861C31.6784 21.7448 32.0595 21.6285 32.4404 21.551C32.8667 21.4929 33.2089 21.4671 33.5124 21.48V21.4606C33.5447 21.3186 33.6674 21.2088 33.8159 21.2023C33.9321 21.1959 34.0549 21.1829 34.1775 21.1765C34.7458 21.1248 35.3334 21.0732 35.6563 21.3702C35.6757 21.3702 35.6951 21.3702 35.708 21.3702C35.8759 21.3509 36.0696 21.3315 36.244 21.3509C36.2569 21.3509 36.2698 21.3509 36.2827 21.3509C36.3408 21.2152 36.4764 21.1313 36.6314 21.1636C37.006 21.2411 37.4322 21.3056 37.8648 21.3638L39.208 21.6544C39.6665 21.7964 40.0798 21.932 40.435 22.0676C40.8224 22.2355 41.1065 22.4163 41.2874 22.552C41.6748 22.6747 42.0106 22.8167 42.2947 22.9459C42.3916 22.9911 42.4885 23.0298 42.5918 23.0686C42.8243 23.1654 43.0697 23.2623 43.2957 23.4044L43.3538 23.4366C43.6444 23.5981 43.9414 23.7724 44.2385 23.9662C44.5937 24.2439 44.8972 24.5086 45.1942 24.7798C45.2459 24.825 45.2782 24.8831 45.2911 24.9477C45.7237 25.4643 46.1758 26.1036 46.1499 26.4846C46.2791 26.6396 46.4082 26.7817 46.5309 26.9173C46.7311 27.1369 46.9184 27.3435 47.0928 27.5824C47.4544 28.0086 47.745 28.5382 47.9968 29.242C48.0227 29.3195 48.0226 29.4035 47.9904 29.4745C48.0872 29.6747 48.1841 29.8491 48.2228 29.9072C48.2422 29.933 48.2551 29.9653 48.268 29.9976C48.3068 30.1332 48.2874 30.2365 48.2487 30.3076C48.2745 30.3657 48.3068 30.4238 48.3391 30.4884C48.3907 30.5852 48.4424 30.6821 48.4811 30.7983C48.5134 30.9016 48.5005 31.0114 48.4359 31.0889C48.4876 31.3601 48.5522 31.6636 48.6232 31.9801C48.733 32.4902 48.8557 33.0456 48.9461 33.6138C49.0171 33.5557 49.0946 33.4911 49.1657 33.4266C49.5079 33.1295 49.8953 32.8002 50.2634 32.981C50.2893 32.981 50.3216 32.9939 50.3474 33.0004C50.3861 32.9552 50.412 32.9164 50.4378 32.8712C50.5476 32.6775 50.6767 32.5096 51.0642 32.3288C51.1159 32.303 51.1675 32.29 51.2192 32.3029C51.3806 32.219 51.555 32.1157 51.7358 32.0188C52.1361 31.7928 52.5494 31.5603 52.9563 31.3924C52.9886 31.3795 53.0273 31.373 53.0661 31.3666C53.3114 31.3601 53.6408 31.2439 53.9895 31.1212C54.2026 31.0437 54.4351 30.9662 54.6675 30.9016L54.8354 30.85C55.1002 30.766 55.3714 30.6821 55.6362 30.6304C55.8816 30.5981 56.0947 30.5723 56.2819 30.5852C56.353 30.5336 56.4369 30.4948 56.495 30.469C56.508 30.469 56.5209 30.4561 56.5338 30.4496C56.6177 30.3721 56.7404 30.3398 56.8502 30.3786H56.8631C56.8954 30.3592 56.9212 30.3398 56.9471 30.3205C56.9858 30.2817 57.0439 30.2365 57.1279 30.1978C57.1925 30.1655 57.27 30.159 57.341 30.1784C57.4314 30.1978 57.722 30.1267 57.8834 30.088C58.0578 30.0428 58.1998 30.0105 58.3225 30.004C58.4259 29.9524 58.639 29.9007 59.0587 29.9201C59.1879 29.9201 59.2976 30.004 59.3428 30.1203C59.3881 30.1074 59.4333 30.0944 59.4785 30.0751L59.5753 30.0493C59.8401 29.9782 60.1694 29.8878 60.6925 29.9524C60.7183 29.9524 60.7377 29.9588 60.7635 29.9717L60.9314 30.0299C61.0024 30.0557 61.0799 30.0815 61.151 30.1074C61.3834 30.017 61.6999 30.0492 61.9969 30.0815C62.0486 30.0815 62.1002 30.0944 62.139 30.0944C62.2229 30.0686 62.3198 30.0815 62.3973 30.1267L62.4877 30.1784C62.5975 30.243 62.7202 30.3076 62.8041 30.4109C62.9204 30.4367 63.0431 30.469 63.1528 30.5013C63.2368 30.4432 63.3466 30.4238 63.4499 30.4625C63.8309 30.5981 64.1731 30.695 64.5025 30.7854C65.1676 30.9662 65.7423 31.1212 66.3171 31.5732C66.3881 31.6314 66.4333 31.7153 66.4398 31.7993L66.5043 31.8251C66.6012 31.7411 66.7497 31.7282 66.866 31.7863C67.3374 32.0382 67.5182 32.2513 67.6925 32.4515C67.8217 32.6 67.9379 32.7421 68.2027 32.9229C68.235 32.9422 68.2608 32.9745 68.2866 33.0068C68.4029 33.1812 68.4158 33.3168 68.3835 33.4266C68.6935 33.7236 68.8613 34.0852 68.997 34.3758C69.1003 34.5954 69.1842 34.7827 69.3005 34.8925C69.3392 34.9312 69.3715 34.9829 69.3844 35.0345C69.4619 35.0668 69.5265 35.1314 69.5652 35.2153C69.5975 35.2928 69.6298 35.338 69.675 35.4091C69.7654 35.5447 69.8817 35.7061 69.9721 36.0871C70.0948 36.1 70.2304 36.1646 70.282 36.2873C70.3143 36.3648 70.4112 36.7458 70.282 36.9912C70.3337 37.2043 70.3918 37.2689 70.4435 37.3334C70.6178 37.5465 70.6824 37.7273 70.6501 38.3085C70.6501 38.3666 70.6307 38.4248 70.5985 38.47C70.5985 38.5087 70.5985 38.541 70.5985 38.5797C70.6114 38.6508 70.6178 38.7218 70.6178 38.7928C70.6307 38.9349 70.5468 39.0576 70.4241 39.1157C70.521 39.1674 70.5855 39.2578 70.6307 39.3805C70.6436 39.4257 70.6501 39.4773 70.6437 39.5226C70.6759 39.5807 70.6953 39.6453 70.6953 39.7163C70.6824 39.9165 70.6695 40.1102 70.6824 40.3491C70.6824 40.4783 70.6178 40.5881 70.508 40.6462C70.4176 40.9949 70.3208 41.3888 70.3143 41.815C70.3143 41.9765 70.1981 42.1056 70.0431 42.1314C70.0108 42.2606 69.9656 42.3381 69.8816 42.3962C69.8623 42.4091 69.83 42.422 69.8042 42.4349C69.7654 42.6222 69.7848 42.6674 69.7977 42.6997C69.8558 42.8741 69.8623 43.0226 69.7396 43.4294C69.7848 43.5004 69.8042 43.5844 69.7783 43.6748L69.4554 44.6886C69.4102 44.8436 69.3586 44.9921 69.3005 45.1471C69.3263 45.2763 69.2876 45.4313 69.2617 45.541C69.2359 45.6444 69.1713 45.7219 69.0809 45.7606C69.0422 45.8316 69.0034 45.922 68.9711 45.9931C68.9065 46.1222 68.842 46.2578 68.7839 46.3741C68.7968 46.4645 68.771 46.5613 68.7064 46.6388C68.6418 46.7163 68.5772 46.768 68.5191 46.7938C68.5191 46.8261 68.4997 46.8584 68.4868 46.8907C68.3124 47.2136 68.2866 47.4008 68.2608 47.5881C68.2285 47.827 68.1962 48.1047 67.8992 48.5503C67.854 48.6407 67.7313 48.7569 67.5505 48.9378C67.4923 48.9959 67.4342 49.054 67.3696 49.1186C67.3826 49.1767 67.389 49.2542 67.3696 49.3446C67.3567 49.4221 67.3115 49.4866 67.2534 49.5318C66.8918 49.8095 66.6722 50.2293 66.4268 50.7136C66.1427 51.2625 65.8263 51.8824 65.2128 52.399C65.1547 52.4442 65.0837 52.4765 65.0126 52.4765C65.0062 52.5023 64.9932 52.5217 64.9739 52.5476C64.9222 52.6186 64.5541 53.1481 64.1925 53.2579C63.9407 53.626 63.7469 53.7745 63.4951 53.9747C63.4047 54.0457 63.3078 54.1232 63.1851 54.2201C63.1141 54.2782 63.0237 54.304 62.9333 54.2911C62.8687 54.3557 62.8106 54.4203 62.7331 54.5042L62.5846 54.6656C62.5006 54.7561 62.365 54.7883 62.2488 54.756C62.2229 54.769 62.1971 54.7819 62.1777 54.8013C61.913 55.1435 61.448 55.5116 61.0024 55.8732L60.686 56.1315C60.6344 56.1767 60.5633 56.2026 60.4987 56.2026C60.0144 56.5513 59.472 56.8225 58.9425 57.0873C58.5744 57.2681 58.2257 57.4424 57.9028 57.6426C57.8705 57.8622 57.5928 58.0042 57.0569 58.2884C56.8825 58.3788 56.7211 58.4563 56.6371 58.5144C56.5725 58.5596 56.495 58.5725 56.4175 58.566C56.4111 58.566 56.3788 58.5596 56.3594 58.5531C56.2561 58.6694 56.1011 58.7404 56.0172 58.7856C55.972 58.8114 55.9009 58.8437 55.8816 58.8566C55.8364 58.9018 55.7912 58.9277 55.7266 58.947C55.591 58.9793 55.436 58.9987 55.3004 58.9147C55.2681 58.9277 55.2164 58.9406 55.1454 58.9729C55.1454 59.0051 55.1325 59.0439 55.1131 59.0762C55.0485 59.2053 54.9065 59.2699 54.7644 59.2441C54.6934 59.2376 54.4092 59.2764 53.9959 59.3926C53.9443 59.4055 53.8926 59.4055 53.841 59.3926C53.8087 59.5024 53.7183 59.5928 53.5956 59.6186C53.1048 59.7219 52.7044 59.9028 52.3105 60.0771C52.0651 60.1869 51.8262 60.2902 51.5808 60.3742C51.4904 60.4 51.4 60.3935 51.3225 60.3483C51.2967 60.3677 51.2773 60.3871 51.2644 60.4C51.2256 60.4388 51.1804 60.471 51.1223 60.4904L50.6509 60.6389C50.5217 60.6777 50.3926 60.6389 50.3086 60.5421C50.1278 60.6131 49.947 60.6906 49.8954 60.7423C49.8502 60.9102 49.6823 60.9876 49.5208 60.9489C49.5014 60.9489 49.4885 60.936 49.4756 60.9295C49.2108 60.9876 48.8944 61.0651 48.5974 61.1426C48.0356 61.2847 47.7579 61.3557 47.59 61.3622C47.3704 61.4526 47.125 61.5365 46.9055 61.614C46.6859 61.6915 46.3953 61.7884 46.2726 61.853C46.2468 61.924 46.1887 61.9886 46.1112 62.0273C45.9239 62.1177 45.6979 62.1629 45.4784 62.2017C45.2717 62.2404 44.9295 62.3115 44.8778 62.4083C44.8261 62.4987 44.7422 62.5568 44.6389 62.5698C44.471 62.5956 44.3031 62.615 44.1804 62.5504C44.1804 62.5504 44.1804 62.5504 44.1675 62.5504C44.0512 62.6214 43.9156 62.7054 43.7671 62.7506C43.7606 62.7635 43.7542 62.7829 43.7413 62.7958C43.6896 62.8733 43.6056 62.9249 43.5152 62.9378C43.4442 62.9443 43.3796 62.9378 43.3215 62.9055C43.2053 62.9249 42.9341 63.0605 42.7533 63.1509C42.566 63.2478 42.3722 63.3447 42.185 63.4157C42.1398 63.5255 42.0429 63.6094 41.9719 63.6805C41.9073 63.7386 41.8298 63.7773 41.7329 63.7644C41.72 63.8419 41.6813 63.9129 41.6167 63.9646C41.5521 64.0227 41.4617 64.0485 41.3778 64.0356L40.9839 63.9969H40.9774C40.9193 64.0356 40.8676 64.0679 40.8095 64.1002C40.8095 64.1002 40.8095 64.1131 40.8095 64.1196C40.7901 64.3133 40.6416 64.4489 40.2348 64.746C40.1702 64.7976 40.0798 64.817 40.0088 64.8041C39.9377 64.8557 39.8473 64.9397 39.7569 65.0236C39.5438 65.2174 39.2855 65.4628 38.8916 65.6759C38.8399 65.7017 38.7883 65.7146 38.7366 65.7146H38.7302C38.6591 65.7986 38.5623 65.8309 38.4654 65.8244C38.446 65.8373 38.4331 65.8567 38.4137 65.889C38.3233 66.0052 38.22 66.1214 37.9552 66.257C37.91 66.2764 37.8648 66.2893 37.8196 66.2893C37.7744 66.3281 37.7357 66.3668 37.6969 66.4056L37.6324 66.5089C37.5871 66.5864 37.5097 66.6445 37.4257 66.6639C36.2117 67.8456 35.2883 69.1565 34.6812 70.5514C34.6296 70.6676 34.5133 70.7451 34.3842 70.7451L34.3713 70.7386ZM22.1728 31.3537C22.1728 31.3537 22.2245 31.3601 22.2568 31.3666C22.231 31.3666 22.2051 31.3666 22.1728 31.3537ZM22.2245 30.7208C22.2245 30.7208 22.2051 30.7208 22.1922 30.7208C22.2051 30.7208 22.2116 30.7208 22.2245 30.7208Z" fill="#EE588B"/>
</svg>
