<svg width="91" height="91" viewBox="0 0 91 91" fill="none" xmlns="http://www.w3.org/2000/svg">
<path d="M38.6454 72.0317C37.6686 72.0317 36.6799 71.9661 35.721 71.9006C34.7144 71.8351 33.678 71.7636 32.6893 71.7756C32.1056 71.7636 31.8912 71.6683 31.6589 71.573C31.6232 71.5611 31.5874 71.5433 31.5517 71.5254L31.516 71.5552C31.4326 71.6207 31.3194 71.6386 31.2241 71.6028L30.5153 71.3348C30.1401 71.2395 29.7529 71.2514 29.3479 71.2693C28.794 71.2871 28.1686 71.311 27.4062 71.043C27.3407 71.0191 27.2871 70.9774 27.2514 70.9179C27.1739 70.906 27.0906 70.8881 27.0131 70.8762C26.8225 70.8404 26.5545 70.7928 26.4175 70.7809C26.3282 70.8285 26.215 70.8285 26.1197 70.7809C26.1137 70.7809 26.0899 70.7571 26.0721 70.7511C26.0006 70.7928 25.9172 70.8107 25.8338 70.7868L24.7081 70.4592C24.6485 70.4592 24.6128 70.4592 24.5771 70.4592C24.4163 70.7273 24.047 70.6975 23.5288 70.6141C23.1893 70.5367 22.1827 70.2687 22.1112 69.8875L21.6228 69.8636L21.3905 70.0364C21.3905 70.0364 21.325 70.0721 21.2952 70.084C21.1225 70.1317 20.9558 70.0662 20.8783 69.9172C20.8605 69.8875 20.8485 69.8398 20.8426 69.7922C20.783 69.7564 20.7354 69.6969 20.7116 69.6313C20.6699 69.5182 20.7116 69.3871 20.8009 69.3097C22.0219 68.2734 23.1059 67.0047 24.0351 65.5335C24.0351 65.4621 24.0648 65.3846 24.1244 65.331L24.2674 65.1524C24.2912 65.1166 24.309 65.0809 24.3329 65.0451C24.3269 65.0034 24.3329 64.9558 24.3448 64.9141C24.4341 64.6222 24.5294 64.5031 24.5949 64.4138C24.6247 64.3721 24.6485 64.3423 24.6724 64.2887C24.6485 64.2113 24.6664 64.1219 24.7141 64.0505L24.7379 64.0147C24.7319 63.9671 24.7319 63.9194 24.7438 63.8718C24.8808 63.431 25.0714 63.1153 25.2263 62.8652C25.2978 62.7461 25.3692 62.6329 25.405 62.5495C25.3812 62.484 25.3871 62.4066 25.4169 62.3351C25.6373 61.8527 25.7385 61.6918 25.9112 61.6382C25.9112 61.6382 25.9172 61.6382 25.9232 61.6382C25.9529 61.5608 25.9827 61.4774 26.0065 61.4L25.9053 61.0009C25.8696 60.852 25.9529 60.6972 26.1018 60.6436L26.1316 60.6316C26.1018 60.5483 26.1078 60.4589 26.1554 60.3815C26.209 60.2921 26.2746 60.179 26.3639 60.1135C26.4056 59.8752 26.4771 59.6251 26.5485 59.3987L26.5843 59.2737C26.6558 58.9878 26.6736 58.8627 26.6677 58.8091C26.6319 58.7614 26.6141 58.7078 26.6081 58.6483C26.6081 58.5708 26.6319 58.4874 26.6855 58.4279C26.6975 58.41 26.7153 58.3981 26.7332 58.3862C26.7451 58.2373 26.7987 58.0884 26.8464 57.9454C26.8523 57.9276 26.8583 57.9097 26.8642 57.8918C26.7749 57.7906 26.7689 57.6179 26.763 57.4451C26.763 57.3558 26.7928 57.2724 26.8583 57.2128C26.9536 57.1235 26.9595 56.7661 26.9595 56.5279C26.9595 56.3015 26.9595 56.0693 27.0131 55.8668C27.031 55.7953 27.0787 55.7298 27.1382 55.694C27.1799 55.557 27.2216 55.2056 27.2514 54.9436C27.2752 54.7113 27.305 54.4611 27.3467 54.2288C27.3288 54.0859 27.3288 53.8417 27.3348 53.3771C27.3348 52.978 27.3467 52.4956 27.3348 52.1501C27.2812 52.0251 27.305 51.8821 27.4241 51.7987C27.4479 51.7511 27.4658 51.5307 27.4777 51.3103C27.3705 51.2627 27.305 51.1555 27.305 51.0363V50.5301C27.3109 50.4824 27.3228 50.4407 27.3467 50.399C27.3645 50.3693 27.3765 50.3276 27.3884 50.2799C27.3228 50.2263 27.2871 50.1429 27.2871 50.0536C27.2871 49.8272 27.3109 49.595 27.3288 49.3567C27.3645 48.8981 27.4062 48.4216 27.3288 47.8736C27.3109 47.7605 27.3645 47.6533 27.4479 47.5877C27.4479 47.5758 27.4479 47.5699 27.4479 47.558C27.4181 47.5163 27.4003 47.4627 27.3943 47.4091C27.3645 47.0338 27.2812 46.6824 27.2395 46.6109C27.1739 46.4978 27.1918 46.3548 27.2812 46.2595C27.299 46.2417 27.3169 46.2238 27.3407 46.2119C27.3407 46.2059 27.3407 46.2 27.3407 46.1881C27.3407 46.0928 27.3348 46.0272 27.3288 45.9915C27.2097 45.9022 27.168 45.7592 27.1442 45.6282C27.1322 45.5746 27.1442 45.521 27.1561 45.4674C27.1561 45.4435 27.162 45.3542 27.162 45.2946C27.162 45.1815 27.162 45.0147 27.2216 44.8777C27.2037 44.8539 27.1859 44.8301 27.168 44.8062C27.1323 44.7467 27.1203 44.6752 27.1263 44.6097C27.1382 44.5084 27.1382 44.2583 27.1323 44.0439C27.1263 43.4959 27.1203 43.2219 27.2752 43.1028C27.2871 42.5787 27.2276 42.0366 27.168 41.5065C27.1144 41.0241 27.0608 40.5297 27.0608 40.0473C27.031 39.9996 27.0072 39.952 27.0131 39.8984C27.025 39.6661 27.025 39.41 27.025 39.1658C27.025 38.6833 27.025 38.2307 27.0906 37.8852C27.0906 37.8435 27.0786 37.8078 27.0667 37.7721C26.9714 37.7125 26.9178 37.6112 26.9238 37.4981C26.9297 37.373 26.9417 37.2777 26.9476 37.1884C26.9536 37.099 26.9655 37.0275 26.9655 36.9501C26.9059 36.9025 26.8642 36.825 26.8583 36.7416C26.8464 36.6047 26.8344 36.4855 26.8285 36.3843C26.7927 36.021 26.7689 35.7827 26.8464 35.3181C26.6796 35.0144 26.763 34.4128 26.7808 34.2699C26.7808 34.2401 26.7927 34.2103 26.8106 34.1805C26.757 34.1329 26.7153 34.0614 26.7094 33.984C26.6319 33.2097 26.7749 32.5307 26.9059 31.9291C27.025 31.3692 27.1323 30.8868 27.0608 30.4043C27.0489 30.3448 27.0608 30.2793 27.0906 30.2257C27.1322 30.1423 27.1858 30.0827 27.2335 30.047C27.2335 29.9398 27.2275 29.8445 27.2216 29.7492C27.2097 29.499 27.2037 29.3322 27.2216 29.2131C27.2871 28.6949 27.43 28.4686 27.567 28.2542C27.6742 28.0814 27.7755 27.9206 27.8589 27.5394C27.8708 27.4918 27.8887 27.4561 27.9125 27.4203C27.8887 27.3608 27.8708 27.2774 27.8827 27.1642C27.8887 27.0808 27.9304 27.0094 27.9899 26.9557C28.0197 26.8009 28.0793 26.6163 28.1388 26.4376C28.1627 26.3601 28.1865 26.2887 28.2043 26.2291C28.1746 26.1457 28.1746 26.0504 28.2222 25.973C28.2877 25.8598 28.3652 25.7228 28.4664 25.6514C28.6034 25.3297 28.7523 25.0677 28.9131 24.7699C29.0084 24.5971 29.1156 24.4065 29.2288 24.1921C29.2705 24.1087 29.3539 24.0492 29.4432 24.0372C29.6934 23.6441 29.7946 23.5667 29.9495 23.4952C29.9912 23.4774 30.0448 23.4535 30.2056 23.2629C30.1937 23.2332 30.1818 23.1974 30.1818 23.1677C30.1818 23.0545 30.2175 22.9711 30.3247 22.8579C30.2652 22.7388 30.3009 22.5899 30.4022 22.5006C30.7178 22.2385 30.9978 21.9645 31.236 21.7144C31.2837 21.6667 31.3313 21.6191 31.379 21.5714C31.379 21.4642 31.4326 21.357 31.5338 21.2974L31.5457 21.2915C31.7006 21.2081 31.8257 21.1247 31.9508 21.0413L32.1116 20.9341C32.1711 20.8984 32.2367 20.8805 32.3081 20.8865C32.3439 20.8567 32.3855 20.8388 32.4332 20.8269C32.5702 20.7971 32.6774 20.815 32.7667 20.8805C32.7906 20.8984 32.8144 20.9162 32.8263 20.9341C32.8263 20.9341 32.8382 20.9282 32.8442 20.9222C32.8442 20.9162 32.8442 20.9103 32.8382 20.9043C32.7906 20.7554 32.868 20.5887 33.0169 20.535C33.0943 20.5053 33.1718 20.4755 33.2432 20.4576C33.279 20.4397 33.3207 20.4278 33.3624 20.41C33.3862 20.3742 33.416 20.3385 33.4577 20.3147C33.9461 20.0228 34.1724 20.0288 34.3749 20.0645C34.4881 20.0943 34.5655 20.1122 34.8931 20.0645C35.0479 19.8799 35.3874 19.8322 35.5006 19.8203C35.5542 19.8203 35.5363 19.8203 35.5423 19.8203C35.6674 19.8203 35.7746 19.8977 35.8163 20.005C36.2094 19.9454 36.4059 19.9811 36.5667 20.005C36.6561 20.0228 36.7157 20.0347 36.8109 20.0288C36.9062 20.0288 36.9837 20.0586 37.0432 20.1181C37.0551 20.1181 37.0671 20.1181 37.073 20.1181C37.1266 20.1181 37.1743 20.1181 37.2219 20.1419C37.2398 20.1479 37.2577 20.1598 37.2815 20.1658C37.3053 20.1658 37.3291 20.1777 37.353 20.1836C37.5197 20.2134 37.7401 20.2015 37.9664 20.2075L38.1332 20.2194C38.3893 20.2313 38.6812 20.2492 38.973 20.3683C39.0505 20.2968 39.1755 20.2492 39.3721 20.2789C39.3959 20.2789 39.4257 20.2908 39.4495 20.3028C39.8069 20.4695 40.0034 20.5172 40.2059 20.5708L40.3191 20.6006C40.5216 20.6542 40.7777 20.7197 41.1172 20.9639C41.2125 21.0294 41.2542 21.1426 41.2363 21.2498L41.3078 21.3034C41.3078 21.3034 41.3197 21.3153 41.3257 21.3213C41.4031 21.2796 41.4984 21.2736 41.5818 21.3153C42.2668 21.6191 42.7194 22.0598 43.2376 22.5601C43.4699 22.7865 43.7201 23.0247 44.0179 23.2808C44.0953 23.3523 44.131 23.4535 44.1191 23.5488C44.2144 23.6441 44.3157 23.7454 44.399 23.8467C44.536 23.8705 44.6552 23.9598 44.7802 24.0492L44.8517 24.0968C44.9172 24.1445 44.9589 24.21 44.9768 24.2874C45.0006 24.3231 45.0304 24.3648 45.0661 24.4184C45.2448 24.6746 45.4414 24.9485 45.4592 25.2046L45.7749 25.5144C45.7749 25.5144 45.8106 25.5501 45.8226 25.5739C46.168 26.1338 46.2216 26.4971 46.2812 26.8426C46.2812 26.8724 46.2931 26.9021 46.299 26.9319C46.4122 26.9319 46.5194 26.9974 46.573 27.1106C46.7457 27.4918 46.7994 27.6824 46.7934 27.8134C46.8411 27.9385 46.8708 28.1053 46.9125 28.3316C46.9423 28.5222 46.99 28.7843 47.0436 28.8736C47.0733 28.9272 47.0853 28.9868 47.0793 29.0523C47.0793 29.1059 47.0614 29.1536 47.0495 29.2072C47.0376 29.2548 47.0257 29.2965 47.0317 29.3799C47.0317 29.3799 47.0376 29.3918 47.0436 29.3918C47.115 29.4752 47.1329 29.5824 47.0972 29.6837V29.7373C47.0972 29.8147 47.0972 29.904 47.0733 29.9934C47.2401 30.4103 47.3354 30.9702 47.3652 31.6909C47.3831 31.9648 47.389 32.2448 47.4009 32.5009V32.6796C47.4248 33.0012 47.4545 33.2394 47.5022 33.4181C47.5081 33.4479 47.5141 33.4777 47.5081 33.5134C47.4724 34.0376 47.395 34.6927 47.2818 35.467C47.2937 35.5028 47.3056 35.5385 47.2997 35.5743C47.2878 36.0686 47.1805 36.2532 47.0436 36.4438C47.0078 36.4915 46.978 36.5332 46.9483 36.5987C46.9602 36.6106 46.9721 36.6225 46.9781 36.6344C47.0317 36.5511 47.0972 36.4558 47.1627 36.3486C47.2163 36.2592 47.3116 36.2056 47.4128 36.2056C47.4367 36.1639 47.4545 36.1222 47.4664 36.0805C47.5141 35.9376 47.5737 35.8006 47.7345 35.6219L47.7106 35.5147C47.6928 35.4253 47.7107 35.3241 47.7762 35.2526C47.8 35.2288 47.8238 35.199 47.8536 35.1692C47.8357 35.0918 47.8536 35.0025 47.9012 34.9369C47.9072 34.925 48.7113 33.8232 49.0806 33.6504C49.1282 33.6266 49.1759 33.6206 49.2295 33.6266C49.4379 33.436 49.6643 33.2037 49.9204 32.9238C49.8966 32.6617 50.1288 32.352 50.6053 31.8278L50.8495 31.5658C51.1414 31.2561 51.5107 30.863 51.5762 30.6664C51.594 30.6128 51.6298 30.5592 51.6774 30.5294C52.0407 30.2554 52.3802 29.9695 52.7436 29.6598C53.5119 29.0046 54.31 28.3257 55.4 27.7717C55.5072 27.7181 55.6323 27.73 55.7216 27.8075C55.8467 27.7658 55.9777 27.7479 56.1028 27.8075C56.216 27.7598 56.2875 27.73 56.3232 27.7122L56.3887 27.6705C56.5674 27.5633 56.764 27.4561 56.9665 27.3489C56.9665 27.3131 56.9665 27.2774 56.9724 27.2476C56.9962 27.1463 57.0737 27.0689 57.1749 27.0391C57.5144 26.9379 57.5859 26.8962 57.5978 26.8843C57.6871 26.7711 57.7825 26.6996 58.0683 26.5984C58.1756 26.5626 58.2947 26.5865 58.3721 26.6699C58.4674 26.6699 58.6461 26.646 58.9677 26.5984C59.0868 26.5805 59.1941 26.6282 59.2596 26.7175C59.3072 26.7056 59.3489 26.6937 59.3965 26.6818C59.5455 26.6341 59.7063 26.6043 59.9267 26.5924C59.9862 26.5924 60.0458 26.5865 60.1113 26.5924C60.1709 26.5507 60.2483 26.5329 60.3317 26.5448C60.4031 26.5567 60.4925 26.5746 60.5937 26.5865C60.9451 26.6401 61.4216 26.7175 61.8862 26.8664C62.3508 26.9974 62.7975 27.2059 63.1072 27.4203C63.1668 27.3965 63.2323 27.3905 63.3038 27.4203C64.1555 27.7717 64.9238 28.3673 65.4182 28.8021C65.7398 29.0821 66.0317 29.368 66.2997 29.63C66.4546 29.7849 66.6035 29.9279 66.7464 30.0648C66.8477 30.0648 66.943 30.1006 67.0025 30.184C67.074 30.2793 67.1276 30.3746 67.1812 30.4699C67.2229 30.5473 67.2586 30.6128 67.3063 30.6783C67.3837 30.6783 67.479 30.72 67.5683 30.8332C67.616 30.9047 67.6458 30.9642 67.6815 31.0357C67.7292 31.131 67.8006 31.262 67.8721 31.3931C67.9376 31.4109 67.9972 31.4467 68.0448 31.5003C68.5571 32.1733 68.7894 32.7749 68.9323 33.2275C69.0216 33.4956 69.0931 33.7696 69.1646 34.0495C69.2182 34.246 69.2718 34.4545 69.3314 34.6689C69.6947 34.9012 70.0282 35.8721 70.1474 36.2354C70.1831 36.2652 70.2069 36.3069 70.2188 36.3545C70.5822 37.8257 70.5643 38.9335 70.5464 40.22V40.8037C70.6536 41.2802 70.6894 42.0069 70.6953 43.0194C70.6834 43.4185 70.6536 43.8116 70.6238 44.1987C70.5881 44.7169 70.5524 45.2113 70.5524 45.6461C70.5524 45.789 70.4511 45.9141 70.3141 45.9379C70.3141 45.9498 70.3022 45.9677 70.2963 45.9855C70.2784 46.1523 70.2248 46.337 70.1771 46.5037C70.1712 46.5276 70.1652 46.5514 70.1533 46.5812C70.1593 46.5931 70.1652 46.599 70.1712 46.6109C70.3201 46.9207 70.2844 47.4448 70.0402 48.4156C70.0104 48.5348 69.9091 48.6301 69.784 48.642H69.7483C69.7245 48.9577 69.6649 49.3091 69.5696 49.7141C69.4564 50.2084 69.3016 50.673 69.1229 51.084C68.8608 51.7034 68.5094 52.5909 68.4916 53.0257C68.4916 53.0793 68.4737 53.1389 68.438 53.1805C68.3367 53.3294 68.2414 53.4962 68.1521 53.6689C68.0984 53.7642 68.0448 53.8595 67.9972 53.9489C68.0329 54.0204 68.0389 54.1097 68.0091 54.1871C67.6875 55.0389 67.4373 55.5153 66.9847 56.3075C67.0085 56.379 67.0025 56.4624 66.9668 56.5398C66.7524 56.9567 66.4843 57.1295 66.2461 57.2784C66.1091 57.3677 65.984 57.4511 65.8709 57.5762L65.9125 57.7132C65.9364 57.7965 65.9245 57.8859 65.8709 57.9574C65.7101 58.1956 65.5671 58.4458 65.4182 58.7019C65.2514 58.9878 65.0847 59.2796 64.8941 59.5536C64.6439 59.911 64.3461 60.31 64.0006 60.6912C64.0006 60.7448 63.9768 60.7984 63.947 60.8461L63.6016 61.3285C63.4348 61.531 63.268 61.7335 63.1132 61.9063C62.8273 62.2279 62.6307 62.3947 62.4699 62.4542C62.3627 62.621 62.19 62.7878 62.047 62.9248C61.8445 63.1273 61.5884 63.3179 61.3502 63.4846C61.3502 63.6038 61.2906 63.711 61.1834 63.7646L60.9392 63.8777C60.6771 63.9969 60.5699 64.0505 60.2781 64.2828C60.2721 64.3304 60.2483 64.3721 60.2185 64.4138C60.2006 64.4376 60.1768 64.4674 60.1411 64.5031C59.9564 64.7116 59.8194 64.7831 59.6646 64.8545C59.6348 64.8665 59.605 64.8784 59.5752 64.8962C59.5752 64.9737 59.5336 65.0451 59.468 65.0987C59.0809 65.4263 58.9677 65.4859 58.7354 65.5633C58.6878 65.5812 58.6401 65.5991 58.5687 65.6229C58.4734 65.6824 58.2708 65.8611 58.0922 66.0458C57.9075 66.2245 57.848 66.3019 57.8241 66.3317C57.8122 66.3912 57.7765 66.4508 57.7288 66.4925C57.6633 66.552 57.5799 66.5759 57.4906 66.5639C57.4668 66.5639 57.3715 66.5878 57.2524 66.6473C57.2404 66.7129 57.2047 66.7784 57.1511 66.826C56.9009 67.0345 56.6746 67.1893 56.4661 67.3144C56.4661 67.3204 56.4661 67.3323 56.4602 67.3382C56.49 67.368 56.5138 67.4097 56.5317 67.4514C56.5853 67.6003 56.5078 67.7611 56.3649 67.8207C56.216 67.8862 56.0254 67.9517 55.8288 68.0232C55.4119 68.1721 54.8997 68.3567 54.5423 68.5771C54.5244 68.6367 54.4827 68.6843 54.4291 68.7201C54.2922 68.8154 54.1552 68.8868 53.9824 68.9464C53.8574 69.0238 53.7501 69.0893 53.6072 69.1668C53.4821 69.3097 53.226 69.4288 52.7972 69.6194C52.6959 69.6611 52.6006 69.7028 52.5291 69.7386C52.4458 69.7803 52.3505 69.7803 52.273 69.7386C52.2552 69.7326 52.2373 69.7207 52.2254 69.7088C52.1003 69.7028 52.011 69.6611 51.9514 69.5956C51.7846 69.7266 51.6 69.8517 51.4332 69.9589C51.3081 70.0423 51.1414 70.1555 51.0997 70.1972C51.0639 70.2746 51.0103 70.2984 50.9269 70.3223C50.7006 70.3818 50.4624 70.4533 50.2182 70.5307C49.9085 70.626 49.5868 70.7273 49.2771 70.7988C48.7827 70.9 48.4075 70.9536 48.1157 70.9655C48.074 71.0489 47.9906 71.1144 47.8893 71.1263C47.7226 71.1502 47.5141 71.1859 47.2997 71.2216C46.7041 71.3288 46.3348 71.3884 46.0846 71.3646C46.031 71.442 45.9238 71.4837 45.7511 71.5135C45.7213 71.5433 45.6796 71.5671 45.6379 71.585C44.548 71.9483 43.6605 71.9125 42.7313 71.8828C41.9928 71.8589 41.2304 71.8292 40.3251 72.0078C40.2774 72.0198 40.2178 72.0317 40.1523 72.0436C40.0809 72.0555 40.0094 72.0436 39.9498 72.0138C39.5091 72.0495 39.0624 72.0614 38.6157 72.0614L38.6454 72.0317ZM30.2413 23.1974C30.2413 23.1974 30.2413 23.1974 30.2413 23.2034V23.1974Z" fill="#DD3874"/>
</svg>
