<svg width="91" height="91" viewBox="0 0 91 91" fill="none" xmlns="http://www.w3.org/2000/svg">
<path d="M65.463 77.8899C65.152 77.8899 64.8981 77.8645 64.8917 77.8645C64.3141 77.7502 63.9079 77.6423 63.8698 77.2742C63.8381 77.2615 63.7937 77.2488 63.7238 77.2298L62.5115 77.1726C62.4163 77.1726 62.3338 77.1219 62.2767 77.052C62.2576 77.052 62.2449 77.0584 62.2386 77.0584C62.118 77.0901 61.991 77.0457 61.9149 76.9441C61.7689 76.9061 61.4769 76.8553 61.2675 76.8172C61.1976 76.8045 61.1278 76.7918 61.058 76.7791C61.0009 76.8299 60.931 76.8616 60.8485 76.8616C59.9916 76.887 59.3633 76.6204 58.8174 76.3856C58.4175 76.2142 58.0367 76.0555 57.5987 76.0301L56.8307 76.0809C56.7038 76.0873 56.5895 76.0238 56.5324 75.9095L56.5133 75.8715C56.4753 75.8715 56.4435 75.8778 56.4118 75.8841C56.1389 75.9159 55.885 75.9476 55.301 75.7509C54.1712 75.3319 52.9462 75.0273 51.7592 74.7353C50.4771 74.4179 49.1568 74.0879 47.9128 73.6118C47.8366 73.6372 47.7478 73.6245 47.6716 73.5864C47.6208 73.5547 47.57 73.5293 47.5256 73.5039C46.6878 73.0342 45.9261 72.8628 45.1835 72.6978L44.9296 72.6407C43.9838 72.4503 43.1142 72.2408 42.1812 71.6315C42.1368 71.6061 42.105 71.568 42.0796 71.5236C41.9083 71.4474 41.813 71.3776 41.7813 71.276C41.5211 71.2443 41.1656 71.1046 40.6705 70.9015C40.423 70.8 40.1818 70.6984 39.9914 70.6413C39.8771 70.6032 39.801 70.5144 39.7756 70.4064C39.0456 70.2478 38.0999 69.7717 37.2494 69.3465L36.9828 69.2132C36.8939 69.1687 36.8304 69.0862 36.8114 68.9847C36.7923 68.9656 36.6273 68.7942 36.5004 68.6673C36.3671 68.534 36.2274 68.388 36.1005 68.2357C36.0243 68.3118 35.9228 68.3499 35.7831 68.3372C35.7577 68.3563 35.726 68.369 35.6943 68.3753C35.6054 68.4007 35.5039 68.388 35.4277 68.3309C35.3579 68.2801 35.2627 68.223 35.1674 68.1659C34.7612 67.912 34.4946 67.7406 34.3867 67.5502C34.2725 67.4677 34.1836 67.3851 34.0948 67.2963L34.0186 67.2265C33.8599 67.1503 33.733 67.0614 33.6124 66.9535C33.5616 66.9028 33.5235 66.8393 33.5108 66.7695C33.314 66.6171 33.0475 66.4521 32.6984 66.2807C32.4445 66.1347 32.2033 66.0078 31.9875 65.8935L31.6955 65.7412C31.5495 65.665 31.4924 65.4873 31.5558 65.335C31.5812 65.2715 31.6257 65.2207 31.6828 65.189C31.6828 65.1763 31.6828 65.1572 31.6764 65.1446C31.4733 64.9922 31.2512 64.8018 31.0227 64.5543C30.9655 64.4908 30.9338 64.4083 30.9402 64.3258C30.8386 64.2559 30.7497 64.2242 30.7117 64.2179C30.6038 64.2179 30.5276 64.1798 30.4641 64.11C30.4133 64.0465 30.3879 63.9703 30.3943 63.8941C30.3372 63.7291 29.9627 63.2531 29.6834 63.0563C29.6517 63.0436 29.5945 63.0182 29.5501 62.9928C29.3089 62.8786 29.1947 62.8024 28.8329 62.3962C28.7694 62.3264 28.744 62.2375 28.7567 62.1486C28.7313 62.1296 28.6996 62.1106 28.6742 62.0979C28.5218 62.0027 28.3822 61.9074 28.2045 61.6599C28.1854 61.6345 28.1664 61.6091 28.1537 61.5837C28.122 61.533 28.1029 61.4695 28.1029 61.4124C27.8173 61.1394 27.7094 61.076 27.4174 60.9046L27.208 60.784C27.0874 60.7142 27.0302 60.5809 27.0556 60.4476C26.7256 60.1366 26.2178 59.6224 26.021 59.2289C25.8433 59.1527 25.6529 58.9496 25.3863 58.5624C25.1895 58.2895 25.0118 57.9594 24.8722 57.6865C24.796 57.5405 24.7325 57.4136 24.6754 57.3247C24.6373 57.2676 24.6246 57.2041 24.631 57.1343C24.0914 56.417 23.7487 55.5792 23.4059 54.7731C23.2917 54.5002 23.1774 54.2272 23.0568 53.9607C23.0188 53.8718 23.0188 53.7639 23.0695 53.675L23.1521 53.5227C23.0632 53.3767 22.9362 53.2815 22.7903 53.1736C22.5554 52.9959 22.2634 52.7674 22.0984 52.2977C22.0667 52.2025 22.0794 52.1072 22.1301 52.0247C21.9905 51.6249 21.8826 51.3011 21.7874 51.0028C21.6414 50.5776 21.5525 50.165 21.451 49.6064C21.4383 49.5239 21.451 49.435 21.5081 49.3652C21.5081 49.3589 21.5208 49.3525 21.5208 49.3462C21.4827 49.2446 21.4446 49.1367 21.4129 49.0288C21.3431 48.8321 21.2796 48.6353 21.1971 48.4639C21.1654 48.3941 21.159 48.3116 21.178 48.2354C21.2796 47.9053 21.159 47.2516 21.0321 46.5534L20.9305 45.9313C20.8416 45.0935 20.7401 44.1541 20.9432 43.367L20.9051 43.3543C20.7718 43.3099 20.6893 43.1766 20.6957 43.037C20.6957 42.9227 20.7083 42.8021 20.7083 42.6815C20.7147 42.4594 20.721 42.2372 20.7401 42.0341C20.8099 41.5898 20.9369 41.2915 21.1273 41.1138C21.1336 41.1074 21.1463 41.1011 21.1527 41.0947C21.1527 41.0693 21.1527 41.0439 21.1527 41.0249C21.1527 40.8408 21.159 40.6314 21.2034 40.4473C21.2034 40.4283 21.2034 40.4092 21.2034 40.3965C21.0638 40.333 20.9813 40.1934 21.0194 40.0411C21.0701 39.8253 21.14 39.6031 21.2161 39.3746C21.286 39.1651 21.3494 38.943 21.4129 38.7208C21.4573 38.5622 21.4954 38.4162 21.5398 38.2702C21.6287 37.9465 21.7176 37.6101 21.8382 37.2864C22.1809 36.3216 22.5998 35.5345 22.987 35.1156C23.2853 34.4745 23.6535 33.7255 24.1676 33.0146C24.7389 32.2339 25.399 31.6373 26.1924 31.193C26.2432 31.1612 26.3066 31.1549 26.3574 31.1485C26.6811 30.9899 27.0937 30.8502 27.4047 30.7614C27.6459 30.7106 28.0521 30.6281 28.3187 30.7423C28.4647 30.6915 28.6044 30.6344 28.7377 30.5836C29.1185 30.4376 29.4803 30.3043 29.8738 30.1964C30.4705 30.0441 31.1433 29.9172 32.0002 30.0505C32.0763 30.0632 32.1461 30.1012 32.1969 30.1584C32.3746 30.1584 32.546 30.1457 32.6603 30.1393H32.8063C33.0094 30.1584 33.1046 30.2345 33.1554 30.3107C33.2442 30.317 33.3267 30.3107 33.4219 30.3107C33.5298 30.3107 33.6378 30.3043 33.7584 30.3107C33.8789 30.3234 33.9805 30.3996 34.0249 30.5075C34.2534 30.5773 34.501 30.6471 34.7612 30.7169C35.1167 30.8121 35.4975 30.92 35.8847 31.0406C36.8876 31.3517 37.7064 31.7261 38.303 32.1578C38.3665 32.2022 38.4109 32.2657 38.4299 32.3418C38.8616 32.5005 39.3313 32.8052 39.6042 33.0019C39.9343 33.2304 40.2453 33.4843 40.4928 33.6874C40.6325 33.8017 40.753 33.8969 40.8483 33.9731C40.9181 34.0302 40.9625 34.1064 40.9752 34.1889C41.2037 34.411 41.3053 34.6015 41.4068 34.7792C41.4195 34.7982 41.4259 34.8173 41.4386 34.8363C41.5592 34.8046 41.6861 34.8427 41.7686 34.9442C41.9273 35.141 42.0606 35.2743 42.1431 35.3441C42.2764 35.3187 42.4033 35.3758 42.4795 35.4837C42.6445 35.744 42.6699 35.8709 42.6636 36.0232C42.6636 36.0232 42.6953 36.1058 42.9111 36.366C42.9873 36.4612 43.0063 36.5945 42.9492 36.7024C42.9365 36.7341 42.9111 36.7595 42.8857 36.7849C42.9873 36.9626 43.0889 37.1467 43.1904 37.3244C43.1904 37.3308 43.2031 37.3435 43.2094 37.3498L43.2475 37.4196C43.2475 37.4196 43.3047 37.4895 43.3618 37.5593C43.3808 37.5593 43.3999 37.5593 43.4189 37.5593C43.4506 37.5212 43.4951 37.4958 43.5459 37.4768C43.6665 37.4323 43.7997 37.4704 43.8886 37.5656C43.9648 37.6481 44.0282 37.7497 44.0981 37.8576C44.1235 37.7053 44.1869 37.591 44.2885 37.5149C44.2885 37.5149 44.2948 37.5149 44.3012 37.5085C44.2821 37.3816 44.2631 37.2483 44.2441 37.1213C44.225 36.988 44.206 36.8611 44.1869 36.7468C44.1869 36.7087 44.1742 36.6707 44.1679 36.6389C44.1171 36.6135 44.079 36.5691 44.0473 36.5183C43.9902 36.4168 43.9203 36.2264 43.8696 35.617C43.8505 35.306 43.8632 34.9886 43.8696 34.7601V34.6522C43.8759 34.5507 43.9267 34.4618 44.0029 34.4047L43.9902 34.3158C43.9775 34.2016 44.0282 34.0873 44.1235 34.0239L44.225 33.954C44.206 33.6938 44.2567 33.5415 44.3266 33.3891C44.3456 33.351 44.3583 33.313 44.3647 33.2749C44.2758 33.2114 44.225 33.0972 44.2377 32.9829C44.2948 32.418 44.3012 32.1197 44.2885 31.8213V31.6754C44.2694 31.4024 44.2567 31.0978 44.3456 30.5963C44.3647 30.5075 44.4154 30.4313 44.4916 30.3805C44.4979 30.3297 44.5043 30.2726 44.5106 30.2155C44.5424 29.8727 44.5868 29.4792 44.8597 29.1999C44.9486 29.1111 45.0755 29.0857 45.1898 29.1238C45.1898 29.1111 45.1898 29.0984 45.1898 29.092C45.0375 28.9778 44.993 28.8064 45.0438 28.5779C45.0629 28.489 45.12 28.4129 45.2025 28.3748C45.2406 28.3557 45.285 28.3303 45.3421 28.3113C45.3739 28.1717 45.412 28.032 45.4437 27.886C45.5897 27.3084 45.7357 26.7054 45.7547 26.3183C45.7547 26.2167 45.8118 26.1215 45.9007 26.0644C45.9007 26.0644 45.9134 26.058 45.9197 26.0517C46.034 25.7851 46.1165 25.5122 46.1927 25.2456C46.3323 24.7822 46.4656 24.3443 46.7512 24.0459C46.7893 24.0078 46.8401 23.9761 46.8845 23.9634C46.967 23.8301 47.0369 23.6714 47.1067 23.5191C47.1511 23.4176 47.1955 23.3223 47.2463 23.2271C47.405 22.9098 47.6145 22.4845 47.9826 22.4528C48.0397 22.421 48.0969 22.4147 48.1413 22.4147C48.1603 22.3512 48.1667 22.3004 48.173 22.2433C48.1984 21.9894 48.2428 21.7609 48.6046 21.361C48.63 21.3293 48.6681 21.3039 48.7062 21.2849C48.9474 20.9294 49.2394 20.5359 49.525 20.1614C49.6646 19.9773 49.7979 19.7933 49.9249 19.6219C49.9566 19.5775 49.9947 19.5457 50.0391 19.5267C50.3311 19.387 50.6548 19.0506 50.9976 18.6952C51.1182 18.5682 51.2451 18.4413 51.372 18.3143C51.8925 17.7875 52.3749 17.4194 52.8129 17.2099C52.8573 17.1211 52.9208 17.0385 52.9779 16.9751C52.9906 16.9624 53.0033 16.9497 53.0096 16.937C53.0477 16.8354 53.1429 16.7593 53.2572 16.7402C53.2699 16.7402 53.2826 16.7402 53.2953 16.7402C53.3334 16.6958 53.3461 16.664 53.3651 16.6196C53.3841 16.5688 53.4095 16.5117 53.454 16.4482C53.4984 16.3848 53.5682 16.334 53.6444 16.3213C53.7459 16.2959 53.9744 16.0991 54.1204 15.9849C54.2854 15.8453 54.4251 15.731 54.5647 15.6612C54.6536 15.5533 54.825 15.439 55.2312 15.2486C55.3581 15.1915 55.5041 15.2232 55.593 15.3184C55.6184 15.2994 55.6374 15.2803 55.6628 15.255C55.9484 15.0011 56.2404 14.7408 56.9069 14.5441C56.9323 14.5377 56.9576 14.5314 56.9767 14.5314L57.1354 14.5187C57.2433 14.5123 57.3448 14.506 57.4527 14.4996C57.6051 14.3536 57.8463 14.2584 58.0748 14.1823L58.2842 14.1315C58.354 14.1124 58.4175 14.0998 58.462 14.0871C58.5318 14.0236 58.627 13.9982 58.7222 14.0172L58.8301 14.0299C58.9888 14.049 59.1475 14.0744 59.2681 14.1569C59.395 14.1378 59.541 14.1251 59.706 14.1124C59.7631 14.0172 59.871 13.9538 59.9853 13.9665C60.3281 13.9792 60.6454 13.9792 60.9374 13.9728C61.826 13.9665 62.594 13.9601 63.4128 14.3727C63.5017 14.4171 63.5652 14.4996 63.5842 14.5948C63.5969 14.5948 63.6096 14.5948 63.6159 14.5948L63.7112 14.6139C63.7937 14.506 63.9397 14.4552 64.0666 14.4996C64.6315 14.69 64.86 14.8868 65.0822 15.0836C65.2472 15.2232 65.3995 15.3565 65.7169 15.5088C65.755 15.5279 65.7867 15.5469 65.8121 15.5787C65.9517 15.7247 66.0025 15.8706 65.9708 16.0103C66.3389 16.2515 66.5674 16.5752 66.7642 16.8672C66.8848 17.0449 66.999 17.2036 67.1133 17.3051C67.126 17.3115 67.1323 17.3178 67.1387 17.3305C67.1641 17.3496 67.1895 17.3686 67.2148 17.3813C67.2656 17.413 67.3101 17.4511 67.3418 17.5082C67.3418 17.5146 67.3481 17.5209 67.3545 17.5273C67.437 17.54 67.5068 17.5844 67.5639 17.6479C67.6211 17.724 67.6718 17.7685 67.7353 17.8256C67.8686 17.9399 68.0273 18.0795 68.2304 18.4476C68.351 18.3969 68.497 18.4286 68.5922 18.5301C68.6938 18.6507 68.8715 18.9872 68.808 19.2474C68.9477 19.4695 69.0302 19.5203 69.1063 19.5711C69.3221 19.7171 69.4935 19.8694 69.6332 20.4788C69.6459 20.5359 69.6459 20.593 69.6332 20.6438C69.6522 20.6946 69.6712 20.7453 69.6903 20.7898C69.7157 20.8469 69.7474 20.9104 69.7728 20.9739C69.8426 21.1325 69.7728 21.3166 69.6141 21.3864C69.6078 21.3864 69.5951 21.3928 69.5887 21.3991C69.7601 21.361 69.9061 21.4562 70.0013 21.5832C70.033 21.6213 70.0521 21.6721 70.0584 21.7165C70.1156 21.7546 70.16 21.818 70.179 21.8879L70.2044 21.9704C70.2552 22.1481 70.306 22.3322 70.3885 22.5416C70.4393 22.6686 70.4075 22.8019 70.3123 22.8907C70.3377 23.2906 70.3694 23.7413 70.5218 24.2046C70.5726 24.3633 70.4964 24.5283 70.3441 24.5918C70.3631 24.7378 70.3441 24.833 70.2806 24.9282C70.2552 24.9599 70.2235 24.9853 70.1854 25.0107C70.2171 25.2456 70.2552 25.29 70.2806 25.3217C70.3948 25.4677 70.452 25.601 70.4647 26.0644C70.5408 26.1278 70.5916 26.223 70.5916 26.331C70.5789 26.6674 70.5853 26.9466 70.5916 27.2069C70.5916 27.4735 70.6043 27.7274 70.5916 28.013C70.6614 28.1336 70.6805 28.2923 70.6932 28.4192C70.7059 28.5271 70.6614 28.6287 70.5853 28.6985C70.5726 28.7873 70.5599 28.9016 70.5472 28.9841C70.5281 29.1428 70.5091 29.3015 70.4837 29.4411C70.5345 29.5236 70.5408 29.6252 70.5091 29.7141C70.471 29.822 70.4202 29.8918 70.3694 29.9426C70.3758 29.9806 70.3821 30.0251 70.3694 30.0632C70.306 30.4694 70.3568 30.6534 70.4139 30.8629C70.4837 31.1105 70.5599 31.3961 70.4393 31.9419C70.4393 32.0308 70.3694 32.1831 70.2806 32.418C70.2425 32.5132 70.2044 32.6148 70.16 32.7227C70.2044 32.7671 70.2362 32.8369 70.2615 32.9321C70.2806 33.0083 70.2742 33.0845 70.2362 33.1543C69.9886 33.643 70.0076 34.1889 70.0267 34.83C70.0457 35.4393 70.0648 36.1311 69.8426 36.8674C69.8172 36.9436 69.7664 37.0071 69.703 37.0452C69.7093 37.0705 69.7157 37.0959 69.7157 37.1213C69.7157 37.1277 69.7284 37.8957 69.4681 38.2194C69.4872 38.6891 69.43 38.9303 69.3412 39.2731C69.3094 39.3936 69.2777 39.5269 69.246 39.692C69.2269 39.7872 69.1698 39.857 69.0936 39.9014C69.0936 39.9713 69.0936 40.0411 69.0936 40.1236C69.0936 40.2188 69.0936 40.333 69.0873 40.4727C69.0873 40.5996 68.9984 40.7139 68.8778 40.7583C68.8651 40.79 68.8524 40.8218 68.8461 40.8535C68.8778 41.209 68.8397 41.666 68.7953 42.1484C68.7699 42.4276 68.7445 42.7196 68.7318 42.9862C68.7318 43.0624 68.7001 43.1322 68.6557 43.183C68.6049 43.6654 68.5097 44.1541 68.4145 44.6302C68.3002 45.1951 68.1796 45.7727 68.1542 46.3376C68.332 46.4772 68.3066 46.7882 68.2558 47.3595C68.2368 47.588 68.2114 47.8482 68.2241 47.9561C68.2304 48.0386 68.205 48.1212 68.1542 48.1846C68.1352 48.2037 68.1162 48.2227 68.0971 48.2418C68.1542 48.3877 68.1416 48.5655 68.1352 48.6734C68.1352 48.7305 68.1225 48.8194 68.1352 48.8511C68.1606 48.9146 68.1606 48.9717 68.1352 49.0352C68.0971 49.1748 68.0336 49.3271 67.8813 49.4097C67.875 49.4477 67.8623 49.5112 67.8496 49.6128C67.8877 49.6382 67.9194 49.6635 67.9448 49.7016C68.0273 49.8159 68.021 49.9746 67.9321 50.0825C67.8813 50.1523 67.7607 50.495 67.6909 50.9013C67.6782 50.9647 67.6528 51.0219 67.6084 51.0663C67.7099 51.1425 67.7607 51.2694 67.729 51.3964C67.5957 51.9422 67.5957 52.431 67.602 52.907C67.602 53.1863 67.602 53.4529 67.5766 53.7195C67.5703 53.8147 67.5132 53.9035 67.4307 53.9543C67.437 53.9987 67.4497 54.0305 67.4624 54.0559C67.4878 54.1066 67.4941 54.1574 67.4878 54.2145L67.4433 54.7541C67.4307 54.8937 67.3291 55.008 67.2022 55.0333C67.2022 55.2618 67.2022 55.4967 67.2402 55.5665C67.3799 55.6681 67.3926 55.8521 67.291 55.9918C67.2783 56.0045 67.2656 56.0235 67.2529 56.0362C67.1958 56.3599 67.1387 56.7788 67.0879 57.1533C67.0117 57.6992 66.9737 57.9785 66.9229 58.1372C66.9229 58.4291 66.9102 58.7338 66.8911 59.0067C66.8784 59.2479 66.8594 59.5653 66.8721 59.7049C66.9356 59.7557 66.9737 59.8319 66.98 59.9207C66.999 60.1556 66.9483 60.4158 66.8975 60.6634C66.8467 60.9173 66.7769 61.2664 66.8594 61.3679C66.9229 61.4504 66.9419 61.552 66.9165 61.6536C66.8594 61.8376 66.8086 62.0217 66.6817 62.0979C66.6817 62.1106 66.6817 62.1169 66.6817 62.1296C66.7007 62.2819 66.7261 62.4597 66.7007 62.6183C66.7134 62.631 66.7261 62.6501 66.7388 62.6691C66.7896 62.7453 66.8023 62.8405 66.7769 62.9294C66.7578 62.9992 66.7134 63.0563 66.6563 63.1007C66.6245 63.215 66.6309 63.5323 66.6372 63.7418C66.6436 63.9894 66.6499 64.2623 66.6245 64.5098C66.7134 64.5987 66.7515 64.7383 66.7832 64.8462C66.8086 64.9414 66.7896 65.043 66.7325 65.1192H66.7451C66.8213 65.1699 66.8721 65.2461 66.8911 65.3286C66.9102 65.4111 66.8911 65.5 66.8467 65.5762L66.5928 65.957L66.6055 66.1919C66.6055 66.1919 66.6372 66.2109 66.6563 66.2236C66.8086 66.3315 66.8594 66.5029 66.9356 67.0868C66.9483 67.1757 66.9229 67.2582 66.8657 67.3217C66.8657 67.4169 66.8975 67.5502 66.9292 67.6962C66.9927 68.0072 67.0752 68.3944 67.0498 68.8895C67.0498 68.9529 67.0244 69.01 66.9927 69.0545V69.0799C67.0244 69.1814 66.9927 69.2893 66.9356 69.3655C66.9356 69.4036 66.9483 69.4353 66.961 69.4861C67.0054 69.6384 67.0435 69.7971 66.999 70.1081C66.9927 70.1653 66.9673 70.2224 66.9292 70.2668C66.9356 70.3366 66.9483 70.4064 66.9546 70.4763L67.0054 70.6096C67.0371 70.6921 67.0371 70.7873 67.0054 70.8635C67.2402 72.6724 67.5703 74.4433 67.9829 76.119C68.0146 76.2459 67.9638 76.3792 67.8623 76.4554L66.5611 77.3948C66.5801 77.4583 66.5801 77.5217 66.5611 77.5789C66.4722 77.8582 65.901 77.9153 65.4503 77.9153L65.463 77.8899ZM26.4844 59.121C26.4844 59.121 26.5225 59.0893 26.5351 59.0702C26.5225 59.0893 26.5034 59.1083 26.4844 59.121ZM26.021 58.7084C26.021 58.7084 26.002 58.7338 26.002 58.7402C26.002 58.7402 26.0147 58.7148 26.021 58.7084ZM69.8807 29.1301C69.8807 29.1301 69.8871 29.1301 69.8934 29.1364C69.8934 29.1364 69.9061 29.1238 69.9124 29.1238C69.9124 29.1238 69.9124 29.1047 69.9124 29.0984C69.8997 29.1111 69.8871 29.1174 69.8807 29.1301Z" fill="#DD3874"/>
</svg>
