<svg width="91" height="91" viewBox="0 0 91 91" fill="none" xmlns="http://www.w3.org/2000/svg">
<path d="M40.1398 64.1697C40.2632 64.1865 40.3867 64.2314 40.4933 64.3044L40.0444 65.017L40.4035 64.5288L40.5438 64.338C40.5775 64.3605 40.6224 64.3941 40.6504 64.4222L41.2116 64.9553C42.0309 64.3156 42.9288 63.6871 43.9389 63.053C43.9501 63.0473 43.9669 63.0361 43.9781 63.0305C43.9894 63.0249 44.0006 63.0193 44.0118 63.0081L44.0679 62.9744C44.197 62.8958 44.3205 62.8173 44.4495 62.7387C44.5393 62.6882 44.6347 62.6489 44.7301 62.6321C44.7918 62.5479 44.876 62.4806 44.9714 62.4244L45.1566 62.3234C45.3474 62.2168 45.5606 62.1888 45.7627 62.2336C45.8749 62.1439 46.0264 62.0148 46.2228 61.9306C46.3014 61.7623 46.4304 61.6164 46.5988 61.5266L46.9804 61.3302C47.1095 61.2628 47.2554 61.2348 47.4013 61.2348C47.5359 61.0496 47.738 60.9317 47.9624 60.8981C48.0354 60.8868 48.2262 60.7858 48.3384 60.7297C48.4394 60.6792 48.5629 60.6175 48.6976 60.5614C48.7368 60.5221 48.7817 60.4884 48.8322 60.4491C48.9837 60.3369 49.1633 60.2752 49.3429 60.2864C49.5225 60.1573 49.7918 59.9946 50.151 59.9553C50.2127 59.9497 50.28 59.9497 50.3418 59.9553C50.454 59.9216 50.5606 59.8936 50.6504 59.8767C50.6729 59.8767 50.6897 59.8655 50.7121 59.8655C50.9534 59.6354 51.2845 59.4839 51.4978 59.3885C51.6774 59.31 51.8569 59.2258 52.0028 59.1416C52.1263 59.0687 52.261 59.0294 52.4013 59.0238C52.5303 58.9845 52.7716 58.9003 52.94 58.8386C53.1308 58.7712 53.3328 58.7039 53.5068 58.6422C53.72 58.4402 53.9894 58.2999 54.2194 58.1876C54.3036 58.1427 54.3934 58.0978 54.472 58.053C54.6235 57.9632 54.8031 57.9239 54.9714 57.9407C54.9826 57.9351 54.9939 57.9295 55.0051 57.9239C55.151 57.8397 55.3193 57.806 55.4877 57.8173C55.5775 57.7611 55.6729 57.705 55.7739 57.6489C55.8244 57.3852 55.9983 57.1607 56.2509 57.0429L56.5651 56.897C56.6942 56.8352 56.8401 56.8128 56.9804 56.824C57.0028 56.824 57.0253 56.8184 57.0477 56.8128C57.1824 56.7791 57.3171 56.7847 57.4405 56.8128C57.4742 56.7847 57.5135 56.7623 57.5584 56.7342C57.7885 56.6164 57.9961 56.549 58.1869 56.5378C58.2598 56.448 58.3552 56.3751 58.4675 56.3246C58.6246 56.2516 58.7705 56.2179 58.894 56.2123C58.9332 56.1899 58.9725 56.1618 59.0174 56.1394C59.0735 56.0215 59.1577 55.9205 59.2643 55.8363C59.7413 55.4716 60.2295 55.2415 60.7009 55.0226C61.0601 54.8543 61.3968 54.6972 61.6661 54.512C61.7391 54.4615 61.8176 54.4222 61.9018 54.3998C61.9916 54.3324 62.0814 54.2707 62.1768 54.2033C62.3844 54.0574 62.6369 53.8779 62.7211 53.7769C62.7829 53.7039 62.8558 53.6366 62.94 53.5861C62.9961 53.5524 63.1813 53.4514 63.4114 53.4065C63.5797 53.255 63.7593 53.1259 64.1521 52.9351C64.2475 52.8902 64.3485 52.8622 64.4439 52.8509C64.4607 52.8285 64.4832 52.8004 64.5056 52.7724C64.601 52.6433 64.7301 52.5479 64.8704 52.4918C65.0219 52.3571 65.1678 52.2449 65.3081 52.127L65.4765 51.9923C65.6392 51.8633 65.8356 51.8016 66.0376 51.8016C66.1611 51.6669 66.2677 51.5097 66.3856 51.3414C66.4978 51.1787 66.6212 51.0103 66.7615 50.8476C66.7952 50.6848 66.8794 50.5389 66.9972 50.4211C67.2778 50.1517 67.6089 49.9553 67.8502 49.8094C67.9063 49.7757 67.9568 49.7477 67.9961 49.7252C68.0522 49.6635 68.0578 49.6467 68.0803 49.5569C68.1083 49.439 68.1364 49.3212 68.1925 49.1921C68.1588 48.962 68.1981 48.6702 68.3833 48.3111C68.4058 48.2662 68.4338 48.2269 68.4619 48.1876C68.7368 47.8173 69.0343 47.6377 69.3092 47.5816C69.4046 47.4357 69.472 47.2898 69.5561 47.1102C69.5786 47.0597 69.601 47.0092 69.6291 46.9587C69.6291 46.8408 69.6459 46.723 69.6908 46.6164C69.6964 46.5995 69.7077 46.5827 69.7133 46.5659C69.7638 46.4592 69.7974 46.3863 69.8199 46.3358C69.7918 46.1338 69.8199 45.9261 69.8928 45.6512C69.9153 45.5726 69.949 45.4996 69.9939 45.4267C70.0612 45.3257 70.1285 45.2415 70.2071 45.1742C70.2183 45.1349 70.2352 45.0956 70.2576 45.0563C70.3418 44.8824 70.4428 44.7533 70.5438 44.6579C70.5719 44.5737 70.5999 44.4952 70.6336 44.4166C70.656 44.3661 70.6785 44.3156 70.6953 44.2651C70.6841 44.2146 70.6785 44.1585 70.6785 44.1079C70.5999 43.9845 70.5382 43.833 70.4989 43.6478C70.4765 43.5243 70.4765 43.4009 70.5101 43.2774C70.5101 43.2325 70.5101 43.1764 70.5101 43.1259C70.5101 42.9183 70.4933 42.5479 70.6785 42.2449C70.6392 42.1102 70.6055 41.9531 70.5887 41.7567C70.5662 41.7174 70.5382 41.6725 70.5157 41.6276C70.4652 41.5322 70.4372 41.4256 70.4316 41.3189C70.252 41.1282 70.1566 40.8868 70.0612 40.6399L69.9939 40.4716C69.949 40.3594 69.9265 40.2415 69.9321 40.1293C69.9209 40.0732 69.9097 40.0227 69.8985 39.9721L69.876 39.8711C69.876 39.8711 69.8648 39.8206 69.8648 39.8094C69.8479 39.7196 69.8199 39.5793 69.7974 39.54C69.7301 39.4671 69.6796 39.3829 69.6403 39.2931C69.3597 39.1977 69.1465 38.9508 69.0904 38.6478C69.0623 38.6141 69.0006 38.558 68.9557 38.5187C68.7761 38.3504 68.5348 38.1259 68.3777 37.7668C68.3047 37.604 68.2879 37.4357 68.3216 37.2673C68.2206 37.1888 68.1027 37.1102 67.9624 37.0092C67.8558 36.9362 67.7436 36.8577 67.6257 36.7735C67.3564 36.7118 67.1431 36.549 66.9579 36.4087C66.8962 36.3582 66.7896 36.2797 66.7503 36.2572C66.5539 36.1618 66.3968 35.9935 66.3182 35.7915C66.3014 35.7802 66.2845 35.7746 66.2621 35.7634C66.0152 35.7915 65.7514 35.7129 65.5606 35.5221L65.3362 35.2976C65.2071 35.2415 65.1229 35.2359 64.9546 35.2359C64.7077 35.2359 64.371 35.2303 63.9164 35.0451C63.7649 34.9834 63.6358 34.8824 63.5404 34.7533C63.4675 34.7421 63.3889 34.7308 63.3103 34.714C63.2262 34.7365 63.1308 34.7477 63.0242 34.7477C62.7604 34.8711 62.4405 34.8599 62.188 34.686C62.1375 34.6523 61.9187 34.54 61.2565 34.5232H60.9815C60.5831 34.512 60.1959 34.5064 59.8423 34.411C59.4159 34.4615 58.9332 34.54 58.5404 34.6018L58.4114 34.6242C58.3777 34.6298 58.344 34.6354 58.3047 34.6354C58.0803 34.8206 57.7885 34.9665 57.2778 34.9834C57.2048 34.9834 57.1375 34.9834 57.0646 34.9665C56.9355 34.9385 56.8289 34.8992 56.7391 34.8487C56.4978 34.9273 56.206 35.0002 55.9029 34.9778C55.83 35.017 55.7346 35.0619 55.6616 35.1068C55.4372 35.2247 55.1566 35.3762 54.8311 35.4772C54.5112 35.7073 54.1184 35.9205 53.7368 36.1282C53.6134 36.1955 53.4899 36.2628 53.3833 36.3246C53.3047 36.3919 53.2093 36.4536 53.1027 36.5154C52.9793 36.5827 52.8334 36.622 52.6931 36.622C52.6706 36.622 52.6313 36.6332 52.5864 36.6388C52.4405 36.6613 52.2441 36.6893 52.0421 36.6669C51.9916 36.6893 51.9411 36.7174 51.8794 36.7342C51.8569 36.7398 51.8345 36.751 51.812 36.7567C51.711 36.8801 51.6156 36.9811 51.509 37.0709C51.4529 37.1158 51.3912 37.1663 51.3238 37.2112C51.1442 37.4076 50.8749 37.5142 50.5943 37.4806C50.3362 37.4469 50.1117 37.3178 49.9602 37.1102C49.8087 36.9082 49.7469 36.6669 49.7694 36.3863C49.6908 36.2067 49.6796 36.0047 49.7357 35.8195L49.2026 34.9048C49.1521 34.8206 49.1184 34.7252 49.1016 34.6298C48.9894 34.4615 48.8827 34.2875 48.7761 34.1136C48.6639 33.9284 48.6302 33.7039 48.6751 33.4963C48.6471 33.4514 48.619 33.4009 48.5741 33.3448C48.4955 33.2269 48.4338 33.1315 48.3665 33.0417C48.1813 32.7724 48.0017 32.5142 47.8951 32.2449C47.6089 31.9867 47.3451 31.723 47.0926 31.4592C46.7559 31.1169 46.4304 30.7858 46.0601 30.4828C45.9591 30.4828 45.8468 30.4548 45.729 30.4042C45.5494 30.4267 45.3642 30.3874 45.2015 30.292C45.0612 30.2078 44.9377 30.1349 44.8367 30.0619C44.8199 30.0507 44.8031 30.0395 44.7862 30.0227C44.7245 29.9721 44.6684 29.9216 44.6179 29.8599C44.4383 29.6747 44.2475 29.4952 44.0567 29.3156C44.0118 29.2707 43.9669 29.2258 43.9276 29.1753C43.9164 29.1641 43.9108 29.1528 43.9052 29.1416C43.3609 28.9733 43.1083 28.7488 42.8895 28.5299C42.7885 28.4289 42.766 28.4009 42.5359 28.3504C42.3732 28.3111 42.2329 28.2269 42.1207 28.1147C41.7559 27.9856 41.2621 27.8341 41.0713 27.8509C40.7907 27.9239 40.5157 27.8397 40.3025 27.6377C40.2744 27.6096 40.2464 27.5816 40.2183 27.5479C39.8199 27.4581 39.3766 27.4076 38.9389 27.3571C38.3945 27.2954 37.8726 27.2337 37.4293 27.0934C37.261 27.1046 37.0533 27.0934 36.8177 26.998C36.5764 27.0204 36.3182 27.026 36.0769 26.9699C35.9815 26.9475 35.8917 26.9138 35.8132 26.8633C35.5157 26.8745 35.252 26.9418 34.949 27.0148C34.6796 27.0821 34.371 27.1551 34.023 27.1944C33.793 27.2224 33.5573 27.1495 33.3833 27.0036C33.3777 26.998 33.3721 26.9924 33.3609 26.9867C33.2093 26.9699 32.9512 26.9643 32.665 26.9867C32.6033 26.9867 32.5416 26.9867 32.4854 26.9811C31.6437 27.127 31.0264 27.4244 30.2576 27.7892L29.7974 28.0081C29.6796 28.0642 29.5505 28.0922 29.4271 28.0866C29.3766 28.081 29.0735 28.1035 28.2093 28.5187C27.8614 28.6927 27.4911 28.9003 27.1375 29.1023C27.0533 29.1472 26.9692 29.1977 26.8906 29.2426C26.812 29.4054 26.6998 29.5513 26.5764 29.6691C26.5258 29.7196 26.4641 29.7589 26.4024 29.7926C26.3687 29.8206 26.335 29.8599 26.307 29.888C26.1499 30.0507 25.8524 30.3425 25.426 30.3313C25.426 30.4211 25.4091 30.5165 25.3811 30.6007C25.3025 30.8251 25.1285 31.0103 24.9097 31.1001C24.7301 31.173 24.3429 31.42 23.8042 32.2C23.6807 32.3683 23.5853 32.5086 23.4899 32.6489C23.2599 32.9912 23.0354 33.3167 22.7548 33.5468C22.7211 33.6253 22.6875 33.7039 22.6538 33.7713C22.6033 33.8779 22.5528 33.9845 22.5247 34.0855C22.4574 34.3268 22.2834 34.5232 22.059 34.6242C21.9804 34.7645 21.9074 34.8992 21.8345 35.0395C21.7447 35.2415 21.6212 35.5333 21.4697 35.9766C21.5371 36.2067 21.6325 36.5659 21.509 37.0036C21.4473 37.2112 21.307 37.3908 21.1218 37.4974C20.9142 38.2213 20.7346 38.9115 20.8412 39.5457C20.8805 39.7645 20.83 39.9834 20.7065 40.1629C20.7065 40.2696 20.7009 40.3706 20.6953 40.4716C20.7795 40.5558 20.8468 40.6624 20.8861 40.7858C20.9535 40.9879 20.9478 41.2011 20.8693 41.3863C20.8693 41.4143 20.8805 41.4424 20.8861 41.4705C20.9254 41.6388 21.0208 41.9026 21.0937 42.1158L21.1442 42.2561C21.1667 42.3178 21.1779 42.3796 21.1835 42.4413C21.2902 42.6152 21.3855 42.8117 21.5034 43.182C21.5202 43.2438 21.5371 43.3055 21.5371 43.3672C21.5371 43.4065 21.5371 43.4514 21.5371 43.4907C21.6269 43.6534 21.7054 43.8554 21.7447 44.1641C21.7728 44.1977 21.8008 44.237 21.8289 44.2763C21.9243 44.4278 22.1151 44.8767 22.16 45.3425C22.3115 45.5277 22.4349 45.7522 22.4967 45.9935C22.5247 46.0945 22.5303 46.1955 22.5191 46.2965C22.5528 46.3526 22.5921 46.4087 22.6313 46.4649L22.6762 46.5322C22.8614 46.8072 23.0466 47.0821 23.1476 47.4918C23.1701 47.5872 23.1757 47.6826 23.1701 47.778C23.2262 47.879 23.2823 47.98 23.3216 48.0866C23.3328 48.1203 23.344 48.154 23.3552 48.1876C23.3889 48.2045 23.417 48.2269 23.4506 48.2494C23.5853 48.3504 23.7986 48.5187 23.9725 48.7993C24.0343 48.8218 24.0848 48.8442 24.124 48.8666C24.4159 49.0069 24.6066 49.2987 24.6066 49.6242C24.6066 49.714 24.6852 49.9609 24.7245 50.0956C24.7638 50.2191 24.8031 50.3425 24.8255 50.4604C24.876 50.5165 24.9209 50.5726 24.9714 50.6287C25.252 50.9542 25.7683 51.5546 25.9871 51.6332C26.0825 51.6669 26.1779 51.7174 26.2509 51.7847C26.4753 51.9699 26.6044 52.2 26.6493 52.4581C26.7166 52.5255 26.7896 52.5984 26.8401 52.6489C27.0477 52.6994 27.2385 52.8285 27.3564 53.0249C27.463 53.1932 27.5191 53.3448 27.5472 53.4851C27.6033 53.5748 27.637 53.6758 27.6538 53.7769C27.9063 54.0911 28.215 54.3156 28.5797 54.5793C29.0567 54.9216 29.5898 55.3088 30.0612 55.9542C30.0949 55.9879 30.1285 56.0215 30.1622 56.0608C30.7402 56.7735 31.4529 57.3908 32.2105 58.0473C32.9231 58.6702 33.6639 59.31 34.2924 60.0507C34.3597 60.1237 34.399 60.1461 34.399 60.1461C34.4215 60.1573 34.4495 60.1629 34.472 60.1686C34.5674 60.1966 34.6684 60.2247 34.7862 60.2752C34.9602 60.3481 35.1005 60.4772 35.1903 60.6343L35.2801 60.668C35.3193 60.6848 35.3586 60.7017 35.3979 60.7185C35.8581 60.971 36.133 61.3302 36.3575 61.6164C36.4809 61.7735 36.582 61.9082 36.6998 62.0148C36.9018 62.0036 37.1095 62.0821 37.2666 62.2224C37.3451 62.2898 37.4574 62.3683 37.5752 62.4525C37.7492 62.576 37.9119 62.6882 38.041 62.8173C38.2374 62.907 38.3665 63.0473 38.4394 63.154L38.894 63.3784C38.9557 63.4121 39.0174 63.4514 39.0735 63.4963C39.298 63.6871 39.4215 63.8779 39.4888 64.0518C39.6852 63.9957 39.9041 64.0126 40.1005 64.1079L40.179 64.1472L40.1398 64.1697Z" fill="#DD3874"/>
</svg>
