<svg width="91" height="91" viewBox="0 0 91 91" fill="none" xmlns="http://www.w3.org/2000/svg">
<path d="M42.62 72.868C42.5527 72.868 42.4853 72.8455 42.4348 72.8006L42.2888 72.6715C42.0306 72.4469 41.733 72.2168 41.385 71.9641C41.3457 71.9361 41.3176 71.9024 41.3008 71.8631C41.2895 71.835 41.2727 71.8069 41.2502 71.7789L40.2454 70.9705C40.1724 70.9087 40.1331 70.8189 40.1443 70.7122C40.1331 70.7122 40.1275 70.7122 40.1219 70.7066C39.9984 70.6617 39.9254 70.5326 39.9478 70.4035C39.9478 70.3923 39.9478 70.3866 39.9478 70.3754C39.8636 70.2575 39.6896 70.0723 39.5717 69.9375C39.51 69.8702 39.4426 69.7972 39.3808 69.7298C39.2966 69.7579 39.2068 69.7467 39.1282 69.6961C38.3198 69.1516 38.084 68.5677 37.8763 68.0513C37.7247 67.6695 37.59 67.3439 37.2363 67.052L36.4729 66.5917C36.4055 66.5524 36.355 66.485 36.3437 66.4064C36.3325 66.3391 36.3437 66.2717 36.3774 66.2099C36.3606 66.2043 36.3494 66.1931 36.3325 66.1875C36.0462 66.0359 35.7767 65.8956 35.4792 65.3791C34.9234 64.29 34.0645 63.2234 33.2393 62.1904C32.4983 61.2641 31.7292 60.3098 31.1622 59.3161C31.0667 59.2937 30.9881 59.2263 30.9544 59.1253C30.9376 59.0747 30.9208 59.0186 30.9095 58.9681C30.6288 58.0755 29.9889 57.4411 29.3713 56.8292C28.7089 56.1724 28.024 55.4875 27.777 54.4994C27.7658 54.4433 27.7658 54.3872 27.7882 54.3366C27.7265 54.2131 27.7096 54.1233 27.7602 54.0335C27.5075 53.8202 27.2718 53.4721 27.0304 53.1128C26.9012 52.9163 26.7721 52.7311 26.6599 52.5907C26.5869 52.5009 26.5756 52.3718 26.6318 52.2707C26.1602 51.8385 25.7672 51.1929 25.3855 50.5697C25.2452 50.3452 25.1104 50.1206 24.9757 49.9186C24.8971 49.8007 24.9196 49.6491 25.015 49.5593C25.0374 49.4919 25.0487 49.3123 25.0543 49.1887C25.0655 48.981 25.0767 48.7565 25.1329 48.5431C25.0992 48.6161 25.0374 48.6891 24.9476 48.7284C24.7792 48.8014 24.6389 48.7116 24.5603 48.661C24.5322 48.6442 24.4873 48.6217 24.4761 48.6161C24.3469 48.6386 24.2178 48.5656 24.1673 48.4421C24.1392 48.3747 24.0999 48.2849 24.055 48.1895C23.8585 47.7797 23.7463 47.5158 23.8192 47.2969C23.7856 47.179 23.7687 47.0836 23.7519 46.96C23.6452 46.8141 23.5778 46.6737 23.5498 46.5278C23.5329 46.4436 23.5554 46.365 23.6059 46.3032C23.4431 45.9103 23.0333 45.4106 22.7245 45.0289C22.6347 44.9222 22.5561 44.8212 22.4888 44.7314C22.3989 44.6191 22.4102 44.4563 22.5168 44.3552C22.6235 44.2542 22.7863 44.2542 22.893 44.344C22.9266 44.3721 22.9491 44.3945 22.9716 44.4057C22.9996 44.3608 23.0333 44.3103 23.0726 44.271C22.9884 44.0689 22.921 43.8444 22.9042 43.5861C22.8986 43.5131 22.921 43.4402 22.9659 43.384C22.9042 43.3167 22.8312 43.2661 22.7807 43.2437C22.674 43.1988 22.601 43.0921 22.6067 42.9742C22.6067 42.8732 22.6684 42.7833 22.7582 42.7328C22.8144 42.6205 22.8144 42.2444 22.6965 42.0199C22.6403 41.9637 22.5954 41.9244 22.5561 41.8851C22.3428 41.6886 22.2249 41.5651 22.1295 41.0655C22.1126 40.9701 22.1407 40.8746 22.2081 40.8129C22.1126 40.695 22.006 40.5266 22.006 40.2403C22.006 40.2066 22.006 40.1729 22.0116 40.1392C22.0172 40.0943 22.0397 40.0494 22.0621 40.0101C21.9442 39.7687 21.8488 39.662 21.6242 39.4263L21.4165 39.2017C21.3267 39.1063 21.3211 38.9603 21.3941 38.8537C21.4165 38.82 21.439 38.7975 21.4727 38.7751C21.1751 38.1182 21.1078 37.7646 21.119 37.5625C20.945 37.4109 20.8439 37.1583 20.7934 36.7653C20.7709 36.4902 20.7822 36.2151 20.7934 35.9681C20.7934 35.8222 20.8046 35.6987 20.799 35.6032C20.799 35.5246 20.8271 35.4517 20.872 35.4011C20.7204 34.7331 20.8158 34.1156 20.9113 33.5149C20.9562 33.2174 21.0011 32.9423 21.0179 32.6616C21.0235 32.5212 21.1358 32.409 21.2706 32.3977L21.4165 32.3865C21.3548 32.2911 21.2649 32.1956 21.1807 32.0946C20.9393 31.8195 20.6418 31.4827 20.7036 31.0392C20.7204 30.9269 20.8046 30.8315 20.9169 30.809C20.9281 30.809 20.9337 30.809 20.945 30.809C20.973 30.5845 21.0067 30.3992 21.0404 30.2252L21.0685 30.0792C21.1414 29.7199 21.2369 29.3943 21.3941 28.9901C21.4221 28.9227 21.4727 28.861 21.5456 28.8329C21.5793 28.8161 21.6186 28.8105 21.6579 28.8105C21.6579 28.76 21.6579 28.715 21.6579 28.6645C21.6579 28.5017 21.6691 28.3501 21.6411 28.2098C21.6186 28.0807 21.6916 27.9459 21.8151 27.901C22.0902 27.7944 22.2081 27.3453 22.3428 26.8176C22.3709 26.7053 22.3989 26.593 22.4326 26.4807C22.6067 25.8632 22.8761 25.1334 23.4656 24.6955L23.3084 24.5776C23.1905 24.4878 23.1568 24.3194 23.241 24.1959L23.3308 24.0612C23.6003 23.6401 23.9708 23.0675 24.6276 23.1573C24.6389 23.1573 24.6501 23.1573 24.6613 23.1629C24.7175 23.0394 24.7904 22.8935 24.9196 22.7924C24.841 22.7756 24.768 22.7251 24.7287 22.6465C24.6613 22.5174 24.7006 22.3602 24.8241 22.2816C25.0543 22.13 25.2901 21.9616 25.5371 21.7819C25.9525 21.4788 26.3792 21.17 26.8507 20.9006C27.6647 20.429 28.4507 20.1932 29.057 20.1932L29.304 20.0753C29.8654 19.8003 30.3931 19.542 31.005 19.3568C31.8863 19.0761 32.6835 18.9694 33.5817 19.0199C33.6491 19.0199 33.7108 19.048 33.7558 19.0929C34.1094 19.1378 34.5529 19.2276 34.929 19.3287C35.4118 19.4859 35.7038 19.6543 35.8385 19.8508C36.1304 19.8732 36.383 19.8788 36.6132 19.8845C36.7535 19.8957 36.8771 19.8957 37.0006 19.9013C37.1914 19.9069 37.3823 19.9181 37.5788 19.935C38.23 20.0136 39.0047 20.1595 39.8749 20.6704C39.9534 20.7153 39.9984 20.7939 40.0096 20.8781C40.0489 20.8893 40.0938 20.9062 40.1331 20.9174C40.3969 21.0072 40.6271 21.0802 40.7169 21.1027C40.7394 21.1083 40.7675 21.1195 40.7899 21.1363C40.9527 21.2374 40.9864 21.3553 40.9864 21.4451C41.0818 21.4956 41.1885 21.5293 41.3064 21.5686C41.4355 21.6079 41.5646 21.6528 41.6937 21.7146C41.806 21.7707 41.8678 21.8942 41.8397 22.0289C42.0755 22.2254 42.3449 22.4275 42.6256 22.6409C42.9288 22.871 43.2544 23.1124 43.5744 23.3763C44.1975 23.8815 45.0452 24.6562 45.5336 25.4702C45.5785 25.5432 45.5841 25.633 45.5561 25.7116C45.9603 26.0653 46.2803 26.5481 46.4206 26.7783C46.6227 27.0983 46.7855 27.4239 46.9146 27.6877C47.1336 28.1256 47.2627 28.5859 47.156 29.0799C47.1785 28.9677 47.4592 29.428 47.4872 29.4785C47.6332 29.7536 47.6613 30.1466 47.6332 30.4778C47.6163 30.6743 47.2851 31.202 47.1785 31.3704C47.1167 31.4658 47.0718 31.5781 47.0943 31.6904C47.1167 31.8027 47.2122 31.9037 47.3244 31.8981C47.4086 31.8981 47.4816 31.8363 47.5209 31.7634C47.622 31.5949 47.6051 31.4771 47.7735 31.3479C47.9083 31.2469 48.0767 31.2188 48.1777 31.0729C48.3742 30.7809 48.4921 30.2813 48.509 29.9332C48.5146 29.7817 48.6493 29.6526 48.8009 29.6694C48.8009 29.6694 48.8121 29.6694 48.8177 29.6694C48.93 29.529 49.0254 29.3663 49.1152 29.2091C49.323 28.8498 49.5587 28.44 50.0528 28.3501C50.1201 28.3389 50.1875 28.3501 50.2436 28.3838C50.3896 28.3108 50.5131 28.2042 50.6478 28.0919L50.7713 27.9852C50.9397 27.8449 51.3776 27.4912 51.8604 27.8056C51.9952 27.8224 52.0625 27.8954 52.0962 27.9628C52.1018 27.9459 52.1074 27.9291 52.1074 27.9123C52.1636 27.6428 52.2702 27.3565 52.899 27.2891C52.9495 27.2891 52.9944 27.2891 53.0393 27.3116C53.6456 27.1039 54.353 26.913 54.9424 26.8007C54.9873 26.7895 55.0322 26.7951 55.0772 26.8063C55.4701 26.9298 55.9361 26.9242 56.475 26.9186C56.6546 26.9186 56.8343 26.9186 57.0195 26.9186C57.5865 26.9355 58.3556 27.0028 58.9732 27.306C59.0686 27.2667 59.1753 27.2611 59.2595 27.2554C59.2763 27.2554 59.2932 27.2554 59.31 27.2554C59.3942 27.2049 59.5009 27.2105 59.5907 27.2554C59.63 27.2779 59.6581 27.3116 59.6861 27.3453C59.7647 27.3509 59.8096 27.334 59.8658 27.3116C59.9163 27.2891 59.978 27.2667 60.0623 27.2498C60.1408 27.2386 60.2194 27.2611 60.2812 27.306C60.371 27.3789 60.6012 27.4295 60.7977 27.4744L60.9773 27.5137C61.2187 27.5642 61.4264 27.6035 61.578 27.6821C61.724 27.6821 61.9373 27.7775 62.2292 27.9235L62.3976 28.0077C62.5267 28.0694 62.5885 28.2266 62.538 28.3614C62.5267 28.3838 62.5211 28.4007 62.5043 28.4175C62.538 28.4231 62.566 28.4287 62.5997 28.44C62.6783 28.4568 62.7513 28.4736 62.8243 28.4905C63.1892 28.5635 63.6551 28.6589 64.1884 29.1249C64.2053 29.1417 64.2221 29.1585 64.2333 29.1754L64.3456 29.3326C64.4074 29.4224 64.4747 29.5122 64.5365 29.602C64.8621 29.6357 65.2045 29.9052 65.474 30.1185C65.5358 30.169 65.5919 30.2139 65.6312 30.242C65.6368 30.242 65.648 30.242 65.6536 30.242C65.7547 30.2701 65.8333 30.3431 65.8557 30.4441C65.867 30.4834 65.8782 30.5283 65.895 30.5676C65.9343 30.6799 65.9849 30.8202 65.9624 30.955C66.0803 31.0672 66.1813 31.1964 66.2712 31.3143C66.3891 31.2637 66.5294 31.303 66.6024 31.4097C66.8045 31.6848 66.9954 31.9262 67.1806 32.1451C67.2704 32.2462 67.3603 32.3472 67.4557 32.4426C67.5624 32.5549 67.669 32.6672 67.7588 32.7739C68.135 33.1893 68.483 33.6159 68.5841 34.1549C68.6009 34.2335 68.5841 34.3121 68.5336 34.3738C68.5223 34.385 68.5167 34.3963 68.5055 34.4075L68.5897 34.4973C68.5897 34.4973 68.6121 34.5198 68.6234 34.531C68.6683 34.4973 68.7188 34.4805 68.7806 34.4748C68.8704 34.4636 68.9602 34.5141 69.0163 34.5871C69.3476 35.0418 69.3588 35.3169 69.37 35.5415C69.3756 35.7267 69.3812 35.8559 69.589 36.1366C69.6226 36.1871 69.6451 36.2432 69.6451 36.305C69.6451 36.406 69.6114 36.6193 69.37 36.6867C69.4935 37.0011 69.4542 37.2874 69.4262 37.5119C69.4037 37.6804 69.3869 37.8151 69.4318 37.9217C69.4654 38.0003 69.4654 38.0846 69.4318 38.1575C69.4318 38.1688 69.4374 38.18 69.443 38.1912C69.4542 38.1912 69.4655 38.1912 69.4767 38.1912C69.6226 38.1912 69.7461 38.3035 69.7574 38.4495C69.7574 38.4944 69.7854 38.5337 69.8303 38.6066C69.9146 38.7526 70.0437 38.9715 69.9988 39.3533C70.0156 39.3814 70.0324 39.4038 70.0493 39.4263C70.0774 39.4038 70.111 39.3926 70.1447 39.3814C70.2795 39.3533 70.4198 39.4094 70.4703 39.5442C70.5489 39.7575 70.4703 40.0382 70.2851 40.1785C70.2682 40.1897 70.2514 40.201 70.2345 40.2122C70.2738 40.3132 70.3412 40.3694 70.4142 40.4368C70.6387 40.6389 70.8184 40.869 70.5882 41.4192C70.5658 41.4753 70.5265 41.5202 70.4759 41.5483C70.4872 41.6101 70.4928 41.6662 70.4928 41.7167C70.4928 41.8402 70.4254 41.9469 70.3188 41.9918C70.3749 42.0311 70.431 42.0816 70.4816 42.1602C70.5096 42.2051 70.5265 42.2556 70.5265 42.3062C70.5938 42.3679 70.6275 42.4521 70.6163 42.542C70.5994 42.7104 70.5882 42.8563 70.6163 43.0472C70.6387 43.1988 70.5377 43.3447 70.3861 43.3672C70.3468 43.3728 70.3075 43.3672 70.2682 43.3672C70.1391 43.6086 70.0381 43.8724 70.0998 44.2036C70.1279 44.3496 70.0381 44.4843 69.8977 44.5236C69.8023 44.5517 69.7012 44.5236 69.6283 44.4563C69.6058 44.5292 69.5665 44.591 69.5047 44.6359C69.4037 44.7089 69.297 44.7033 69.2241 44.6864C69.2297 44.7257 69.2521 44.7482 69.2746 44.7763C69.4318 44.9727 69.4654 45.1636 69.37 45.4668C69.37 45.4668 69.3812 45.4724 69.3869 45.478C69.4879 45.5622 69.5384 45.6969 69.4767 45.8148C69.3532 46.0506 69.2858 46.2639 69.2241 46.4716C69.1791 46.6232 69.1286 46.7804 69.0613 46.9432C69.1342 47.0779 69.123 47.2464 69.123 47.3306C69.1174 47.4541 69.0276 47.5607 68.9097 47.5888C68.876 47.6 68.8423 47.6 68.8086 47.5888C68.7749 47.6337 68.7413 47.6842 68.7132 47.7291C68.6627 47.8077 68.6121 47.8807 68.556 47.9537C68.5728 47.9986 68.5785 48.0491 68.5672 48.0997C68.5504 48.1783 68.4999 48.2512 68.4269 48.2905C68.3258 48.3467 68.2472 48.3747 68.1743 48.3635C68.163 48.3804 68.1518 48.3972 68.1406 48.414C67.9834 48.5993 68.0115 48.706 68.0564 48.9081C68.1125 49.1382 68.1911 49.4919 67.8206 49.868C67.7364 49.9859 67.5792 50.0589 67.3378 50.1768C67.3153 50.188 67.2929 50.1992 67.2704 50.2105C67.2929 50.2554 67.3097 50.3059 67.321 50.3677C67.3434 50.508 67.2536 50.6427 67.1132 50.682C66.6754 50.7999 66.5519 51.0469 66.3891 51.5578C66.2375 52.1136 66.0017 52.6806 65.328 53.023C65.2551 53.0623 65.1652 53.0623 65.0923 53.0286C64.98 53.2588 64.6432 53.6237 64.3119 53.6405C64.166 53.9661 63.9527 54.084 63.7113 54.2188C63.6158 54.2693 63.5148 54.331 63.3969 54.4152C63.3014 54.4826 63.1723 54.4826 63.0769 54.4152C63.06 54.4377 63.0432 54.4658 63.0264 54.4994C62.9871 54.5668 62.9422 54.6454 62.8748 54.7352C62.8186 54.8194 62.7176 54.8587 62.6166 54.8531C62.5492 54.8475 62.493 54.8138 62.4481 54.7689C62.4257 54.7689 62.3976 54.7689 62.3695 54.7801C62.2573 55.0833 61.9934 55.3471 61.7408 55.6054C61.5892 55.757 61.432 55.9141 61.3198 56.0657C61.2748 56.1275 61.2075 56.1668 61.1289 56.178C61.1064 56.178 61.084 56.178 61.0615 56.178C60.764 56.4643 60.3879 56.6832 60.0173 56.8909C59.6468 57.1043 59.2875 57.312 59.0349 57.5702C59.0518 57.5983 59.063 57.6207 59.0742 57.6488C59.1753 57.9239 58.9283 58.1428 58.6195 58.4235C58.5241 58.5077 58.3725 58.6481 58.3388 58.7042C58.2827 58.8053 58.1592 58.8726 58.0413 58.8502C58.03 58.8502 58.0244 58.8502 58.0132 58.8502C57.9739 58.9625 57.8897 59.0467 57.8279 59.1028C57.8167 59.114 57.7943 59.1309 57.783 59.1477C57.7662 59.2431 57.6932 59.3274 57.5978 59.361C57.3171 59.4565 57.1487 59.3554 57.0645 59.3049C57.0645 59.3049 57.0476 59.3105 57.0364 59.3217C57.0981 59.4003 57.1262 59.507 57.0925 59.5968C57.0476 59.7259 56.9297 59.8158 56.795 59.7877C56.6715 59.7652 56.3403 59.8494 56.0596 60.001C56.0483 60.0066 56.0315 60.0122 56.0203 60.0179C56.0315 60.0628 56.0315 60.1133 56.0203 60.1582C55.9978 60.248 55.9361 60.321 55.8519 60.3547C55.4196 60.5231 55.1894 60.787 54.9424 61.0677C54.8021 61.2305 54.6561 61.3989 54.4709 61.5392C54.4035 61.5897 54.3193 61.6066 54.2407 61.5897C54.2238 61.5897 54.207 61.5785 54.1902 61.5729C54.1789 61.6403 54.1396 61.702 54.0779 61.7413L53.7242 61.9995C53.6176 62.0781 53.4716 62.0669 53.3762 61.9827C53.3312 61.9434 53.2976 61.8873 53.2863 61.8311C53.1797 61.9266 53.0674 62.0388 53.0562 62.1006C53.1404 62.2297 53.1067 62.4038 52.9776 62.488C52.9046 62.5329 52.826 62.5441 52.7474 62.5273C52.5285 62.6339 52.2646 62.7799 52.0288 62.9146C51.6022 63.156 51.3215 63.3132 51.125 63.3581C50.979 63.5041 50.8106 63.6332 50.6647 63.7511C50.5468 63.8465 50.3727 63.9812 50.3054 64.0598C50.3615 64.1553 50.3615 64.2788 50.2942 64.3686C50.1594 64.5595 49.9124 64.6493 49.6766 64.7335C49.5587 64.7784 49.3454 64.8514 49.3061 64.9075C49.3342 64.9861 49.3398 65.0703 49.3005 65.1433C49.2612 65.2163 49.1995 65.2668 49.1152 65.2837C48.9019 65.3286 48.7167 65.3679 48.5875 65.2556C48.5482 65.3286 48.4921 65.424 48.4079 65.497C48.4304 65.598 48.3967 65.7047 48.3125 65.7777C48.2283 65.8507 48.1104 65.8619 48.0093 65.817C47.9083 65.7664 47.8353 65.8114 47.5658 66.0752C47.4535 66.1875 47.3244 66.311 47.1729 66.4177C47.2009 66.5131 47.1897 66.6141 47.1729 66.7152C47.1616 66.7994 47.1111 66.8668 47.0381 66.9117C47.0774 66.9959 47.0774 67.0913 47.0381 67.1755C46.982 67.2766 46.8697 67.3327 46.7574 67.3159C46.7574 67.3159 46.1455 67.2373 46.1399 67.2485C46.196 67.299 46.241 67.3608 46.2578 67.4506C46.3027 67.6471 46.2017 67.8492 46.0276 68.113C45.9659 68.2085 45.848 68.2534 45.7413 68.2365C45.7189 68.2702 45.702 68.3151 45.6796 68.3769C45.6122 68.5902 45.4943 68.9607 45.062 69.2246C45.0115 69.2583 44.9498 69.2695 44.8936 69.2639C44.8319 69.3425 44.7196 69.3874 44.6073 69.3649C44.5905 69.5109 44.5119 69.6737 44.2087 69.8028C44.1526 69.8253 44.0909 69.8309 44.0347 69.8196C44.0347 69.8253 44.0235 69.8365 44.0179 69.8421C44.0179 69.8589 44.0179 69.8758 44.0179 69.887C44.0347 70.0161 43.9617 70.1396 43.8382 70.1845C43.8158 70.1902 43.7933 70.1958 43.7765 70.2014C43.5912 70.4877 43.4116 70.7908 43.2207 71.1277C43.2207 71.1333 43.2207 71.1445 43.2207 71.1501C43.2263 71.2063 43.2207 71.2792 43.1982 71.3298C43.0467 71.6554 42.9456 71.9866 42.8951 72.3683C42.8839 72.4469 42.8783 72.5311 42.8726 72.6097C42.867 72.7164 42.7997 72.8118 42.6986 72.8511C42.6649 72.868 42.6256 72.8736 42.592 72.8736L42.62 72.868ZM67.7813 47.7348C67.7588 47.8583 67.7813 47.9144 67.7925 47.9369C67.8037 47.9481 67.8206 47.9537 67.8374 47.9593C67.8374 47.8863 67.8487 47.8134 67.8543 47.7516C67.8599 47.7123 67.8767 47.6674 67.8992 47.6337C67.8543 47.6562 67.815 47.6898 67.7813 47.7404V47.7348ZM69.8977 41.8571C69.9202 41.8851 69.9482 41.8907 70.0044 41.8964C69.9819 41.8683 69.9651 41.8346 69.9595 41.7953C69.9482 41.756 69.9426 41.7167 69.937 41.6774C69.937 41.6774 69.9314 41.6774 69.9258 41.6774C69.9258 41.7392 69.9146 41.7953 69.9033 41.8571H69.8977ZM70.0942 40.8971C70.0942 40.8971 70.1054 40.942 70.111 40.9645C70.1167 40.9645 70.1279 40.9588 70.1335 40.9532C70.1223 40.9364 70.111 40.9195 70.0942 40.9027V40.8971ZM47.1223 30.2645C47.1223 30.2645 47.1729 30.2701 47.1953 30.2813C47.2065 30.2645 47.2234 30.2532 47.2402 30.2364L47.229 30.2252C47.2009 30.2476 47.1672 30.2588 47.1279 30.2645H47.1223Z" fill="#EE588B"/>
</svg>
