<svg width="91" height="91" viewBox="0 0 91 91" fill="none" xmlns="http://www.w3.org/2000/svg">
<path d="M69.6312 33.527C69.4154 33.0879 69.2368 32.8498 69.0582 32.6266C68.9243 32.4406 68.7829 32.262 68.6043 32.0015C68.5671 31.9122 68.5299 31.8155 68.4927 31.7262C68.5522 31.6072 68.8201 31.9346 68.8201 31.9346C68.7234 31.4583 68.5597 31.1235 68.2992 30.7514C68.396 30.8109 68.4034 30.6993 68.4183 30.5356C68.2397 30.2156 68.1058 30.4166 67.9644 29.9552C68.0686 29.9924 68.2546 30.0222 68.396 30.1487C68.143 29.7915 67.8007 29.4864 67.5253 29.1292C67.5774 28.9655 67.823 29.2706 67.9718 29.3673C67.6742 28.9506 67.2277 28.2884 66.9821 28.2586L67.0789 28.5711C66.9821 28.4149 67.1756 28.4 67.2723 28.4967C67.6146 28.7944 67.5179 29.0697 67.4658 29.1292L67.2723 28.8762C67.0491 29.3748 67.9867 29.9254 68.2174 30.5282L67.9123 30.4463C67.2351 29.0771 66.3943 27.7154 65.36 26.3685C65.3451 26.3536 65.3376 26.3388 65.3228 26.3164C65.4344 26.2718 65.5534 26.2346 65.6427 26.1751C65.6427 26.2197 65.665 26.2792 65.7246 26.3462H66.0222L65.7469 26.0634C65.7469 26.0634 65.7469 26.0634 65.7395 26.0634C65.8139 25.9295 65.8064 25.7137 65.5981 25.2821L64.9879 24.8654L64.973 24.5826L65.36 25.0366C65.2632 24.6719 65.0251 24.5975 64.7944 24.471C64.8242 24.3668 64.8093 24.2552 64.7423 24.1213C64.5191 24.0097 64.2661 23.9129 64.028 23.8162C64.0652 23.6599 64.4447 23.8683 64.1694 23.4739C63.8345 23.34 64.1694 23.9055 63.7154 23.5781C63.5964 23.2209 63.7527 23.206 63.388 23.0051C63.4104 22.9009 63.5145 22.9232 63.6485 23.0125C63.3285 22.8191 62.9639 22.3503 62.6886 22.3652C62.5546 21.9857 61.751 21.5913 61.9891 21.368C61.8626 21.3383 61.3343 21.1522 61.0515 20.9736C61.7733 21.0332 60.0618 20.1998 60.4041 19.9691C60.1065 19.9988 59.7195 19.8203 59.3028 19.6119C58.8935 19.3961 58.3726 19.2398 57.9559 19.1729C58.008 19.1654 58.1122 19.1431 58.1792 19.1878C57.755 18.9794 57.636 18.8678 57.3309 18.7338C57.1969 19.0092 56.4603 18.8827 56.051 19.091C55.4706 18.7934 56.423 18.7636 56.2593 18.4883C56.2593 18.719 55.1804 18.6966 55.4036 18.8975C54.9348 18.7785 55.0092 18.8678 54.7339 18.6669C54.719 19.0538 54.2949 18.7562 53.9972 19.1208C53.3201 19.1803 53.7144 18.8529 53.0671 19.225C52.8885 19.2622 52.9331 19.1729 53.015 19.0687C53.1117 18.9794 53.2605 18.8901 53.2605 18.8901C52.5387 19.1878 53.0447 19.2845 52.9629 19.4854C52.2411 19.9765 52.509 19.5077 52.1741 19.5375C51.7351 19.9021 51.5788 20.3709 51.2588 20.6016C51.2068 20.5867 51.1398 20.6314 51.1695 20.5272C51.043 20.8025 50.7454 21.0927 50.4552 21.3978C50.1947 21.7252 49.9269 22.0675 49.8376 22.3875C49.7929 22.4098 49.7557 22.4172 49.7334 22.4098C49.8971 22.4098 50.0236 22.4842 50.0906 22.5586C49.9194 22.8042 49.912 23.1093 49.6962 23.1018C49.8078 22.953 49.7557 22.9009 49.7632 22.7967L49.6441 23.1018C49.272 23.1911 49.8227 22.7 49.6664 22.5884C49.5176 22.8712 49.3837 23.1837 49.2497 23.4739C49.1307 23.7715 49.0116 24.0394 48.8553 24.2255C48.5874 24.1808 49.3539 23.2358 48.8404 23.6599C48.9893 23.4665 49.153 23.273 49.3241 23.0944C48.6693 23.34 49.6069 22.7372 48.9595 22.9307C48.6395 23.3176 48.5502 23.5781 48.4237 23.8311C48.3047 24.0841 48.1931 24.3296 47.9401 24.7463C47.9624 25.0068 48.1559 24.7835 48.1782 25.0366C47.7764 26.3462 47.1364 25.7211 47.0099 26.7778C47.062 27.0829 47.315 27.2987 46.8908 27.8865L46.7197 27.5591C46.3476 28.4074 46.9057 28.1991 46.3849 29.0325C46.3402 28.8316 46.556 28.3256 46.4741 28.4446C46.05 28.9581 46.4593 28.9134 46.303 29.3673H46.0351C45.7449 30.3198 45.5961 31.4062 45.3505 32.4554C45.2984 32.381 45.2687 32.1801 45.1273 32.4034C45.0082 33.0805 44.8148 33.78 44.6064 34.472C44.4948 34.8143 44.3906 35.1641 44.2864 35.4989C44.2343 35.6701 44.1822 35.8338 44.1227 35.9975L44.0409 36.243C44.0185 36.3174 43.9813 36.4291 43.9739 36.4291C44.0334 36.496 44.0855 36.5928 44.1376 36.7044C44.1227 36.7565 44.0334 36.7267 44.0037 36.6523C43.9069 36.7118 44.1227 36.7565 44.1822 36.9053C44.1748 37.0392 44.0557 36.9053 44.0111 36.7862C44.0483 36.8979 44.0706 37.069 44.0855 37.2848C44.0185 37.3294 43.8548 37.2327 43.6986 37.1211C43.6167 37.0616 43.5423 36.9946 43.4828 36.9276C43.386 36.8309 43.2149 36.6597 43.1256 36.5332L43.3116 36.6002C42.7907 36.0644 42.374 36.4514 41.9499 35.8784L42.0764 35.9231C40.8486 34.8813 39.271 34.0479 38.3855 33.1326C38.0209 33.2814 37.0833 32.1727 36.7708 32.5224C36.049 31.9122 36.3392 31.942 35.2081 31.2351C34.8882 31.0714 34.6128 31.2649 34.1961 31.1384L34.278 30.9226C34.0622 30.9226 33.8613 30.9002 33.6455 30.9151L33.4446 30.5579L33.0353 30.4761C33.1841 30.5431 33.3329 30.6844 33.2883 30.744C32.9683 30.6844 32.6112 30.5207 32.3358 30.3496C32.0531 30.2008 31.8373 30.0519 31.8447 29.9924C31.3238 29.9254 30.8104 29.851 30.2746 29.8659C30.3193 29.7766 30.5871 29.784 30.8104 29.7617C29.9323 29.8733 30.6913 29.5013 29.8877 29.6055C29.9844 29.6724 29.8207 29.732 29.7984 29.7766C29.6198 29.6724 29.2998 29.6278 28.9426 29.6129C28.5855 29.598 28.1985 29.598 27.8637 29.6873L27.9753 29.5162C26.74 29.5459 25.356 30.1338 24.2398 31.0044C24.7011 30.7663 24.7532 31.0639 24.4481 31.3095L24.1654 31.2128C24.0612 31.4955 24.5449 31.0193 24.2547 31.4955C23.8752 31.8155 23.8231 31.5327 23.9942 31.2649L23.5924 31.7634C23.5105 31.7411 23.5924 31.6071 23.5552 31.5179C23.451 31.7709 22.6399 32.2024 22.6176 32.6564L22.5357 32.6415C22.1786 33.2293 21.933 33.6758 21.7842 34.1074C21.6056 34.5315 21.4865 34.9334 21.3303 35.4468C21.5163 35.5287 21.3377 35.9082 21.4419 36.2579C21.1889 36.9797 20.8689 37.7908 20.7945 38.7061C20.8317 39.3535 20.9508 38.907 21.0475 39.2046C20.8391 39.2344 20.8168 40.1422 20.7052 39.666C20.6829 40.7598 20.6829 41.0649 20.8763 42.4267C20.9433 42.2779 20.9656 42.1067 21.0401 42.196C21.0847 42.4416 20.9954 42.7615 20.8987 42.7318L20.8763 42.6648C21.2261 44.153 20.6606 46.2515 21.2931 47.39L21.2633 47.323C21.3972 47.7248 21.5535 48.1192 21.7172 48.5136C21.8065 49.0866 21.5014 48.2011 21.4791 48.6475C22.0744 49.9051 21.9404 50.7534 22.4613 51.7654C22.3125 52.264 22.5655 52.9932 22.8706 53.7522C23.0417 54.1317 23.2203 54.5261 23.3692 54.8907C23.5329 55.2553 23.6742 55.5902 23.7338 55.9102L23.8156 55.7911C24.0686 56.0069 23.9198 56.1632 23.9942 56.3864C24.0686 56.312 23.9421 56.0292 24.091 56.1632C25.4825 58.3732 26.993 60.747 28.9426 62.6147C29.6644 63.2844 29.7835 62.4808 30.5351 63.4779L30.1109 63.4481C31.8075 64.4527 33.3255 65.8368 35.0891 66.5883C34.9626 66.5809 34.9254 66.6404 34.7617 66.5511C35.0221 66.9008 36.0416 67.3027 36.116 67.1687C36.369 67.325 36.116 67.3176 36.235 67.4664C36.5401 67.7491 37.2321 67.7417 37.3363 67.9947C37.3512 68.0245 37.2768 68.0096 37.2098 67.9947C37.5298 68.0989 38.2069 68.5156 38.0804 68.2477C38.6683 68.657 39.3455 68.7463 39.7994 69.1035C40.231 69.0439 40.8635 69.6913 41.1016 69.4457C40.923 69.736 42.1433 70.175 42.6196 70.1899C42.441 70.2271 42.947 70.428 42.7312 70.495C43.2074 70.6735 43.6688 70.7852 43.6465 70.5917C44.3906 71.2986 45.5291 70.934 45.8565 71.5814C47.3448 71.8939 48.7214 72.1841 50.0534 72.4669C49.9194 72.7794 48.5949 72.0948 48.5577 72.4446C49.8376 72.6752 50.6263 72.5934 51.8541 72.9729C52.1667 73.0919 51.6384 73.0696 51.5119 73.0994C51.7351 73.1292 51.8988 73.1515 52.1518 73.2036C52.4792 73.2705 52.8066 73.3375 53.1266 73.397C53.3796 73.1664 53.6326 72.9357 53.8782 72.705C54.0493 72.5413 54.1832 72.4148 54.3246 72.266C54.6074 71.9832 54.8678 71.6856 55.0985 71.3656C55.1208 71.3879 55.0539 71.4995 54.9869 71.6037C55.1432 71.4326 55.3887 71.2614 55.2622 71.1721L55.1357 71.3581C54.7265 71.4623 55.4334 70.3982 55.3738 70.2866C55.4259 70.867 56.2296 69.5425 56.2073 70.361C56.2891 70.2345 56.3635 70.0485 56.2668 70.0038C56.4379 69.8625 56.5272 69.855 56.4603 70.0931C56.9514 69.4457 56.6388 69.5425 57.13 69.0067C57.182 69.0588 57.1076 69.1853 57.1151 69.2969C57.2565 68.9249 57.4053 68.5602 57.8518 68.1286C57.8592 68.1882 57.9485 68.1659 57.8294 68.3072C58.514 67.4887 58.7224 66.6925 59.5558 65.8814C59.5856 66.3502 59.8832 65.6358 60.1362 65.7623L60.4636 65.2191L60.2032 65.3308C60.5529 64.9066 60.6794 64.3932 61.0366 64.0732L60.8803 64.4676L61.4608 63.6193L61.0292 64.0211C61.2524 63.4928 60.7166 63.8648 61.2152 63.3216C61.1482 63.4556 61.5352 62.8826 61.8328 62.7486C61.9221 62.4808 62.0114 62.2054 62.2942 61.9152C62.4281 61.878 62.4951 62.1608 62.5844 62.1385C62.5472 61.7887 63.2541 61.0372 63.2392 60.6279C63.2243 60.7544 63.3434 60.8363 63.388 60.8214L63.3583 60.5312C63.5443 60.3526 63.5889 60.3377 63.6634 60.4344C64.1024 59.8094 63.2392 60.4493 63.8568 59.7647C63.8345 59.8317 63.8717 59.8168 63.8196 59.9582C64.3852 59.2364 64.6456 58.403 65.1516 57.7333C65.5162 57.6589 64.8391 58.3955 65.1814 58.269C65.479 57.7407 65.7097 57.1529 65.9404 56.5724C66.1859 55.9995 66.424 55.4265 66.6994 54.9205L66.5729 55.0991C66.2901 54.7791 67.1384 54.407 67.2203 53.7894C67.1905 53.9308 67.3393 54.0499 67.317 53.9978C67.6816 53.2834 67.9272 52.4723 68.2323 51.2892L68.2695 51.4678C68.515 51.0585 68.7829 50.3293 68.9689 49.853C68.9243 49.6744 69.0285 49.4065 68.835 49.5256C69.3559 48.8708 69.5121 48.1192 69.594 47.39C69.6461 47.0254 69.6833 46.6682 69.7652 46.3259C69.8247 45.9761 69.9214 45.6413 70.1074 45.3139C70.0777 45.4776 70.1223 45.7231 70.1447 45.5892L70.2786 44.3986C70.0926 44.4656 70.1447 44.54 69.9735 44.7632C69.8991 44.5995 69.8917 44.2572 69.9214 43.967C69.9735 44.5102 70.1893 44.0042 70.3158 43.781C70.2563 43.8107 70.2116 43.7289 70.1595 43.7363C70.5316 43.1559 69.8321 43.595 70.1298 42.7764L70.2116 42.8285C70.2116 42.5085 70.1223 42.2109 70.1521 41.876C70.353 41.7495 70.234 42.2183 70.3902 42.2555C70.3977 41.7719 70.0554 41.2882 70.2712 40.864C70.3158 41.0649 70.3084 41.3626 70.353 41.5709C70.606 41.1096 70.5465 41.0501 70.5986 40.6929V40.7301C70.6432 40.4548 70.6804 40.1869 70.6953 39.9115L70.6432 40.1199C70.0926 39.5246 70.5167 38.8847 70.1074 38.1108C70.4944 38.8623 70.3084 38.2224 70.539 38.2596C70.5762 38.0438 70.5986 37.7238 70.673 37.8057C70.4423 37.4411 70.7251 37.136 70.3977 36.63C70.4646 36.5928 70.353 36.2133 70.539 36.2728C70.3902 35.7817 70.4423 36.4142 70.3381 36.3844C70.1595 36.0198 70.1149 35.5733 70.0702 35.0673C70.0256 34.5688 69.9586 34.0181 69.6015 33.5419L69.6312 33.527ZM68.329 30.9077C68.3216 30.997 68.2769 31.0714 68.2174 31.0937C68.1355 30.9151 68.0462 30.7291 67.9569 30.5505L68.329 30.9151V30.9077ZM45.4993 32.1578C45.4845 32.2248 45.4621 32.3141 45.4249 32.4703C45.4547 32.3438 45.4845 32.2322 45.4993 32.1578ZM45.2463 33.1772C45.3282 33.1549 45.3877 33.2144 45.3505 33.3409C45.3208 33.2591 45.2017 33.5419 45.0975 33.713C45.1422 33.5642 45.1942 33.3707 45.2463 33.1698V33.1772ZM69.5121 46.9435C69.4601 46.9435 69.4005 46.9435 69.3485 46.9212C69.3857 46.7872 69.4154 46.6533 69.4452 46.5119C69.5047 46.564 69.5419 46.6756 69.5121 46.9435ZM69.3931 34.3009C69.3484 34.1446 69.2964 33.9883 69.2517 33.8246C69.3112 33.8544 69.3931 33.9214 69.5121 34.0925C69.4749 34.1595 69.4377 34.2339 69.3931 34.3009Z" fill="#F276A0"/>
</svg>
