<svg width="91" height="91" viewBox="0 0 91 91" fill="none" xmlns="http://www.w3.org/2000/svg">
<path d="M24.0395 74.0156C23.9209 74.0156 23.7944 74.0077 23.66 73.984C23.0039 73.8812 22.3557 73.3911 22.0632 72.9564C21.7312 72.4267 21.6442 72.0868 21.6126 71.8812C21.5731 71.5729 21.6363 71.3516 21.7233 71.1935C21.5968 70.8378 21.5178 70.49 21.4308 70.1579L21.3597 69.8733C21.328 69.7548 21.328 69.6283 21.3597 69.5176C21.3122 69.3595 21.3122 69.1856 21.3597 69.0354C21.3439 68.8931 21.3201 68.6876 21.2964 68.5295C21.2885 68.4663 21.2806 68.3951 21.2727 68.3319C21.2174 68.2528 21.1699 68.1658 21.1383 68.071C20.8537 67.0749 20.9249 66.3002 20.9881 65.6204C21.0276 65.1935 21.0672 64.822 21.0039 64.4346L20.7747 63.6441C20.7193 63.4544 20.7431 63.2489 20.83 63.075C20.7352 62.7588 20.6719 62.4505 20.7035 61.8181C20.7984 60.6876 20.8221 59.5572 20.8458 58.3635C20.8774 56.7746 20.9091 55.1383 21.1383 53.5493C21.1067 53.4308 21.1067 53.2964 21.1383 53.1699C21.1541 53.1067 21.1699 53.0434 21.1936 52.9802C21.4624 51.9525 21.4782 51.1067 21.494 50.2213C21.5099 49.2016 21.5257 48.1502 21.9525 46.9091C21.9763 46.8379 22.0079 46.7747 22.0474 46.7194C22.079 46.6008 22.1185 46.4822 22.1818 46.3873C22.1818 46.0474 22.2529 45.6205 22.3478 45.0514C22.3873 44.8221 22.4268 44.6087 22.4427 44.4348C22.4585 44.2846 22.5217 44.1502 22.6087 44.0395C22.6403 43.336 22.8221 42.4901 23.0039 41.668C23.0593 41.415 23.1146 41.1621 23.162 40.9328C23.1936 40.7668 23.2806 40.6166 23.4071 40.5059C23.4703 40.419 23.5415 40.2767 23.6284 40.1186C23.6758 40.0316 23.7312 39.9368 23.7865 39.8419C23.7707 39.8024 23.7549 39.755 23.7391 39.6996C23.6126 39.502 23.5889 39.257 23.66 39.0356C23.6838 38.9566 23.7154 38.8617 23.747 38.7589C23.8893 38.2767 24.0079 37.8973 24.2055 37.6443C24.2529 37.5178 24.3083 37.3992 24.3715 37.2649C24.411 37.0672 24.4743 36.8933 24.5533 36.7194C24.5928 36.6324 24.6482 36.5534 24.7193 36.4823C24.8774 36.0317 25.0039 35.4467 25.1067 34.9566C25.1462 34.7827 25.1778 34.6167 25.2094 34.4744C25.2885 34.1423 25.5652 33.8973 25.8972 33.8657C25.9762 33.676 26.079 33.4783 26.1976 33.2649C26.245 33.1858 26.3003 33.1147 26.3715 33.0515C26.3478 32.8775 26.3873 32.7036 26.4743 32.5455C26.5454 32.4269 26.6403 32.3321 26.7588 32.2689C26.8853 32.1266 27.1383 31.7392 27.241 31.4862C27.249 31.4388 27.2569 31.3993 27.2648 31.3598C27.3201 31.0198 27.3912 30.8143 27.7074 30.2926C27.7707 30.1898 27.8497 30.1107 27.9367 30.0475C27.9999 29.8578 28.079 29.6602 28.2845 29.3914C28.3161 29.3519 28.3478 29.3123 28.3794 29.2728C28.4189 29.2254 28.4663 29.1859 28.5138 29.1543C28.6403 28.9013 28.6719 28.7827 28.7509 28.5297L28.8458 28.2056C28.909 28.0001 29.0513 27.8341 29.2331 27.7392C29.494 27.257 29.7944 26.7748 30.1027 26.4507C30.2371 26.0713 30.6719 25.4705 31.8497 24.3717C31.913 24.3084 31.9841 24.261 32.0631 24.2294C32.8062 23.3756 33.7232 22.7274 34.6165 22.1029L35.0434 21.8025C35.2015 21.6918 35.3912 21.6365 35.5809 21.6602C35.6204 21.6049 35.6521 21.5496 35.6995 21.4705C35.8734 21.178 36.1185 20.7749 36.6876 20.4587C36.8062 20.3875 36.9406 20.3559 37.0671 20.3559C37.9841 19.8183 38.5611 19.5891 39.5018 19.2255C39.6283 19.178 39.7706 19.1622 39.8971 19.1859C40.0236 19.1227 40.1501 19.0673 40.2765 19.012C40.4267 18.9409 40.569 18.8776 40.7034 18.8144C40.8299 18.7511 40.9643 18.7195 41.0987 18.7274C41.3279 18.7432 41.9208 18.593 42.482 18.4508C42.7508 18.3796 43.0354 18.3085 43.3358 18.2373C44.49 17.9923 45.4386 17.9211 46.2054 18.016C46.3556 17.8816 46.5453 17.7946 46.7587 17.8104C47.9998 17.8421 48.6876 17.9922 49.0986 18.3401C49.2646 18.3559 49.4464 18.3796 49.6283 18.435C49.8259 18.3401 50.063 18.3243 50.2765 18.4112C51.1065 18.7433 52.3002 19.3203 53.2725 20.1661C54.0867 20.8697 54.7587 21.7472 55.0512 22.4902C55.6045 23.2728 56.0235 24.0001 56.3555 24.7669C56.7745 25.7392 57.0037 26.6483 57.0749 27.6286C57.0749 27.7234 57.0749 27.8183 57.0432 27.9052C57.0432 28.4033 57.0195 29.4309 56.6954 29.9843C56.6954 30.1898 56.6954 30.3953 56.6954 30.5851C56.7112 31.5732 56.7349 32.506 56.2844 33.842C56.2527 33.9447 56.1974 34.0317 56.1342 34.1107C56.1342 34.1107 56.1342 34.1107 56.1342 34.1186C56.1816 34.1186 56.229 34.1186 56.2764 34.1186C56.5373 33.9684 56.8614 33.8815 57.1618 33.8103C57.2013 33.8024 57.2408 33.7866 57.2804 33.7787C57.4227 33.6918 57.5887 33.6602 57.7626 33.676C57.9523 33.6918 58.1499 33.7155 58.3318 33.7708C58.395 33.7629 58.4582 33.755 58.5215 33.7471C58.6401 33.6443 58.7982 33.5811 58.9642 33.5653C59.4306 33.5337 59.8337 33.4704 60.2053 33.4151C60.9958 33.2965 61.7389 33.1937 62.6321 33.3677C62.6954 33.3835 62.7586 33.3993 62.8139 33.4309C62.9404 33.3519 63.0906 33.3123 63.2566 33.3281C63.9523 33.3677 64.3001 33.5099 64.6084 33.6364C64.806 33.7234 64.9799 33.7945 65.3041 33.8499C65.3831 33.8657 65.4621 33.8894 65.5333 33.9289C65.7625 34.0475 65.8969 34.1977 65.9839 34.34C66.474 34.5455 66.8376 34.8617 67.138 35.1305C67.2566 35.2333 67.3673 35.336 67.4858 35.4151C67.557 35.4625 67.6123 35.5178 67.6598 35.5811C67.8416 35.6127 68.0234 35.7076 68.1499 35.8657C68.1815 35.8973 68.1973 35.9131 68.2685 35.9684C68.4582 36.1107 68.6479 36.2688 68.8692 36.5929C69.059 36.6246 69.2329 36.7194 69.3593 36.8933C69.3593 36.8933 69.6756 37.3439 69.6756 37.8182C69.7783 37.9921 69.81 38.0158 69.8179 38.0317C70.1894 38.3479 70.308 38.7273 70.4028 39.3676C70.4186 39.4704 70.4107 39.5731 70.3949 39.668C70.3949 39.6759 70.3949 39.6917 70.3949 39.6996C70.4186 39.7866 70.4424 39.8656 70.4582 39.9447C70.4898 40.1028 70.4819 40.2609 70.4265 40.4032C70.4661 40.4664 70.5056 40.5376 70.5372 40.6166C70.5688 40.6878 70.5846 40.7589 70.5925 40.8301C70.64 40.9328 70.6637 41.0435 70.6637 41.17C70.6637 41.3676 70.6716 41.5573 70.6874 41.7787C70.6874 41.834 70.6953 41.8973 70.6953 41.9526C70.6953 42.1502 70.6321 42.3399 70.5056 42.4822C70.5056 42.4901 70.5056 42.5059 70.5056 42.5138C70.4265 42.9091 70.3475 43.3202 70.3317 43.7628C70.3238 44.0237 70.1894 44.253 69.9918 44.3874C69.9364 44.5217 69.8653 44.6403 69.7388 44.7352C69.7388 44.751 69.7388 44.7589 69.7388 44.7668C69.802 45.0198 69.7862 45.2411 69.636 45.6759C69.6677 45.8261 69.6518 45.9921 69.5886 46.1423C69.4858 46.3715 69.4068 46.585 69.3277 46.7747C69.1855 47.1383 69.0511 47.4624 68.8614 47.8182C68.8376 48.0158 68.7744 48.1897 68.7349 48.2846C68.6716 48.4585 68.5451 48.5929 68.4028 48.6798C68.3633 48.7351 68.3238 48.8063 68.2764 48.8695C68.2052 48.9723 68.1341 49.083 68.0629 49.1857C68.0313 49.3359 67.9602 49.4782 67.8574 49.5889C67.7862 49.66 67.723 49.7154 67.6519 49.7628C67.6361 49.7944 67.6123 49.8261 67.5886 49.8577C67.3594 50.166 67.3119 50.3083 67.2487 50.5138C67.1617 50.7984 67.0511 51.1541 66.6163 51.6758C66.5372 51.7944 66.3554 51.9367 66.1025 52.1422C66.0629 52.1739 66.0234 52.2055 65.9839 52.2371C65.976 52.2924 65.9523 52.3557 65.9285 52.4189C65.8653 52.5691 65.7625 52.7035 65.6281 52.7984C65.4542 52.917 65.2961 53.075 65.0985 53.3043C64.9009 53.5256 64.7191 53.7707 64.5373 54.0316C64.1499 54.6007 63.6361 55.2727 62.8377 55.8339C62.7665 55.8893 62.6875 55.9209 62.6005 55.9446C62.4661 56.1027 62.0393 56.5691 61.5491 56.743C61.1697 57.1541 60.9246 57.328 60.4582 57.6284L60.2606 57.7628C60.1578 57.826 60.0472 57.8655 59.9365 57.8813C59.9128 57.9051 59.8891 57.9288 59.8574 57.9525C59.7784 58.0236 59.6993 58.1027 59.5887 58.1975C59.4385 58.3319 59.2567 58.3952 59.0669 58.3952C58.7586 58.7035 58.3318 59.0118 57.8812 59.3438C57.6756 59.494 57.4701 59.6442 57.2804 59.7944C57.1855 59.8655 57.0748 59.9208 56.9642 59.9446C56.4266 60.2924 55.8733 60.6007 55.3832 60.8536C54.8772 61.1066 54.4741 61.3279 54.1342 61.5493C53.9761 61.8576 53.5808 62.0868 53.1302 62.3477C52.9247 62.4663 52.7192 62.5769 52.6243 62.656C52.5057 62.7509 52.3555 62.8141 52.2053 62.822C52.1105 62.9011 51.9998 62.9801 51.8575 63.0592C51.8259 63.075 51.7864 63.0987 51.7626 63.1145C51.6757 63.1936 51.5808 63.2568 51.4702 63.2963C51.3832 63.328 51.1935 63.3912 50.9642 63.3754C50.8219 63.6204 50.5532 63.7548 50.2765 63.7706C50.2211 63.7785 49.8891 63.8734 49.5334 64.0157C49.5097 64.0236 49.4781 64.0394 49.4543 64.0473C49.3595 64.1738 49.233 64.2766 49.0749 64.324C48.5295 64.5137 48.0788 64.7588 47.6441 64.9959C47.3674 65.1461 47.0986 65.2884 46.8298 65.4149C46.7192 65.4623 46.6085 65.4939 46.482 65.486C46.4188 65.5414 46.3476 65.5888 46.2844 65.6125L45.7469 65.8418C45.565 65.9129 45.3753 65.9208 45.2014 65.8655C45.1303 65.8971 45.0749 65.9366 45.0275 65.9603C44.8852 66.1896 44.6323 66.3319 44.3556 66.3319C44.0947 66.4188 43.7785 66.5216 43.4781 66.6244C42.8536 66.8378 42.4584 66.9722 42.1817 67.0275C41.8971 67.1619 41.5967 67.2805 41.32 67.3833C41.1382 67.4544 40.909 67.5414 40.7746 67.6046C40.7034 67.6995 40.6085 67.7864 40.49 67.8418C40.2212 67.9761 39.9208 68.0473 39.6283 68.1105C39.4702 68.1501 39.2093 68.2054 39.1066 68.2607C38.9801 68.4109 38.8062 68.5137 38.6086 68.5453C38.4821 68.5611 38.2766 68.5927 38.071 68.5611C37.9683 68.6164 37.8497 68.6718 37.7232 68.7192C37.5256 68.9247 37.2252 69.0038 36.9643 68.9326C36.8378 68.9722 36.6244 69.0512 36.4821 69.1145C36.2529 69.2014 36.0157 69.2963 35.7627 69.3753C35.6521 69.4939 35.5256 69.573 35.4623 69.6204C35.3754 69.6757 35.2805 69.7153 35.1778 69.739C34.9959 69.9524 34.7114 70.0552 34.4189 69.9998L34.0868 69.9287C33.905 70.2054 33.5572 70.3556 33.1224 70.5453C32.996 70.6006 32.8695 70.6164 32.743 70.6085C32.6956 70.6402 32.6165 70.6797 32.5533 70.7113C32.2292 70.8773 31.7944 71.0986 31.1778 71.233C31.1066 71.2488 31.0355 71.2568 30.9723 71.2488C30.8616 71.2884 30.743 71.3042 30.6244 71.2884C30.4347 71.3911 30.2371 71.4781 29.8655 71.5255C29.7944 71.5334 29.7311 71.5334 29.66 71.5255L29.5019 71.6125C29.3675 71.6994 29.2094 71.7469 29.0592 71.739C27.7628 72.1975 26.4584 72.656 25.1541 73.0986C25.1699 73.1777 25.1699 73.2567 25.1541 73.3358C25.0751 73.8022 24.6719 74.0709 24.0711 74.0709L24.0395 74.0156ZM66.8851 48.0079C66.8851 48.0079 66.8693 48.0237 66.8535 48.0237C66.8614 48.0237 66.8693 48.0158 66.8851 48.0079ZM30.5138 27.4546C30.5849 27.5021 30.656 27.5258 30.7193 27.5495C30.6481 27.5258 30.577 27.4942 30.5138 27.4546ZM31.0276 26.0001C31.0276 26.0001 31.0908 26.008 31.1224 26.0159C31.0908 26.0159 31.0592 26.0001 31.0276 26.0001Z" fill="#EE588B"/>
</svg>
