<svg width="91" height="91" viewBox="0 0 91 91" fill="none" xmlns="http://www.w3.org/2000/svg">
<path d="M57.7473 72.7378C57.4819 72.7245 57.3027 72.625 57.17 72.5255C57.1501 72.5255 57.1369 72.5122 57.1302 72.5056C57.0771 72.5056 57.0241 72.5056 56.9776 72.4857C56.8383 72.4525 56.6326 72.353 56.5065 72.0876C56.4534 72.0146 56.4136 71.8885 56.407 71.7558C56.407 71.7757 56.3937 71.7293 56.3871 71.6762C56.3738 71.6165 56.3539 71.5369 56.334 71.4572C56.2942 71.2914 56.2544 71.1321 56.2345 70.9994C56.2013 70.7473 56.1482 70.2895 56.3871 69.9577C56.334 69.8847 56.2677 69.7918 56.2079 69.7056C56.1416 69.6127 56.0752 69.5264 56.0155 69.4335C55.9691 69.3605 55.9359 69.2809 55.916 69.2013C55.8364 69.1018 55.7899 68.9757 55.7833 68.8496C55.7435 68.7833 55.6838 68.7103 55.624 68.6241C55.5511 68.6041 55.4781 68.571 55.4184 68.5312C55.1397 68.3454 54.9008 68.1264 54.7018 67.8676C54.5359 67.7018 54.3766 67.4828 54.2705 67.3302L54.2041 67.2373C54.1046 67.098 54.025 66.9719 53.9321 66.8591C53.8724 66.7928 53.7596 66.7198 53.6269 66.6534L53.0894 66.5074C52.9169 66.4544 52.7776 66.3416 52.6913 66.189C52.4724 66.1425 52.2136 66.0496 51.8686 65.7842C51.4041 65.406 51.006 65.1539 50.6079 64.9681C50.1103 64.7292 49.606 64.4837 49.1084 64.298C48.1662 63.9795 47.2306 63.6212 46.4278 63.3093C46.2951 63.3159 46.1624 63.2894 46.0429 63.2231L45.9434 63.1633C45.2069 62.7387 44.5567 62.6458 43.9728 62.606H43.86C43.1102 62.5463 42.3339 62.4932 41.4514 62.0553C41.3983 62.0287 41.3519 61.9956 41.3054 61.9557C41.2391 61.9292 41.1661 61.896 41.0931 61.843C40.8476 61.8363 40.5756 61.7766 40.2637 61.7169C40.005 61.6638 39.8125 61.624 39.6599 61.6107C39.514 61.5975 39.3813 61.5377 39.2751 61.4448C38.9632 61.4249 38.6514 61.3652 38.3727 61.2989C37.8685 61.1861 37.331 61.0335 36.8666 60.9008C36.694 60.8477 36.5481 60.7282 36.4618 60.569C36.4087 60.5292 36.3357 60.4761 36.2362 60.3965C36.1964 60.37 36.1632 60.3368 36.1234 60.3036C36.1035 60.3102 36.077 60.3169 36.0571 60.3302C36.0239 60.3567 35.9841 60.3766 35.9443 60.3965C35.7651 60.4761 35.5594 60.4761 35.3803 60.3965C35.3272 60.37 35.2542 60.3368 35.1746 60.3102C34.8229 60.1643 34.5244 60.0382 34.3319 59.8325C34.2457 59.7861 34.1594 59.733 34.0665 59.6733C33.9139 59.6202 33.768 59.5538 33.6419 59.4676C33.5689 59.4145 33.5092 59.3548 33.4627 59.2818C33.1907 59.1557 32.8191 59.0562 32.5139 58.9699C32.3082 58.9102 32.1224 58.8638 31.9765 58.8107C31.6646 58.7045 31.4788 58.3861 31.5385 58.0609C31.4125 57.9813 31.2864 57.8951 31.167 57.7955C31.1205 57.7624 31.0807 57.7159 31.0475 57.6695C30.9348 57.6695 30.749 57.6164 30.6295 57.5169C30.5167 57.424 30.4438 57.3045 30.4172 57.1652C30.3376 57.0789 30.1518 56.9064 29.9859 56.8069H29.9395C29.6276 56.7406 29.4551 56.6609 29.0504 56.3358C28.9774 56.2761 28.9177 56.2031 28.8712 56.1235C28.7253 56.0638 28.5594 55.9576 28.367 55.7453C28.347 55.7254 28.3271 55.6988 28.3072 55.6723C28.2807 55.6391 28.2542 55.5993 28.2343 55.5595C28.1148 55.4865 28.0352 55.4666 27.8561 55.4135L27.6039 55.3405C27.3783 55.2676 27.2124 55.095 27.1527 54.8761C26.6883 54.5576 26.4162 54.332 26.2504 54.1396C25.8456 53.9538 25.3679 53.4495 24.7906 52.6069C24.7508 52.5538 24.7243 52.4941 24.7044 52.4277C24.3992 52.1159 24.1337 51.7708 23.9214 51.4059L23.384 50.5035C23.2845 50.3111 23.1849 50.132 23.0788 49.9661C22.9925 49.8268 22.966 49.6675 22.9925 49.5083C22.9792 49.5016 22.9593 49.4884 22.9461 49.4817C22.7006 49.3424 22.329 49.1367 22.0769 48.6391C22.0171 48.5196 21.9972 48.3803 22.0105 48.2476C21.8977 48.0087 21.8181 47.803 21.7385 47.604L21.6987 47.5111C21.5394 47.1329 21.4333 46.7613 21.3138 46.2902C21.2873 46.1774 21.2873 46.058 21.3138 45.9518C21.274 45.8656 21.2408 45.7727 21.2077 45.6798C21.1612 45.5537 21.1214 45.4608 21.0816 45.3679C21.0152 45.222 21.002 45.0561 21.0484 44.9035C21.0551 44.8769 21.075 44.7642 21.0086 44.3926C20.9688 44.0741 20.9157 43.7622 20.8494 43.4305L20.8162 43.258C20.7697 42.8466 20.7233 42.3423 20.7366 41.8447C20.7697 41.5196 20.8162 41.2475 20.8693 41.0087C20.7299 40.8561 20.6636 40.6437 20.71 40.438L20.7565 40.166C20.8494 39.6153 20.9555 38.9916 21.3934 38.6598C21.4067 38.5802 21.4266 38.494 21.4465 38.4077C21.3337 38.202 21.3271 37.9499 21.4598 37.7375C21.5394 37.6048 21.619 37.4522 21.692 37.2996C21.7982 37.094 21.8977 36.8883 22.0238 36.6892C22.1167 36.5499 22.1897 36.4238 22.2693 36.2911C22.4153 36.0456 22.5612 35.8001 22.7404 35.5612L22.8664 35.3953C23.092 35.11 23.2977 34.8446 23.5233 34.6124C23.8153 34.347 24.0541 34.1546 24.2665 34.0285L24.4191 33.856C25.2684 32.8607 26.0048 32.0048 27.3518 31.2749C27.438 31.2285 27.5243 31.202 27.6172 31.1953C27.8627 31.0825 28.1347 30.9565 28.42 30.8901C28.5859 30.8503 28.8779 30.7707 29.1632 30.8171C29.276 30.7441 29.3888 30.6711 29.4949 30.5982C29.7205 30.4456 29.9129 30.3128 30.1186 30.2001C30.2712 30.1072 30.5234 29.9546 30.822 29.8152L31.2864 29.6228C31.5651 29.5564 31.7111 29.5432 31.804 29.5365C31.9698 29.5166 32.2153 29.5166 32.3679 29.583C32.4741 29.5564 32.5604 29.5365 32.6201 29.5233C32.6931 29.5034 32.7992 29.4702 32.912 29.4901C33.0447 29.5034 33.1442 29.5365 33.2305 29.5896C33.3367 29.5631 33.4627 29.5365 33.6153 29.5299C33.8078 29.5299 33.967 29.5963 34.0931 29.7091C34.2722 29.7356 34.4713 29.7555 34.677 29.7754C34.9556 29.8019 35.2476 29.8351 35.5395 29.8816C35.8978 29.9214 36.2893 29.9944 36.6874 30.1005C37.1121 30.1868 37.5102 30.3527 37.8087 30.4854C37.8884 30.5185 37.9547 30.5716 38.0144 30.6313C38.2931 30.6977 38.6182 30.8171 39.0296 31.0095C39.3348 31.1489 39.6201 31.3214 39.8457 31.4674C39.9917 31.5603 40.1045 31.6266 40.1974 31.673C40.3434 31.7394 40.4562 31.8522 40.5225 31.9915C40.6618 32.111 40.7547 32.2304 40.8277 32.3366C40.9671 32.3565 41.0998 32.4162 41.2059 32.5157C41.2922 32.5953 41.3585 32.6617 41.4116 32.7081C41.6306 32.7081 41.8164 32.8209 41.9358 32.9868C41.9623 33.0266 41.9822 33.0598 42.0088 33.093C42.0552 32.9138 42.1282 32.7612 42.2277 32.6418C42.2277 32.4693 42.2277 32.3167 42.2145 32.1707C42.1879 32.1375 42.1614 32.0977 42.1415 32.0579C41.8628 31.5271 42.1481 30.1802 42.1547 30.1669C42.1813 30.0475 42.241 29.9413 42.3273 29.855C42.3737 29.6825 42.4799 29.5432 42.6192 29.4503C42.6457 29.3508 42.6789 29.2711 42.7187 29.1981C42.6789 29.0654 42.6789 28.9261 42.7187 28.7934C42.8448 28.4019 42.8713 28.1962 42.8912 27.9574C42.9244 27.6721 42.9576 27.3536 43.1633 26.7962C43.2097 26.6834 43.2827 26.5773 43.3822 26.5043C43.4751 26.1991 43.641 25.7346 44.1121 25.5157C44.1254 25.4294 44.1586 25.3299 44.2116 25.2237C44.3045 25.0512 44.4704 24.9251 44.6628 24.8853C44.7292 24.7725 44.7955 24.6664 44.8619 24.5602C45.1007 24.1687 45.2998 23.837 45.3927 23.6047C45.459 23.4322 45.5984 23.2995 45.7709 23.2332C45.8837 23.1071 45.9832 22.981 46.0894 22.855C46.4012 22.4701 46.7197 22.0654 47.1974 21.8995C47.2505 21.8796 47.3036 21.873 47.3567 21.8663C47.4562 21.7934 47.5557 21.7137 47.6553 21.6341C47.9538 21.3886 48.4183 21.0104 48.9093 21.1365C49.0619 20.9308 49.2941 20.7384 49.752 20.6322C49.7918 20.6189 49.8316 20.6189 49.8648 20.6123L50.4221 20.3535C50.6676 20.2275 51.0525 20.0417 51.4307 19.9289C51.5235 19.9023 51.6231 19.8891 51.716 19.9023C51.8885 19.9222 52.2003 19.8426 52.479 19.7696C52.698 19.7099 52.8837 19.6635 53.0762 19.6237L53.3283 19.5772C53.7463 19.5042 54.171 19.4312 54.5956 19.4711C54.6553 19.4445 54.7084 19.4312 54.7482 19.418C54.8743 19.3384 55.0269 19.3118 55.1795 19.3251C55.2127 19.2985 55.2525 19.2786 55.2989 19.2587C55.4449 19.1857 55.6108 19.1791 55.77 19.2256C55.8364 19.2256 55.9492 19.199 56.0288 19.1857C56.2345 19.1526 56.4203 19.1194 56.6061 19.1327C56.7852 19.0995 56.971 19.126 57.1833 19.1526L57.3226 19.1725C57.4752 19.1924 57.6146 19.2587 57.7141 19.3649C58.0193 19.3118 58.3975 19.2919 58.935 19.4777C58.9814 19.4976 59.0279 19.5175 59.0677 19.544L59.2535 19.6568C59.5189 19.6237 59.771 19.6834 59.9103 19.7232L60.1359 19.8028C60.3217 19.8028 60.5009 19.8824 60.6269 20.0218L60.6933 20.0881C60.7331 20.1279 60.8194 20.2076 60.8923 20.3137C60.9056 20.3137 60.9189 20.327 60.9321 20.3336C61.0914 20.2938 61.2639 20.3203 61.4099 20.4C61.463 20.4265 61.5094 20.4597 61.5492 20.4929C61.8412 20.6853 62.1397 20.818 62.4317 20.9507C62.9559 21.1829 63.4867 21.4284 63.9246 21.9858C63.9246 21.9858 63.9312 21.9924 63.9379 21.999C64.0374 21.999 64.1436 22.0256 64.2364 22.0787C64.681 22.3175 64.8535 22.5962 64.9729 22.782L65.0194 22.855C65.1189 23.0208 65.172 23.1005 65.3644 23.2332C65.4374 23.2863 65.4971 23.346 65.5436 23.419C65.6564 23.5981 65.6895 23.7573 65.6829 23.8967C65.8753 24.1156 65.9815 24.3611 66.0611 24.5469L66.0876 24.6066C66.1341 24.7128 66.2071 24.8721 66.2469 24.9185C66.3066 24.9517 66.3597 24.9981 66.4061 25.0446C66.5123 25.0976 66.5985 25.1706 66.6649 25.2635C66.6782 25.2768 66.6848 25.2901 66.7312 25.3299C66.8507 25.436 66.9701 25.5555 67.0962 25.7612C67.2488 25.7811 67.3948 25.8607 67.4943 25.9934C67.6004 26.1327 67.7332 26.4114 67.7398 26.71C68.118 26.8891 68.3038 27.1545 68.4365 27.7251C68.4497 27.7849 68.4564 27.8512 68.4564 27.9109C68.4763 27.9507 68.5028 27.9972 68.5227 28.0436C68.5625 28.1365 68.5891 28.2294 68.5891 28.3289C68.609 28.3488 68.6289 28.3621 68.6422 28.3754C68.682 28.4152 68.7151 28.455 68.7483 28.5015C68.8279 28.5678 68.8877 28.6541 68.9275 28.747C68.9938 28.8996 69.0469 29.0389 69.1398 29.1849C69.2659 29.3839 69.2725 29.6228 69.173 29.8285C69.2128 30.0939 69.2659 30.3328 69.3919 30.5517C69.5246 30.7906 69.4981 31.0692 69.3455 31.2749C69.3455 31.3413 69.3322 31.4076 69.3123 31.4674C69.4583 31.6067 69.5445 31.7858 69.6043 32.0579C69.7104 32.1574 69.7768 32.2901 69.79 32.4361C69.8232 32.7479 69.8829 32.9934 69.936 33.2389C69.9692 33.3716 69.9957 33.511 70.0223 33.6503C70.1152 33.7764 70.1682 33.9091 70.2014 33.9953C70.2678 34.1679 70.2611 34.3536 70.1881 34.5129V34.6655C70.1948 34.7451 70.2014 34.8247 70.2014 34.9044C70.2744 35.0437 70.2943 35.1963 70.2611 35.3489C70.2479 35.4219 70.2213 35.4882 70.1948 35.5546C70.1948 35.5546 70.1948 35.5546 70.1948 35.5612C70.2014 35.7935 70.2412 35.8664 70.3275 36.0058C70.4469 36.2115 70.6327 36.5167 70.6194 37.1139C70.6327 37.2333 70.5863 37.4124 70.5066 37.6845V37.7176C70.5066 37.7176 70.5265 37.7641 70.5398 37.7906C70.6261 37.9631 70.6261 38.1622 70.5531 38.3413C70.427 38.6333 70.4934 38.9916 70.573 39.4428C70.6725 40.0068 70.7986 40.7101 70.5531 41.4997C70.5332 41.566 70.5 41.6257 70.4602 41.6854C70.4668 41.9376 70.4536 42.3291 70.3009 42.6276C70.3341 43.0457 70.2611 43.3111 70.1682 43.603C70.1417 43.6959 70.1152 43.7888 70.0886 43.895C70.0621 44.0011 70.009 44.094 69.9426 44.167C69.9426 44.2466 69.9426 44.3395 69.9294 44.4589C69.9161 44.6447 69.8365 44.804 69.7038 44.9234C69.7171 45.4476 69.6175 46.1177 69.5379 46.622C69.5246 46.7281 69.4782 46.8277 69.4185 46.9139C69.3322 47.3187 69.2128 47.7101 69.0933 48.095C68.9739 48.4732 68.8611 48.8514 68.7815 49.2163C68.9142 49.495 68.8346 49.8334 68.7284 50.2779C68.6952 50.4305 68.6488 50.6097 68.6422 50.6827C68.6422 50.822 68.5891 50.9614 68.5028 51.0675C68.5028 51.187 68.4763 51.2931 68.463 51.3528L68.4497 51.4059C68.4697 51.5651 68.4232 51.6846 68.3768 51.7642C68.317 51.8836 68.2441 51.9765 68.1644 52.0561C68.2308 52.3216 68.1246 52.6069 67.899 52.7595C67.9057 52.7595 67.7796 52.9519 67.6734 53.204C67.7066 53.3566 67.6867 53.5159 67.6137 53.6618C67.4346 54.0002 67.3616 54.332 67.282 54.6903C67.2289 54.9424 67.1625 55.2277 67.0564 55.4998C67.0232 55.586 66.9701 55.6657 66.9104 55.7254C66.9104 55.7785 66.8905 55.8315 66.8706 55.8846L66.7047 56.3093C66.6384 56.4751 66.5189 56.6012 66.3663 56.6676C66.4791 56.9197 66.4128 57.2249 66.1805 57.424C66.1739 57.4306 66.1606 57.4372 66.154 57.4439L66.0744 57.6031C65.6763 58.386 65.4905 58.7377 65.3445 58.9368C65.2649 59.1557 65.172 59.3747 65.0857 59.5671C65.0327 59.6799 64.9729 59.8259 64.9331 59.932C64.9597 60.0448 64.9597 60.1643 64.9331 60.2771C64.8535 60.5557 64.6876 60.7813 64.535 60.9804C64.4421 61.1065 64.389 61.1794 64.3691 61.2193C64.4023 61.4183 64.3426 61.6174 64.2033 61.77C64.117 61.8629 64.0108 61.9757 63.8781 62.0553C63.8582 62.115 63.8383 62.1681 63.8052 62.2278C63.8052 62.4069 63.7521 62.5662 63.6459 62.6856C63.5796 62.7586 63.4999 62.8183 63.4137 62.8581C63.3672 62.9444 63.3075 63.0705 63.2743 63.1302C63.2014 63.2894 63.1151 63.4619 63.0222 63.6212C63.0222 63.7406 63.0089 63.8468 63.0023 63.9198C62.989 64.006 62.9559 64.0856 62.916 64.1652C62.916 64.2449 62.916 64.3311 62.8895 64.4107C62.8298 64.6032 62.6905 64.7558 62.498 64.8354L62.3587 64.8885C62.3919 65.1406 62.2924 65.3927 62.1397 65.7444C62.0933 65.8572 62.0137 65.9501 61.9208 66.0165C61.9075 66.043 61.9009 66.0762 61.8942 66.1027C61.8013 66.3814 61.6686 66.7861 61.3303 67.1909C61.2904 67.2373 61.244 67.2771 61.1976 67.3169C61.1511 67.3899 61.0848 67.4563 61.0118 67.5027C60.9521 67.6686 60.8592 67.8345 60.6535 68.0335C60.6269 68.0601 60.5938 68.0866 60.5606 68.1065L60.5274 68.1795C60.4942 68.3188 60.4146 68.4449 60.3018 68.5312C59.7445 69.4999 59.28 70.2895 58.9482 70.8203C58.9482 70.8999 58.9283 70.9795 58.9084 71.0591L58.935 71.1653C58.9615 71.2715 58.9615 71.3776 58.935 71.4771C58.6563 72.6383 58.0459 72.7644 57.7937 72.7644L57.7473 72.7378ZM32.6931 29.8086L32.7461 30.0076L32.766 29.9546L32.6931 29.8019V29.8086Z" fill="#DD3874"/>
</svg>
