<svg width="91" height="91" viewBox="0 0 91 91" fill="none" xmlns="http://www.w3.org/2000/svg">
<path d="M29.453 67.1388L29.5725 67.2079L33.6653 65.7494C33.6653 65.7494 33.6967 65.7368 33.7093 65.7368C33.7218 65.7368 33.7407 65.7242 33.7533 65.7179L34.3254 65.5167C34.4763 65.4664 34.6272 65.4539 34.778 65.4727C34.8724 65.4476 34.9729 65.4287 35.0861 65.4224L35.1364 65.391C35.3753 65.2401 35.6645 65.2087 35.9223 65.2841C35.9348 65.2841 35.9411 65.2716 35.9537 65.2653C36.092 65.1773 36.2995 65.0515 36.551 64.9823C36.6578 64.7749 36.8465 64.6177 37.0665 64.536L37.5506 64.3662C37.7203 64.3097 37.9027 64.2971 38.0724 64.3348C38.261 64.121 38.5314 64.0079 38.8205 64.0204C38.896 64.0204 39.1223 63.9262 39.2606 63.8759C39.3738 63.8319 39.5247 63.7753 39.6944 63.7313C39.7447 63.6935 39.8013 63.6495 39.8642 63.6118C40.0654 63.4861 40.3043 63.4421 40.5243 63.4798C40.7569 63.3415 41.0964 63.1717 41.5302 63.1906C41.6119 63.1906 41.6937 63.2032 41.7691 63.2283C41.9137 63.2032 42.0457 63.1906 42.1463 63.178C42.1652 63.178 42.1841 63.178 42.2029 63.178C42.511 62.9077 42.9322 62.7568 43.1837 62.6688C43.4037 62.5933 43.6301 62.5116 43.7998 62.4236C43.9633 62.3356 44.1393 62.3041 44.3216 62.323C44.4851 62.2915 44.7806 62.2161 44.9943 62.1595C45.2206 62.1029 45.4533 62.0463 45.6607 61.9961C45.9374 61.7509 46.2894 61.6 46.5723 61.4805C46.6792 61.4365 46.7798 61.3925 46.8741 61.3485C47.0753 61.2479 47.3016 61.2228 47.5154 61.2731C47.5154 61.2731 47.528 61.2731 47.5342 61.2668C47.7291 61.1725 47.9429 61.1473 48.1504 61.1913C48.2572 61.1347 48.3704 61.0719 48.4899 61.0153C48.5401 60.6758 48.7791 60.3803 49.106 60.2671L49.5021 60.1288C49.6781 60.066 49.8667 60.0597 50.0427 60.1037C50.0427 60.1037 50.0993 60.1037 50.1245 60.1037C50.2942 60.0848 50.464 60.1163 50.6086 60.1854C50.6526 60.1603 50.6966 60.1351 50.7469 60.1163C50.7657 60.11 50.7846 60.0974 50.8034 60.0911C51.0926 59.9842 51.3378 59.9465 51.539 59.9654C51.6333 59.8711 51.7528 59.7956 51.8911 59.7453C52.0797 59.6762 52.2683 59.6573 52.4506 59.6825C52.4946 59.6636 52.5386 59.6447 52.5889 59.6196C52.6707 59.475 52.7838 59.3493 52.9347 59.2613C53.5823 58.8526 54.2864 58.6766 54.9025 58.5194C55.33 58.4125 55.7387 58.3056 56.0656 58.1485C56.1788 58.0919 56.3045 58.0604 56.424 58.0542C56.5246 58.0039 56.6314 57.9598 56.7383 57.9095C57.0024 57.7901 57.3733 57.6203 57.4865 57.5198C57.5682 57.4443 57.6625 57.3814 57.7694 57.3374C57.9643 57.2557 58.2157 57.2117 58.4672 57.2431C58.6998 57.1111 58.9513 57.0042 59.4543 56.8974C59.58 56.8722 59.6995 56.8722 59.8189 56.8911C59.8441 56.8722 59.8755 56.8408 59.9069 56.8156C60.0578 56.6836 60.2401 56.6019 60.4287 56.5767C60.6928 56.4258 60.938 56.319 61.1517 56.2247L61.3026 56.1618C61.5352 56.0549 61.7993 56.0549 62.0319 56.1429C62.2017 56.0235 62.3651 55.8789 62.5412 55.728C62.7235 55.5708 62.9184 55.3948 63.1384 55.2376C63.2201 55.0427 63.3647 54.8792 63.5534 54.7724C63.9746 54.5398 64.4335 54.4392 64.773 54.3637C64.8485 54.3449 64.9113 54.3323 64.9679 54.3197C64.9679 54.3197 64.9805 54.3197 64.9868 54.3134C65.0559 54.282 65.0811 54.2568 65.0811 54.2568C65.0811 54.2443 65.0999 54.2065 65.1125 54.1751C65.1628 54.0557 65.232 53.8985 65.3514 53.7287C65.3514 53.4458 65.4709 53.1 65.7978 52.7103C65.8355 52.66 65.8858 52.616 65.9298 52.5782C66.395 52.2073 66.8288 52.1193 67.1809 52.1759C67.3318 52.0375 67.4575 51.8867 67.6084 51.7043C67.6461 51.6603 67.6839 51.6101 67.7279 51.5598C67.7593 51.3963 67.8285 51.2328 67.9353 51.1071C68.0359 50.9939 68.1051 50.9185 68.1428 50.8682C68.1554 50.5979 68.2434 50.3464 68.432 50.0383C68.4886 49.9503 68.5578 49.8686 68.6395 49.8057C68.7526 49.7114 68.8658 49.6422 68.9853 49.5919C69.0041 49.5605 69.0293 49.5354 69.0544 49.5039C69.243 49.2902 69.4316 49.1644 69.6014 49.0953C69.658 49.0198 69.7146 48.9444 69.7774 48.8689C69.8089 48.8312 69.8529 48.7684 69.9032 48.7055C69.9032 48.6489 69.9157 48.5923 69.9283 48.5357C69.8591 48.3597 69.8214 48.1585 69.8277 47.9385C69.8277 47.7499 69.8969 47.5613 70.01 47.4104C70.0289 47.3664 70.0415 47.3098 70.054 47.2595C70.1169 47.0457 70.2427 46.5742 70.6199 46.3039C70.6199 46.1341 70.645 45.9455 70.6953 45.7255C70.6953 45.7255 70.6953 45.7192 70.6953 45.7129C70.6827 45.65 70.6702 45.5872 70.6639 45.518C70.645 45.3986 70.6513 45.2791 70.6827 45.1659C70.5256 44.8767 70.5193 44.5687 70.5067 44.3423C70.5067 44.2543 70.5067 44.1475 70.4878 44.0343C70.469 43.8583 70.4941 43.6822 70.5633 43.5313C70.5822 43.4307 70.601 43.3364 70.6199 43.2547L70.645 43.1227C70.6639 43.0221 70.689 42.8523 70.6827 42.802C70.6387 42.6952 70.6136 42.5883 70.6073 42.4751C70.2992 42.2677 70.1358 41.8967 70.2049 41.5258C70.1924 41.4944 70.1672 41.4378 70.1295 41.3686C70.0603 41.2429 69.9912 41.1109 69.9346 40.9663C69.8151 40.7274 69.746 40.4948 69.7208 40.2433C69.6957 39.9981 69.7648 39.7655 69.9094 39.5831C69.8717 39.5391 69.834 39.4888 69.79 39.4448L69.7146 39.3568C69.5762 39.1934 69.4316 39.0236 69.2933 38.8413C69.287 38.835 69.2745 38.8224 69.2682 38.8161C68.9098 38.6715 68.6898 38.3635 68.5389 38.156C68.4886 38.0868 68.4132 37.9863 68.3817 37.9548C68.1177 37.7914 67.9605 37.5147 67.9479 37.2067C67.9479 37.2067 67.9479 37.2067 67.9416 37.2004C67.8662 37.2004 67.797 37.1941 67.7216 37.1752C67.4701 37.1124 67.2564 36.9489 67.1243 36.7289L66.9169 36.3705C66.854 36.3265 66.7848 36.3139 66.634 36.2888L66.5459 36.2699C66.1939 36.2259 65.8229 36.1316 65.3263 35.855C65.1188 35.7418 64.9742 35.5595 64.8988 35.3457C64.8233 35.3206 64.7479 35.2954 64.6724 35.264C64.5655 35.2766 64.4398 35.2829 64.3015 35.264C63.9431 35.396 63.5282 35.3017 63.2642 34.9937C63.1761 34.8931 62.9247 34.7422 62.208 34.585L62.1451 34.5724C61.837 34.5159 61.5415 34.453 61.2649 34.3776C61.0323 34.3147 60.7808 34.2455 60.5356 34.1198C60.1836 34.1009 59.7938 34.1009 59.4165 34.1072C59.1902 34.1072 58.9702 34.1072 58.7753 34.1072C58.7501 34.1072 58.7313 34.1072 58.7061 34.1072C58.3981 34.321 58.0209 34.4656 57.3796 34.3901C57.2916 34.3775 57.2098 34.3587 57.1281 34.3273C56.9772 34.2644 56.8578 34.1889 56.7635 34.1072C56.4554 34.1764 56.1159 34.2204 55.7576 34.1575C55.7073 34.1764 55.6444 34.2078 55.5689 34.2392C55.4809 34.277 55.3992 34.321 55.3175 34.365C55.0849 34.4844 54.7957 34.629 54.4499 34.7233C54.1104 34.9748 53.7017 35.2011 53.3056 35.4275C53.1045 35.5406 52.9033 35.6538 52.7272 35.7607C52.6329 35.8487 52.5135 35.9367 52.3752 36.0185C52.2117 36.1128 52.0294 36.1568 51.8408 36.1442C51.8219 36.1442 51.7716 36.1568 51.7213 36.163C51.5516 36.1819 51.3127 36.2133 51.0612 36.1756C50.9983 36.2071 50.9355 36.2385 50.8663 36.2636C50.8097 36.2825 50.7532 36.2951 50.6966 36.3076C50.6211 36.3768 50.5645 36.446 50.4954 36.5277C50.3696 36.6786 50.2188 36.8483 49.9799 37.0495C49.7158 37.5839 49.3637 37.7788 49.0683 37.8542C48.8859 38.0743 48.6093 38.2063 48.3264 38.2063C48.3264 38.2063 48.3138 38.2189 48.3138 38.2252C48.0435 38.5584 47.704 38.9733 47.3959 39.2876C47.3079 39.382 47.201 39.4511 47.0879 39.4951C46.9244 39.6837 46.7421 39.866 46.5409 40.0484C46.3334 40.237 46.0568 40.325 45.7802 40.281C45.6796 40.369 45.5664 40.4759 45.4721 40.5576C45.1075 40.8908 44.7366 41.2366 44.3216 41.4189C44.1833 41.6075 44.0198 41.815 43.8312 42.0225C43.7244 42.1482 43.5798 42.2928 43.4729 42.3997C43.366 42.494 43.2968 42.5506 43.234 42.6009C43.2025 42.626 43.1711 42.6512 43.1397 42.67C43.0894 42.9215 43.0328 43.085 42.9008 43.2673C42.9008 43.2673 42.8568 43.3742 42.7625 43.7137C42.7373 43.808 42.6996 43.896 42.643 43.9714C42.4733 44.2292 42.0332 44.9207 41.2787 44.5938C41.0273 44.4869 40.8387 44.2606 40.7569 44.0091C40.6186 43.6571 40.6752 43.2987 40.7381 43.0472C40.7444 43.0095 40.7569 42.9718 40.7695 42.9341C40.7695 42.9341 40.7695 42.9278 40.7695 42.9215C40.7884 42.5883 40.9518 42.2488 41.0776 41.9847C41.065 41.9533 41.0461 41.9156 41.0336 41.8779C40.9267 41.5509 41.0021 41.1863 41.241 40.9411C41.241 40.6393 41.241 40.2621 41.2222 39.9792V39.734C41.1907 39.0739 41.1656 38.4515 41.285 37.8794C41.241 37.6782 41.2222 37.4204 41.3102 37.1312C41.2284 36.8169 41.1844 36.4963 41.2347 36.1882C41.2536 36.0876 41.285 35.987 41.329 35.899C41.2599 35.5344 41.1216 35.22 40.9581 34.8554C40.8261 34.5599 40.6752 34.2204 40.562 33.8306C40.4866 33.5791 40.518 33.3088 40.65 33.0824C40.6752 33.0384 40.7066 32.9944 40.7444 32.9504C40.7444 32.9379 40.7444 32.919 40.7444 32.9001C40.7255 32.6612 40.6626 32.3091 40.6123 32.1143C40.5935 32.0451 40.5809 31.9697 40.5809 31.9005C40.1722 30.8694 39.5813 30.1967 38.8457 29.3669L38.5439 29.0274C38.4433 28.9079 38.3679 28.7696 38.3365 28.6187C38.2987 28.4553 38.0598 28.0089 37.4123 27.3362C37.0351 26.9464 36.5824 26.5692 36.1423 26.2108C36.1046 26.1794 36.0606 26.148 36.0229 26.1165C35.8154 26.1039 35.6016 26.0788 35.413 26.0034C35.3187 25.9656 35.2307 25.9216 35.1553 25.8588C35.105 25.8399 35.0547 25.8273 35.0044 25.8085C34.734 25.7267 34.2374 25.5758 34.0551 25.0415C34.0551 25.0415 34.0551 25.0415 34.0551 25.0352C33.9419 25.1169 33.8161 25.1735 33.6778 25.1986C33.4075 25.2552 33.1183 25.1798 32.8983 25.0037C32.5776 24.7397 31.8609 24.6265 31.0373 24.6957C30.8299 24.7145 30.6412 24.7397 30.4652 24.7711C30.2452 24.8026 30.0377 24.834 29.8428 24.8528C29.5725 24.8969 29.2707 24.9283 28.9626 24.8969C28.73 25.01 28.4911 25.1295 28.3277 25.2364C28.0762 25.4061 27.7618 25.4438 27.4789 25.3432C27.4789 25.3432 27.4726 25.3432 27.4663 25.3432C27.3595 25.3872 27.2589 25.4312 27.152 25.4815L26.7811 25.6764C26.517 25.8336 26.2404 25.9908 25.926 26.2485C25.9198 26.2548 25.9072 26.2611 25.9009 26.2674C25.8317 26.5566 25.7186 26.9841 25.3351 27.355C25.1213 27.5625 24.8258 27.6568 24.5429 27.6065C24.5178 27.6254 24.4989 27.6505 24.4738 27.6694C23.8073 28.2541 23.1724 28.8073 22.946 29.5052C22.8517 29.7944 22.6317 30.0144 22.3551 30.1087C22.2859 30.2156 22.223 30.3162 22.1727 30.4042C22.2293 30.574 22.2356 30.7563 22.1916 30.9323C22.135 31.1649 21.9904 31.3598 21.8018 31.4856C21.7892 31.5107 21.783 31.5421 21.7704 31.5736C21.7075 31.7811 21.6572 32.108 21.6132 32.372L21.5818 32.5732C21.5692 32.6486 21.5503 32.7178 21.5189 32.787C21.544 33.051 21.5252 33.3213 21.4372 33.7803C21.4246 33.8369 21.412 33.8997 21.3869 33.95C21.3617 34.0129 21.3303 34.0695 21.2989 34.1261C21.3051 34.3461 21.2737 34.6039 21.1417 34.9497C21.1668 35.0251 21.1794 35.1068 21.1857 35.1886C21.1983 35.3898 21.1543 35.9744 20.9342 36.4837C21.0034 36.754 21.0159 37.0495 20.9657 37.3324C20.9405 37.4707 20.8839 37.6027 20.8022 37.7096C20.8148 37.8228 20.8336 37.9297 20.8588 38.0491C20.9279 38.4012 21.0097 38.8476 20.8588 39.3757C20.8273 39.4826 20.777 39.5831 20.7142 39.6712C20.7267 39.8032 20.7267 39.9415 20.7142 40.0735C20.7142 40.1175 20.7079 40.1615 20.6953 40.2055C20.7142 40.2307 20.733 40.2621 20.7519 40.2873C20.8588 40.4633 21.0474 40.7651 21.0977 41.18C21.148 41.224 21.192 41.2617 21.2234 41.2932C21.5252 41.5824 21.6006 42.0413 21.4057 42.4123C21.3429 42.5317 21.2863 42.8272 21.2486 43.0284C21.2171 43.1856 21.192 43.3301 21.1543 43.4685C21.1794 43.5502 21.2046 43.6382 21.2297 43.7199C21.3806 44.2103 21.6635 45.1219 21.8898 45.3105C21.9904 45.3923 22.0722 45.4928 22.135 45.6123C22.2608 45.8512 22.3551 46.197 22.223 46.5868C22.2608 46.6874 22.2985 46.7817 22.3362 46.8571C22.5688 47.008 22.726 47.2658 22.7574 47.555C22.7826 47.7939 22.7574 48.0013 22.7008 48.1774C22.7071 48.3094 22.6883 48.4351 22.6443 48.5546C22.7511 48.9947 22.9775 49.3719 23.2415 49.8183C23.5999 50.4218 24.0337 51.1511 24.1783 52.1507C24.2034 52.2073 24.2223 52.2702 24.2349 52.333C24.4235 53.2824 24.7692 54.2128 25.1339 55.2062C25.5865 56.4321 26.0518 57.6958 26.2215 59.0349C26.2404 59.1292 26.2655 59.1732 26.2655 59.1732C26.2781 59.1921 26.3033 59.2109 26.3284 59.2361C26.4101 59.3178 26.5044 59.4121 26.5987 59.5316C26.7496 59.7202 26.8188 59.9591 26.7999 60.1854L26.8565 60.2546C26.8942 60.2986 26.9257 60.3426 26.9571 60.3929C27.2966 60.9713 27.3092 61.5434 27.328 62.0023C27.3343 62.2412 27.3406 62.4236 27.3783 62.587C27.6109 62.7128 27.7807 62.9265 27.8498 63.1906C27.875 63.3037 27.9379 63.4546 27.9944 63.6055C28.0887 63.857 28.1705 64.0896 28.2145 64.3159C28.3465 64.5485 28.3717 64.7812 28.3654 64.9384L28.6546 65.4476C28.7049 65.5356 28.7363 65.6299 28.7615 65.7242C28.8369 66.0763 28.8117 66.3529 28.73 66.5667C28.9752 66.6358 29.1953 66.7993 29.321 67.0445L29.365 67.1325C29.365 67.1325 29.4027 67.1702 29.4279 67.1891L29.453 67.1388Z" fill="#EE588B"/>
</svg>
