<svg width="91" height="91" viewBox="0 0 91 91" fill="none" xmlns="http://www.w3.org/2000/svg">
<path d="M45.3902 70.1368C45.2212 70.1368 45.0656 70.1233 44.9507 70.0827C44.9236 70.076 44.8966 70.0625 44.8695 70.0422C43.8754 70.1571 42.8476 70.1301 41.8535 70.103C41.1367 70.0827 40.3928 70.0625 39.6827 70.103C39.5272 70.1233 39.3784 70.0084 39.3378 69.8528C39.3378 69.8461 39.3378 69.8325 39.3378 69.8258C39.2837 69.8393 39.2499 69.8663 39.2026 69.8934C38.9862 70.0286 38.7495 70.1436 38.2491 70.076C37.3023 69.934 36.2677 69.7176 35.091 69.42L31.8315 68.5274C31.7774 68.5138 31.7233 68.48 31.6827 68.4395L30.9186 67.6685C30.9186 67.6685 30.8712 67.6753 30.851 67.6821C30.736 67.6956 30.621 67.6347 30.5534 67.5401C30.4993 67.4589 30.4655 67.3845 30.4452 67.3169C30.3303 67.3101 30.2288 67.2357 30.1747 67.1343C29.9786 66.7421 29.5593 66.2552 29.1536 65.7886C28.5314 65.0718 27.9431 64.3888 27.8214 63.7463C27.463 63.3609 27.2331 62.9889 26.9964 62.5899C26.7394 62.1707 26.4824 61.7446 26.0361 61.2713C26.0023 61.2375 25.9752 61.1901 25.9617 61.1428C25.9144 60.994 25.9144 60.8858 25.9482 60.7979C25.8535 60.6762 25.7521 60.5545 25.6574 60.4327L25.4072 60.1216C24.8865 59.5739 24.5957 58.7218 24.2846 57.8224C24.0547 57.1597 23.8248 56.4767 23.5002 55.9695C23.4664 55.9154 23.4461 55.8478 23.4461 55.7869C23.4326 55.7734 23.419 55.7531 23.4123 55.7328C22.8375 54.6576 22.7022 54.3059 22.4114 53.5283L22.3167 53.2713C22.2694 53.1563 22.2965 53.0278 22.3708 52.9332C22.3708 52.9061 22.3708 52.8791 22.3708 52.852C22.2221 52.7506 22.1274 52.5545 22.0665 52.4192C21.796 51.5401 21.7081 50.7421 21.6337 50.0321C21.5594 49.9171 21.5053 49.7954 21.4647 49.7007C21.4512 49.6669 21.4309 49.6263 21.4173 49.5993C21.3091 49.5587 21.228 49.464 21.2077 49.3423C21.1536 49.0448 21.1063 48.7945 21.0522 48.5511C20.9372 47.9898 20.8222 47.4556 20.7546 46.5832C20.7546 46.5562 20.7546 46.5291 20.7546 46.5021C20.6599 46.2451 20.7005 45.934 20.7276 45.6771C20.7411 45.5756 20.7614 45.4201 20.7479 45.3727C20.6735 45.251 20.6938 45.109 20.7884 45.0008C20.802 44.9873 20.8087 44.9738 20.8222 44.967L20.8087 44.8656C20.802 44.8115 20.8087 44.7574 20.8222 44.71C20.7749 44.6559 20.7546 44.5815 20.7546 44.5004L20.7749 42.5258C20.8087 41.9712 20.8493 41.4505 20.9237 40.9433C20.9372 40.8419 20.9981 40.7608 21.0792 40.7067C21.1333 40.2874 21.2145 39.8275 21.3294 39.4962C21.2889 39.4421 21.2618 39.3745 21.2618 39.3001C21.2618 39.0972 21.2618 38.7861 21.485 38.6373C21.485 38.6373 21.485 38.6306 21.485 38.6238V38.4683C21.485 38.3533 21.5391 38.2586 21.6202 38.191C21.654 37.9408 21.6878 37.6838 21.7284 37.4336C21.7487 37.3254 21.8163 37.2375 21.9042 37.1969C21.9786 37.109 22.1274 36.8656 22.2491 36.5816C22.1883 36.5072 22.1612 36.4057 22.1815 36.3111L22.2559 35.9189C22.2762 35.8242 22.3303 35.743 22.4114 35.6889L22.5872 35.5807L22.6008 35.1614C22.6008 35.0532 22.6549 34.9586 22.7428 34.8977C22.7698 34.8774 22.7969 34.8639 22.8239 34.8571C22.8239 34.8233 22.8239 34.7895 22.8239 34.7557C22.8104 34.5799 22.7969 34.3702 22.9118 34.1268C23.3717 33.3626 23.5137 33.2071 23.7166 32.9907C23.791 32.9095 23.8789 32.8149 24.0006 32.6593C23.9668 32.3618 24.1899 32.0101 24.3928 31.6991C24.4943 31.5435 24.6566 31.2933 24.6701 31.2054C24.6295 31.0837 24.6701 31.0093 24.7512 30.9214C25.1976 30.4548 25.6439 29.8935 26.0496 29.2984C26.2255 29.0888 26.381 28.8994 26.5298 28.7101C26.8814 28.2638 27.2533 27.8039 27.6929 27.4252C27.747 27.3846 27.8079 27.3576 27.8687 27.344C27.9228 27.2764 27.9499 27.1953 27.9904 27.0938C28.0716 26.8774 28.1866 26.5867 28.572 26.3162C28.6464 26.2621 28.7343 26.2485 28.8155 26.2553C29.0251 26.1065 29.2415 25.9172 29.4714 25.7211C29.5932 25.6196 29.7149 25.5114 29.8366 25.41C30.0868 25.2071 30.3235 24.9907 30.5467 24.7878C30.7698 24.585 30.9727 24.3956 31.1553 24.2536C31.1891 24.2266 31.2229 24.213 31.2567 24.1995C31.3379 24.0643 31.5002 23.9966 31.6219 23.9425C31.6692 23.9223 31.7166 23.9087 31.7774 23.9155L31.9668 23.6788C32.0006 23.6315 32.0479 23.5977 32.102 23.5774C33.2246 23.1243 34.5433 22.6983 35.7064 22.3196L36.1257 22.1843C36.1595 22.1708 36.1933 22.164 36.2406 22.1708C36.3826 22.1708 36.4976 22.2046 36.5787 22.2722L37.7419 21.9611C37.911 21.9273 38.053 21.9003 38.195 21.8732C38.5669 21.7988 38.9524 21.7245 39.3311 21.7109C39.4731 21.7109 39.561 21.765 39.6286 21.8665C39.8383 21.7244 40.0411 21.6704 40.4672 21.7989C40.4942 21.8056 40.5213 21.8191 40.5483 21.8327C40.7174 21.7718 40.9202 21.7448 41.3125 21.7786C41.4477 21.7921 41.5627 21.8867 41.6033 22.0152C41.6033 22.0288 41.61 22.0423 41.61 22.0491C41.6641 22.0355 41.7047 22.0085 41.7588 21.9814C41.8332 21.9409 41.9076 21.9003 41.9955 21.8732C42.0225 21.8665 42.0428 21.8597 42.0699 21.8597C42.6853 21.7989 42.9355 21.9747 43.1857 22.1978C43.3412 22.3466 43.4765 22.4819 43.8822 22.5562C43.9498 22.448 44.0648 22.3804 44.2203 22.3534C44.288 22.3398 44.3623 22.3534 44.4232 22.3804C44.7748 22.5427 44.998 22.6171 45.2212 22.6847C45.539 22.7794 45.8366 22.8741 46.3573 23.1987C46.4114 23.2325 46.4519 23.2798 46.479 23.3339C46.5196 23.4151 46.6007 23.5706 46.5804 23.7261C46.6413 23.7532 46.7021 23.787 46.7562 23.814C46.7698 23.814 46.7765 23.8276 46.7901 23.8343C46.8915 23.8411 46.9794 23.902 47.0335 23.9831C47.446 24.1184 47.8044 24.4024 48.0005 24.5714L48.1696 24.7067C48.413 24.9028 48.6362 25.0854 48.812 25.1868C48.9135 25.2477 48.9743 25.3559 48.9743 25.4641C49.0352 25.5114 49.1096 25.552 49.1907 25.6061C49.3936 25.7346 49.6506 25.8901 49.8737 26.1471C49.9075 26.1877 49.9346 26.235 49.9481 26.2891C49.9819 26.4311 49.9549 26.5461 49.9211 26.6272C49.9752 26.6137 50.036 26.6069 50.1036 26.6272C50.3336 26.6746 50.4823 26.891 50.6108 27.1277C50.6852 27.2629 50.6582 27.4252 50.55 27.5334C50.55 27.574 50.5432 27.6146 50.5297 27.6551C50.5297 27.6687 50.5162 27.6957 50.5297 27.7701C50.6987 27.9189 50.7664 28.1014 50.8137 28.2164C50.8949 28.2367 50.9692 28.2773 51.0166 28.3381C51.091 28.4328 51.118 28.5545 51.0707 28.6695C51.0436 28.7439 51.0234 28.7844 51.0234 28.798C51.0234 28.8183 51.0234 28.8453 51.0234 28.8791C51.0234 28.8927 51.0234 28.9129 51.0234 28.9332C51.1248 29.0279 51.2059 29.1631 51.2668 29.2849C51.3006 29.3525 51.3479 29.4472 51.3818 29.5013C51.4426 29.5216 51.4967 29.5621 51.5373 29.6162C51.632 29.738 51.6252 29.9138 51.5305 30.0287C51.4764 30.0964 51.4088 30.1437 51.3344 30.1708C51.3953 30.2857 51.4764 30.421 51.5238 30.4683C51.6725 30.5156 51.774 30.6577 51.7605 30.8132C51.7537 30.9282 51.7402 31.0228 51.7267 31.1107C51.7064 31.2528 51.6861 31.3745 51.6928 31.5976C51.6928 31.6314 51.6928 31.672 51.6928 31.7126C51.7469 31.9899 51.7537 32.2806 51.7672 32.5647V32.7878C51.7807 32.8893 51.7875 32.9975 51.7943 33.0989C51.8078 33.3559 51.8213 33.6128 51.8822 33.7278C51.9498 33.8631 51.9227 34.0253 51.8145 34.1268C51.7807 34.1606 51.7469 34.1809 51.7064 34.1944C51.6793 34.3094 51.6523 34.492 51.6387 34.6002C51.6117 34.8707 51.5576 35.1547 51.3818 35.2899C51.3818 35.4996 51.402 35.7092 51.4223 35.7633C51.4494 35.8512 51.4359 35.9527 51.3885 36.0338C51.5508 35.8918 51.7334 35.7701 51.9498 35.6416C52.0242 35.601 52.1121 35.5875 52.1865 35.601C52.2135 35.5604 52.2406 35.5266 52.2744 35.486C52.5043 35.1885 52.7004 34.9315 53.1738 34.4987C53.5457 34.1336 54.0394 33.8563 54.6683 33.6467C54.9388 33.579 55.1755 33.5114 55.3784 33.437C55.3784 33.2071 55.6218 33.1057 55.7571 33.0448C55.872 32.9975 56.0005 33.011 56.0952 33.0854C56.1155 33.0854 56.1425 33.0854 56.1628 33.0854C56.4671 32.896 56.7308 32.869 56.927 32.8487C57.0554 32.8352 57.1501 32.8284 57.238 32.7811C57.3665 32.7202 57.5153 32.7405 57.6167 32.8284C57.6641 32.8284 57.7114 32.8419 57.7587 32.8419L57.894 32.8554C57.9819 32.869 58.0631 32.9163 58.1172 32.9907C58.1577 33.0042 58.1983 33.0245 58.2254 33.038C58.3674 33.0245 58.4891 33.0245 58.6108 33.0245H58.7461C58.8948 33.0245 59.0301 33.0245 59.1586 32.9907C59.1586 32.9839 59.1586 32.9772 59.1586 32.9704C59.2127 32.8014 59.3885 32.7067 59.5576 32.7405L60.3014 32.9231C60.3014 32.9231 60.3082 32.9231 60.3149 32.9231L60.457 32.9501C60.7275 32.9975 60.883 33.038 61.2752 33.3356C61.4443 33.3356 61.6201 33.3424 61.8027 33.3829C61.9041 33.4032 61.992 33.4776 62.0326 33.5723C62.0394 33.5926 62.0529 33.6128 62.0529 33.6399C62.1408 33.6534 62.222 33.6737 62.3099 33.694C62.4181 33.721 62.506 33.8022 62.5466 33.9036C62.5533 33.9036 62.5601 33.9036 62.5601 33.9036C62.763 33.7549 62.9388 33.7954 63.0808 33.8901C63.189 33.8698 63.3107 33.9036 63.3919 33.9915L63.446 34.0524C63.4798 34.0862 63.5204 34.1268 63.5542 34.1674C63.6421 34.1268 63.7435 34.1268 63.8382 34.1674C64.0952 34.2823 64.3319 34.4243 64.555 34.5596C64.67 34.6272 64.7849 34.6948 64.8999 34.7625C64.981 34.8098 65.0554 34.9045 65.0757 34.9924C65.0825 35.033 65.0892 35.0803 65.0892 35.1276C65.2042 35.2358 65.3192 35.344 65.4409 35.4455C65.5288 35.5199 65.637 35.5942 65.7384 35.6686C65.9278 35.8039 66.1104 35.9459 66.2862 36.1014C66.9354 36.6086 67.3682 37.1361 67.6319 37.7379C67.6996 37.7717 67.7604 37.8259 67.7942 37.8597C67.8145 37.88 67.8551 37.9138 67.8686 37.9205C67.9227 37.9543 67.9836 38.0084 68.0106 38.0625C68.0715 38.1707 68.1459 38.2925 68.2203 38.4142C68.3014 38.5427 68.3826 38.6779 68.4569 38.8132C68.6057 39.1107 68.7477 39.4015 68.8289 39.6517C68.8424 39.6991 68.8492 39.7532 68.8424 39.8005C69.3496 40.6187 69.7215 41.3356 69.9041 42.0794C69.9311 42.1403 69.9379 42.2012 69.9244 42.2688C69.9176 42.3161 69.8973 42.3635 69.8703 42.3973C69.9041 42.5934 69.9041 42.7895 69.9041 42.9518C69.9041 42.9586 69.9041 42.9721 69.9041 42.9856C69.9852 43.0329 70.0394 43.1141 70.0596 43.2088C70.1137 43.486 70.1746 43.7633 70.2355 44.0541C70.4316 44.9535 70.6345 45.8867 70.6953 46.8267C70.6953 46.9011 70.6818 46.9754 70.6345 47.0363C70.5601 47.1445 70.4789 47.1918 70.4045 47.2189C70.4045 47.3609 70.4045 47.4962 70.4045 47.6382V48.2874C70.3842 48.524 70.3572 48.7337 70.3166 48.9501C70.4181 49.1124 70.3775 49.3288 70.3572 49.4776C70.3437 49.5655 70.2963 49.6399 70.2287 49.6872L70.249 49.721C70.3234 49.8562 70.2896 50.0253 70.1746 50.1335C70.1611 50.147 70.1476 50.1538 70.134 50.1673C70.1205 50.3296 70.0935 50.4987 70.0596 50.6745C70.0258 50.8571 69.9785 51.1614 69.9988 51.2425C70.0596 51.3778 70.0191 51.5333 69.9041 51.6348C69.8365 51.6956 69.7283 51.743 69.5998 51.7159C69.5592 51.885 69.5525 52.0338 69.5525 52.2028C69.5525 52.2975 69.5119 52.3854 69.4443 52.4463C69.3834 52.5206 69.309 52.683 69.2549 52.8114C69.4104 52.8858 69.4848 53.0684 69.424 53.2307L69.0858 54.1842C69.052 54.2721 68.9912 54.3397 68.9168 54.3736C68.9168 54.3871 68.91 54.4074 68.9033 54.4209C68.883 54.5088 68.8559 54.6035 68.8289 54.6982C68.883 54.7861 68.8965 54.8943 68.8559 54.9889L68.6395 55.5705C68.5989 55.6855 68.4975 55.7666 68.3825 55.7869C68.3623 55.814 68.3352 55.8545 68.3217 55.8816C68.2473 55.9898 68.1323 56.1656 67.943 56.1791C67.7334 56.5443 67.5778 56.8486 67.4493 57.1597C67.402 57.2611 67.3614 57.3626 67.3209 57.464C67.1788 57.8021 67.0301 58.1538 66.7731 58.5054C66.719 58.5798 66.6378 58.6271 66.5567 58.6407C66.3741 58.9179 66.2997 59.1546 66.2186 59.4251C66.178 59.5536 66.063 59.6483 65.9345 59.6686C65.9345 59.6686 65.9345 59.6821 65.9345 59.6889C65.8804 59.8512 65.8196 60.0067 65.5829 60.3516C65.5423 60.4057 65.495 60.4463 65.4341 60.4733C65.4138 60.5206 65.3936 60.5612 65.3665 60.6085C65.2921 60.7438 65.1298 60.8047 64.981 60.7641C64.9337 60.7506 64.8931 60.7303 64.8593 60.6965C64.7579 60.7844 64.6497 60.8723 64.5212 60.9129C64.5009 60.9467 64.4874 60.9872 64.4671 61.0278C64.4671 61.0413 64.4536 61.0549 64.4468 61.0684C64.5009 61.1292 64.5483 61.2172 64.555 61.2916C64.5821 61.5147 64.4265 61.6702 64.2778 61.819C64.2439 61.8528 64.2034 61.8934 64.1696 61.9272C64.129 61.9678 64.0884 62.0016 64.0343 62.0219C63.7435 62.3735 63.4189 62.7117 63.0605 63.0092L61.6945 64.24C61.5931 64.3279 61.451 64.3482 61.3293 64.2941C61.0318 64.5375 60.7748 64.7742 60.5111 65.0177C60.1594 65.3423 59.7942 65.6804 59.2938 66.0591C59.1653 66.1537 58.9963 66.147 58.8745 66.0523L58.6379 66.2146C58.2862 66.4716 57.9143 66.7015 57.5153 66.945C57.2786 67.087 57.0419 67.2357 56.8052 67.3913C56.7173 67.4454 56.6159 67.4589 56.5145 67.4319C56.3454 67.3778 56.129 67.4995 55.7976 67.6956C55.473 67.8917 55.0876 68.1216 54.6074 68.1757C54.4992 68.3042 54.2558 68.4665 53.7013 68.6559C53.5796 68.6964 53.4578 68.6694 53.3632 68.5882C53.3496 68.5882 53.3361 68.5882 53.3293 68.5882C52.9371 68.7911 52.2 69.0684 51.7672 68.994C51.6049 69.0819 51.3885 69.1225 51.1924 69.163C51.0301 69.1968 50.7799 69.2442 50.7055 69.3051C50.6447 69.3524 50.5703 69.3794 50.4891 69.3794C50.2592 69.3794 50.009 69.4403 49.7385 69.5079C49.4883 69.5688 49.2042 69.6432 48.8999 69.6702C48.7647 69.7852 48.5348 69.8258 48.2237 69.8731C48.0952 69.8934 47.9667 69.9137 47.8788 69.9407C47.7774 69.9678 47.6759 69.9475 47.5948 69.8934C47.5474 69.9069 47.4933 69.9272 47.446 69.9407C47.2093 70.0151 46.9456 70.0963 46.6818 70.0625C46.6142 70.0489 46.5398 70.0219 46.4722 69.9745C46.2017 70.0827 45.7554 70.1707 45.3699 70.1707L45.3902 70.1368ZM51.2262 36.1488V36.1623L51.2533 36.1352C51.2533 36.1352 51.2397 36.1352 51.233 36.142L51.2262 36.1488ZM48.1764 41.1733C48.1223 41.1733 48.0682 41.1597 48.0208 41.1327C47.987 41.1124 47.9532 41.0853 47.9329 41.0583C47.8382 40.9569 47.8112 40.8216 47.8856 40.6931C47.8856 40.6931 47.8856 40.6931 47.8923 40.6796C47.9464 40.5849 48.0411 40.5038 48.1493 40.4903C48.2507 40.4767 48.3725 40.4902 48.4469 40.5714C48.5551 40.6796 48.5821 40.8554 48.5009 40.9907C48.4333 41.0989 48.3049 41.1733 48.1764 41.1733Z" fill="#EE588B"/>
</svg>
