<svg width="91" height="91" viewBox="0 0 91 91" fill="none" xmlns="http://www.w3.org/2000/svg">
<path d="M46.0145 60.8519C46.0145 60.8519 45.9913 60.8519 45.9774 60.8519C45.8522 60.8426 45.7316 60.8055 45.6296 60.7359C45.5925 60.7267 45.56 60.7127 45.5276 60.6942C45.3189 60.5922 45.1798 60.3696 45.1427 60.1377C44.934 60.096 44.6836 60.0218 44.3683 59.892C44.3544 59.8873 44.3405 59.8781 44.3219 59.8734C44.0947 59.7621 43.7376 59.5859 43.58 59.2891L42.9586 59.0712C42.8751 59.0434 42.8009 58.997 42.7406 58.946C42.634 58.9089 42.5412 58.8486 42.467 58.7698C42.3836 58.728 42.2584 58.6678 42.1703 58.6307C42.1703 58.6307 42.161 58.6307 42.1564 58.626C42.0914 58.626 42.0265 58.6167 41.9616 58.5982C41.3402 58.4127 40.9321 58.1252 40.6029 57.8887C40.3849 57.731 40.2087 57.6105 40.0047 57.527L39.5271 57.4064C39.3926 57.374 39.272 57.2998 39.1793 57.1978C38.9892 57.1514 38.7898 57.0772 38.4744 56.8824C37.7928 56.4326 37.074 56.0524 36.3089 55.6443C35.5623 55.2455 34.7925 54.8374 34.0691 54.3645C33.981 54.3413 33.8975 54.2949 33.8233 54.2346C33.7862 54.2068 33.7492 54.1743 33.7121 54.1419C33.2205 53.7384 32.7568 53.5159 32.2699 53.2794C31.6995 53.0058 31.1106 52.7182 30.5031 52.1572C30.466 52.1201 30.4289 52.083 30.4011 52.0412C30.3594 52.0041 30.3223 51.967 30.2852 51.9253C30.095 51.8325 29.8957 51.6981 29.6545 51.5404C29.5154 51.4477 29.3809 51.3549 29.2696 51.2946C29.1723 51.239 29.0888 51.1602 29.0285 51.0721C28.6204 50.8541 28.1706 50.5295 27.7301 50.2049L27.4333 49.987C27.3313 49.9128 27.2478 49.8107 27.1968 49.6948C27.1644 49.6438 27.1087 49.5835 27.0531 49.5093C27.0252 49.4769 26.9974 49.4398 26.9696 49.4027C26.7841 49.4119 26.6033 49.3517 26.4641 49.2311L26.3389 49.1244C26.1071 48.925 25.903 48.7535 25.7825 48.5587C25.7268 48.5031 25.6758 48.4474 25.6155 48.3825C25.5135 48.3037 25.4254 48.2248 25.3419 48.1321C25.2956 48.0811 25.2585 48.0254 25.2306 47.9605C25.0452 47.7843 24.7855 47.5942 24.5722 47.4319C24.4516 47.3438 24.3403 47.2603 24.2522 47.1861C24.0574 47.0284 23.9693 46.7919 23.9972 46.5601C23.9276 46.4766 23.8534 46.3839 23.7839 46.2772C23.756 46.2401 23.7328 46.1984 23.7143 46.1566C23.5149 46.0546 23.3804 45.8645 23.3433 45.6466C23.297 45.5492 23.1764 45.3498 23.0836 45.2292L23.0465 45.2014C22.8518 45.053 22.7637 44.9556 22.5365 44.5939C22.4901 44.5244 22.4623 44.4455 22.4437 44.3667C22.3695 44.2832 22.2953 44.1766 22.2165 44.0143C22.1933 43.9679 22.1701 43.9215 22.1516 43.8659C22.1377 43.8288 22.1284 43.7963 22.1191 43.7592C22.0449 43.6479 21.9939 43.5923 21.9104 43.4995C21.8641 43.4485 21.8131 43.3883 21.7481 43.3141C21.6415 43.1889 21.5812 43.0358 21.5812 42.8782C21.4792 42.688 21.3911 42.5118 21.3493 42.4191C21.2844 42.2614 21.2288 42.1177 21.1917 41.9832C21.0433 41.7652 20.9737 41.4963 20.9273 41.2969C20.8207 40.8563 20.7697 40.337 20.7604 40.235C20.7558 40.1793 20.7604 40.1237 20.7604 40.0727C20.6213 39.2426 20.7279 38.4079 20.8671 37.5547C20.8856 37.4295 20.9413 37.3135 21.0201 37.2162C21.0201 37.1976 21.0155 37.1744 21.0108 37.1512L21.0015 37.0956C20.9644 36.8776 20.9134 36.553 21.0665 36.1403C21.0989 36.0569 21.1453 35.9827 21.2009 35.9178C21.4189 35.2825 21.6368 34.9115 22.0032 34.3457C22.0588 34.2623 22.1284 34.1927 22.2118 34.1371C22.235 34.0953 22.2582 34.0582 22.286 34.0165C22.3695 33.8913 22.4437 33.7847 22.504 33.6826C22.5596 33.5853 22.6385 33.4971 22.7358 33.4369C22.81 33.3905 22.9538 33.2885 23.1207 33.1169C23.1996 33.0381 23.2691 32.9778 23.3433 32.9175C23.3897 32.8804 23.4361 32.8387 23.4824 32.7969C23.603 32.681 23.756 32.5558 23.9415 32.4306C24.4423 32.0411 25.0452 31.7536 25.6109 31.6237C25.699 31.5124 25.8196 31.429 25.9633 31.3919C26.696 31.1832 27.1412 31.1322 27.4797 31.2342C27.54 31.2203 27.6049 31.2064 27.6698 31.1971C27.7904 31.0951 27.9434 31.0348 28.1103 31.0302C29.0749 31.0163 30.7906 31.0441 31.6671 31.3362C31.8757 31.3501 32.0751 31.3733 32.2513 31.3965L33.137 31.5032C33.6981 31.582 34.2268 31.735 34.8111 31.9112C34.8945 31.9391 34.9734 31.9762 35.0383 32.0318C35.6272 32.2915 35.924 32.4862 36.0863 32.6439C36.2022 32.6856 36.3181 32.7227 36.4294 32.7598C36.5964 32.8201 36.7587 32.8758 36.9303 32.9268C37.1436 32.9963 37.3383 33.0705 37.5516 33.1586C37.5655 33.1633 37.5841 33.1725 37.598 33.1818C37.8252 33.2977 38.0385 33.4276 38.2611 33.576C38.3168 33.6131 38.3631 33.6548 38.4049 33.7012C38.4605 33.7244 38.5254 33.7522 38.595 33.78C38.6367 33.7939 38.6877 33.8218 38.7248 33.8449C38.8176 33.9052 38.8918 33.9701 38.9428 34.0443C38.9474 34.0443 38.9521 34.049 38.9613 34.0536C39.0355 34.0861 39.1097 34.1185 39.1839 34.1603C39.3045 34.2252 39.3972 34.3226 39.4575 34.4339C39.643 34.5683 39.8563 34.7121 40.0835 34.8651C40.64 35.2407 41.2706 35.6627 41.7622 36.1682C41.8039 36.2099 41.841 36.2563 41.8688 36.3073C42.1053 36.4696 42.3326 36.669 42.5041 36.8406C42.6293 36.9704 42.7499 37.0956 42.8566 37.2115C42.9957 37.3599 43.1163 37.4898 43.2044 37.5686C43.2832 37.6428 43.3388 37.7309 43.3759 37.8236C43.4594 37.9303 43.5197 38.0369 43.5707 38.1436C43.6634 38.1946 43.7469 38.2734 43.8072 38.3662C43.8443 38.4218 43.8767 38.4682 43.9046 38.5053C44.0437 38.5656 44.1596 38.6676 44.2384 38.8067C44.3265 38.9644 44.3868 39.1035 44.4054 39.2658C44.4239 39.2983 44.4517 39.3446 44.4842 39.4003C44.577 39.5487 44.6048 39.7249 44.577 39.8872L44.6743 40.0959C44.7393 40.1329 44.7949 40.1747 44.8413 40.2211C44.9618 40.2674 45.0731 40.3509 45.1473 40.4668C45.1566 40.3926 45.1798 40.3231 45.2123 40.2535C45.3838 39.9104 45.458 39.7295 45.5322 39.5487C45.6296 39.3122 45.7316 39.071 45.9959 38.7186C46.0469 38.6491 46.1119 38.5888 46.1861 38.5424C46.3437 38.3105 46.557 38.0091 46.9234 37.87C46.9605 37.8051 47.0115 37.7355 47.0764 37.666C47.1784 37.5593 47.3083 37.4898 47.4474 37.4619C47.5308 37.3785 47.6189 37.295 47.7071 37.2115C47.925 36.9982 48.1522 36.7803 48.2728 36.6365C48.3563 36.5345 48.4676 36.4603 48.5928 36.4232C48.7087 36.3351 48.8107 36.247 48.9127 36.1682C49.2049 35.927 49.4785 35.6998 49.817 35.5839C49.8587 35.57 49.8958 35.5607 49.9375 35.5514C50.021 35.5004 50.1137 35.4401 50.1972 35.3845C50.4476 35.2175 50.7908 34.9903 51.1386 35.0089C51.287 34.8605 51.4632 34.7445 51.7646 34.6333C51.8017 34.6193 51.8342 34.6101 51.8712 34.6054C52.3396 34.3782 52.7384 34.1927 53.0584 34.049C53.1233 34.0211 53.1928 34.0026 53.2624 33.9933C53.4479 33.9748 53.7771 33.8588 54.0971 33.7429C54.5376 33.5899 55.0245 33.4183 55.4882 33.3627C55.5161 33.3441 55.5485 33.3302 55.581 33.3117C55.6784 33.2421 55.7897 33.2004 55.9056 33.1865C55.9334 33.1679 55.9612 33.1494 55.9891 33.1308C56.0957 33.0659 56.2209 33.0334 56.3461 33.0334C56.4018 33.0242 56.5177 32.9824 56.5919 32.9546C56.731 32.9082 56.8608 32.8619 56.9907 32.8387C57.1344 32.783 57.2782 32.7552 57.3617 32.7413L57.473 32.7227C57.5935 32.6996 57.7141 32.7088 57.8254 32.7459C58.0433 32.6578 58.3076 32.5743 58.7018 32.5512C58.7389 32.5512 58.776 32.5512 58.8131 32.5512L58.9893 32.5697C59.1794 32.4955 59.3881 32.4723 59.5736 32.4491C59.5921 32.4491 59.6061 32.4491 59.62 32.4445C59.7452 32.3981 59.8843 32.3889 60.0234 32.4167L60.079 32.4306C60.1486 32.4445 60.2367 32.4631 60.3295 32.4955C60.3387 32.4955 60.3526 32.4955 60.3619 32.4955C60.4686 32.4399 60.5799 32.4074 60.7143 32.412C61.0389 32.426 61.3172 32.4028 61.5861 32.3842C62.0081 32.3518 62.444 32.3193 62.9495 32.4306C62.968 32.4306 62.9819 32.4399 63.0005 32.4445C63.0839 32.412 63.1767 32.3935 63.2648 32.3981C63.6775 32.4074 63.9047 32.4816 64.0856 32.5373C64.2108 32.579 64.2896 32.6022 64.4751 32.6161C64.5447 32.6161 64.6142 32.6346 64.6791 32.6578C64.8182 32.7088 64.9249 32.7784 65.0037 32.8619C65.2588 32.9268 65.4721 33.0334 65.639 33.1169C65.7179 33.1586 65.8245 33.2096 65.8848 33.2282C65.8941 33.2282 65.9034 33.2282 65.9126 33.2328C65.9729 33.2375 66.0332 33.2514 66.0888 33.2699C66.1677 33.2746 66.2511 33.2931 66.33 33.3302C66.3671 33.3441 66.3903 33.3534 66.4181 33.358C66.5386 33.3905 66.6638 33.4276 66.8308 33.5111C66.956 33.4925 67.0905 33.5111 67.211 33.5667C67.2296 33.576 67.5217 33.7151 67.7072 33.9701C68.0364 34.0304 68.2312 34.151 68.5604 34.4988C68.6068 34.5498 68.6439 34.6008 68.6764 34.6611C68.7135 34.6935 68.7506 34.7214 68.7784 34.7492C68.8526 34.8141 68.9129 34.8976 68.95 34.981C68.9778 34.995 69.0103 35.0135 69.0381 35.0321C69.0752 35.0552 69.1123 35.0877 69.1447 35.1202C69.2236 35.1665 69.2931 35.2315 69.3488 35.3056C69.4415 35.4308 69.5111 35.5329 69.6131 35.6488C69.7244 35.774 69.78 35.9317 69.7847 36.0893C69.7939 36.1172 69.8078 36.145 69.8171 36.1728C69.8496 36.2424 69.896 36.3397 69.947 36.4371C69.9562 36.451 69.9609 36.4649 69.9702 36.4789C70.0165 36.5762 70.0629 36.6829 70.1278 36.7849C70.2345 36.9565 70.253 37.1559 70.202 37.3367C70.2113 37.4109 70.2113 37.4851 70.202 37.564C70.3087 37.6984 70.3643 37.8422 70.4153 38.0833C70.4895 38.1853 70.5359 38.3059 70.5498 38.4404C70.5637 38.598 70.5776 38.7372 70.5915 38.867C70.6147 39.1035 70.6425 39.3354 70.6425 39.595C70.6704 39.6831 70.6889 39.7852 70.6936 39.9057C70.7028 40.0356 70.675 40.1654 70.6194 40.2721C70.6194 40.286 70.6194 40.2953 70.6147 40.3092C70.6008 40.4344 70.5823 40.5457 70.5683 40.6477C70.5823 40.7543 70.5684 40.8656 70.5359 40.9723C70.5127 41.0372 70.4849 41.0975 70.4571 41.1485C70.4571 41.1624 70.4524 41.1717 70.4478 41.1856C70.3968 41.385 70.4014 41.4731 70.4061 41.5937C70.4153 41.8533 70.406 42.1038 70.2437 42.5304C70.2159 42.6231 70.1417 42.7437 70.0444 42.906L69.9933 42.9895C69.9933 43.0219 69.9933 43.059 69.9887 43.0915C69.9748 43.212 69.9284 43.328 69.8542 43.43C69.7615 43.5552 69.6826 43.685 69.6131 43.8241L69.372 44.3667C69.2236 44.7238 68.9593 45.2709 68.477 45.7532C68.4306 45.7996 68.3796 45.8367 68.3239 45.8691C68.2127 46.0361 68.004 46.305 67.7397 46.4581C67.5542 46.7038 67.4012 46.8337 67.1971 47.0006C67.1415 47.047 67.0766 47.098 66.9977 47.1629C66.9282 47.2232 66.854 47.2649 66.7751 47.2928C66.7241 47.3484 66.6685 47.404 66.5943 47.4829C66.4969 47.5803 66.3763 47.6452 66.2465 47.673C66.0378 47.9002 65.7549 48.1274 65.4814 48.35C65.384 48.4289 65.2912 48.5077 65.1985 48.5819C65.1336 48.6375 65.064 48.6746 64.9852 48.7025C64.6699 48.9343 64.3313 49.1291 64.0021 49.3192C63.761 49.4583 63.5245 49.5974 63.3112 49.7412C63.1767 49.9545 62.917 50.1214 62.662 50.2884C62.5507 50.3579 62.4394 50.4275 62.3837 50.4739C62.3049 50.5388 62.2029 50.5898 62.1009 50.613C62.0499 50.6593 61.9849 50.7057 61.9154 50.7521C61.9015 50.7614 61.8875 50.7706 61.8736 50.7799C61.8087 50.8448 61.7345 50.8958 61.6511 50.9283C61.5583 50.97 61.4656 50.9932 61.3821 51.0071C61.2708 51.1555 61.1039 51.2575 60.9137 51.2807C60.8581 51.2993 60.6958 51.3596 60.5196 51.4523C60.5196 51.4523 60.5103 51.4569 60.5057 51.4616C60.4361 51.5497 60.348 51.6239 60.2367 51.6703C59.9307 51.8094 59.6895 51.9763 59.4298 52.1525C59.2675 52.2638 59.1099 52.3705 58.9476 52.4678C58.8873 52.5049 58.8177 52.5281 58.7528 52.5467C58.7204 52.5745 58.6833 52.6023 58.6369 52.6255L58.3216 52.8064C58.2056 52.8713 58.0804 52.9037 57.9506 52.8991C57.9506 52.8991 57.9506 52.8991 57.9459 52.8991C57.8439 53.0707 57.677 53.1912 57.4822 53.233C57.3292 53.3072 57.1483 53.3999 56.9768 53.488C56.6661 53.6457 56.4389 53.7616 56.258 53.8312C56.0957 53.9332 55.9241 54.0352 55.7618 54.128C55.6691 54.179 55.5578 54.2439 55.479 54.2949C55.4326 54.3644 55.3723 54.4294 55.2981 54.4804C55.1312 54.5963 54.9364 54.6751 54.7648 54.7447C54.686 54.7772 54.5794 54.8235 54.5191 54.8514C54.4356 54.9673 54.3104 55.06 54.1713 55.1064C54.06 55.1435 53.958 55.1667 53.8606 55.176C53.8142 55.2084 53.7632 55.2409 53.7122 55.2733C53.5824 55.431 53.3922 55.5145 53.1928 55.5191C53.1233 55.5562 53.0305 55.6119 52.961 55.6536C52.8404 55.7231 52.7106 55.802 52.5761 55.8715C52.5344 55.9272 52.4834 55.9782 52.4231 56.0338C52.3721 56.0802 52.3211 56.1127 52.2608 56.1405C52.1309 56.3074 51.9315 56.4141 51.7089 56.4141H51.6116C51.4956 56.5857 51.3055 56.7109 51.0922 56.8592C51.018 56.9103 50.9392 56.9427 50.8603 56.9613C50.8325 56.9798 50.8047 57.003 50.7769 57.0308C50.6053 57.1699 50.3642 57.3647 50.021 57.5316C49.9793 57.5502 49.9375 57.5687 49.8958 57.578C49.8402 57.6105 49.7799 57.6383 49.7196 57.6522C49.6268 57.7403 49.5063 57.8284 49.3022 57.9165C49.2698 57.9304 49.242 57.9397 49.2095 57.949L49.1863 57.9768C49.1121 58.0649 49.0194 58.1298 48.9174 58.1716C47.9435 58.9321 47.1923 59.7111 46.6173 60.5412C46.4875 60.7313 46.2742 60.8426 46.047 60.8426L46.0145 60.8519ZM45.5693 58.6121C45.6574 58.6167 45.7409 58.6399 45.8197 58.6817L45.8661 58.7049C45.9635 58.7512 46.0423 58.8161 46.1072 58.8996C46.6869 58.2226 47.3871 57.578 48.2171 56.9427C48.2264 56.9334 48.2403 56.9242 48.2496 56.9195C48.2589 56.9103 48.2728 56.901 48.2821 56.8917C48.4165 56.7897 48.5464 56.6923 48.6809 56.5949C48.7504 56.5439 48.8293 56.5068 48.9127 56.4883C48.9313 56.4744 48.9498 56.4605 48.9684 56.4512C49.0147 56.3816 49.075 56.3213 49.1492 56.2703L49.3254 56.1498C49.4599 56.0617 49.6129 56.0246 49.766 56.0338C49.8031 56.006 49.8402 55.9782 49.8726 55.9457C50.0164 55.8298 50.1694 55.7046 50.3595 55.6304C50.4198 55.5052 50.5125 55.3985 50.6331 55.329L50.9809 55.1203C51.0736 55.0647 51.1803 55.0322 51.2916 55.0229C51.3194 55.0044 51.3472 54.9858 51.3751 54.9719C51.389 54.9626 51.4029 54.958 51.4214 54.9487C51.4354 54.9302 51.4493 54.9163 51.4632 54.8977C51.5466 54.8003 51.6579 54.7308 51.7785 54.6891C51.8852 54.6566 52.0706 54.5453 52.2237 54.4572C52.3396 54.3876 52.4602 54.3181 52.5807 54.2578C52.6225 54.2207 52.6688 54.1836 52.7152 54.1465C52.8219 54.0677 52.9424 54.0213 53.0676 54.012C53.0769 54.0074 53.0862 53.9981 53.0955 53.9935C53.2485 53.8822 53.4525 53.7245 53.7307 53.6318C53.7818 53.6132 53.8374 53.604 53.8931 53.5993C53.9997 53.5437 54.1064 53.5019 54.2084 53.4602C54.2594 53.4417 54.3243 53.4138 54.3753 53.3906C54.5515 53.2052 54.8066 53.0568 55.0384 52.9223C55.1961 52.8295 55.3769 52.7322 55.53 52.6255C55.6042 52.5745 55.683 52.542 55.7665 52.5235C55.8824 52.4725 56.1282 52.3426 56.3183 52.2499C56.5131 52.1525 56.7125 52.0505 56.884 51.967C57.0463 51.8001 57.2689 51.661 57.5147 51.5126C57.5982 51.4616 57.677 51.4106 57.7512 51.3642C57.8532 51.2946 57.9738 51.2575 58.0943 51.2483C58.1314 51.2204 58.1732 51.1926 58.2195 51.1648C58.3216 51.0999 58.4375 51.0628 58.5534 51.0535C58.572 51.0396 58.5951 51.0257 58.6137 51.0118C58.7343 50.9283 58.8641 50.8402 59.0079 50.7475C59.0542 50.5712 59.1702 50.4182 59.3325 50.3255L59.6246 50.1585C59.7034 50.1122 59.7869 50.0843 59.875 50.0751C59.8889 50.0704 59.8982 50.0658 59.9121 50.0612C59.9307 50.0519 59.9492 50.0472 59.9678 50.0426C60.0837 49.9916 60.2043 49.973 60.3295 49.987H60.3387C60.3944 49.9359 60.4593 49.8803 60.5381 49.8339C60.6772 49.7505 60.8766 49.6345 61.0992 49.6113C61.1549 49.5232 61.2337 49.449 61.3311 49.3934C61.4563 49.3238 61.5676 49.2867 61.665 49.2682C61.7253 49.2265 61.7948 49.1801 61.8783 49.1291C61.9015 49.1152 61.92 49.1013 61.9432 49.0873C61.9896 49.0039 62.0545 48.9297 62.1333 48.8694C62.5136 48.5726 62.8985 48.35 63.2741 48.1321C63.6358 47.9188 63.9789 47.7194 64.2664 47.4921C64.3221 47.4504 64.3823 47.4133 64.4426 47.3901C64.4844 47.353 64.5307 47.3206 64.5725 47.2835C64.8182 47.0841 65.1289 46.8337 65.2449 46.6853C65.2727 46.6482 65.3051 46.6157 65.3422 46.5833C65.4582 46.4859 65.5927 46.3978 65.7411 46.3468C65.8941 46.1845 66.0054 46.0685 66.3346 45.8089C66.4042 45.7532 66.4784 45.7161 66.5618 45.6883C66.6082 45.6326 66.6546 45.5677 66.7148 45.4703C66.7705 45.3822 66.8447 45.3127 66.9282 45.257C67.0255 45.1272 67.1229 45.0113 67.2157 44.9C67.276 44.8304 67.3362 44.7609 67.3919 44.6867C67.4846 44.5661 67.6098 44.4826 67.7489 44.4409C67.8649 44.2693 67.9669 44.0746 68.0689 43.8334L68.3239 43.2584C68.3239 43.2584 68.3239 43.2399 68.3239 43.2306C68.3239 43.1332 68.3518 43.0358 68.3935 42.9524C68.5233 42.6834 68.6671 42.4562 68.7738 42.3031L68.8248 42.215C68.8665 42.1409 68.9036 42.0806 68.9268 42.0388C69.001 41.8487 69.001 41.7977 68.9963 41.6632C68.9963 41.5705 68.9871 41.4592 68.9963 41.3154C68.899 41.0743 68.9129 40.8007 68.9175 40.6477C68.9175 40.6245 68.9175 40.6013 68.9221 40.5781C68.9778 40.2118 69.0891 39.9753 69.2189 39.8223C69.2421 39.5487 69.2189 39.3307 69.1865 39.0293C69.1865 39.0061 69.1818 38.9829 69.1772 38.9597C69.1308 38.8763 69.0984 38.7882 69.0891 38.6908C69.0613 38.5146 69.0427 38.4218 69.0334 38.3662C68.95 38.2549 68.8758 38.1158 68.7877 37.87C68.7738 37.8283 68.7645 37.7865 68.7598 37.7448C68.7459 37.6521 68.7459 37.564 68.7506 37.4898C68.7274 37.448 68.7088 37.4063 68.6949 37.3646C68.6486 37.2162 68.63 37.0863 68.63 36.975C68.5883 36.8916 68.5512 36.8081 68.5141 36.7293C68.4816 36.6458 68.4445 36.567 68.4074 36.502C68.3471 36.4603 68.2915 36.4093 68.2451 36.3444C68.0875 36.2934 67.9715 36.2006 67.9112 36.1543C67.8417 36.1032 67.786 36.0383 67.7397 35.9641C67.7258 35.9456 67.633 35.8621 67.582 35.8157C67.4197 35.6673 67.2389 35.505 67.1554 35.2778C67.0302 35.2268 66.8864 35.1526 66.7102 35.0274C66.6917 35.0135 66.6778 35.0042 66.6592 34.9903C66.5989 34.9764 66.5386 34.9532 66.4737 34.93C66.4273 34.9115 66.381 34.8883 66.3392 34.8651C66.3068 34.8419 66.279 34.828 66.2511 34.8095H66.2419C66.0471 34.8095 65.8755 34.7445 65.7086 34.6843C65.6344 34.6564 65.5509 34.6286 65.4535 34.5962C65.3747 34.573 65.3051 34.5359 65.2402 34.4895C65.1568 34.4524 65.0779 34.4153 65.0037 34.3782C64.8321 34.2947 64.6838 34.2205 64.54 34.2066C64.4658 34.202 64.3916 34.1788 64.3221 34.151C64.3035 34.1417 64.285 34.1371 64.2711 34.1278C64.0809 34.2159 63.8583 34.2205 63.6589 34.1185C63.594 34.0861 63.4596 34.0814 63.3019 34.0814C63.1025 34.0814 62.8521 34.0722 62.5738 33.998C62.4301 33.9609 62.3049 33.8774 62.2168 33.7661C62.0499 33.7661 61.8736 33.78 61.6742 33.7939C61.5212 33.8032 61.3589 33.8171 61.1781 33.8264C60.9833 33.9006 60.7746 33.9052 60.552 33.9052C60.4454 33.9052 60.3341 33.9052 60.2413 33.9191C60.0883 33.947 59.9307 33.9191 59.7962 33.8449C59.773 33.8449 59.7498 33.8496 59.722 33.8542C59.671 33.8588 59.5875 33.8728 59.5226 33.882C59.3881 33.9748 59.2258 34.0165 59.0589 34.0026L58.7157 33.9701C58.5163 33.9887 58.4097 34.0304 58.2566 34.0953C58.2566 34.0953 58.2149 34.1139 58.2103 34.1139C58.0155 34.1927 57.7744 34.2901 57.3802 34.355C57.2457 34.3782 57.1113 34.3597 56.9953 34.3087C56.8701 34.3504 56.7356 34.3968 56.6012 34.4246C56.5316 34.471 56.4435 34.5173 56.3229 34.5591C56.1884 34.6889 56.0076 34.7677 55.8082 34.7585C55.4975 34.7445 54.9782 34.9347 54.5515 35.0831C54.1852 35.2083 53.842 35.3335 53.5267 35.3845C53.1789 35.5421 52.743 35.7462 52.2329 35.9966C52.1819 36.0198 52.1309 36.0383 52.0799 36.0522C51.9454 36.2192 51.7692 36.3861 51.3287 36.5577C51.2916 36.5716 51.2545 36.5809 51.2174 36.5901C51.0968 36.618 50.9855 36.6226 50.8928 36.6087C50.6702 36.7524 50.4244 36.9101 50.1508 36.9936C50.1416 36.9936 50.1277 36.9982 50.1184 37.0029C50.021 37.0724 49.9051 37.1698 49.7938 37.2579C49.6222 37.397 49.4321 37.5547 49.2095 37.7077C49.2002 37.717 49.1863 37.7216 49.1724 37.7309C49.024 37.8886 48.8478 38.0555 48.667 38.2317C48.4583 38.4311 48.2403 38.6444 48.0641 38.8345C47.9946 38.9366 47.925 39.0154 47.8833 39.0618C47.8323 39.1174 47.7766 39.1591 47.7117 39.1962C47.6792 39.2148 47.6375 39.2473 47.5958 39.2797C47.4752 39.3678 47.3454 39.4606 47.2016 39.5255C47.1599 39.5811 47.1228 39.6321 47.0857 39.6739C47.0486 39.7156 47.0022 39.7527 46.9558 39.7852C46.8956 39.8872 46.8584 39.9706 46.8214 40.068C46.7518 40.2303 46.6915 40.3834 46.5895 40.5967C46.5895 40.5967 46.5895 40.6013 46.5895 40.6059C46.5385 40.9769 46.4272 41.1578 46.3205 41.3015C46.3159 41.3108 46.3113 41.334 46.3066 41.3618C46.2881 41.5287 46.2046 41.6818 46.084 41.7931C46.0609 42.0017 46.0377 42.28 46.033 42.5536C46.0284 42.8828 45.7873 43.1657 45.4627 43.2259C45.1381 43.2862 44.8135 43.1054 44.6929 42.7993L44.628 42.637C44.6187 42.6092 44.6094 42.5814 44.6001 42.5536C44.5862 42.5257 44.5723 42.4979 44.563 42.4701C44.4564 42.1919 44.3126 41.9043 44.1596 41.6076C44.0761 41.5519 43.9973 41.4731 43.9231 41.3618C43.8304 41.3108 43.7469 41.2412 43.682 41.1531C43.5197 40.9259 43.4269 40.7868 43.3759 40.6477L43.0467 39.9289C43.0328 39.8965 43.0235 39.8686 43.0096 39.8362C43.0003 39.8037 42.991 39.7759 42.9864 39.7434C42.9725 39.7295 42.9586 39.7202 42.9447 39.7063C42.583 39.3446 42.4624 39.1081 42.3465 38.8577C42.2955 38.7418 42.263 38.663 42.0358 38.4728C41.943 38.394 41.8781 38.3013 41.8364 38.1946C41.8364 38.1946 41.8364 38.1946 41.8317 38.1853C41.7297 38.074 41.6184 37.9581 41.5025 37.8422C41.2521 37.5918 40.9971 37.4202 40.8997 37.3738C40.7606 37.3135 40.6446 37.2115 40.5704 37.0771C40.5426 37.026 40.5148 36.9704 40.4962 36.924C40.1345 36.6087 39.6894 36.3119 39.2906 36.043C38.915 35.7925 38.5625 35.5561 38.2843 35.3149C38.275 35.3056 38.2658 35.2964 38.2565 35.2871C38.1452 35.2315 38.0107 35.1573 37.867 35.0321C37.8531 35.0228 37.8438 35.0089 37.8299 34.9996C37.5609 34.8883 37.3661 34.7816 37.2178 34.6704C37.1528 34.624 37.1018 34.5683 37.0601 34.5034C37.0276 34.4849 36.9952 34.471 36.9627 34.4524C36.7958 34.3828 36.6381 34.3272 36.4851 34.2762C36.3181 34.2252 36.1373 34.1649 35.9564 34.1C35.7849 34.0397 35.6087 33.9794 35.4139 33.9191C35.2516 33.8681 35.1125 33.7568 35.0244 33.6131C34.8992 33.5342 34.6441 33.4044 34.3056 33.2607C34.2778 33.2467 34.25 33.2328 34.2221 33.2189C33.7677 33.0844 33.3503 32.9685 32.9469 32.9129L32.0612 32.8062C31.8804 32.783 31.6949 32.7598 31.4955 32.7506C31.4166 32.7506 31.3378 32.732 31.2636 32.6996C30.8787 32.5465 29.7751 32.4491 28.4628 32.4491H28.4535C28.3376 32.5094 28.1984 32.5604 28.013 32.5883C27.9666 32.5975 27.9202 32.5975 27.8785 32.5975C27.8228 32.5975 27.7486 32.6207 27.6791 32.6393C27.475 32.6856 27.1875 32.7552 26.9232 32.6161C26.8676 32.6254 26.8027 32.6393 26.7145 32.6578C26.5986 32.8387 26.3946 32.9592 26.1674 32.9731C25.7686 32.9917 25.2028 33.2375 24.7623 33.5806C24.6093 33.6873 24.5119 33.7661 24.4331 33.8403C24.3635 33.9052 24.3032 33.9562 24.2476 34.0026C24.1966 34.0443 24.1455 34.0907 24.0992 34.1324C23.9276 34.3087 23.7607 34.4431 23.6215 34.5405C23.5659 34.6286 23.5056 34.7167 23.4453 34.8048C23.385 34.8976 23.3294 35.0042 23.2877 35.1016C23.2228 35.2454 23.1115 35.3567 22.9723 35.4262C22.7266 35.8204 22.5782 36.1357 22.3834 36.7988C22.3788 36.822 22.3695 36.8406 22.3602 36.8637C22.3602 36.8637 22.3602 36.8684 22.3602 36.873L22.3741 36.9472C22.402 37.1188 22.4391 37.3553 22.3973 37.666C22.3741 37.8236 22.3 37.9674 22.1887 38.074C22.0727 38.8485 22.0125 39.544 22.1979 40.1747C22.2397 40.3138 22.235 40.4622 22.1933 40.592C22.2118 40.7265 22.2397 40.8656 22.2675 40.9862C22.2768 41.0279 22.286 41.065 22.2953 41.0975C22.3324 41.1299 22.3649 41.1624 22.3973 41.1995C22.5086 41.3433 22.5596 41.5195 22.5411 41.691C22.555 41.7328 22.5782 41.7931 22.6106 41.8765C22.7312 42.1223 22.8703 42.382 22.9677 42.535C23.0048 42.5953 23.0326 42.6602 23.0512 42.7251C23.1671 42.8642 23.2691 43.0034 23.4639 43.3187C23.4778 43.3419 23.4871 43.3651 23.501 43.3883C23.5288 43.4485 23.5474 43.5088 23.5613 43.5645C23.6586 43.6711 23.7653 43.8102 23.8998 44.0746C23.9137 44.1024 23.9276 44.1348 23.9369 44.1673C23.9601 44.1858 23.9832 44.2044 24.0064 44.2229C24.0343 44.2461 24.0574 44.2693 24.0806 44.2971C24.0992 44.3203 24.4331 44.6959 24.6093 45.1133C24.7762 45.2431 24.9246 45.4054 25.0313 45.5584C25.0823 45.628 25.1147 45.7115 25.1379 45.7903C25.2446 45.9109 25.3512 46.0036 25.4625 46.1056C25.6526 46.2772 25.852 46.4581 26.0329 46.727C26.0746 46.7919 26.1071 46.8615 26.1303 46.9357C26.223 47.0192 26.3111 47.1073 26.3899 47.1954C26.427 47.2371 26.4549 47.2788 26.4827 47.3252C26.5059 47.3438 26.5291 47.3623 26.5522 47.3809C26.594 47.3948 26.6311 47.4087 26.6728 47.4319C26.8583 47.5293 27.0531 47.6498 27.2432 47.8399C27.3267 47.8631 27.3962 47.8863 27.4472 47.9049C27.6142 47.9651 27.7486 48.0857 27.8275 48.2434C27.8785 48.3454 28.0269 48.5355 28.1382 48.67C28.2309 48.7859 28.3097 48.8833 28.37 48.976L28.5462 49.1013C28.9682 49.4073 29.6035 49.871 29.8771 49.9499C29.9281 49.9638 29.9791 49.987 30.0301 50.0148C30.262 50.1446 30.3826 50.293 30.4521 50.4275C30.582 50.5156 30.7628 50.6315 30.8602 50.6825C30.99 50.7011 31.1152 50.7567 31.2219 50.8448C31.3378 50.9422 31.4166 51.0396 31.4769 51.1277C31.5604 51.1926 31.63 51.2715 31.681 51.3596C32.0566 51.6517 32.4368 51.8372 32.8681 52.0459C33.3411 52.2731 33.8651 52.5281 34.4262 52.9547C34.454 52.9687 34.4865 52.9872 34.5143 53.0058C35.2655 53.5251 36.1234 53.9842 36.9534 54.4294C37.7093 54.8328 38.493 55.2502 39.2117 55.7231C39.4065 55.8391 39.4575 55.853 39.5781 55.8808C39.6523 55.8947 39.7311 55.9133 39.8331 55.9457C39.963 55.9828 40.0743 56.057 40.1624 56.1544L40.3803 56.21C40.4035 56.2147 40.4267 56.224 40.4499 56.2332C40.844 56.3816 41.1408 56.5903 41.4051 56.7804C41.5999 56.9195 41.7807 57.0494 41.994 57.1514C42.1332 57.1328 42.2769 57.1607 42.4068 57.2302C42.4949 57.2766 42.6247 57.3369 42.7546 57.3972C42.954 57.4899 43.1302 57.5734 43.2739 57.6615C43.413 57.6986 43.5429 57.7681 43.6588 57.8702C43.6588 57.8702 43.6681 57.8748 43.6681 57.8794L44.2013 58.0696C44.2384 58.0835 44.2755 58.0974 44.308 58.1159C44.5677 58.2597 44.7393 58.422 44.8274 58.6075C44.8413 58.6121 44.8506 58.6214 44.8691 58.626C45.0453 58.5379 45.2493 58.524 45.4302 58.5936L45.56 58.6399L45.5693 58.6121ZM60.8813 51.2807C60.8813 51.2807 60.8627 51.2807 60.8535 51.2807C60.8627 51.2807 60.872 51.2807 60.8813 51.2807ZM22.286 42.1594C22.286 42.1594 22.2768 42.164 22.2721 42.1687C22.2721 42.1687 22.2814 42.164 22.286 42.1594ZM69.2143 40.2211C69.2143 40.2211 69.2004 40.2489 69.1957 40.2582C69.2004 40.2442 69.2097 40.235 69.2143 40.2257V40.2211ZM55.581 33.3209C55.581 33.3209 55.5439 33.3441 55.5253 33.3627C55.5253 33.3627 55.5253 33.3627 55.53 33.3627C55.5439 33.3488 55.5624 33.3348 55.5763 33.3256L55.581 33.3209Z" fill="#EE588B"/>
</svg>
