<svg width="91" height="91" viewBox="0 0 91 91" fill="none" xmlns="http://www.w3.org/2000/svg">
<path d="M68.5925 42.1177C68.6579 42.3212 68.9777 41.965 69.0213 41.7615C68.8178 42.2267 68.7015 41.8851 68.7742 41.4127C69.1958 40.7149 69.0141 40.5695 69.174 40.1843L68.9559 40.6132C68.8687 40.4096 69.0359 40.0462 69.1594 39.5011C69.283 39.4939 69.0795 40.0026 69.1885 39.8355C69.1376 39.1741 69.879 38.5781 69.9008 37.6768C70.0898 37.3061 70.1842 37.7059 70.3223 37.3643C70.3223 36.3613 70.7294 36.3395 70.693 35.2711C70.4677 35.5545 70.5113 35.6054 70.3877 34.864C70.3877 35.431 70.3587 35.9979 70.3151 36.5721C70.2715 36.1941 70.2424 35.8234 70.177 35.4528C70.1116 35.9543 70.1624 36.5357 70.0607 36.8264C70.0025 36.2886 70.0243 36.354 69.8281 36.5648C70.2351 35.9252 69.8572 35.1984 70.1043 34.4207L70.5985 34.4716C70.8747 33.236 70.395 32.2693 70.2497 30.6994C70.2497 30.8738 70.2569 31.041 70.2497 31.2154C70.0244 31.0337 70.0752 30.2488 69.8572 29.7763C70.0316 29.7836 70.0098 29.4565 70.0534 29.2167C69.9444 29.2748 69.7264 28.0756 69.3411 28.0683C69.3193 27.8212 69.3193 27.5741 69.283 27.327C69.0649 26.7092 68.7888 26.433 68.5126 26.1713C68.2436 25.9097 67.9456 25.6771 67.6477 25.1538C68.0038 25.3645 67.793 24.8194 68.3454 25.4663C68.1346 25.1029 67.9456 24.7758 67.8439 24.8412C67.8148 24.7104 67.604 24.5069 67.3787 24.2889C67.1462 24.0854 66.9063 23.8673 66.8409 23.6638C66.6737 23.5766 66.4993 23.6638 66.194 23.3222C66.1795 23.2641 66.2522 23.2641 66.2522 23.2641C66.2013 23.3077 65.6562 22.8425 65.8233 23.2495C65.5399 22.6463 64.8494 22.0575 64.0935 21.6432C63.3376 21.2144 62.5672 20.9019 62.1093 20.524C61.6805 20.3713 61.179 20.3132 60.6993 20.2042C60.2196 20.1315 59.7399 20.0879 59.3401 20.0443C59.3765 20.0152 59.3692 19.9861 59.4128 19.9788C58.9331 19.8916 58.7514 20.0006 58.5697 20.0951C58.3735 20.1969 58.17 20.3059 57.5449 20.255C56.8835 20.0152 58.2063 20.0806 57.8066 20.0006C57.5958 19.4555 56.2657 20.1533 55.3863 20.0515L55.5825 19.9788C54.8848 19.928 54.0417 20.524 53.0459 20.8801C53.0459 20.8801 53.075 20.8147 53.0241 20.8001C52.4209 21.2944 51.2434 21.9849 50.4294 22.5736C50.5747 22.2174 50.771 22.2465 50.4875 22.152C50.1169 22.4209 50.771 22.3773 50.0514 22.9152C49.7389 22.9661 49.1574 23.2786 48.9467 23.155C49.172 22.9806 49.3973 22.7916 49.6444 22.6317C49.092 22.6317 48.7359 23.3077 48.3507 23.5475L48.3143 23.4094C47.3331 24.3397 47.5367 24.5796 46.5773 25.6117L46.7444 25.5681C46.5046 26.3676 46.1702 25.9315 45.9086 26.7019H45.5016C45.2399 27.1452 44.7602 28.3518 44.3823 29.1658C44.4041 28.8823 44.5204 28.4971 44.6657 28.0974C44.8329 27.7049 45 27.2979 45.1309 26.9853C44.9855 27.1961 44.7529 27.5668 44.5567 27.9157C44.375 28.2791 44.2296 28.6207 44.2369 28.7733C44.3096 28.5843 44.375 28.3154 44.5204 28.1701C44.4186 28.8387 44.1351 29.5946 43.7136 30.4886C43.4737 30.2778 43.1321 30.8447 42.8342 31.5498C42.8342 31.557 42.8269 31.5716 42.8196 31.5788C42.8051 31.2518 42.6306 30.9901 42.776 30.5904C42.8269 30.6122 42.8923 30.7357 42.9068 30.5758C42.8777 30.3941 42.7469 29.6818 42.8487 29.2457L42.965 29.631C43.2484 27.9011 42.7833 26.8836 42.6452 25.4154C43.0304 25.4154 43.0522 23.9763 43.0013 23.2422L43.0595 23.2568C42.7542 21.1127 41.962 19.6082 40.5665 18.0528C40.3412 17.4059 39.4763 16.541 38.3352 16.0104C37.1941 15.429 35.7695 15.3054 34.6865 15.3418C35.0209 15.3708 34.6575 15.6325 34.3086 15.7197C33.7998 15.727 33.0875 16.2866 33.0585 15.9523C33.1093 15.9305 33.1675 15.9159 33.2256 15.9087C32.775 15.6979 31.8302 16.1485 31.1615 16.541L31.2705 16.9844C30.253 17.1879 29.1918 18.0819 28.465 18.9904C28.0652 19.4265 27.7745 19.8989 27.4547 20.255C27.1713 20.633 26.9023 20.931 26.6261 21.0691C26.4808 21.5342 26.1464 22.0212 26.0447 22.4936L25.8484 22.3628C25.1798 23.4894 24.9036 24.0926 24.4384 25.6335L24.373 25.2701C24.0823 26.1422 24.6783 26.5565 24.5038 27.3415L24.0968 27.5014C23.7552 29.0059 23.2392 30.554 23.4718 32.1021C23.4209 32.0731 23.3264 32.0222 23.3264 31.7678C23.2392 32.4946 23.0066 34.5878 23.4936 34.3189C23.1665 34.3407 23.4936 35.9107 23.7043 36.7174L23.4645 36.6084C23.8134 37.2771 23.8933 37.2916 24.0678 38.2437C24.0678 38.4763 23.9006 38.4618 23.9297 38.1565C23.8933 38.9269 24.2058 38.7234 24.1913 39.6465L24.0023 39.3267C24.0823 40.1044 24.1477 40.0317 24.3803 40.4387C24.5329 40.9112 24.5256 41.9069 24.3367 42.0523C24.4748 42.1395 24.7073 42.532 24.7146 42.9971C24.6419 43.0698 24.5692 42.9099 24.5329 42.8299C24.5692 44.1382 25.0926 44.6979 24.9981 45.6064C24.9254 45.6355 24.8963 45.7009 24.8818 45.7736C24.7292 44.756 24.6201 43.9347 24.6492 44.0074C24.4384 44.0365 24.5256 44.865 24.1332 44.2618C24.3948 44.9014 24.9181 45.9698 24.9327 46.7838C24.9181 46.8274 24.9036 46.8638 24.8745 46.9001L24.8382 46.8202C24.8382 47.0091 24.889 47.169 24.9472 47.3217C24.9472 47.5833 24.9472 47.7432 24.9763 47.9903C24.8091 48.1066 25.0053 48.9352 25.049 49.3422C25.2743 49.2768 25.3033 49.8147 25.4342 49.2986C25.4269 49.364 25.3978 49.2259 25.3542 48.957C25.3397 48.8989 25.3251 48.8262 25.3106 48.7826L25.3324 48.8044C25.2961 48.5355 25.2379 48.1866 25.1798 47.7941C25.3469 48.0994 25.485 48.4264 25.4124 48.8916C25.5941 49.0806 25.7685 49.2913 25.8557 49.4149C25.6013 50.0182 25.5287 51.1084 25.347 51.2756C25.6086 52.5039 25.6013 54.1755 26.0374 54.9605C26.0956 55.3167 25.9139 55.3675 25.8484 55.4984C25.8048 55.2948 25.8048 55.0477 25.7394 54.9387C25.8848 55.6437 25.7176 57.0319 26.0301 57.2209C25.8484 58.1076 25.7903 56.7049 25.7467 57.9332L25.6667 57.7588C25.4923 58.3475 25.4269 58.8853 25.4196 59.4086C25.3978 59.9319 25.4124 60.4334 25.4269 60.9495C25.456 61.4655 25.4342 61.9888 25.347 62.5412C25.2597 63.0936 25.1144 63.6823 24.7873 64.2928C24.8672 64.1184 24.9109 64.0384 24.969 64.0094C24.3367 65.9282 23.8497 68.0141 23.0938 69.9402C22.7886 72.2515 21.8437 74.3229 20.7462 76.3507C20.7317 76.4161 20.7098 76.4815 20.6953 76.547C21.7419 76.1399 22.8031 75.8783 23.9079 75.6602C23.9224 75.6602 23.9369 75.6602 23.9515 75.6602C24.2349 75.5585 24.5184 75.4495 24.8018 75.3404C25.2597 74.977 24.9472 75.057 24.9908 74.8607C25.187 74.7445 25.3906 74.6209 25.5868 74.5119L26.2482 74.6282V74.3374C26.3863 74.272 26.6625 74.1412 26.6625 74.2575C27.0768 73.8287 26.5244 74.2066 26.7352 73.9013C27.491 73.7487 28.4868 72.8402 28.8211 73.1309C28.9665 72.8329 28.1234 73.3272 28.763 72.8402C29.1627 73.1237 29.5407 72.3605 30.2384 72.2297C30.1512 72.5277 29.5334 72.7094 30.2239 72.5785C30.4129 72.0552 31.4377 72.0698 31.9174 71.75C31.8083 71.4665 32.9713 71.0886 33.7926 70.5798C33.7853 70.7034 35.4788 69.9257 36.3291 69.6277V69.6858C36.3437 69.3369 37.1941 68.9663 37.761 68.6029C37.8191 68.7773 37.7464 68.8936 37.463 69.1334L38.0226 68.8427C38.1098 68.6901 38.2625 68.552 38.6114 68.3339L38.575 68.6101C39.3164 68.2031 39.9487 67.5853 40.9735 67.2074C40.9372 67.062 40.4865 67.0547 40.4865 66.8585C40.6537 66.7713 40.8209 66.6768 40.988 66.5823C41.0026 66.655 40.988 66.7422 40.8572 66.8367C40.9372 66.7785 41.1188 66.5823 41.3151 66.5314L41.0098 66.9239C41.4823 66.764 41.1552 66.655 41.5113 66.4878C41.584 66.6332 41.8239 66.4515 41.8384 66.5896C41.7584 66.655 41.5041 66.6986 41.4023 66.8222C41.8021 66.6332 42.3254 66.4587 42.5362 66.4878C42.4562 66.4224 42.4271 66.2916 42.7033 66.1171C43.4301 65.6956 43.0522 66.1462 43.5174 65.979C43.6409 65.7755 44.1642 65.6156 44.0479 65.3903C44.2587 65.2668 44.3605 65.3467 44.4767 65.354C44.8038 65.0487 46.2138 64.2856 45.6542 64.3146L45.5524 64.3582C45.5524 64.3582 45.5888 64.3292 45.6106 64.3146C46.7081 63.377 48.2053 62.8828 49.3319 62.0179L49.3755 62.0906C50.0224 61.5382 50.9018 60.9858 51.2943 60.4989C51.4978 60.3535 51.8612 60.2735 51.8321 60.4189C52.3191 59.9901 52.3191 59.8738 53.1549 59.4304C52.7116 59.9319 53.4093 59.4014 52.6752 59.9101C53.4021 59.474 53.6274 59.4595 54.2015 58.7254C54.0853 59.0816 54.863 58.5437 55.1464 58.2457L54.5868 58.4928C54.9211 58.1876 55.2482 57.9695 55.5607 57.7224V58.0786C56.3384 57.6497 56.8472 57.0319 57.3269 56.4723C57.7848 55.8908 58.2208 55.3748 58.9041 55.1349C59.1076 54.6843 58.1191 55.6728 58.2645 55.2294C58.8822 54.7352 59.7399 54.4227 59.9143 54.241C60.7865 53.5578 60.365 53.2525 61.2008 52.4748C61.0264 52.5184 60.7429 52.4385 61.2444 51.748C61.7968 51.1883 62.2111 51.2974 61.9349 51.7262C61.8113 51.8715 61.7241 51.9224 61.7096 51.8933C61.5642 52.1114 61.368 52.3876 61.6587 52.2277V52.0823C61.993 51.857 62.7271 51.0357 62.6762 51.3264C62.9815 50.7959 62.7198 51.0284 62.3855 51.3264C63.1559 50.636 63.403 50.0908 64.1444 49.3277C63.999 49.4294 63.8101 49.473 63.9118 49.3495C64.9294 48.1793 64.1662 48.6881 64.7477 47.8232C65.2201 47.4307 64.9148 48.2011 65.4309 47.2781C65.8742 46.7984 65.7289 47.3144 65.6416 47.5688C66.0341 46.6675 66.7537 46.1297 67.0662 45.6645L66.8627 46.1442C66.9863 45.8608 67.1171 45.6427 67.2479 45.4174L66.9281 45.57C67.1098 45.3302 67.2479 45.1122 67.3133 45.1558C67.3569 44.8214 66.9136 45.1921 67.0589 44.5743C67.3497 44.2836 67.5386 43.4623 67.8366 43.455C67.168 44.5234 68.1346 43.455 67.6695 44.4217C67.7421 44.2254 67.8584 44.0001 68.0329 43.7457C68.0837 43.7167 68.0619 43.8111 68.0329 43.8911C68.7888 42.9026 68.0329 43.266 68.5634 42.1249L68.5925 42.1177ZM42.6016 32.0876C42.6234 31.8623 42.6597 31.6442 42.7106 31.448L42.8196 31.5861C42.7469 31.746 42.6742 31.9204 42.6016 32.0876Z" fill="#EE588B"/>
</svg>
