<svg width="91" height="91" viewBox="0 0 91 91" fill="none" xmlns="http://www.w3.org/2000/svg">
<path d="M70.0253 29.5197C69.6828 29.123 70.0434 30.4753 69.6647 30.1327C69.5475 29.3574 69.8721 28.4289 69.809 28.1764C69.6918 27.0586 69.0517 27.329 68.8173 26.2021C68.7362 26.3824 68.4657 26.6078 68.0691 25.8686C67.8347 25.1204 68.2313 24.7598 68.5108 25.1925C68.5919 25.3728 68.5829 25.4719 68.5379 25.481C68.6731 25.7063 68.8444 26.0128 68.8624 25.6612L68.7001 25.6072C68.7001 25.1835 68.2494 24.1557 68.5379 24.318C68.1773 23.8042 68.2404 24.1648 68.3576 24.6065C68.1232 23.5698 67.6904 23.128 67.2758 22.1274C67.2938 22.3167 67.2397 22.524 67.1586 22.3798C66.4824 20.9554 66.6087 21.911 65.9686 21.0726C65.7703 20.4686 66.4915 20.9644 65.7071 20.2072C65.3916 19.6122 65.8875 19.8826 66.1399 20.0269C65.3195 19.3958 65.031 18.4763 64.5983 18.0346C64.7516 18.1337 64.9228 18.2329 65.0761 18.3411C64.7966 18.1518 64.5893 17.9715 64.391 17.7822L64.445 18.1878C64.2377 17.9354 64.0394 17.7551 64.1115 17.674C63.7419 17.6019 64.0304 18.1518 63.3813 17.9444C63.1469 17.5658 62.2815 17.3314 62.3355 16.9708C63.3903 17.7912 62.4077 16.5832 63.3903 17.1872C63.192 17.079 62.9576 16.9348 62.7052 16.7184C62.6871 16.6553 62.7863 16.6823 62.8674 16.7184C62.3896 16.2226 62.1823 16.2496 61.984 16.2947C61.7766 16.3488 61.5693 16.3938 60.9472 16.1504C61.1816 16.0332 60.785 15.6907 60.5506 15.6546C61.0825 15.862 60.6768 16.0422 60.1719 16.0242C59.3786 15.6726 59.2434 15.88 58.8107 15.8169C58.973 15.862 59.1352 15.898 59.2975 15.9701C59.0992 16.1054 58.6845 16.0422 58.1165 16.0242C58.1075 15.9791 58.1346 15.9611 58.1886 15.9521C57.5846 15.9882 56.8634 15.5014 56.0701 15.8079C55.6284 15.7357 55.971 15.4473 55.5743 15.4383C54.6007 15.907 54.3573 15.4563 53.3837 16.0693C53.7803 16.1775 53.7893 16.0963 53.2124 16.6463C53.7082 16.3217 54.2491 16.0783 54.808 15.8259C54.4745 16.0693 54.159 16.3037 53.8615 16.5561C54.3483 16.3848 54.8531 16.0062 55.1867 16.0062C54.7179 16.3307 54.772 16.2767 55.0605 16.4119C54.6728 16.3217 54.3483 16.502 54.0327 16.6823C53.7262 16.8987 53.4287 17.1241 53.014 17.1872L52.7346 16.6012C51.4454 16.9798 50.9947 18.0706 49.7506 19.0352L50.1924 18.7648C50.2194 19.0983 49.4982 19.4589 49.2458 19.9187C49.1196 19.7384 48.8491 19.9187 48.5967 19.9998C48.7319 20.081 47.8394 20.9013 48.1099 21.28L47.4698 21.6857C46.6585 22.6953 47.1994 23.2182 46.5864 24.2279C46.5413 23.7951 46.1446 24.2098 46.388 23.4165C46.1807 23.7681 45.9914 24.0836 46.1176 24.1558C45.8832 24.309 45.8922 25.2916 45.5677 25.5531C45.5857 25.7424 45.766 25.8776 45.6037 26.2923C45.5496 26.3193 45.5046 26.2562 45.5046 26.2562C45.6037 26.3013 45.3964 26.9594 45.757 26.6799C44.6572 27.5814 44.7383 29.8983 43.954 30.7818C43.8278 31.6382 43.6835 32.6659 43.5663 33.4412C43.5122 33.3781 43.4582 33.4232 43.5032 33.2789C43.1426 34.3156 43.9991 34.0272 43.6114 35.1991C43.1877 35.7671 43.5032 34.532 43.3229 34.9016C42.6017 34.9737 43.2238 36.3801 42.746 37.1554L42.7279 36.948C42.4214 37.552 42.8542 38.5076 42.737 39.5263C42.737 39.5263 42.6739 39.4722 42.6288 39.5173C42.8812 40.0852 42.9713 41.0048 43.0345 41.8522C42.8542 40.8696 42.7099 39.8418 42.3854 38.751C41.9527 39.6165 42.2051 38.1921 41.5921 38.4986C41.4208 38.0659 41.3757 37.8946 41.4027 37.8405V37.9397C41.4027 37.9397 41.4027 37.8675 41.4027 37.8315C41.3937 37.3447 41.4027 36.8489 41.3667 36.3621C41.4478 35.9834 41.6461 36.7407 41.7724 36.6595C41.5019 35.6589 41.9076 36.1637 41.8625 35.4515C41.6822 35.6589 41.4208 35.2171 41.3216 34.6312L41.2946 35.5146C40.5103 34.2616 41.4208 34.1443 40.5914 32.9003L40.943 33.2609C40.5914 32.5938 39.9513 30.6736 39.1851 30.2048C39.2031 30.0516 39.3022 29.8262 39.4825 30.1057C38.8515 28.4199 37.364 26.707 37.0305 25.3367L37.2378 25.3818C37.0485 25.1023 36.7059 25.0031 36.6609 24.5614C36.733 24.5524 36.8682 24.6065 36.8051 24.4623C36.6789 24.327 36.147 23.8042 36.0208 23.3805L36.3634 23.6239C35.7323 21.9831 34.6866 21.4963 33.8572 20.3063C34.2809 20.0629 33.6859 18.8189 33.3884 18.1878L33.4605 18.1698C32.9287 17.2773 32.3968 16.6733 31.7657 15.9701C30.8913 14.9875 29.6382 14.663 28.5023 14.699C27.7991 14.3925 26.4649 14.4736 25.2659 15.2129C24.0128 15.9882 23.2736 17.1691 22.6786 18.0977C22.904 17.8362 22.9851 18.305 22.895 18.6566C22.6065 19.0803 22.7868 19.9908 22.3901 19.7925L22.4442 19.6302C21.9123 19.8466 21.7861 20.8382 21.6419 21.5414L22.1918 21.7668C21.0289 23.4706 21.8132 26.5988 21.0469 27.5454C21.1641 28.0052 21.119 28.5551 21.2633 29.0058L20.9567 28.9698C20.8576 30.2138 20.7945 30.8449 20.9297 32.3774L20.6953 32.0709C20.6953 32.9454 21.6148 33.1347 21.696 33.919L21.2542 34.1894C21.2993 34.9467 21.2813 35.713 21.3264 36.4702C21.3534 37.2275 21.4706 37.9847 21.8042 38.6879C21.732 38.6789 21.5968 38.6519 21.5337 38.4175C21.6148 39.1297 21.723 41.2031 22.3 40.8154C21.8943 40.9236 22.5794 42.357 22.9761 43.0872L22.6516 43.0421C23.2105 43.6101 23.2826 43.6101 23.6703 44.4845C23.6973 44.7099 23.49 44.746 23.4809 44.4305C23.544 45.1967 23.9317 44.9083 24.0399 45.8278L23.7514 45.5573C23.9497 46.3056 24.0399 46.2154 24.4005 46.54C24.6799 46.9547 24.8152 47.9463 24.5988 48.1537C24.7881 48.1987 25.1577 48.5052 25.2569 48.956C25.1848 49.0552 25.0586 48.9199 25.0045 48.8568C25.293 50.146 26.0592 50.4976 26.1764 51.4261C26.0953 51.4892 26.0682 51.5613 26.0773 51.6424C25.6445 50.7049 25.329 49.9386 25.3831 49.9927C25.1217 50.1009 25.4011 50.8942 24.7881 50.4344C25.2569 50.9753 26.1584 51.8228 26.3928 52.6161C26.3928 52.6612 26.3838 52.7062 26.3567 52.7513L26.2936 52.6882C26.3567 52.8685 26.4559 53.0037 26.5731 53.1299C26.6542 53.3823 26.6993 53.5446 26.8075 53.77C26.6452 53.9683 27.132 54.6895 27.3484 55.0501C27.6008 54.8698 27.8262 55.3656 27.7901 54.7977C27.8081 54.8698 27.718 54.7436 27.5647 54.5182C27.5287 54.4641 27.4836 54.4101 27.4475 54.383H27.4836C27.3484 54.1576 27.1771 53.8421 26.9878 53.4905C27.2763 53.7069 27.5467 53.9503 27.6188 54.4371C27.8983 54.5272 28.1958 54.6264 28.34 54.6895C28.2499 55.3837 28.5924 56.4655 28.4662 56.7269C28.8899 57.2137 29.3136 57.8357 29.7644 58.3676C30.2332 58.8815 30.702 59.3232 31.1617 59.4765C31.4322 59.7289 31.2699 59.9092 31.2789 60.0715C31.0986 59.9453 30.9724 59.7379 30.8372 59.6928C31.3781 60.1887 32.1984 61.3426 32.6131 61.2254C33.0368 62.0457 31.9911 61.0721 32.8475 61.9826L32.6402 61.9376C33.767 64.2634 36.0298 64.2094 37.4181 66.6434C37.3099 66.4811 37.2558 66.4 37.2739 66.3279C39.3113 68.7168 42.3493 70.1322 44.6211 72.2147C45.3062 72.7646 45.5226 72.5933 46.0725 72.7015V73.0801L47.0461 73.1793C48.2812 73.5489 48.6418 74.9372 50.3456 75.1536L50.2464 74.8651C50.7603 75.1355 51.9863 75.4781 51.797 75.6764C51.8691 75.6584 52.0585 75.5412 52.2297 75.7305L52.1847 75.8928L53.6271 76.1272C54.6277 76.623 53.2124 76.7402 54.7539 77.2901C55.3579 77.4163 56.5479 77.3442 56.3586 77.1639C56.1332 77.0827 55.7997 76.8664 55.8357 76.6951L56.3766 76.7762C56.3766 76.7762 56.4127 76.7222 56.4307 76.6951C56.4578 76.6951 56.4848 76.7131 56.5119 76.7222L56.575 76.4697C56.6741 76.3075 56.7372 76.1452 56.7012 75.9559L56.8274 75.442C57.2781 75.4691 57.6478 74.9913 57.8641 74.5586C58.414 73.4768 58.9549 72.395 59.4958 71.3132L59.5409 71.4123V71.196C59.6761 70.9526 59.7933 70.7092 59.9105 70.4657C59.9556 70.5198 59.9826 70.601 59.9285 70.7632C60.3973 70.3215 60.0187 70.2133 60.4785 69.8617C60.5416 69.8257 60.5506 69.8618 60.5416 69.9158L60.6768 69.3299C60.7128 69.4741 61.0103 69.384 60.785 69.6814C61.4881 68.8431 61.2267 67.9956 61.7135 67.7883L61.6955 67.8785C62.0651 66.8327 61.7496 67.2023 61.6143 66.9589C61.7135 66.7516 61.8127 66.5442 61.9118 66.3459L62.6421 66.1295L62.3987 65.8591C62.4708 65.7239 62.624 65.4624 62.7232 65.5706C62.7502 64.9666 62.5519 65.5977 62.4978 65.21C63.0838 64.6781 63.201 63.3259 63.7599 63.389C63.6337 63.0464 63.3001 63.9479 63.4534 63.1636C64.0664 63.1906 63.7329 62.2982 64.2287 61.7933C64.418 62.0998 64.0213 62.6137 64.5352 62.1089C64.2287 61.5409 65.1482 60.9549 65.2744 60.387C64.9138 60.2067 65.59 59.188 65.7973 58.2594C65.9055 58.3676 66.6357 56.6728 67.0594 55.8795L67.1135 55.9246C66.7889 55.6271 67.1676 54.7977 67.2848 54.1396C67.5011 54.2388 67.5552 54.383 67.5462 54.7616L67.7355 54.1667C67.6544 53.9864 67.6544 53.779 67.7355 53.3823L67.9699 53.6167C68.1953 52.8144 68.1232 51.9129 68.5919 50.9303C68.4207 50.8401 68.033 51.1466 67.8437 51.0024C67.8888 50.8221 67.9429 50.6418 67.9879 50.4615C68.0781 50.5066 68.1412 50.5877 68.1322 50.7409C68.1322 50.6418 68.1051 50.3804 68.2133 50.2091L68.3395 50.7049C68.5739 50.2631 68.2043 50.4074 68.3215 50.0378C68.5288 50.1009 68.5379 49.7944 68.6911 49.8935C68.6911 49.9927 68.5288 50.2 68.5739 50.3713C68.7182 49.9566 68.9616 49.4698 69.1689 49.3346C69.0427 49.3436 68.8894 49.2715 68.9345 48.947C69.0968 48.1266 69.25 48.7306 69.4574 48.2709C69.3492 48.0455 69.6197 47.5496 69.3041 47.4685C69.3582 47.2341 69.5115 47.2161 69.6106 47.135C69.5566 46.6842 69.9352 45.1426 69.5025 45.5573L69.4664 45.6655C69.4664 45.6655 69.4664 45.6204 69.4664 45.5934C69.3762 44.16 70.0704 42.7176 70.0434 41.3023H70.1515C70.0884 40.4729 70.2056 39.4452 69.9712 38.8412C69.9712 38.5978 70.1786 38.2642 70.3048 38.3724C70.2417 37.7323 70.1065 37.6602 70.2777 36.7316C70.4761 37.3717 70.44 36.5063 70.422 37.3898C70.5031 36.5514 70.6834 36.353 70.3318 35.4696C70.6203 35.758 70.6564 34.8115 70.5302 34.4238C70.4851 34.6221 70.431 34.8295 70.3769 35.0278C70.3228 34.5861 70.2868 34.1894 70.2777 33.7928L70.6564 33.9731C70.9449 32.1701 69.5205 30.9981 69.9803 29.5828L70.0253 29.5197ZM27.123 54.2388C27.123 54.2388 27.1591 54.2388 27.1681 54.2478C27.105 54.2478 27.0419 54.2478 26.9788 54.2207C26.8075 53.9954 26.8255 53.8782 26.8616 53.8151C26.9247 53.9323 27.0058 54.0585 27.123 54.2297V54.2388ZM60.4514 69.5192C60.4514 69.5192 60.3973 69.5552 60.3703 69.5643C60.4154 69.4651 60.4694 69.3659 60.5145 69.2668C60.4965 69.3479 60.4694 69.429 60.4424 69.5192H60.4514Z" fill="#EE588B"/>
</svg>
