<svg width="91" height="91" viewBox="0 0 91 91" fill="none" xmlns="http://www.w3.org/2000/svg">
<path d="M21.1707 42.7506C21.3952 43.1269 21.6395 43.4769 21.8111 44.1437C21.7583 44.1173 21.7385 44.2097 21.6659 44.0183C22.095 45.1341 22.7223 45.7481 23.2174 46.9233C22.7817 46.7318 23.3495 47.3525 23.1646 47.5307L23.5872 48.0853L23.5476 47.7882C23.8513 48.3098 24.3002 48.6531 24.5247 49.1285C24.4125 49.0295 24.3002 48.9238 24.188 48.8116C24.4059 49.1219 24.6436 49.4124 24.868 49.7161L24.5775 49.1417C25.0331 49.5643 24.7954 48.9106 25.1982 49.5973C25.0793 49.4851 25.5481 50.0727 25.6207 50.4094C25.865 50.5943 26.1159 50.7791 26.3404 51.1621C26.3536 51.3007 26.0697 51.2611 26.0763 51.3535C26.4196 51.4526 27.0138 52.3967 27.4232 52.5288C27.3043 52.4693 27.2053 52.5486 27.2119 52.5948L27.4958 52.6674C27.641 52.9117 27.6476 52.9579 27.5354 52.9909C28.0636 53.6314 27.5948 52.5882 28.1494 53.4135C28.09 53.3673 28.09 53.4135 27.9646 53.3078C28.572 54.0869 29.3313 54.6481 29.8991 55.3546C29.8991 55.7177 29.3114 54.8198 29.3709 55.1895C30.3018 56.1139 31.4572 56.9458 32.3089 57.8767L32.1637 57.6918C32.5334 57.573 32.7051 58.4841 33.2861 58.8076C33.1541 58.7152 33.0022 58.8076 33.0616 58.8076C33.6426 59.4547 34.3953 59.9829 35.4385 60.7884L35.2602 60.7421C35.5771 61.1515 36.2242 61.6863 36.6137 62.0758C36.7986 62.1154 37.023 62.3333 36.9636 62.1088C37.4258 62.8681 38.1058 63.3369 38.7661 63.7793C39.4197 64.2282 40.08 64.6244 40.5487 65.2516C40.4035 65.1393 40.1592 65.0469 40.2714 65.1393L41.341 65.859C41.3542 65.6741 41.2618 65.6807 41.1231 65.4232C41.308 65.4497 41.6315 65.6147 41.8956 65.7996C41.3674 65.5421 41.757 65.9977 41.9088 66.2155C41.9088 66.1561 42.0013 66.1627 42.0145 66.1099C42.404 66.7239 42.2852 65.925 42.9256 66.6051L42.8398 66.6447C43.1435 66.8098 43.4538 66.9154 43.7509 67.1333C43.7773 67.3644 43.401 67.0012 43.3019 67.1069C43.7443 67.3908 44.3451 67.3974 44.6422 67.8001C44.4309 67.7209 44.1669 67.5492 43.9556 67.4634C44.2725 67.919 44.3517 67.9058 44.6488 68.1434L44.6224 68.117C44.8535 68.3019 45.078 68.5 45.3157 68.6782L45.1506 68.5132C45.9495 68.4604 46.3324 69.1272 47.237 69.3187C46.3655 69.1272 47.0323 69.3913 46.8804 69.5299C47.0455 69.695 47.3096 69.9195 47.1973 69.9195C47.6463 69.9789 47.752 70.3618 48.3858 70.4345C48.3792 70.5005 48.7753 70.6524 48.6169 70.7514C49.1187 70.9627 48.5574 70.5929 48.6301 70.5401C49.046 70.6457 49.4488 70.9297 49.9176 71.2004C50.3797 71.4777 50.8881 71.7814 51.4955 71.887C52.4199 72.1445 52.717 72.0587 53.4696 72.2369C53.5555 72.2699 53.6413 72.303 53.7271 72.336C53.8394 72.4812 53.3508 72.4218 53.3574 72.4086C53.8064 72.6925 54.1959 72.7849 54.6779 72.8774C54.5656 72.8972 54.6449 72.9764 54.7637 73.0952C55.1467 73.2075 55.0872 72.9566 55.5494 73.2207C55.4438 73.2603 55.2985 73.3329 55.0938 73.3395C55.5494 73.4452 56.0314 73.4518 56.5133 73.5244C56.6058 73.6696 56.1832 73.6102 55.9984 73.6366C56.5398 73.7357 57.3849 73.9139 57.5895 73.7885L57.2726 73.6366C57.4641 73.6829 57.3321 73.8083 57.1802 73.8017C56.6916 73.8149 56.5464 73.564 56.5398 73.4914L56.8831 73.5442C56.6454 73.0886 55.5428 73.2471 54.8957 72.9764L55.1863 72.8377C56.8369 73.3791 58.5271 73.8215 60.2569 74.1252L61.9141 71.4644C61.9141 71.4644 61.9339 71.4248 61.9405 71.3984C62.165 71.6031 62.3433 71.9398 62.9243 71.0683L63.0431 70.2892L63.2742 70.1176L63.0365 70.7118C63.3072 70.4279 63.2808 70.1704 63.3006 69.8997C63.3997 69.8733 63.4921 69.794 63.5779 69.6686V68.8631C63.7232 68.8235 63.677 69.2658 63.9212 68.8169C63.9212 68.4405 63.5515 69.0348 63.677 68.4604C63.9411 68.1698 64.0071 68.3085 64.0533 67.8661C64.1523 67.8397 64.1655 67.9388 64.1325 68.1104C64.1853 67.7209 64.456 67.1531 64.3702 66.9088C64.6607 66.6117 64.7663 65.6807 65.0238 65.8128C64.9974 65.6741 65.037 65.1063 65.1361 64.7696C65.2615 65.4893 65.5718 63.535 65.8755 63.8123C65.7369 63.2709 66.2651 62.1353 66.3443 61.2835C66.3575 61.3364 66.3773 61.4354 66.3443 61.5014C66.5094 61.0591 66.6414 60.9534 66.7801 60.6761C66.549 60.5441 66.6943 59.8178 66.648 59.3953C67.0442 58.9067 66.8461 59.8178 67.1234 59.7056C66.9121 59.6792 67.196 58.6822 66.9715 58.8209C67.2422 58.4379 67.1432 58.4709 67.4073 58.3059C67.1168 58.1474 67.4601 57.8899 67.3545 57.4872C67.6714 56.9062 67.6912 57.4013 67.7704 56.6949C67.9487 56.3912 67.9025 57.0316 67.9025 57.0316C68.0874 56.3383 67.7572 56.6487 67.6582 56.4638C67.7903 55.6187 67.9223 56.1205 68.1138 55.863C68.1732 55.3282 68.0477 54.8792 68.1468 54.4897C68.193 54.4699 68.226 54.3972 68.2524 54.4963C68.1996 53.9087 68.5891 52.8523 68.4901 52.159C68.5231 52.1128 68.5495 52.093 68.5693 52.0864C68.4307 52.1656 68.3052 52.159 68.2194 52.1194C68.2854 51.8025 68.1864 51.5054 68.3647 51.4196C68.3251 51.611 68.3845 51.6374 68.4175 51.7431V51.3997C68.6882 51.1423 68.4109 51.8685 68.5693 51.8949C68.6222 51.2347 68.5693 50.449 68.7212 49.967C68.9589 49.901 68.5825 51.1357 68.8995 50.5084L68.675 51.2611C69.1305 50.7395 68.5627 51.7233 69.0381 51.2545C69.2824 50.2575 69.1437 50.1057 69.3682 49.1087C69.2824 48.8578 69.1768 49.1549 69.0843 48.904C69.0843 47.4383 69.8304 47.8609 69.6785 46.7583C69.5663 46.4612 69.3022 46.3159 69.5531 45.5896L69.771 45.8801C69.9228 44.8964 69.4937 45.2727 69.771 44.2626C69.8502 44.4606 69.771 45.0482 69.8172 44.903C70.0879 44.256 69.7248 44.4144 69.7842 43.8994L70.0219 43.8202C70.1143 42.7638 70.0417 41.5886 70.1011 40.4266C70.1605 40.4926 70.2133 40.7039 70.3058 40.4332C70.3058 39.6937 70.352 38.908 70.4378 38.1289C70.5104 37.3498 70.6029 36.5774 70.6953 35.8643L70.517 35.3163C70.517 35.1909 70.6095 35.0852 70.6425 35.2239C70.7283 34.6693 70.5236 35.1909 70.451 34.9268C70.4378 34.6098 70.5633 34.5108 70.6227 34.7089C70.4774 33.7185 70.2529 31.9095 70.352 30.8531L70.4246 31.0511C70.4312 30.2258 69.9492 30.173 70.0219 29.4071L70.0747 29.5458C69.9228 27.7631 69.2164 25.9145 68.8862 24.5478C68.7146 24.4818 68.5363 24.0658 68.3448 23.6763C68.1402 23.2933 67.9289 22.9302 67.7242 22.9962C67.5196 22.5076 67.4469 22.3294 67.3545 22.1049C67.2554 21.8804 67.1168 21.6097 66.648 21.0221C66.3773 20.725 66.0604 20.7646 65.6709 20.4807L65.7963 20.3222C65.585 20.2232 65.3672 20.144 65.1493 20.0647L65.0106 19.6554L64.5947 19.4375C64.7399 19.5498 64.872 19.728 64.8126 19.761C64.1919 19.4177 63.3732 18.7509 63.3864 18.6518C62.8384 18.4472 62.264 18.3151 61.6896 18.2227C61.7292 18.1765 61.8679 18.1831 62.0264 18.1963C61.4784 18.1236 62.0726 17.9388 61.2737 17.9388C61.3793 18.0048 61.1879 18.0444 61.1614 18.084C60.7719 17.8595 59.7683 17.7869 59.0487 17.9058L59.1807 17.7539C57.8338 17.8067 56.4275 18.3613 55.1995 19.1074C55.6881 18.9027 55.6946 19.18 55.3513 19.4045L55.1004 19.3055C54.9486 19.563 55.5032 19.1404 55.1334 19.5762C54.6845 19.8403 54.6977 19.5696 54.9222 19.3385C54.7505 19.4771 54.5854 19.6158 54.4336 19.7676C54.3676 19.7412 54.4666 19.6224 54.4534 19.53C54.3147 19.7874 53.4102 20.0581 53.2914 20.5071L53.2188 20.4873C52.1888 21.4975 51.8652 22.0851 51.2446 23.0622C51.3833 23.1745 51.1258 23.5442 51.0994 23.9073C50.657 24.6072 50.1486 25.3995 49.8383 26.3502C49.7063 27.0435 49.9241 26.5945 49.9307 26.9246C49.7459 26.9246 49.495 27.8754 49.5148 27.3472C49.2309 28.496 49.1517 28.8261 49.0196 30.2985C49.1187 30.1532 49.1781 29.9816 49.2177 30.0806C49.1979 30.3447 49.0394 30.6682 48.9668 30.6154V30.5428C48.9338 32.2066 47.95 34.2467 48.1877 35.5936L48.1745 35.521L48.2471 36.8877C48.1745 37.5083 48.1481 36.5047 48.0094 36.9603C48.1151 37.8318 48.0359 38.4788 47.9896 39.1061C47.1379 37.2904 46.0485 35.5408 44.6884 34.0552C44.3055 33.6723 44.0876 33.6789 43.8697 33.6393C43.6519 33.5997 43.4406 33.5138 43.0114 32.9856L43.4472 33.0649C41.6513 31.8698 39.8753 30.4437 37.8484 29.7901C37.9804 29.7901 38.0134 29.7373 38.1983 29.8297C37.8682 29.4798 36.6797 29.1893 36.6335 29.3015C36.3298 29.1827 36.6005 29.1695 36.4354 29.0374C36.0393 28.8063 35.313 28.8657 35.1282 28.6545C35.0951 28.6215 35.2602 28.6413 35.346 28.6545C35.0489 28.6347 34.0322 28.2781 34.2632 28.529C33.5106 28.2583 32.7645 28.2979 32.1439 28.1197C31.7147 28.2649 30.7706 27.9282 30.6319 28.2253C30.6649 28.0735 30.3084 28.014 29.8726 28.0338C29.4435 28.0537 28.9417 28.1659 28.704 28.2847C28.8625 28.1659 28.2419 28.2715 28.4201 28.1131C27.8259 28.2385 27.3109 28.4696 27.4628 28.5818C26.8818 28.5686 26.3866 28.8922 25.9706 29.1629C25.5679 29.46 25.2378 29.7241 24.8482 29.7307C23.5079 30.9587 22.6166 32.3518 22.0422 33.7779C21.7583 33.5799 22.8345 32.2594 22.5638 32.1603C22.3723 32.4905 22.2403 32.8008 22.128 33.0979C22.0026 33.3884 21.9168 33.6723 21.8375 33.9496C21.7517 34.2269 21.6593 34.5042 21.5866 34.8013C21.4942 35.0918 21.4018 35.4021 21.2895 35.7455C21.1575 36.0954 21.2169 35.5078 21.2037 35.3691C20.9066 36.8084 20.6029 38.1619 20.7811 39.4692C20.7547 39.4692 20.7151 39.324 20.6953 39.1919C20.7019 39.4494 20.6689 39.7927 20.801 39.7597L20.7547 39.5088C20.9396 39.1061 21.1905 40.4992 21.3291 40.519C20.8934 40.136 21.382 41.7734 20.8075 41.166C20.8538 41.3311 20.966 41.5292 21.0452 41.4763C21.065 41.7272 21.0254 41.8131 20.8802 41.582C21.1245 42.4799 21.2037 42.1168 21.4018 42.9091C21.3358 42.9223 21.2697 42.7704 21.1773 42.711L21.1707 42.7506Z" fill="#F276A0"/>
</svg>
