<svg width="42" height="26" viewBox="0 0 42 26" fill="none" xmlns="http://www.w3.org/2000/svg">
<path d="M26.0568 26C23.8999 26 21.7092 25.4468 19.4452 24.3379C15.9988 22.6491 12.8096 19.8773 9.99601 17.431C8.37626 16.0225 6.39151 15.557 4.09699 16.0467C2.32646 16.4247 1.02637 17.2549 1.01401 17.2633C0.752019 17.4326 0.408459 17.3934 0.19013 17.1698C-0.0282001 16.9462 -0.0628033 16.5983 0.107741 16.3354C1.49022 14.2003 4.31368 11.5879 7.72044 11.2533C10.3651 10.9938 12.9052 12.1043 15.2705 14.5557C18.2299 17.6229 20.9866 18.8319 22.7778 19.3066C24.7106 19.8189 25.9679 19.6087 25.9802 19.6062C26 19.6028 26.0231 19.5995 26.0428 19.5978C29.1225 19.35 30.734 16.6892 30.734 14.1894C30.734 11.5695 28.6298 9.43851 26.0428 9.43851C23.9666 9.43851 22.164 10.7877 21.556 12.796C21.0822 14.3238 21.7916 15.1932 22.4705 15.6546C23.5481 16.3872 24.5821 16.1869 24.6257 16.1786C24.6389 16.1752 24.6472 16.1744 24.6604 16.1719C25.5139 16.0384 25.8179 15.5278 25.8179 15.0939C25.8179 14.504 25.3442 14.0242 24.7617 14.0242C24.3975 14.0242 24.1026 13.7255 24.1026 13.3567C24.1026 12.9879 24.3975 12.6892 24.7617 12.6892C26.0708 12.6892 27.1361 13.7681 27.1361 15.0939C27.1361 16.1068 26.4366 17.2382 24.8754 17.4885C24.6554 17.5311 23.2037 17.7605 21.7356 16.7626C20.2707 15.7672 19.7459 14.1769 20.2971 12.4005C20.6645 11.1857 21.425 10.0902 22.4367 9.32087C23.483 8.52487 24.7304 8.10352 26.0428 8.10352C29.3565 8.10352 32.0522 10.8336 32.0522 14.1894C32.0522 15.8498 31.4928 17.4443 30.4762 18.6775C29.3993 19.9841 27.8735 20.7818 26.1763 20.9262C25.6408 21.0129 20.3086 21.6879 14.3272 15.4885C12.2543 13.3409 10.0735 12.3622 7.84732 12.5816C5.9804 12.7652 4.30297 13.7614 3.01358 14.947C3.25746 14.8753 3.51368 14.8085 3.78062 14.7501C6.47638 14.1627 8.92249 14.7393 10.8545 16.418C16.4577 21.2883 22.8074 26.8085 30.4465 23.8022C35.6246 21.7647 36.0547 15.9833 35.7845 13.9274C35.7367 13.562 35.9896 13.2266 36.3505 13.1773C36.7121 13.1281 37.0425 13.3851 37.0911 13.7506C37.2749 15.1431 37.1628 17.4068 36.2977 19.5836C35.2662 22.1802 33.4084 24.0692 30.9244 25.0463C29.3095 25.6812 27.6931 26 26.0568 26Z" fill="#FFFCF1"/>
<path d="M26.1989 9.43759C25.5925 9.43759 24.6451 9.30743 23.691 8.65912C22.2261 7.66371 21.7013 6.0734 22.2525 4.29702C22.6199 3.08217 23.3804 1.98664 24.3921 1.21735C25.4385 0.420524 26.685 0 27.9974 0C31.3111 0 34.0077 2.73007 34.0077 6.08675C34.0077 6.35625 33.9904 6.62826 33.955 6.89359C33.9072 7.25904 33.576 7.51603 33.2151 7.46764C32.8542 7.41924 32.6005 7.08382 32.6483 6.71837C32.6755 6.51061 32.6895 6.29785 32.6895 6.08675C32.6895 3.46682 30.5844 1.335 27.9974 1.335C25.9212 1.335 24.1186 2.68418 23.5106 4.69251C23.0368 6.22025 23.7462 7.08967 24.4251 7.55107C25.5027 8.28365 26.5367 8.0834 26.5804 8.07423C26.5935 8.07089 26.6018 8.07005 26.615 8.06755C27.4685 7.93405 27.7725 7.42341 27.7725 6.98954C27.7725 6.39964 27.2988 5.91987 26.7163 5.91987C26.3521 5.91987 26.0572 5.62117 26.0572 5.25238C26.0572 4.88358 26.3521 4.58488 26.7163 4.58488C28.0255 4.58488 29.0907 5.66372 29.0907 6.98954C29.0907 8.00247 28.3913 9.13388 26.8308 9.38419C26.7542 9.40004 26.526 9.43759 26.1989 9.43759Z" fill="#FFFCF1"/>
<path d="M37.838 14.8575C37.5109 14.8575 37.2827 14.82 37.2061 14.8049C35.6448 14.5546 34.9453 13.4224 34.9453 12.4095C34.9453 11.0836 36.0106 10.0048 37.3206 10.0048C37.6848 10.0048 37.9797 10.3035 37.9797 10.6723C37.9797 11.0411 37.6848 11.3398 37.3206 11.3398C36.7381 11.3398 36.2635 11.8196 36.2635 12.4095C36.2635 12.8425 36.5676 13.354 37.4211 13.4875C37.4343 13.49 37.4483 13.4925 37.4615 13.495C37.4994 13.5025 38.5342 13.7027 39.6118 12.9702C40.2899 12.5088 41.0001 11.6402 40.5272 10.1166C39.9183 8.1041 38.1156 6.75492 36.0394 6.75492C33.4524 6.75492 31.3474 8.88591 31.3474 11.5058C31.3474 11.8746 31.0525 12.1733 30.6883 12.1733C30.3242 12.1733 30.0292 11.8746 30.0292 11.5058C30.0292 8.14999 32.725 5.41992 36.0394 5.41992C37.3519 5.41992 38.5984 5.84045 39.6456 6.63727C40.6573 7.40656 41.4178 8.5021 41.7869 9.72195C42.3364 11.4942 41.8116 13.0845 40.3467 14.0799C39.3918 14.7274 38.4452 14.8575 37.838 14.8575Z" fill="#FFFCF1"/>
<path d="M0.657995 17.3694C0.561601 17.3694 0.463558 17.3477 0.371283 17.3027C0.0442007 17.1416 -0.0925642 16.7428 0.0656217 16.4115C0.193324 16.1437 3.25982 9.84252 8.33249 8.8613C12.1421 8.12538 14.332 9.46122 16.6513 10.8763C17.9233 11.6523 19.2383 12.4549 20.9453 13.0115C21.2922 13.1241 21.4825 13.5004 21.3713 13.8517C21.2601 14.203 20.8885 14.3957 20.5416 14.2831C18.6879 13.6798 17.2445 12.7979 15.9707 12.0202C13.6927 10.6302 11.8941 9.53214 8.57965 10.1729C4.16033 11.0273 1.28003 16.9347 1.25119 16.9939C1.1375 17.2309 0.901865 17.3694 0.657995 17.3694Z" fill="#FFFCF1"/>
</svg>
